<svg width="351" height="289" viewBox="0 0 351 289" fill="none" xmlns="http://www.w3.org/2000/svg">
<rect x="0.5" y="0.5" width="59" height="39" fill="#DDDDDD" stroke="#9C9C9C"/>
<rect x="59.5" y="0.5" width="97" height="39" fill="#DDDDDD" stroke="#9C9C9C"/>
<rect x="156.5" y="0.5" width="97" height="39" fill="#DDDDDD" stroke="#9C9C9C"/>
<rect x="253.5" y="0.5" width="97" height="39" fill="#DDDDDD" stroke="#9C9C9C"/>
<path d="M19.632 15.604V16.864H26.604V15.604H19.632ZM18.492 20.332V21.616H28.536V20.332H18.492ZM22.656 21.232V26.08H24.264V21.232H22.656ZM25.788 15.604V16.588C25.788 17.74 25.788 19.06 25.356 20.92L26.928 21.1C27.36 19.132 27.36 17.788 27.36 16.588V15.604H25.788ZM29.5191 20.644V21.904H39.5751V20.644H29.5191ZM33.8751 21.316V23.656H35.4831V21.316H33.8751ZM30.6831 24.604V25.876H38.4711V24.604H30.6831ZM30.6831 22.816V25.144H32.2671V22.816H30.6831ZM30.8031 15.304V19.876H38.2911V15.304H36.7071V16.444H32.3751V15.304H30.8031ZM32.3751 17.644H36.7071V18.628H32.3751V17.644Z" fill="#333333"/>
<path d="M75.668 15.28V15.796C75.668 17.104 74.408 18.556 71.852 18.892L72.476 20.176C75.392 19.744 77.072 17.932 77.072 15.796V15.28H75.668ZM75.968 15.28V15.796C75.968 17.932 77.648 19.744 80.564 20.176L81.176 18.892C78.632 18.556 77.36 17.092 77.36 15.796V15.28H75.968ZM75.68 22V26.068H77.264V22H75.68ZM71.492 20.992V22.288H81.536V20.992H71.492ZM85.2191 15.916V16.6C85.2191 17.908 84.4151 19.252 82.5551 19.792L83.3591 21.04C85.4951 20.392 86.5271 18.592 86.5271 16.6V15.916H85.2191ZM85.5431 15.916V16.6C85.5431 18.52 86.5751 20.236 88.6751 20.848L89.4551 19.612C87.6551 19.096 86.8511 17.836 86.8511 16.6V15.916H85.5431ZM82.9871 15.556V16.816H89.0351V15.556H82.9871ZM90.1511 14.956V20.98H91.7591V14.956H90.1511ZM84.3671 21.46V25.948H91.7591V21.46H90.1751V22.468H85.9391V21.46H84.3671ZM85.9391 23.704H90.1751V24.676H85.9391V23.704ZM93.7621 20.776C93.7621 20.408 93.8621 20.152 94.0621 20.008C94.2621 19.856 94.5061 19.78 94.7941 19.78C95.0741 19.78 95.3141 19.856 95.5141 20.008C95.7141 20.152 95.8141 20.408 95.8141 20.776C95.8141 21.128 95.7141 21.384 95.5141 21.544C95.3141 21.696 95.0741 21.772 94.7941 21.772C94.5061 21.772 94.2621 21.696 94.0621 21.544C93.8621 21.384 93.7621 21.128 93.7621 20.776ZM104.6 14.944V26.092H106.208V14.944H104.6ZM100.22 15.724C98.54 15.724 97.304 17.26 97.304 19.684C97.304 22.132 98.54 23.668 100.22 23.668C101.9 23.668 103.136 22.132 103.136 19.684C103.136 17.26 101.9 15.724 100.22 15.724ZM100.22 17.176C101.048 17.176 101.6 18.052 101.6 19.684C101.6 21.34 101.048 22.228 100.22 22.228C99.392 22.228 98.828 21.34 98.828 19.684C98.828 18.052 99.392 17.176 100.22 17.176ZM110.275 18.676V20.716H111.871V18.676H110.275ZM114.187 18.676V20.716H115.771V18.676H114.187ZM108.019 20.224V21.484H118.063V20.224H108.019ZM113.023 22.048C110.611 22.048 109.159 22.768 109.159 24.052C109.159 25.348 110.611 26.068 113.023 26.068C115.423 26.068 116.875 25.348 116.875 24.052C116.875 22.768 115.423 22.048 113.023 22.048ZM113.023 23.248C114.511 23.248 115.267 23.5 115.267 24.052C115.267 24.616 114.511 24.868 113.023 24.868C111.535 24.868 110.779 24.616 110.779 24.052C110.779 23.5 111.535 23.248 113.023 23.248ZM113.047 15.112C110.587 15.112 109.027 15.928 109.027 17.26C109.027 18.58 110.587 19.372 113.047 19.372C115.495 19.372 117.067 18.58 117.067 17.26C117.067 15.928 115.495 15.112 113.047 15.112ZM113.047 16.336C114.571 16.336 115.423 16.636 115.423 17.26C115.423 17.872 114.571 18.172 113.047 18.172C111.523 18.172 110.671 17.872 110.671 17.26C110.671 16.636 111.523 16.336 113.047 16.336ZM123.411 15.388V19.324H130.959V15.388H123.411ZM129.387 16.636V18.076H124.971V16.636H129.387ZM122.175 20.368V21.628H132.219V20.368H122.175ZM126.387 19.036V20.728H127.983V19.036H126.387ZM123.291 22.432V23.692H129.411V26.068H131.007V22.432H123.291ZM135.782 16.06V16.768C135.782 18.16 134.99 19.624 133.154 20.224L133.958 21.484C136.094 20.788 137.078 18.856 137.078 16.768V16.06H135.782ZM136.118 16.06V16.768C136.118 18.736 137.066 20.584 139.13 21.268L139.91 20.02C138.158 19.432 137.402 18.064 137.402 16.768V16.06H136.118ZM139.262 17.608V18.904H141.374V17.608H139.262ZM133.586 15.568V16.828H139.562V15.568H133.586ZM134.942 22.072V23.344H140.918V26.068H142.514V22.072H134.942ZM140.918 14.956V21.568H142.514V14.956H140.918Z" fill="#333333"/>
<path d="M185.668 15.28V15.796C185.668 17.104 184.408 18.556 181.852 18.892L182.476 20.176C185.392 19.744 187.072 17.932 187.072 15.796V15.28H185.668ZM185.968 15.28V15.796C185.968 17.932 187.648 19.744 190.564 20.176L191.176 18.892C188.632 18.556 187.36 17.092 187.36 15.796V15.28H185.968ZM185.68 22V26.068H187.264V22H185.68ZM181.492 20.992V22.288H191.536V20.992H181.492ZM195.219 15.916V16.6C195.219 17.908 194.415 19.252 192.555 19.792L193.359 21.04C195.495 20.392 196.527 18.592 196.527 16.6V15.916H195.219ZM195.543 15.916V16.6C195.543 18.52 196.575 20.236 198.675 20.848L199.455 19.612C197.655 19.096 196.851 17.836 196.851 16.6V15.916H195.543ZM192.987 15.556V16.816H199.035V15.556H192.987ZM200.151 14.956V20.98H201.759V14.956H200.151ZM194.367 21.46V25.948H201.759V21.46H200.175V22.468H195.939V21.46H194.367ZM195.939 23.704H200.175V24.676H195.939V23.704ZM213.827 14.956V22H215.423V14.956H213.827ZM214.979 17.788V19.096H216.899V17.788H214.979ZM211.811 22.12C209.519 22.12 208.079 22.852 208.079 24.1C208.079 25.336 209.519 26.068 211.811 26.068C214.103 26.068 215.543 25.336 215.543 24.1C215.543 22.852 214.103 22.12 211.811 22.12ZM211.811 23.32C213.215 23.32 213.959 23.572 213.959 24.1C213.959 24.628 213.215 24.88 211.811 24.88C210.407 24.88 209.663 24.628 209.663 24.1C209.663 23.572 210.407 23.32 211.811 23.32ZM206.675 16.012V17.248H213.215V16.012H206.675ZM209.951 17.62C208.331 17.62 207.215 18.424 207.215 19.612C207.215 20.812 208.331 21.604 209.951 21.604C211.559 21.604 212.675 20.812 212.675 19.612C212.675 18.424 211.559 17.62 209.951 17.62ZM209.951 18.784C210.659 18.784 211.151 19.072 211.151 19.612C211.151 20.152 210.659 20.44 209.951 20.44C209.231 20.44 208.751 20.152 208.751 19.612C208.751 19.072 209.231 18.784 209.951 18.784ZM209.147 14.884V16.672H210.743V14.884H209.147ZM218.95 15.388V19.324H226.498V15.388H218.95ZM224.926 16.636V18.076H220.51V16.636H224.926ZM217.714 20.368V21.628H227.758V20.368H217.714ZM221.926 19.036V20.728H223.522V19.036H221.926ZM218.83 22.432V23.692H224.95V26.068H226.546V22.432H218.83Z" fill="#333333"/>
<path d="M267.492 23.488V24.784H277.548V23.488H267.492ZM271.704 21.112V23.8H273.3V21.112H271.704ZM268.548 15.664V21.448H276.456V15.664H274.872V17.368H270.132V15.664H268.548ZM270.132 18.616H274.872V20.176H270.132V18.616ZM280.787 21.976V26.068H282.419V21.976H280.787ZM284.627 21.976V26.068H286.259V21.976H284.627ZM278.519 21.136V22.42H288.587V21.136H278.519ZM283.523 15.328C281.159 15.328 279.515 16.3 279.515 17.824C279.515 19.324 281.159 20.296 283.523 20.296C285.899 20.296 287.543 19.324 287.543 17.824C287.543 16.3 285.899 15.328 283.523 15.328ZM283.523 16.6C284.987 16.6 285.899 17.032 285.899 17.824C285.899 18.604 284.987 19.036 283.523 19.036C282.071 19.036 281.147 18.604 281.147 17.824C281.147 17.032 282.071 16.6 283.523 16.6ZM289.762 20.776C289.762 20.408 289.862 20.152 290.062 20.008C290.262 19.856 290.506 19.78 290.794 19.78C291.074 19.78 291.314 19.856 291.514 20.008C291.714 20.152 291.814 20.408 291.814 20.776C291.814 21.128 291.714 21.384 291.514 21.544C291.314 21.696 291.074 21.772 290.794 21.772C290.506 21.772 290.262 21.696 290.062 21.544C289.862 21.384 289.762 21.128 289.762 20.776ZM300.6 14.944V26.092H302.208V14.944H300.6ZM296.22 15.724C294.54 15.724 293.304 17.26 293.304 19.684C293.304 22.132 294.54 23.668 296.22 23.668C297.9 23.668 299.136 22.132 299.136 19.684C299.136 17.26 297.9 15.724 296.22 15.724ZM296.22 17.176C297.048 17.176 297.6 18.052 297.6 19.684C297.6 21.34 297.048 22.228 296.22 22.228C295.392 22.228 294.828 21.34 294.828 19.684C294.828 18.052 295.392 17.176 296.22 17.176ZM306.275 18.676V20.716H307.871V18.676H306.275ZM310.187 18.676V20.716H311.771V18.676H310.187ZM304.019 20.224V21.484H314.063V20.224H304.019ZM309.023 22.048C306.611 22.048 305.159 22.768 305.159 24.052C305.159 25.348 306.611 26.068 309.023 26.068C311.423 26.068 312.875 25.348 312.875 24.052C312.875 22.768 311.423 22.048 309.023 22.048ZM309.023 23.248C310.511 23.248 311.267 23.5 311.267 24.052C311.267 24.616 310.511 24.868 309.023 24.868C307.535 24.868 306.779 24.616 306.779 24.052C306.779 23.5 307.535 23.248 309.023 23.248ZM309.047 15.112C306.587 15.112 305.027 15.928 305.027 17.26C305.027 18.58 306.587 19.372 309.047 19.372C311.495 19.372 313.067 18.58 313.067 17.26C313.067 15.928 311.495 15.112 309.047 15.112ZM309.047 16.336C310.571 16.336 311.423 16.636 311.423 17.26C311.423 17.872 310.571 18.172 309.047 18.172C307.523 18.172 306.671 17.872 306.671 17.26C306.671 16.636 307.523 16.336 309.047 16.336ZM322.714 14.956V26.068H324.322V14.956H322.714ZM319.438 16.108V16.396C319.438 19.372 318.286 21.388 315.094 22.924L315.922 24.196C319.87 22.288 321.022 19.504 321.022 16.108H319.438ZM315.682 16.108V17.368H320.194V16.108H315.682ZM333.237 14.956V22.912H334.845V14.956H333.237ZM334.389 18.052V19.36H336.321V18.052H334.389ZM330.141 15.784V16.576C330.141 18.34 328.737 19.828 326.013 20.572L326.685 21.844C329.997 20.884 331.845 18.808 331.845 15.784H330.141ZM326.493 15.784V17.068H331.005V15.784H326.493ZM327.657 24.604V25.876H335.217V24.604H327.657ZM327.657 22.108V25.168H329.265V22.108H327.657Z" fill="#333333"/>
<rect x="0.5" y="39.5" width="59" height="249" stroke="#9C9C9C"/>
<rect x="253.5" y="39.5" width="97" height="77" stroke="#9C9C9C"/>
<rect x="59.5" y="39.5" width="97" height="77" stroke="#9C9C9C"/>
<rect x="156.5" y="39.5" width="97" height="77" stroke="#9C9C9C"/>
<path d="M19.5974 143.644V144.472H22.3334V143.644H19.5974ZM16.7534 141.748V143.08C16.7534 144.736 15.6614 146.272 14.0534 146.872L14.5694 147.664C16.3814 146.932 17.5574 145.18 17.5574 143.08V141.748H16.7534ZM16.9454 141.748V143.116C16.9454 145.048 18.1094 146.728 19.8374 147.4L20.3774 146.632C18.8054 146.056 17.7494 144.628 17.7494 143.116V141.748H16.9454ZM21.9614 141.1V149.212H22.9574V141.1H21.9614ZM15.9854 150.88V151.696H23.2214V150.88H15.9854ZM15.9854 148.312V151.264H16.9814V148.312H15.9854ZM25.5365 146.272V147.1H26.2325C27.9725 147.1 29.0045 147.052 30.2525 146.812L30.1565 145.996C28.9445 146.236 27.9365 146.272 26.2325 146.272H25.5365ZM25.5365 141.88V146.716H26.4965V142.696H29.7365V141.88H25.5365ZM26.1965 144.04V144.82H29.6045V144.04H26.1965ZM33.2645 141.088V147.664H34.2125V141.088H33.2645ZM31.5125 143.92V144.736H33.5645V143.92H31.5125ZM30.8765 141.292V147.604H31.8125V141.292H30.8765ZM26.9405 148.24V149.056H33.2285V151.936H34.2125V148.24H26.9405ZM38.8795 142.192V143.068C38.8795 144.604 37.7635 146.044 36.1435 146.62L36.6595 147.412C38.4715 146.74 39.6955 145.048 39.6955 143.068V142.192H38.8795ZM39.0715 142.192V143.068C39.0715 144.88 40.2355 146.512 41.9995 147.16L42.5035 146.368C40.9315 145.816 39.8755 144.46 39.8755 143.068V142.192H39.0715ZM41.9155 143.908V144.736H44.3275V143.908H41.9155ZM36.4555 141.832V142.636H42.2515V141.832H36.4555ZM37.7995 148.168V148.984H44.0395V151.936H45.0355V148.168H37.7995ZM44.0395 141.088V147.58H45.0355V141.088H44.0395ZM19.4534 162.76V163.576H22.4774V162.76H19.4534ZM16.8374 160.024V161.956C16.8374 163.972 15.6134 166.06 14.0174 166.852L14.6534 167.644C16.3694 166.72 17.6534 164.392 17.6534 161.956V160.024H16.8374ZM17.0294 160.024V161.956C17.0294 164.332 18.2894 166.564 20.0414 167.452L20.6294 166.648C19.0574 165.904 17.8334 163.936 17.8334 161.956V160.024H17.0294ZM21.9854 159.076V169.948H22.9694V159.076H21.9854ZM32.9525 159.076V169.948H33.9485V159.076H32.9525ZM25.6925 160V167.332H30.8045V160H29.8085V162.868H26.6765V160H25.6925ZM26.6765 163.66H29.8085V166.516H26.6765V163.66ZM40.4635 159.832V160.66C40.4635 162.508 38.4235 164.164 36.5155 164.524L36.9595 165.352C39.1315 164.86 41.3275 163.024 41.3275 160.66V159.832H40.4635ZM40.6435 159.832V160.66C40.6435 163.036 42.8515 164.86 45.0115 165.352L45.4555 164.524C43.5595 164.164 41.5075 162.52 41.5075 160.66V159.832H40.6435ZM36.1195 167.656V168.472H45.9475V167.656H36.1195ZM27.4329 177.076V187.948H28.4289V177.076H27.4329ZM22.7049 177.916C21.1089 177.916 19.9569 179.392 19.9569 181.696C19.9569 184.012 21.1089 185.488 22.7049 185.488C24.3129 185.488 25.4649 184.012 25.4649 181.696C25.4649 179.392 24.3129 177.916 22.7049 177.916ZM22.7049 178.816C23.7729 178.816 24.5049 179.944 24.5049 181.696C24.5049 183.46 23.7729 184.612 22.7049 184.612C21.6489 184.612 20.9049 183.46 20.9049 181.696C20.9049 179.944 21.6489 178.816 22.7049 178.816ZM33.012 180.76V182.812H33.996V180.76H33.012ZM36.996 180.76V182.812H37.98V180.76H36.996ZM30.588 182.452V183.256H40.392V182.452H30.588ZM35.484 184.072C33.156 184.072 31.764 184.756 31.764 185.992C31.764 187.228 33.156 187.924 35.484 187.924C37.812 187.924 39.204 187.228 39.204 185.992C39.204 184.756 37.812 184.072 35.484 184.072ZM35.484 184.84C37.188 184.84 38.196 185.26 38.196 185.992C38.196 186.736 37.188 187.144 35.484 187.144C33.792 187.144 32.772 186.736 32.772 185.992C32.772 185.26 33.792 184.84 35.484 184.84ZM35.496 177.28C33.132 177.28 31.68 178.036 31.68 179.308C31.68 180.568 33.132 181.312 35.496 181.312C37.848 181.312 39.312 180.568 39.312 179.308C39.312 178.036 37.848 177.28 35.496 177.28ZM35.496 178.06C37.224 178.06 38.292 178.516 38.292 179.308C38.292 180.088 37.224 180.544 35.496 180.544C33.768 180.544 32.7 180.088 32.7 179.308C32.7 178.516 33.768 178.06 35.496 178.06Z" fill="white"/>
<path d="M71.648 66.896H68.96V56.432H71.648V57.296H69.992V66.032H71.648V66.896ZM72.5492 63.776V64.604H82.3772V63.776H72.5492ZM76.9412 61.448V64.124H77.9372V61.448H76.9412ZM73.7372 55.892V56.696H80.1812V58.376H73.7732V61.352H74.7572V59.18H81.1652V55.892H73.7372ZM73.7732 60.932V61.748H81.4172V60.932H73.7732ZM87.1283 55.592C85.5203 55.592 84.3683 56.492 84.3683 57.824C84.3683 59.144 85.5203 60.068 87.1283 60.068C88.7483 60.068 89.9003 59.144 89.9003 57.824C89.9003 56.492 88.7483 55.592 87.1283 55.592ZM87.1283 56.42C88.1843 56.42 88.9403 56.996 88.9403 57.824C88.9403 58.664 88.1843 59.228 87.1283 59.228C86.0723 59.228 85.3163 58.664 85.3163 57.824C85.3163 56.996 86.0723 56.42 87.1283 56.42ZM86.6843 61.268V65.6H87.6803V61.268H86.6843ZM91.4843 55.088V65.948H92.4683V55.088H91.4843ZM83.6963 61.808C85.6763 61.808 88.3403 61.772 90.7883 61.328L90.7163 60.584C88.3283 60.944 85.5803 60.968 83.5643 60.968L83.6963 61.808ZM94.6153 59.816V60.62H104.419V59.816H94.6153ZM99.0193 58.436V60.092H100.003V58.436H99.0193ZM95.8873 55.448V58.748H103.147V55.448H95.8873ZM102.175 56.24V57.956H96.8713V56.24H102.175ZM95.8033 61.52V62.288H102.187V63.236H95.8273V65.276H96.8113V63.956H103.171V61.52H95.8033ZM95.8273 65.036V65.816H103.495V65.036H95.8273ZM116.956 55.088V61.808H117.916V55.088H116.956ZM115 55.28V61.772H115.948V55.28H115ZM113.104 60.464V61.172H115.468V60.464H113.104ZM111.184 59.684V61.772H112.132V59.684H111.184ZM108.82 60.08C110.32 60.08 112.636 60.056 114.496 59.672L114.424 58.988C112.624 59.276 110.2 59.3 108.712 59.3L108.82 60.08ZM110.62 62.204V65.792H117.916V62.204H116.932V63.212H111.604V62.204H110.62ZM111.604 63.98H116.932V65H111.604V63.98ZM111.64 55.46C110.224 55.46 109.276 56.084 109.276 57.068C109.276 58.064 110.224 58.688 111.64 58.688C113.044 58.688 113.992 58.064 113.992 57.068C113.992 56.084 113.044 55.46 111.64 55.46ZM111.64 56.168C112.516 56.168 113.092 56.516 113.092 57.068C113.092 57.632 112.516 57.968 111.64 57.968C110.752 57.968 110.176 57.632 110.176 57.068C110.176 56.516 110.752 56.168 111.64 56.168ZM119.523 66.032H121.179V57.296H119.523V56.432H122.211V66.896H119.523V66.032ZM74.024 80.708C74.024 81.468 73.748 82.06 73.196 82.484C72.644 82.908 71.9 83.12 70.964 83.12C70.484 83.12 70.04 83.084 69.632 83.012C69.224 82.94 68.884 82.84 68.612 82.712V81.68C68.9 81.808 69.256 81.924 69.68 82.028C70.112 82.132 70.556 82.184 71.012 82.184C71.644 82.184 72.124 82.06 72.452 81.812C72.78 81.564 72.944 81.228 72.944 80.804C72.944 80.524 72.884 80.288 72.764 80.096C72.644 79.904 72.436 79.728 72.14 79.568C71.844 79.408 71.44 79.232 70.928 79.04C70.192 78.776 69.64 78.452 69.272 78.068C68.904 77.684 68.72 77.16 68.72 76.496C68.72 76.048 68.836 75.66 69.068 75.332C69.3 75.004 69.62 74.752 70.028 74.576C70.436 74.4 70.912 74.312 71.456 74.312C71.92 74.312 72.348 74.356 72.74 74.444C73.132 74.532 73.492 74.648 73.82 74.792L73.484 75.716C73.188 75.588 72.864 75.48 72.512 75.392C72.16 75.304 71.8 75.26 71.432 75.26C70.896 75.26 70.492 75.376 70.22 75.608C69.948 75.832 69.812 76.132 69.812 76.508C69.812 76.796 69.872 77.036 69.992 77.228C70.112 77.42 70.308 77.596 70.58 77.756C70.852 77.908 71.22 78.068 71.684 78.236C72.188 78.42 72.612 78.62 72.956 78.836C73.308 79.044 73.572 79.296 73.748 79.592C73.932 79.888 74.024 80.26 74.024 80.708ZM79.5299 83L76.7099 75.488H76.6619C76.6859 75.736 76.7059 76.072 76.7219 76.496C76.7379 76.912 76.7459 77.348 76.7459 77.804V83H75.7499V74.432H77.3459L79.9859 81.452H80.0339L82.7219 74.432H84.3059V83H83.2379V77.732C83.2379 77.316 83.2459 76.904 83.2619 76.496C83.2859 76.088 83.3059 75.756 83.3219 75.5H83.2739L80.4179 83H79.5299ZM91.4967 80.708C91.4967 81.468 91.2207 82.06 90.6687 82.484C90.1167 82.908 89.3727 83.12 88.4367 83.12C87.9567 83.12 87.5127 83.084 87.1047 83.012C86.6967 82.94 86.3567 82.84 86.0847 82.712V81.68C86.3727 81.808 86.7287 81.924 87.1527 82.028C87.5847 82.132 88.0287 82.184 88.4847 82.184C89.1167 82.184 89.5967 82.06 89.9247 81.812C90.2527 81.564 90.4167 81.228 90.4167 80.804C90.4167 80.524 90.3567 80.288 90.2367 80.096C90.1167 79.904 89.9087 79.728 89.6127 79.568C89.3167 79.408 88.9127 79.232 88.4007 79.04C87.6647 78.776 87.1127 78.452 86.7447 78.068C86.3767 77.684 86.1927 77.16 86.1927 76.496C86.1927 76.048 86.3087 75.66 86.5407 75.332C86.7727 75.004 87.0927 74.752 87.5007 74.576C87.9087 74.4 88.3847 74.312 88.9287 74.312C89.3927 74.312 89.8207 74.356 90.2127 74.444C90.6047 74.532 90.9647 74.648 91.2927 74.792L90.9567 75.716C90.6607 75.588 90.3367 75.48 89.9847 75.392C89.6327 75.304 89.2727 75.26 88.9047 75.26C88.3687 75.26 87.9647 75.376 87.6927 75.608C87.4207 75.832 87.2847 76.132 87.2847 76.508C87.2847 76.796 87.3447 77.036 87.4647 77.228C87.5847 77.42 87.7807 77.596 88.0527 77.756C88.3247 77.908 88.6927 78.068 89.1567 78.236C89.6607 78.42 90.0847 78.62 90.4287 78.836C90.7807 79.044 91.0447 79.296 91.2207 79.592C91.4047 79.888 91.4967 80.26 91.4967 80.708ZM93.1026 73.532V78.272H98.1186V73.532H97.1466V75.092H94.0866V73.532H93.1026ZM94.0866 75.872H97.1466V77.468H94.0866V75.872ZM100.075 73.088V78.68H101.071V73.088H100.075ZM100.639 75.416V76.244H102.667V75.416H100.639ZM94.1826 79.208V80H100.099V81.092H94.2066V83.468H95.1906V81.836H101.071V79.208H94.1826ZM94.2066 83.024V83.816H101.467V83.024H94.2066ZM108.09 76.88V78.908H109.074V76.88H108.09ZM108.078 73.256V73.736C108.078 75.188 106.218 76.388 104.274 76.652L104.658 77.444C106.866 77.084 108.942 75.692 108.942 73.736V73.256H108.078ZM108.234 73.256V73.736C108.234 75.692 110.322 77.072 112.518 77.444L112.89 76.652C110.958 76.388 109.086 75.188 109.086 73.736V73.256H108.234ZM103.686 78.476V79.268H113.49V78.476H103.686ZM108.582 80.168C106.254 80.168 104.862 80.84 104.862 82.04C104.862 83.252 106.254 83.912 108.582 83.912C110.91 83.912 112.302 83.252 112.302 82.04C112.302 80.84 110.91 80.168 108.582 80.168ZM108.582 80.936C110.298 80.936 111.294 81.332 111.294 82.04C111.294 82.748 110.298 83.144 108.582 83.144C106.878 83.144 105.87 82.748 105.87 82.04C105.87 81.332 106.878 80.936 108.582 80.936ZM118.418 73.784V78.224H123.47V73.784H118.418ZM122.51 74.588V77.432H119.378V74.588H122.51ZM125.738 73.088V79.316H126.734V73.088H125.738ZM122.798 80.6V80.804C122.798 81.884 121.07 82.916 119.186 83.132L119.522 83.9C121.718 83.612 123.65 82.364 123.65 80.804V80.6H122.798ZM122.942 80.6V80.804C122.942 82.328 124.826 83.6 127.034 83.9L127.37 83.132C125.486 82.904 123.806 81.848 123.806 80.804V80.6H122.942ZM119.618 80.048V80.828H126.986V80.048H119.618ZM122.798 79.004V80.396H123.806V79.004H122.798ZM131.998 79.508V80.324H141.838V79.508H131.998ZM136.39 79.892V83.936H137.374V79.892H136.39ZM133.234 73.52V78.212H140.578V73.52H139.594V75.008H134.23V73.52H133.234ZM134.23 75.812H139.594V77.408H134.23V75.812ZM74.384 93.896V94.724H76.832V93.896H74.384ZM76.52 91.088V97.556H77.516V91.088H76.52ZM73.952 97.88C71.708 97.88 70.328 98.636 70.328 99.908C70.328 101.192 71.708 101.924 73.952 101.924C76.184 101.924 77.564 101.192 77.564 99.908C77.564 98.636 76.184 97.88 73.952 97.88ZM73.952 98.66C75.584 98.66 76.58 99.116 76.58 99.908C76.58 100.688 75.584 101.144 73.952 101.144C72.32 101.144 71.324 100.688 71.324 99.908C71.324 99.116 72.32 98.66 73.952 98.66ZM71.36 92.18V93.056C71.36 94.616 70.244 96.068 68.636 96.656L69.152 97.448C70.952 96.776 72.176 95.06 72.176 93.056V92.18H71.36ZM71.552 92.18V93.056C71.552 94.88 72.716 96.512 74.48 97.148L74.984 96.356C73.412 95.804 72.356 94.46 72.356 93.056V92.18H71.552ZM68.936 91.88V92.696H74.732V91.88H68.936ZM87.5111 91.076V101.948H88.5071V91.076H87.5111ZM82.7831 91.916C81.1871 91.916 80.0351 93.392 80.0351 95.696C80.0351 98.012 81.1871 99.488 82.7831 99.488C84.3911 99.488 85.5431 98.012 85.5431 95.696C85.5431 93.392 84.3911 91.916 82.7831 91.916ZM82.7831 92.816C83.8511 92.816 84.5831 93.944 84.5831 95.696C84.5831 97.46 83.8511 98.612 82.7831 98.612C81.7271 98.612 80.9831 97.46 80.9831 95.696C80.9831 93.944 81.7271 92.816 82.7831 92.816ZM93.0901 94.76V96.812H94.0741V94.76H93.0901ZM97.0741 94.76V96.812H98.0581V94.76H97.0741ZM90.6661 96.452V97.256H100.47V96.452H90.6661ZM95.5621 98.072C93.2341 98.072 91.8421 98.756 91.8421 99.992C91.8421 101.228 93.2341 101.924 95.5621 101.924C97.8901 101.924 99.2821 101.228 99.2821 99.992C99.2821 98.756 97.8901 98.072 95.5621 98.072ZM95.5621 98.84C97.2661 98.84 98.2741 99.26 98.2741 99.992C98.2741 100.736 97.2661 101.144 95.5621 101.144C93.8701 101.144 92.8501 100.736 92.8501 99.992C92.8501 99.26 93.8701 98.84 95.5621 98.84ZM95.5741 91.28C93.2101 91.28 91.7581 92.036 91.7581 93.308C91.7581 94.568 93.2101 95.312 95.5741 95.312C97.9261 95.312 99.3901 94.568 99.3901 93.308C99.3901 92.036 97.9261 91.28 95.5741 91.28ZM95.5741 92.06C97.3021 92.06 98.3701 92.516 98.3701 93.308C98.3701 94.088 97.3021 94.544 95.5741 94.544C93.8461 94.544 92.7781 94.088 92.7781 93.308C92.7781 92.516 93.8461 92.06 95.5741 92.06ZM109.79 97.892C107.582 97.892 106.226 98.636 106.226 99.908C106.226 101.18 107.582 101.924 109.79 101.924C111.998 101.924 113.354 101.18 113.354 99.908C113.354 98.636 111.998 97.892 109.79 97.892ZM109.79 98.696C111.398 98.696 112.382 99.14 112.382 99.908C112.382 100.688 111.398 101.132 109.79 101.132C108.182 101.132 107.198 100.688 107.198 99.908C107.198 99.14 108.182 98.696 109.79 98.696ZM112.25 91.088V97.604H113.246V91.088H112.25ZM112.97 93.812V94.652H114.854V93.812H112.97ZM105.278 91.772V96.776H110.294V91.772H109.322V93.392H106.262V91.772H105.278ZM106.262 94.184H109.322V95.972H106.262V94.184ZM118.741 92.636V94.4C118.741 96.272 117.433 98.312 115.861 99.056L116.437 99.848C118.165 98.996 119.545 96.692 119.545 94.4V92.636H118.741ZM118.933 92.636V94.4C118.933 96.656 120.325 98.768 122.077 99.584L122.641 98.792C121.045 98.108 119.737 96.236 119.737 94.4V92.636H118.933ZM116.221 92.192V93.032H122.281V92.192H116.221ZM123.745 91.088V101.936H124.741V91.088H123.745Z" fill="white"/>
<path d="M169.132 62.54V65.96H170.14V62.54H169.132ZM172.864 62.54V65.96H173.86V62.54H172.864ZM167.104 56.288V57.092H175.828V56.288H167.104ZM166.6 62.024V62.84H176.428V62.024H166.6ZM171.496 57.704C169.276 57.704 167.968 58.352 167.968 59.492C167.968 60.644 169.276 61.292 171.496 61.292C173.704 61.292 175.012 60.644 175.012 59.492C175.012 58.352 173.704 57.704 171.496 57.704ZM171.496 58.46C173.08 58.46 173.992 58.832 173.992 59.492C173.992 60.164 173.08 60.536 171.496 60.536C169.912 60.536 169 60.164 169 59.492C169 58.832 169.912 58.46 171.496 58.46ZM170.992 55.028V56.864H171.988V55.028H170.992ZM185.883 55.088V65.936H186.843V55.088H185.883ZM184.047 59.432V60.26H186.135V59.432H184.047ZM183.423 55.328V65.384H184.359V55.328H183.423ZM178.023 62.432V63.26H178.731C180.363 63.26 181.455 63.212 182.751 62.936L182.655 62.108C181.395 62.372 180.315 62.432 178.731 62.432H178.023ZM178.023 56.408V62.804H179.007V57.224H182.055V56.408H178.023ZM194.426 58.076V58.892H197.162V58.076H194.426ZM196.598 55.1V63.044H197.594V55.1H196.598ZM190.67 64.88V65.696H197.894V64.88H190.67ZM190.67 62.348V65.3H191.666V62.348H190.67ZM191.438 56.444V57.32C191.438 58.856 190.322 60.296 188.702 60.872L189.218 61.664C191.03 60.992 192.254 59.288 192.254 57.32V56.444H191.438ZM191.63 56.444V57.308C191.63 59.144 192.794 60.776 194.558 61.412L195.062 60.632C193.49 60.08 192.434 58.712 192.434 57.308V56.444H191.63ZM189.014 55.976V56.78H194.81V55.976H189.014ZM202.525 61.556V63.32H203.521V61.556H202.525ZM207.085 55.088V65.936H208.081V55.088H207.085ZM207.757 59.696V60.536H209.761V59.696H207.757ZM199.729 63.872C201.625 63.872 204.169 63.86 206.509 63.44L206.425 62.696C204.181 63.02 201.529 63.044 199.585 63.044L199.729 63.872ZM199.765 56.396V57.2H206.257V56.396H199.765ZM203.017 57.836C201.505 57.836 200.473 58.628 200.473 59.84C200.473 61.064 201.505 61.844 203.017 61.844C204.529 61.844 205.573 61.064 205.573 59.84C205.573 58.628 204.529 57.836 203.017 57.836ZM203.017 58.604C203.989 58.604 204.637 59.096 204.637 59.84C204.637 60.584 203.989 61.076 203.017 61.076C202.045 61.076 201.409 60.584 201.409 59.84C201.409 59.096 202.045 58.604 203.017 58.604ZM202.525 55.1V56.936H203.521V55.1H202.525ZM215.868 58.148V58.964H218.988V58.148H215.868ZM218.676 55.1V63.128H219.672V55.1H218.676ZM212.7 64.88V65.696H219.936V64.88H212.7ZM212.7 62.348V65.3H213.696V62.348H212.7ZM211.284 55.808V61.28H216.18V55.808H215.208V57.728H212.268V55.808H211.284ZM212.268 58.508H215.208V60.464H212.268V58.508ZM222.275 56.672V57.488H231.083V56.672H222.275ZM221.795 63.848V64.676H231.623V63.848H221.795ZM226.199 62.132V64.172H227.183V62.132H226.199ZM226.679 58.22C224.495 58.22 223.139 58.976 223.139 60.284C223.139 61.592 224.495 62.348 226.679 62.348C228.875 62.348 230.231 61.592 230.231 60.284C230.231 58.976 228.875 58.22 226.679 58.22ZM226.679 59C228.263 59 229.223 59.48 229.223 60.284C229.223 61.088 228.263 61.556 226.679 61.556C225.107 61.556 224.135 61.088 224.135 60.284C224.135 59.48 225.107 59 226.679 59ZM226.199 55.268V57.176H227.183V55.268H226.199Z" fill="white"/>
<path d="M261.848 55.532V59.228H269.144V55.532H261.848ZM268.16 56.336V58.424H262.82V56.336H268.16ZM260.588 60.584V61.388H270.392V60.584H260.588ZM265.004 59.012V60.884H265.988V59.012H265.004ZM261.68 62.504V63.32H268.184V65.936H269.18V62.504H261.68ZM274.399 56.192V57.068C274.399 58.604 273.283 60.044 271.663 60.62L272.179 61.412C273.991 60.74 275.215 59.048 275.215 57.068V56.192H274.399ZM274.591 56.192V57.068C274.591 58.88 275.755 60.512 277.519 61.16L278.023 60.368C276.451 59.816 275.395 58.46 275.395 57.068V56.192H274.591ZM277.435 57.908V58.736H279.847V57.908H277.435ZM271.975 55.832V56.636H277.771V55.832H271.975ZM273.319 62.168V62.984H279.559V65.936H280.555V62.168H273.319ZM279.559 55.088V61.58H280.555V55.088H279.559ZM283.158 59.336V60.152H283.998C286.218 60.152 287.538 60.08 289.074 59.768L288.954 58.964C287.466 59.264 286.182 59.336 283.998 59.336H283.158ZM283.158 55.712V59.816H284.142V56.516H287.946V55.712H283.158ZM290.094 55.088V60.548H291.09V55.088H290.094ZM290.814 57.368V58.196H292.698V57.368H290.814ZM284.202 61.1V61.892H290.118V63.008H284.226V65.456H285.21V63.776H291.09V61.1H284.202ZM284.226 64.988V65.792H291.486V64.988H284.226ZM296.441 55.7V56.816C296.441 58.472 295.361 59.924 293.705 60.512L294.221 61.328C296.081 60.632 297.269 58.916 297.269 56.816V55.7H296.441ZM296.621 55.7V56.78C296.621 58.748 297.785 60.344 299.537 61.004L300.077 60.224C298.493 59.672 297.437 58.316 297.437 56.78V55.7H296.621ZM301.637 55.088V61.508H302.633V55.088H301.637ZM299.069 61.82C296.825 61.82 295.445 62.576 295.445 63.872C295.445 65.168 296.825 65.912 299.069 65.912C301.301 65.912 302.681 65.168 302.681 63.872C302.681 62.576 301.301 61.82 299.069 61.82ZM299.069 62.612C300.701 62.612 301.697 63.08 301.697 63.872C301.697 64.664 300.701 65.132 299.069 65.132C297.437 65.132 296.441 64.664 296.441 63.872C296.441 63.08 297.437 62.612 299.069 62.612ZM299.285 57.38V58.208H301.853V57.38H299.285ZM311.533 65H310.501V59.012C310.501 58.668 310.505 58.392 310.513 58.184C310.521 57.976 310.533 57.76 310.549 57.536C310.421 57.664 310.301 57.772 310.189 57.86C310.085 57.948 309.957 58.06 309.805 58.196L308.893 58.94L308.341 58.232L310.657 56.432H311.533V65ZM317.777 55.484C316.169 55.484 314.981 56.468 314.981 57.896C314.981 59.312 316.169 60.296 317.777 60.296C319.397 60.296 320.585 59.312 320.585 57.896C320.585 56.468 319.397 55.484 317.777 55.484ZM317.777 56.3C318.833 56.3 319.613 56.96 319.613 57.896C319.613 58.832 318.833 59.48 317.777 59.48C316.733 59.48 315.941 58.832 315.941 57.896C315.941 56.96 316.733 56.3 317.777 56.3ZM322.625 55.088V60.644H323.633V55.088H322.625ZM316.613 61.172V61.976H322.649V63.068H316.637V65.444H317.609V63.812H323.633V61.172H316.613ZM316.637 65V65.792H323.993V65H316.637ZM329.401 56.324V57.128H338.125V56.324H329.401ZM328.897 62.12V62.936H338.725V62.12H328.897ZM333.289 62.78V65.948H334.285V62.78H333.289ZM333.793 57.752C331.573 57.752 330.265 58.4 330.265 59.564C330.265 60.716 331.573 61.376 333.793 61.376C336.001 61.376 337.309 60.716 337.309 59.564C337.309 58.4 336.001 57.752 333.793 57.752ZM333.793 58.52C335.377 58.52 336.289 58.892 336.289 59.564C336.289 60.236 335.377 60.608 333.793 60.608C332.209 60.608 331.297 60.236 331.297 59.564C331.297 58.892 332.209 58.52 333.793 58.52ZM333.289 55.028V56.864H334.285V55.028H333.289ZM260.732 74.252V75.068H266.768V74.252H260.732ZM260.576 81.26C262.484 81.26 265.064 81.224 267.332 80.852L267.272 80.108C265.04 80.384 262.412 80.408 260.456 80.408L260.576 81.26ZM261.896 74.864V80.636H262.868V74.864H261.896ZM264.632 74.864V80.636H265.604V74.864H264.632ZM267.932 73.088V83.936H268.94V73.088H267.932ZM268.7 77.42V78.26H270.716V77.42H268.7ZM279.535 73.088V83.936H280.531V73.088H279.535ZM276.355 74.252V74.42C276.355 77.3 274.903 79.604 271.771 81.116L272.299 81.92C275.923 80.144 277.339 77.396 277.339 74.252H276.355ZM272.263 74.252V75.068H276.787V74.252H272.263Z" fill="white"/>
<rect x="253.5" y="116.5" width="97" height="77" stroke="#9C9C9C"/>
<rect x="59.5" y="116.5" width="97" height="77" stroke="#9C9C9C"/>
<rect x="156.5" y="116.5" width="97" height="77" stroke="#9C9C9C"/>
<path d="M71.648 143.896H68.96V133.432H71.648V134.296H69.992V143.032H71.648V143.896ZM80.4212 132.076V142.948H81.4172V132.076H80.4212ZM75.6932 132.916C74.0972 132.916 72.9452 134.392 72.9452 136.696C72.9452 139.012 74.0972 140.488 75.6932 140.488C77.3012 140.488 78.4532 139.012 78.4532 136.696C78.4532 134.392 77.3012 132.916 75.6932 132.916ZM75.6932 133.816C76.7612 133.816 77.4932 134.944 77.4932 136.696C77.4932 138.46 76.7612 139.612 75.6932 139.612C74.6372 139.612 73.8932 138.46 73.8932 136.696C73.8932 134.944 74.6372 133.816 75.6932 133.816ZM91.7723 132.088V140.32H92.7203V132.088H91.7723ZM87.9683 135.232V136.048H90.0203V135.232H87.9683ZM89.7083 132.304V140.008H90.6563V132.304H89.7083ZM84.0683 132.952V138.268H88.2683V132.952H87.3203V134.776H85.0043V132.952H84.0683ZM85.0043 135.568H87.3203V137.464H85.0043V135.568ZM85.6523 141.88V142.696H93.0563V141.88H85.6523ZM85.6523 139.216V142.324H86.6483V139.216H85.6523ZM95.8873 137.932V138.736H103.339V137.932H95.8873ZM94.6273 140.716V141.544H104.455V140.716H94.6273ZM95.8873 133.012V138.184H96.8953V133.828H103.219V133.012H95.8873ZM96.5713 135.436V136.228H102.991V135.436H96.5713ZM117.088 132.088V142.936H118.048V132.088H117.088ZM113.512 136.216V137.092H115.312V136.216H113.512ZM114.988 132.352V142.372H115.936V132.352H114.988ZM108.88 133.456V134.272H113.836V133.456H108.88ZM108.784 140.272C110.176 140.272 112.444 140.224 114.136 139.9L114.064 139.168C112.42 139.384 110.068 139.432 108.664 139.432L108.784 140.272ZM109.768 133.984V139.66H110.68V133.984H109.768ZM112.024 133.984V139.66H112.936V133.984H112.024ZM127.695 132.076V142.948H128.691V132.076H127.695ZM122.967 132.916C121.371 132.916 120.219 134.392 120.219 136.696C120.219 139.012 121.371 140.488 122.967 140.488C124.575 140.488 125.727 139.012 125.727 136.696C125.727 134.392 124.575 132.916 122.967 132.916ZM122.967 133.816C124.035 133.816 124.767 134.944 124.767 136.696C124.767 138.46 124.035 139.612 122.967 139.612C121.911 139.612 121.167 138.46 121.167 136.696C121.167 134.944 121.911 133.816 122.967 133.816ZM133.73 133.636V135.4C133.73 137.272 132.422 139.312 130.85 140.056L131.426 140.848C133.154 139.996 134.534 137.692 134.534 135.4V133.636H133.73ZM133.922 133.636V135.4C133.922 137.656 135.314 139.768 137.066 140.584L137.63 139.792C136.034 139.108 134.726 137.236 134.726 135.4V133.636H133.922ZM131.21 133.192V134.032H137.27V133.192H131.21ZM138.734 132.088V142.936H139.73V132.088H138.734ZM141.601 143.032H143.257V134.296H141.601V133.432H144.289V143.896H141.601V143.032ZM76.472 150.076V160.948H77.468V150.076H76.472ZM71.744 150.916C70.148 150.916 68.996 152.392 68.996 154.696C68.996 157.012 70.148 158.488 71.744 158.488C73.352 158.488 74.504 157.012 74.504 154.696C74.504 152.392 73.352 150.916 71.744 150.916ZM71.744 151.816C72.812 151.816 73.544 152.944 73.544 154.696C73.544 156.46 72.812 157.612 71.744 157.612C70.688 157.612 69.944 156.46 69.944 154.696C69.944 152.944 70.688 151.816 71.744 151.816ZM87.8231 150.088V158.32H88.7711V150.088H87.8231ZM84.0191 153.232V154.048H86.0711V153.232H84.0191ZM85.7591 150.304V158.008H86.7071V150.304H85.7591ZM80.1191 150.952V156.268H84.3191V150.952H83.3711V152.776H81.0551V150.952H80.1191ZM81.0551 153.568H83.3711V155.464H81.0551V153.568ZM81.7031 159.88V160.696H89.1071V159.88H81.7031ZM81.7031 157.216V160.324H82.6991V157.216H81.7031ZM91.9381 155.932V156.736H99.3901V155.932H91.9381ZM90.6781 158.716V159.544H100.506V158.716H90.6781ZM91.9381 151.012V156.184H92.9461V151.828H99.2701V151.012H91.9381ZM92.6221 153.436V154.228H99.0421V153.436H92.6221ZM104.822 155.356V156.172H114.626V155.356H104.822ZM109.718 157.06C107.39 157.06 105.998 157.756 105.998 158.992C105.998 160.24 107.39 160.936 109.718 160.936C112.046 160.936 113.438 160.24 113.438 158.992C113.438 157.756 112.046 157.06 109.718 157.06ZM109.718 157.84C111.422 157.84 112.43 158.26 112.43 158.992C112.43 159.748 111.422 160.156 109.718 160.156C108.026 160.156 107.006 159.748 107.006 158.992C107.006 158.26 108.026 157.84 109.718 157.84ZM109.73 150.352C107.378 150.352 105.914 151.132 105.914 152.428C105.914 153.712 107.378 154.492 109.73 154.492C112.07 154.492 113.546 153.712 113.546 152.428C113.546 151.132 112.07 150.352 109.73 150.352ZM109.73 151.144C111.446 151.144 112.526 151.624 112.526 152.428C112.526 153.232 111.446 153.7 109.73 153.7C108.002 153.7 106.934 153.232 106.934 152.428C106.934 151.624 108.002 151.144 109.73 151.144ZM115.873 158.728V159.556H125.701V158.728H115.873ZM120.265 155.92V158.956H121.261V155.92H120.265ZM117.013 150.988V156.1H124.501V150.988H117.013ZM123.541 151.792V155.296H117.985V151.792H123.541ZM130.594 150.784V155.224H135.646V150.784H130.594ZM134.686 151.588V154.432H131.554V151.588H134.686ZM137.914 150.088V156.316H138.91V150.088H137.914ZM134.974 157.6V157.804C134.974 158.884 133.246 159.916 131.362 160.132L131.698 160.9C133.894 160.612 135.826 159.364 135.826 157.804V157.6H134.974ZM135.118 157.6V157.804C135.118 159.328 137.002 160.6 139.21 160.9L139.546 160.132C137.662 159.904 135.982 158.848 135.982 157.804V157.6H135.118ZM131.794 157.048V157.828H139.162V157.048H131.794ZM134.974 156.004V157.396H135.982V156.004H134.974ZM76.016 168.076V176.068H77.012V168.076H76.016ZM76.7 171.376V172.204H78.62V171.376H76.7ZM70.256 177.88V178.696H77.504V177.88H70.256ZM70.256 175.252V178.204H71.252V175.252H70.256ZM71.624 168.844C70.004 168.844 68.792 169.96 68.792 171.52C68.792 173.092 70.004 174.196 71.624 174.196C73.244 174.196 74.456 173.092 74.456 171.52C74.456 169.96 73.244 168.844 71.624 168.844ZM71.624 169.72C72.68 169.72 73.484 170.464 73.484 171.52C73.484 172.588 72.68 173.32 71.624 173.32C70.568 173.32 69.764 172.588 69.764 171.52C69.764 170.464 70.568 169.72 71.624 169.72ZM87.8711 168.088V178.936H88.8311V168.088H87.8711ZM86.0471 172.504V173.32H88.1351V172.504H86.0471ZM85.4111 168.328V178.384H86.3471V168.328H85.4111ZM80.1551 169.396V175.66H81.1511V169.396H80.1551ZM80.1551 175.264V176.128H80.8511C82.0151 176.128 83.2631 176.068 84.7391 175.78L84.6311 174.916C83.2151 175.192 81.9671 175.264 80.8511 175.264H80.1551ZM92.2981 176.608L92.3821 176.74C92.2701 177.164 92.1181 177.628 91.9261 178.132C91.7341 178.644 91.5421 179.116 91.3501 179.548H90.5701C90.6821 179.092 90.7941 178.592 90.9061 178.048C91.0261 177.504 91.1141 177.024 91.1701 176.608H92.2981ZM102.19 170.08V170.896H105.094V170.08H102.19ZM102.094 172.336V173.152H105.022V172.336H102.094ZM104.926 168.088V174.592H105.922V168.088H104.926ZM101.53 168.904V169.336C101.53 171.388 99.9103 172.984 97.1383 173.788L97.5463 174.592C100.666 173.656 102.598 171.7 102.598 168.904H101.53ZM97.7023 168.904V169.72H102.214V168.904H97.7023ZM102.394 174.712C100.198 174.712 98.8063 175.492 98.8063 176.8C98.8063 178.108 100.198 178.888 102.394 178.888C104.59 178.888 105.982 178.108 105.982 176.8C105.982 175.492 104.59 174.712 102.394 174.712ZM102.394 175.492C103.99 175.492 105.01 175.984 105.01 176.8C105.01 177.616 103.99 178.096 102.394 178.096C100.81 178.096 99.7903 177.616 99.7903 176.8C99.7903 175.984 100.81 175.492 102.394 175.492ZM112.449 173.848V175.72H113.433V173.848H112.449ZM108.033 173.32V174.136H117.837V173.32H108.033ZM108.945 168.424V169.24H116.913V168.424H108.945ZM108.993 171.508V172.324H116.865V171.508H108.993ZM110.589 168.784V172.036H111.585V168.784H110.589ZM114.285 168.784V172.036H115.269V168.784H114.285ZM109.233 175.396V178.792H116.637V175.396H109.233ZM115.665 176.188V177.988H110.217V176.188H115.665ZM125.07 169.636V171.4C125.07 173.272 123.762 175.312 122.19 176.056L122.766 176.848C124.494 175.996 125.874 173.692 125.874 171.4V169.636H125.07ZM125.262 169.636V171.4C125.262 173.656 126.654 175.768 128.406 176.584L128.97 175.792C127.374 175.108 126.066 173.236 126.066 171.4V169.636H125.262ZM122.55 169.192V170.032H128.61V169.192H122.55ZM130.074 168.088V178.936H131.07V168.088H130.074ZM134.513 174.292V178.792H141.797V174.292H140.801V175.72H135.497V174.292H134.513ZM135.497 176.512H140.801V177.988H135.497V176.512ZM134.489 168.58V169.396H141.473V168.58H134.489ZM133.241 172.504V173.332H143.069V172.504H133.241ZM140.825 168.58V169.372C140.825 170.26 140.825 171.292 140.465 172.744L141.461 172.732C141.797 171.28 141.797 170.26 141.797 169.372V168.58H140.825Z" fill="white"/>
<path d="M169.132 139.54V142.96H170.14V139.54H169.132ZM172.864 139.54V142.96H173.86V139.54H172.864ZM167.104 133.288V134.092H175.828V133.288H167.104ZM166.6 139.024V139.84H176.428V139.024H166.6ZM171.496 134.704C169.276 134.704 167.968 135.352 167.968 136.492C167.968 137.644 169.276 138.292 171.496 138.292C173.704 138.292 175.012 137.644 175.012 136.492C175.012 135.352 173.704 134.704 171.496 134.704ZM171.496 135.46C173.08 135.46 173.992 135.832 173.992 136.492C173.992 137.164 173.08 137.536 171.496 137.536C169.912 137.536 169 137.164 169 136.492C169 135.832 169.912 135.46 171.496 135.46ZM170.992 132.028V133.864H171.988V132.028H170.992ZM185.883 132.088V142.936H186.843V132.088H185.883ZM184.047 136.432V137.26H186.135V136.432H184.047ZM183.423 132.328V142.384H184.359V132.328H183.423ZM178.023 139.432V140.26H178.731C180.363 140.26 181.455 140.212 182.751 139.936L182.655 139.108C181.395 139.372 180.315 139.432 178.731 139.432H178.023ZM178.023 133.408V139.804H179.007V134.224H182.055V133.408H178.023ZM194.426 135.076V135.892H197.162V135.076H194.426ZM196.598 132.1V140.044H197.594V132.1H196.598ZM190.67 141.88V142.696H197.894V141.88H190.67ZM190.67 139.348V142.3H191.666V139.348H190.67ZM191.438 133.444V134.32C191.438 135.856 190.322 137.296 188.702 137.872L189.218 138.664C191.03 137.992 192.254 136.288 192.254 134.32V133.444H191.438ZM191.63 133.444V134.308C191.63 136.144 192.794 137.776 194.558 138.412L195.062 137.632C193.49 137.08 192.434 135.712 192.434 134.308V133.444H191.63ZM189.014 132.976V133.78H194.81V132.976H189.014ZM202.525 138.556V140.32H203.521V138.556H202.525ZM207.085 132.088V142.936H208.081V132.088H207.085ZM207.757 136.696V137.536H209.761V136.696H207.757ZM199.729 140.872C201.625 140.872 204.169 140.86 206.509 140.44L206.425 139.696C204.181 140.02 201.529 140.044 199.585 140.044L199.729 140.872ZM199.765 133.396V134.2H206.257V133.396H199.765ZM203.017 134.836C201.505 134.836 200.473 135.628 200.473 136.84C200.473 138.064 201.505 138.844 203.017 138.844C204.529 138.844 205.573 138.064 205.573 136.84C205.573 135.628 204.529 134.836 203.017 134.836ZM203.017 135.604C203.989 135.604 204.637 136.096 204.637 136.84C204.637 137.584 203.989 138.076 203.017 138.076C202.045 138.076 201.409 137.584 201.409 136.84C201.409 136.096 202.045 135.604 203.017 135.604ZM202.525 132.1V133.936H203.521V132.1H202.525ZM215.868 135.148V135.964H218.988V135.148H215.868ZM218.676 132.1V140.128H219.672V132.1H218.676ZM212.7 141.88V142.696H219.936V141.88H212.7ZM212.7 139.348V142.3H213.696V139.348H212.7ZM211.284 132.808V138.28H216.18V132.808H215.208V134.728H212.268V132.808H211.284ZM212.268 135.508H215.208V137.464H212.268V135.508ZM222.275 133.672V134.488H231.083V133.672H222.275ZM221.795 140.848V141.676H231.623V140.848H221.795ZM226.199 139.132V141.172H227.183V139.132H226.199ZM226.679 135.22C224.495 135.22 223.139 135.976 223.139 137.284C223.139 138.592 224.495 139.348 226.679 139.348C228.875 139.348 230.231 138.592 230.231 137.284C230.231 135.976 228.875 135.22 226.679 135.22ZM226.679 136C228.263 136 229.223 136.48 229.223 137.284C229.223 138.088 228.263 138.556 226.679 138.556C225.107 138.556 224.135 138.088 224.135 137.284C224.135 136.48 225.107 136 226.679 136ZM226.199 132.268V134.176H227.183V132.268H226.199Z" fill="white"/>
<path d="M268.472 132.076V142.948H269.468V132.076H268.472ZM263.744 132.916C262.148 132.916 260.996 134.392 260.996 136.696C260.996 139.012 262.148 140.488 263.744 140.488C265.352 140.488 266.504 139.012 266.504 136.696C266.504 134.392 265.352 132.916 263.744 132.916ZM263.744 133.816C264.812 133.816 265.544 134.944 265.544 136.696C265.544 138.46 264.812 139.612 263.744 139.612C262.688 139.612 261.944 138.46 261.944 136.696C261.944 134.944 262.688 133.816 263.744 133.816ZM279.823 132.088V140.32H280.771V132.088H279.823ZM276.019 135.232V136.048H278.071V135.232H276.019ZM277.759 132.304V140.008H278.707V132.304H277.759ZM272.119 132.952V138.268H276.319V132.952H275.371V134.776H273.055V132.952H272.119ZM273.055 135.568H275.371V137.464H273.055V135.568ZM273.703 141.88V142.696H281.107V141.88H273.703ZM273.703 139.216V142.324H274.699V139.216H273.703ZM283.938 137.932V138.736H291.39V137.932H283.938ZM282.678 140.716V141.544H292.506V140.716H282.678ZM283.938 133.012V138.184H284.946V133.828H291.27V133.012H283.938ZM284.622 135.436V136.228H291.042V135.436H284.622ZM301.226 135.94V137.956H302.21V135.94H301.226ZM296.822 137.488V138.292H306.626V137.488H296.822ZM301.718 139.18C299.39 139.18 297.998 139.852 297.998 141.052C297.998 142.252 299.39 142.912 301.718 142.912C304.046 142.912 305.438 142.252 305.438 141.052C305.438 139.852 304.046 139.18 301.718 139.18ZM301.718 139.948C303.434 139.948 304.43 140.344 304.43 141.052C304.43 141.76 303.434 142.144 301.718 142.144C300.014 142.144 299.006 141.76 299.006 141.052C299.006 140.344 300.014 139.948 301.718 139.948ZM301.082 132.976V133.3C301.082 134.524 299.318 135.496 297.362 135.688L297.722 136.492C299.978 136.216 301.97 135.04 301.97 133.3V132.976H301.082ZM301.502 132.976V133.3C301.502 135.04 303.494 136.216 305.738 136.492L306.098 135.688C304.142 135.496 302.378 134.524 302.378 133.3V132.976H301.502ZM297.722 132.58V133.384H305.75V132.58H297.722ZM310.609 138.448V141.112H311.593V138.448H310.609ZM314.077 138.424V141.1H315.049V138.424H314.077ZM307.873 140.776V141.604H317.701V140.776H307.873ZM309.061 132.892V133.696H315.505V135.376H309.097V138.352H310.081V136.168H316.489V132.892H309.061ZM309.097 137.908V138.724H316.741V137.908H309.097ZM325.066 132.484C323.458 132.484 322.27 133.468 322.27 134.896C322.27 136.312 323.458 137.296 325.066 137.296C326.686 137.296 327.874 136.312 327.874 134.896C327.874 133.468 326.686 132.484 325.066 132.484ZM325.066 133.3C326.122 133.3 326.902 133.96 326.902 134.896C326.902 135.832 326.122 136.48 325.066 136.48C324.022 136.48 323.23 135.832 323.23 134.896C323.23 133.96 324.022 133.3 325.066 133.3ZM329.914 132.088V137.644H330.922V132.088H329.914ZM323.902 138.172V138.976H329.938V140.068H323.926V142.444H324.898V140.812H330.922V138.172H323.902ZM323.926 142V142.792H331.282V142H323.926ZM337.413 133.156V133.612C337.413 135.04 335.553 136.288 333.645 136.564L334.029 137.356C336.213 136.984 338.277 135.556 338.277 133.612V133.156H337.413ZM337.665 133.156V133.612C337.665 135.556 339.717 136.984 341.913 137.356L342.285 136.564C340.389 136.288 338.517 135.04 338.517 133.612V133.156H337.665ZM337.449 138.796V142.936H338.433V138.796H337.449ZM333.069 138.268V139.084H342.873V138.268H333.069ZM333.981 132.76V133.564H341.925V132.76H333.981ZM263.636 150.484C262.028 150.484 260.84 151.468 260.84 152.896C260.84 154.312 262.028 155.296 263.636 155.296C265.256 155.296 266.444 154.312 266.444 152.896C266.444 151.468 265.256 150.484 263.636 150.484ZM263.636 151.3C264.692 151.3 265.472 151.96 265.472 152.896C265.472 153.832 264.692 154.48 263.636 154.48C262.592 154.48 261.8 153.832 261.8 152.896C261.8 151.96 262.592 151.3 263.636 151.3ZM268.484 150.088V155.644H269.492V150.088H268.484ZM262.472 156.172V156.976H268.508V158.068H262.496V160.444H263.468V158.812H269.492V156.172H262.472ZM262.496 160V160.792H269.852V160H262.496ZM275.26 151.324V152.128H283.984V151.324H275.26ZM274.756 157.12V157.936H284.584V157.12H274.756ZM279.148 157.78V160.948H280.144V157.78H279.148ZM279.652 152.752C277.432 152.752 276.124 153.4 276.124 154.564C276.124 155.716 277.432 156.376 279.652 156.376C281.86 156.376 283.168 155.716 283.168 154.564C283.168 153.4 281.86 152.752 279.652 152.752ZM279.652 153.52C281.236 153.52 282.148 153.892 282.148 154.564C282.148 155.236 281.236 155.608 279.652 155.608C278.068 155.608 277.156 155.236 277.156 154.564C277.156 153.892 278.068 153.52 279.652 153.52ZM279.148 150.028V151.864H280.144V150.028H279.148ZM289.045 151.252V152.068H295.081V151.252H289.045ZM288.889 158.26C290.797 158.26 293.377 158.224 295.645 157.852L295.585 157.108C293.353 157.384 290.725 157.408 288.769 157.408L288.889 158.26ZM290.209 151.864V157.636H291.181V151.864H290.209ZM292.945 151.864V157.636H293.917V151.864H292.945ZM296.245 150.088V160.936H297.253V150.088H296.245ZM297.013 154.42V155.26H299.029V154.42H297.013ZM307.848 150.088V160.936H308.844V150.088H307.848ZM304.668 151.252V151.42C304.668 154.3 303.216 156.604 300.084 158.116L300.612 158.92C304.236 157.144 305.652 154.396 305.652 151.252H304.668ZM300.576 151.252V152.068H305.1V151.252H300.576Z" fill="white"/>
<rect x="253.5" y="193.5" width="97" height="95" stroke="#9C9C9C"/>
<rect x="59.5" y="193.5" width="97" height="95" stroke="#9C9C9C"/>
<rect x="156.5" y="193.5" width="97" height="95" stroke="#9C9C9C"/>
<path d="M71.648 220.896H68.96V210.432H71.648V211.296H69.992V220.032H71.648V220.896ZM80.4212 209.088V219.936H81.4172V209.088H80.4212ZM72.7892 210.84V211.644H79.2932V210.84H72.7892ZM76.0532 212.532C74.4932 212.532 73.3772 213.564 73.3772 215.028C73.3772 216.492 74.4932 217.524 76.0532 217.524C77.6132 217.524 78.7412 216.492 78.7412 215.028C78.7412 213.564 77.6132 212.532 76.0532 212.532ZM76.0532 213.36C77.0492 213.36 77.7812 214.044 77.7812 215.028C77.7812 216 77.0492 216.696 76.0532 216.696C75.0572 216.696 74.3252 216 74.3252 215.028C74.3252 214.044 75.0572 213.36 76.0532 213.36ZM75.5372 209.196V211.332H76.5332V209.196H75.5372ZM87.9323 209.832V210.66C87.9323 212.508 85.8923 214.164 83.9843 214.524L84.4283 215.352C86.6003 214.86 88.7963 213.024 88.7963 210.66V209.832H87.9323ZM88.1123 209.832V210.66C88.1123 213.036 90.3203 214.86 92.4803 215.352L92.9243 214.524C91.0283 214.164 88.9763 212.52 88.9763 210.66V209.832H88.1123ZM83.5883 217.656V218.472H93.4163V217.656H83.5883ZM95.8873 214.716V215.52H103.339V214.716H95.8873ZM94.6273 217.764V218.592H104.455V217.764H94.6273ZM99.0313 215.136V218.148H100.015V215.136H99.0313ZM95.8873 209.964V215.016H96.8953V210.78H103.219V209.964H95.8873ZM96.5713 212.292V213.096H102.991V212.292H96.5713ZM113.562 209.076V219.948H114.558V209.076H113.562ZM106.29 216.504V217.332H107.19C109.05 217.332 110.682 217.26 112.65 216.936L112.542 216.12C110.622 216.432 109.002 216.504 107.19 216.504H106.29ZM106.266 210.096V210.912H110.274V213.156H106.29V216.816H107.286V213.972H111.282V210.096H106.266ZM124.839 210.78V211.596H128.103V210.78H124.839ZM124.839 213.384V214.2H128.103V213.384H124.839ZM127.743 209.1V217.116H128.739V209.1H127.743ZM121.815 218.88V219.696H129.039V218.88H121.815ZM121.815 216.288V219.24H122.811V216.288H121.815ZM122.775 209.784C121.179 209.784 119.979 210.9 119.979 212.496C119.979 214.092 121.179 215.208 122.775 215.208C124.371 215.208 125.571 214.092 125.571 212.496C125.571 210.9 124.371 209.784 122.775 209.784ZM122.775 210.66C123.831 210.66 124.623 211.428 124.623 212.496C124.623 213.576 123.831 214.344 122.775 214.344C121.719 214.344 120.939 213.576 120.939 212.496C120.939 211.428 121.719 210.66 122.775 210.66ZM130.862 214.428V215.244H140.666V214.428H130.862ZM135.266 212.688V214.764H136.25V212.688H135.266ZM132.098 212.376V213.192H139.526V212.376H132.098ZM132.098 209.58V212.856H133.082V210.384H139.442V209.58H132.098ZM135.746 216.024C133.43 216.024 132.026 216.732 132.026 217.968C132.026 219.228 133.43 219.924 135.746 219.924C138.062 219.924 139.466 219.228 139.466 217.968C139.466 216.732 138.062 216.024 135.746 216.024ZM135.746 216.792C137.45 216.792 138.458 217.224 138.458 217.968C138.458 218.724 137.45 219.144 135.746 219.144C134.054 219.144 133.034 218.724 133.034 217.968C133.034 217.224 134.054 216.792 135.746 216.792ZM141.601 220.032H143.257V211.296H141.601V210.432H144.289V220.896H141.601V220.032ZM73.556 233.892C71.348 233.892 69.992 234.636 69.992 235.908C69.992 237.18 71.348 237.924 73.556 237.924C75.764 237.924 77.12 237.18 77.12 235.908C77.12 234.636 75.764 233.892 73.556 233.892ZM73.556 234.696C75.164 234.696 76.148 235.14 76.148 235.908C76.148 236.688 75.164 237.132 73.556 237.132C71.948 237.132 70.964 236.688 70.964 235.908C70.964 235.14 71.948 234.696 73.556 234.696ZM76.016 227.088V233.604H77.012V227.088H76.016ZM76.736 229.812V230.652H78.62V229.812H76.736ZM69.044 227.772V232.776H74.06V227.772H73.088V229.392H70.028V227.772H69.044ZM70.028 230.184H73.088V231.972H70.028V230.184ZM79.6271 232.632V233.448H89.4551V232.632H79.6271ZM84.1151 233.136V235.632H85.1111V233.136H84.1151ZM80.8871 227.592V231.408H88.1831V227.592H80.8871ZM87.1991 228.396V230.604H81.8591V228.396H87.1991ZM80.8751 236.88V237.696H88.3631V236.88H80.8751ZM80.8751 234.588V237.168H81.8591V234.588H80.8751ZM102.051 227.088V237.936H103.011V227.088H102.051ZM100.335 231.384V232.2H102.411V231.384H100.335ZM99.6513 227.316V237.396H100.599V227.316H99.6513ZM94.1793 228.336V235.032H98.3193V228.336H94.1793ZM97.3833 229.128V234.24H95.1153V229.128H97.3833ZM107.498 228.252V229.128C107.498 230.676 106.418 232.08 104.786 232.656L105.29 233.448C107.114 232.788 108.314 231.12 108.314 229.128V228.252H107.498ZM107.678 228.252V229.116C107.678 230.964 108.83 232.512 110.642 233.112L111.122 232.332C109.526 231.804 108.494 230.532 108.494 229.116V228.252H107.678ZM105.086 227.892V228.708H110.882V227.892H105.086ZM112.25 227.088V233.628H113.246V227.088H112.25ZM112.97 229.836V230.676H114.854V229.836H112.97ZM109.79 233.916C107.582 233.916 106.226 234.648 106.226 235.908C106.226 237.18 107.582 237.912 109.79 237.912C111.998 237.912 113.354 237.18 113.354 235.908C113.354 234.648 111.998 233.916 109.79 233.916ZM109.79 234.72C111.398 234.72 112.382 235.152 112.382 235.908C112.382 236.676 111.398 237.132 109.79 237.132C108.182 237.132 107.198 236.676 107.198 235.908C107.198 235.152 108.182 234.72 109.79 234.72ZM123.947 233.892C121.739 233.892 120.383 234.636 120.383 235.908C120.383 237.18 121.739 237.924 123.947 237.924C126.155 237.924 127.511 237.18 127.511 235.908C127.511 234.636 126.155 233.892 123.947 233.892ZM123.947 234.696C125.555 234.696 126.539 235.14 126.539 235.908C126.539 236.688 125.555 237.132 123.947 237.132C122.339 237.132 121.355 236.688 121.355 235.908C121.355 235.14 122.339 234.696 123.947 234.696ZM126.407 227.088V233.604H127.403V227.088H126.407ZM127.127 229.812V230.652H129.011V229.812H127.127ZM119.435 227.772V232.776H124.451V227.772H123.479V229.392H120.419V227.772H119.435ZM120.419 230.184H123.479V231.972H120.419V230.184ZM130.018 232.632V233.448H139.846V232.632H130.018ZM134.506 233.136V235.632H135.502V233.136H134.506ZM131.278 227.592V231.408H138.574V227.592H131.278ZM137.59 228.396V230.604H132.25V228.396H137.59ZM131.266 236.88V237.696H138.754V236.88H131.266ZM131.266 234.588V237.168H132.25V234.588H131.266ZM74.384 247.896V248.724H76.832V247.896H74.384ZM76.52 245.088V251.556H77.516V245.088H76.52ZM73.952 251.88C71.708 251.88 70.328 252.636 70.328 253.908C70.328 255.192 71.708 255.924 73.952 255.924C76.184 255.924 77.564 255.192 77.564 253.908C77.564 252.636 76.184 251.88 73.952 251.88ZM73.952 252.66C75.584 252.66 76.58 253.116 76.58 253.908C76.58 254.688 75.584 255.144 73.952 255.144C72.32 255.144 71.324 254.688 71.324 253.908C71.324 253.116 72.32 252.66 73.952 252.66ZM71.36 246.18V247.056C71.36 248.616 70.244 250.068 68.636 250.656L69.152 251.448C70.952 250.776 72.176 249.06 72.176 247.056V246.18H71.36ZM71.552 246.18V247.056C71.552 248.88 72.716 250.512 74.48 251.148L74.984 250.356C73.412 249.804 72.356 248.46 72.356 247.056V246.18H71.552ZM68.936 245.88V246.696H74.732V245.88H68.936ZM79.6391 253.728V254.556H89.4671V253.728H79.6391ZM84.0311 251.136V253.968H85.0271V251.136H84.0311ZM80.7911 245.856V251.4H88.2911V245.856H87.3071V247.788H81.7751V245.856H80.7911ZM81.7751 248.592H87.3071V250.584H81.7751V248.592ZM98.8113 246.78V247.596H102.075V246.78H98.8113ZM98.8113 249.384V250.2H102.075V249.384H98.8113ZM101.715 245.1V253.116H102.711V245.1H101.715ZM95.7873 254.88V255.696H103.011V254.88H95.7873ZM95.7873 252.288V255.24H96.7833V252.288H95.7873ZM96.7473 245.784C95.1513 245.784 93.9513 246.9 93.9513 248.496C93.9513 250.092 95.1513 251.208 96.7473 251.208C98.3433 251.208 99.5433 250.092 99.5433 248.496C99.5433 246.9 98.3433 245.784 96.7473 245.784ZM96.7473 246.66C97.8033 246.66 98.5953 247.428 98.5953 248.496C98.5953 249.576 97.8033 250.344 96.7473 250.344C95.6913 250.344 94.9113 249.576 94.9113 248.496C94.9113 247.428 95.6913 246.66 96.7473 246.66ZM104.834 250.428V251.244H114.638V250.428H104.834ZM109.238 248.688V250.764H110.222V248.688H109.238ZM106.07 248.376V249.192H113.498V248.376H106.07ZM106.07 245.58V248.856H107.054V246.384H113.414V245.58H106.07ZM109.718 252.024C107.402 252.024 105.998 252.732 105.998 253.968C105.998 255.228 107.402 255.924 109.718 255.924C112.034 255.924 113.438 255.228 113.438 253.968C113.438 252.732 112.034 252.024 109.718 252.024ZM109.718 252.792C111.422 252.792 112.43 253.224 112.43 253.968C112.43 254.724 111.422 255.144 109.718 255.144C108.026 255.144 107.006 254.724 107.006 253.968C107.006 253.224 108.026 252.792 109.718 252.792Z" fill="white"/>
<path d="M169.132 216.54V219.96H170.14V216.54H169.132ZM172.864 216.54V219.96H173.86V216.54H172.864ZM167.104 210.288V211.092H175.828V210.288H167.104ZM166.6 216.024V216.84H176.428V216.024H166.6ZM171.496 211.704C169.276 211.704 167.968 212.352 167.968 213.492C167.968 214.644 169.276 215.292 171.496 215.292C173.704 215.292 175.012 214.644 175.012 213.492C175.012 212.352 173.704 211.704 171.496 211.704ZM171.496 212.46C173.08 212.46 173.992 212.832 173.992 213.492C173.992 214.164 173.08 214.536 171.496 214.536C169.912 214.536 169 214.164 169 213.492C169 212.832 169.912 212.46 171.496 212.46ZM170.992 209.028V210.864H171.988V209.028H170.992ZM185.883 209.088V219.936H186.843V209.088H185.883ZM184.047 213.432V214.26H186.135V213.432H184.047ZM183.423 209.328V219.384H184.359V209.328H183.423ZM178.023 216.432V217.26H178.731C180.363 217.26 181.455 217.212 182.751 216.936L182.655 216.108C181.395 216.372 180.315 216.432 178.731 216.432H178.023ZM178.023 210.408V216.804H179.007V211.224H182.055V210.408H178.023ZM194.426 212.076V212.892H197.162V212.076H194.426ZM196.598 209.1V217.044H197.594V209.1H196.598ZM190.67 218.88V219.696H197.894V218.88H190.67ZM190.67 216.348V219.3H191.666V216.348H190.67ZM191.438 210.444V211.32C191.438 212.856 190.322 214.296 188.702 214.872L189.218 215.664C191.03 214.992 192.254 213.288 192.254 211.32V210.444H191.438ZM191.63 210.444V211.308C191.63 213.144 192.794 214.776 194.558 215.412L195.062 214.632C193.49 214.08 192.434 212.712 192.434 211.308V210.444H191.63ZM189.014 209.976V210.78H194.81V209.976H189.014ZM202.525 215.556V217.32H203.521V215.556H202.525ZM207.085 209.088V219.936H208.081V209.088H207.085ZM207.757 213.696V214.536H209.761V213.696H207.757ZM199.729 217.872C201.625 217.872 204.169 217.86 206.509 217.44L206.425 216.696C204.181 217.02 201.529 217.044 199.585 217.044L199.729 217.872ZM199.765 210.396V211.2H206.257V210.396H199.765ZM203.017 211.836C201.505 211.836 200.473 212.628 200.473 213.84C200.473 215.064 201.505 215.844 203.017 215.844C204.529 215.844 205.573 215.064 205.573 213.84C205.573 212.628 204.529 211.836 203.017 211.836ZM203.017 212.604C203.989 212.604 204.637 213.096 204.637 213.84C204.637 214.584 203.989 215.076 203.017 215.076C202.045 215.076 201.409 214.584 201.409 213.84C201.409 213.096 202.045 212.604 203.017 212.604ZM202.525 209.1V210.936H203.521V209.1H202.525ZM215.868 212.148V212.964H218.988V212.148H215.868ZM218.676 209.1V217.128H219.672V209.1H218.676ZM212.7 218.88V219.696H219.936V218.88H212.7ZM212.7 216.348V219.3H213.696V216.348H212.7ZM211.284 209.808V215.28H216.18V209.808H215.208V211.728H212.268V209.808H211.284ZM212.268 212.508H215.208V214.464H212.268V212.508ZM222.275 210.672V211.488H231.083V210.672H222.275ZM221.795 217.848V218.676H231.623V217.848H221.795ZM226.199 216.132V218.172H227.183V216.132H226.199ZM226.679 212.22C224.495 212.22 223.139 212.976 223.139 214.284C223.139 215.592 224.495 216.348 226.679 216.348C228.875 216.348 230.231 215.592 230.231 214.284C230.231 212.976 228.875 212.22 226.679 212.22ZM226.679 213C228.263 213 229.223 213.48 229.223 214.284C229.223 215.088 228.263 215.556 226.679 215.556C225.107 215.556 224.135 215.088 224.135 214.284C224.135 213.48 225.107 213 226.679 213ZM226.199 209.268V211.176H227.183V209.268H226.199ZM171.556 233.892C169.348 233.892 167.992 234.636 167.992 235.908C167.992 237.18 169.348 237.924 171.556 237.924C173.764 237.924 175.12 237.18 175.12 235.908C175.12 234.636 173.764 233.892 171.556 233.892ZM171.556 234.696C173.164 234.696 174.148 235.14 174.148 235.908C174.148 236.688 173.164 237.132 171.556 237.132C169.948 237.132 168.964 236.688 168.964 235.908C168.964 235.14 169.948 234.696 171.556 234.696ZM174.016 227.088V233.604H175.012V227.088H174.016ZM174.736 229.812V230.652H176.62V229.812H174.736ZM167.044 227.772V232.776H172.06V227.772H171.088V229.392H168.028V227.772H167.044ZM168.028 230.184H171.088V231.972H168.028V230.184ZM177.627 232.632V233.448H187.455V232.632H177.627ZM182.115 233.136V235.632H183.111V233.136H182.115ZM178.887 227.592V231.408H186.183V227.592H178.887ZM185.199 228.396V230.604H179.859V228.396H185.199ZM178.875 236.88V237.696H186.363V236.88H178.875ZM178.875 234.588V237.168H179.859V234.588H178.875ZM200.051 227.088V237.936H201.011V227.088H200.051ZM198.335 231.384V232.2H200.411V231.384H198.335ZM197.651 227.316V237.396H198.599V227.316H197.651ZM192.179 228.336V235.032H196.319V228.336H192.179ZM195.383 229.128V234.24H193.115V229.128H195.383ZM205.498 228.252V229.128C205.498 230.676 204.418 232.08 202.786 232.656L203.29 233.448C205.114 232.788 206.314 231.12 206.314 229.128V228.252H205.498ZM205.678 228.252V229.116C205.678 230.964 206.83 232.512 208.642 233.112L209.122 232.332C207.526 231.804 206.494 230.532 206.494 229.116V228.252H205.678ZM203.086 227.892V228.708H208.882V227.892H203.086ZM210.25 227.088V233.628H211.246V227.088H210.25ZM210.97 229.836V230.676H212.854V229.836H210.97ZM207.79 233.916C205.582 233.916 204.226 234.648 204.226 235.908C204.226 237.18 205.582 237.912 207.79 237.912C209.998 237.912 211.354 237.18 211.354 235.908C211.354 234.648 209.998 233.916 207.79 233.916ZM207.79 234.72C209.398 234.72 210.382 235.152 210.382 235.908C210.382 236.676 209.398 237.132 207.79 237.132C206.182 237.132 205.198 236.676 205.198 235.908C205.198 235.152 206.182 234.72 207.79 234.72ZM219.045 228.84V229.656H222.177V228.84H219.045ZM219.045 231V231.804H222.201V231H219.045ZM221.793 227.088V233.508H222.789V227.088H221.793ZM214.365 227.904V232.728H219.321V227.904H214.365ZM218.337 228.708V231.936H215.337V228.708H218.337ZM219.225 233.82C216.981 233.82 215.601 234.576 215.601 235.872C215.601 237.168 216.981 237.912 219.225 237.912C221.457 237.912 222.837 237.168 222.837 235.872C222.837 234.576 221.457 233.82 219.225 233.82ZM219.225 234.612C220.857 234.612 221.853 235.08 221.853 235.872C221.853 236.664 220.857 237.132 219.225 237.132C217.593 237.132 216.597 236.664 216.597 235.872C216.597 235.08 217.593 234.612 219.225 234.612ZM226.533 235.608L226.617 235.74C226.505 236.164 226.353 236.628 226.161 237.132C225.969 237.644 225.777 238.116 225.585 238.548H224.805C224.917 238.092 225.029 237.592 225.141 237.048C225.261 236.504 225.349 236.024 225.405 235.608H226.533ZM236.197 233.892C233.989 233.892 232.633 234.636 232.633 235.908C232.633 237.18 233.989 237.924 236.197 237.924C238.405 237.924 239.761 237.18 239.761 235.908C239.761 234.636 238.405 233.892 236.197 233.892ZM236.197 234.696C237.805 234.696 238.789 235.14 238.789 235.908C238.789 236.688 237.805 237.132 236.197 237.132C234.589 237.132 233.605 236.688 233.605 235.908C233.605 235.14 234.589 234.696 236.197 234.696ZM238.657 227.088V233.604H239.653V227.088H238.657ZM239.377 229.812V230.652H241.261V229.812H239.377ZM231.685 227.772V232.776H236.701V227.772H235.729V229.392H232.669V227.772H231.685ZM232.669 230.184H235.729V231.972H232.669V230.184ZM166.588 250.632V251.448H176.416V250.632H166.588ZM171.076 251.136V253.632H172.072V251.136H171.076ZM167.848 245.592V249.408H175.144V245.592H167.848ZM174.16 246.396V248.604H168.82V246.396H174.16ZM167.836 254.88V255.696H175.324V254.88H167.836ZM167.836 252.588V255.168H168.82V252.588H167.836ZM180.675 245.484C179.067 245.484 177.879 246.468 177.879 247.896C177.879 249.312 179.067 250.296 180.675 250.296C182.295 250.296 183.483 249.312 183.483 247.896C183.483 246.468 182.295 245.484 180.675 245.484ZM180.675 246.3C181.731 246.3 182.511 246.96 182.511 247.896C182.511 248.832 181.731 249.48 180.675 249.48C179.631 249.48 178.839 248.832 178.839 247.896C178.839 246.96 179.631 246.3 180.675 246.3ZM185.523 245.088V250.644H186.531V245.088H185.523ZM179.511 251.172V251.976H185.547V253.068H179.535V255.444H180.507V253.812H186.531V251.172H179.511ZM179.535 255V255.792H186.891V255H179.535ZM191.534 246.024V247.968C191.534 250.02 190.226 252.096 188.618 252.864L189.23 253.68C191.006 252.78 192.35 250.464 192.35 247.968V246.024H191.534ZM191.702 246.024V247.968C191.702 250.38 193.058 252.612 194.822 253.476L195.422 252.684C193.814 251.94 192.518 249.948 192.518 247.968V246.024H191.702ZM196.55 245.076V255.948H197.546V245.076H196.55ZM201.337 253.608L201.421 253.74C201.309 254.164 201.157 254.628 200.965 255.132C200.773 255.644 200.581 256.116 200.389 256.548H199.609C199.721 256.092 199.833 255.592 199.945 255.048C200.065 254.504 200.153 254.024 200.209 253.608H201.337ZM211.001 251.892C208.793 251.892 207.437 252.636 207.437 253.908C207.437 255.18 208.793 255.924 211.001 255.924C213.209 255.924 214.565 255.18 214.565 253.908C214.565 252.636 213.209 251.892 211.001 251.892ZM211.001 252.696C212.609 252.696 213.593 253.14 213.593 253.908C213.593 254.688 212.609 255.132 211.001 255.132C209.393 255.132 208.409 254.688 208.409 253.908C208.409 253.14 209.393 252.696 211.001 252.696ZM213.461 245.088V251.604H214.457V245.088H213.461ZM214.181 247.812V248.652H216.065V247.812H214.181ZM206.489 245.772V250.776H211.505V245.772H210.533V247.392H207.473V245.772H206.489ZM207.473 248.184H210.533V249.972H207.473V248.184ZM217.072 250.632V251.448H226.9V250.632H217.072ZM221.56 251.136V253.632H222.556V251.136H221.56ZM218.332 245.592V249.408H225.628V245.592H218.332ZM224.644 246.396V248.604H219.304V246.396H224.644ZM218.32 254.88V255.696H225.808V254.88H218.32ZM218.32 252.588V255.168H219.304V252.588H218.32ZM239.125 245.1V253.02H240.133V245.1H239.125ZM233.161 254.88V255.696H240.457V254.88H233.161ZM233.161 252.204V255.156H234.145V252.204H233.161ZM234.313 245.844C232.693 245.844 231.481 246.948 231.481 248.52C231.481 250.08 232.693 251.196 234.313 251.196C235.933 251.196 237.133 250.08 237.133 248.52C237.133 246.948 235.933 245.844 234.313 245.844ZM234.313 246.708C235.369 246.708 236.173 247.452 236.173 248.52C236.173 249.576 235.369 250.32 234.313 250.32C233.257 250.32 232.453 249.576 232.453 248.52C232.453 247.452 233.257 246.708 234.313 246.708ZM169.672 268.548V270.96H170.668V268.548H169.672ZM174.484 263.088V271.344H175.48V263.088H174.484ZM168.076 272.88V273.696H175.744V272.88H168.076ZM168.076 270.54V273.108H169.072V270.54H168.076ZM166.672 268.92C168.64 268.92 171.268 268.884 173.608 268.512L173.536 267.78C171.232 268.08 168.544 268.104 166.54 268.104L166.672 268.92ZM172.276 269.496V270.228H174.736V269.496H172.276ZM170.068 263.532C168.472 263.532 167.392 264.276 167.392 265.416C167.392 266.568 168.472 267.312 170.068 267.312C171.652 267.312 172.732 266.568 172.732 265.416C172.732 264.276 171.652 263.532 170.068 263.532ZM170.068 264.276C171.076 264.276 171.784 264.72 171.784 265.416C171.784 266.112 171.076 266.556 170.068 266.556C169.048 266.556 168.34 266.112 168.34 265.416C168.34 264.72 169.048 264.276 170.068 264.276Z" fill="white"/>
<path d="M266.012 212.76V213.576H269.036V212.76H266.012ZM263.396 210.024V211.956C263.396 213.972 262.172 216.06 260.576 216.852L261.212 217.644C262.928 216.72 264.212 214.392 264.212 211.956V210.024H263.396ZM263.588 210.024V211.956C263.588 214.332 264.848 216.564 266.6 217.452L267.188 216.648C265.616 215.904 264.392 213.936 264.392 211.956V210.024H263.588ZM268.544 209.076V219.948H269.528V209.076H268.544ZM279.511 209.076V219.948H280.507V209.076H279.511ZM272.251 210V217.332H277.363V210H276.367V212.868H273.235V210H272.251ZM273.235 213.66H276.367V216.516H273.235V213.66ZM287.022 209.832V210.66C287.022 212.508 284.982 214.164 283.074 214.524L283.518 215.352C285.69 214.86 287.886 213.024 287.886 210.66V209.832H287.022ZM287.202 209.832V210.66C287.202 213.036 289.41 214.86 291.57 215.352L292.014 214.524C290.118 214.164 288.066 212.52 288.066 210.66V209.832H287.202ZM282.678 217.656V218.472H292.506V217.656H282.678ZM301.85 210.78V211.596H305.114V210.78H301.85ZM301.85 213.384V214.2H305.114V213.384H301.85ZM304.754 209.1V217.116H305.75V209.1H304.754ZM298.826 218.88V219.696H306.05V218.88H298.826ZM298.826 216.288V219.24H299.822V216.288H298.826ZM299.786 209.784C298.19 209.784 296.99 210.9 296.99 212.496C296.99 214.092 298.19 215.208 299.786 215.208C301.382 215.208 302.582 214.092 302.582 212.496C302.582 210.9 301.382 209.784 299.786 209.784ZM299.786 210.66C300.842 210.66 301.634 211.428 301.634 212.496C301.634 213.576 300.842 214.344 299.786 214.344C298.73 214.344 297.95 213.576 297.95 212.496C297.95 211.428 298.73 210.66 299.786 210.66ZM307.873 214.428V215.244H317.677V214.428H307.873ZM312.277 212.688V214.764H313.261V212.688H312.277ZM309.109 212.376V213.192H316.537V212.376H309.109ZM309.109 209.58V212.856H310.093V210.384H316.453V209.58H309.109ZM312.757 216.024C310.441 216.024 309.037 216.732 309.037 217.968C309.037 219.228 310.441 219.924 312.757 219.924C315.073 219.924 316.477 219.228 316.477 217.968C316.477 216.732 315.073 216.024 312.757 216.024ZM312.757 216.792C314.461 216.792 315.469 217.224 315.469 217.968C315.469 218.724 314.461 219.144 312.757 219.144C311.065 219.144 310.045 218.724 310.045 217.968C310.045 217.224 311.065 216.792 312.757 216.792ZM322.006 210.936V211.752H327.382V210.936H322.006ZM324.694 212.472C323.35 212.472 322.366 213.492 322.366 214.956C322.366 216.408 323.35 217.428 324.694 217.428C326.05 217.428 327.034 216.408 327.034 214.956C327.034 213.492 326.05 212.472 324.694 212.472ZM324.694 213.324C325.534 213.324 326.146 213.996 326.146 214.956C326.146 215.916 325.534 216.588 324.694 216.588C323.866 216.588 323.266 215.916 323.266 214.956C323.266 213.996 323.866 213.324 324.694 213.324ZM330.25 209.088V219.936H331.21V209.088H330.25ZM328.522 213.648V214.476H330.574V213.648H328.522ZM327.934 209.328V219.408H328.87V209.328H327.934ZM324.214 209.4V211.44H325.198V209.4H324.214ZM335.937 210.636V212.4C335.937 214.272 334.629 216.312 333.057 217.056L333.633 217.848C335.361 216.996 336.741 214.692 336.741 212.4V210.636H335.937ZM336.129 210.636V212.4C336.129 214.656 337.521 216.768 339.273 217.584L339.837 216.792C338.241 216.108 336.933 214.236 336.933 212.4V210.636H336.129ZM333.417 210.192V211.032H339.477V210.192H333.417ZM340.941 209.088V219.936H341.937V209.088H340.941ZM263.456 228.024V229.968C263.456 232.02 262.148 234.096 260.54 234.864L261.152 235.68C262.928 234.78 264.272 232.464 264.272 229.968V228.024H263.456ZM263.624 228.024V229.968C263.624 232.38 264.98 234.612 266.744 235.476L267.344 234.684C265.736 233.94 264.44 231.948 264.44 229.968V228.024H263.624ZM268.472 227.076V237.948H269.468V227.076H268.472ZM274.888 228.252V229.068H280.924V228.252H274.888ZM274.732 235.26C276.64 235.26 279.22 235.224 281.488 234.852L281.428 234.108C279.196 234.384 276.568 234.408 274.612 234.408L274.732 235.26ZM276.052 228.864V234.636H277.024V228.864H276.052ZM278.788 228.864V234.636H279.76V228.864H278.788ZM282.088 227.088V237.936H283.096V227.088H282.088ZM282.856 231.42V232.26H284.872V231.42H282.856ZM293.691 227.088V237.936H294.687V227.088H293.691ZM290.511 228.252V228.42C290.511 231.3 289.059 233.604 285.927 235.116L286.455 235.92C290.079 234.144 291.495 231.396 291.495 228.252H290.511ZM286.419 228.252V229.068H290.943V228.252H286.419Z" fill="white"/>
</svg>
