<svg width="345" height="171" viewBox="0 0 345 171" fill="none" xmlns="http://www.w3.org/2000/svg">
<rect x="0.5" y="0.5" width="59" height="39" fill="#DDDDDD" stroke="#9C9C9C"/>
<rect x="59.5" y="0.5" width="95" height="39" fill="#DDDDDD" stroke="#9C9C9C"/>
<rect x="154.5" y="0.5" width="95" height="39" fill="#DDDDDD" stroke="#9C9C9C"/>
<rect x="249.5" y="0.5" width="95" height="39" fill="#DDDDDD" stroke="#9C9C9C"/>
<path d="M19.632 15.604V16.864H26.604V15.604H19.632ZM18.492 20.332V21.616H28.536V20.332H18.492ZM22.656 21.232V26.08H24.264V21.232H22.656ZM25.788 15.604V16.588C25.788 17.74 25.788 19.06 25.356 20.92L26.928 21.1C27.36 19.132 27.36 17.788 27.36 16.588V15.604H25.788ZM29.5191 20.644V21.904H39.5751V20.644H29.5191ZM33.8751 21.316V23.656H35.4831V21.316H33.8751ZM30.6831 24.604V25.876H38.4711V24.604H30.6831ZM30.6831 22.816V25.144H32.2671V22.816H30.6831ZM30.8031 15.304V19.876H38.2911V15.304H36.7071V16.444H32.3751V15.304H30.8031ZM32.3751 17.644H36.7071V18.628H32.3751V17.644Z" fill="#333333"/>
<path d="M74.668 15.28V15.796C74.668 17.104 73.408 18.556 70.852 18.892L71.476 20.176C74.392 19.744 76.072 17.932 76.072 15.796V15.28H74.668ZM74.968 15.28V15.796C74.968 17.932 76.648 19.744 79.564 20.176L80.176 18.892C77.632 18.556 76.36 17.092 76.36 15.796V15.28H74.968ZM74.68 22V26.068H76.264V22H74.68ZM70.492 20.992V22.288H80.536V20.992H70.492ZM84.2191 15.916V16.6C84.2191 17.908 83.4151 19.252 81.5551 19.792L82.3591 21.04C84.4951 20.392 85.5271 18.592 85.5271 16.6V15.916H84.2191ZM84.5431 15.916V16.6C84.5431 18.52 85.5751 20.236 87.6751 20.848L88.4551 19.612C86.6551 19.096 85.8511 17.836 85.8511 16.6V15.916H84.5431ZM81.9871 15.556V16.816H88.0351V15.556H81.9871ZM89.1511 14.956V20.98H90.7591V14.956H89.1511ZM83.3671 21.46V25.948H90.7591V21.46H89.1751V22.468H84.9391V21.46H83.3671ZM84.9391 23.704H89.1751V24.676H84.9391V23.704ZM92.7621 20.776C92.7621 20.408 92.8621 20.152 93.0621 20.008C93.2621 19.856 93.5061 19.78 93.7941 19.78C94.0741 19.78 94.3141 19.856 94.5141 20.008C94.7141 20.152 94.8141 20.408 94.8141 20.776C94.8141 21.128 94.7141 21.384 94.5141 21.544C94.3141 21.696 94.0741 21.772 93.7941 21.772C93.5061 21.772 93.2621 21.696 93.0621 21.544C92.8621 21.384 92.7621 21.128 92.7621 20.776ZM103.6 14.944V26.092H105.208V14.944H103.6ZM99.22 15.724C97.54 15.724 96.304 17.26 96.304 19.684C96.304 22.132 97.54 23.668 99.22 23.668C100.9 23.668 102.136 22.132 102.136 19.684C102.136 17.26 100.9 15.724 99.22 15.724ZM99.22 17.176C100.048 17.176 100.6 18.052 100.6 19.684C100.6 21.34 100.048 22.228 99.22 22.228C98.392 22.228 97.828 21.34 97.828 19.684C97.828 18.052 98.392 17.176 99.22 17.176ZM109.275 18.676V20.716H110.871V18.676H109.275ZM113.187 18.676V20.716H114.771V18.676H113.187ZM107.019 20.224V21.484H117.063V20.224H107.019ZM112.023 22.048C109.611 22.048 108.159 22.768 108.159 24.052C108.159 25.348 109.611 26.068 112.023 26.068C114.423 26.068 115.875 25.348 115.875 24.052C115.875 22.768 114.423 22.048 112.023 22.048ZM112.023 23.248C113.511 23.248 114.267 23.5 114.267 24.052C114.267 24.616 113.511 24.868 112.023 24.868C110.535 24.868 109.779 24.616 109.779 24.052C109.779 23.5 110.535 23.248 112.023 23.248ZM112.047 15.112C109.587 15.112 108.027 15.928 108.027 17.26C108.027 18.58 109.587 19.372 112.047 19.372C114.495 19.372 116.067 18.58 116.067 17.26C116.067 15.928 114.495 15.112 112.047 15.112ZM112.047 16.336C113.571 16.336 114.423 16.636 114.423 17.26C114.423 17.872 113.571 18.172 112.047 18.172C110.523 18.172 109.671 17.872 109.671 17.26C109.671 16.636 110.523 16.336 112.047 16.336ZM122.411 15.388V19.324H129.959V15.388H122.411ZM128.387 16.636V18.076H123.971V16.636H128.387ZM121.175 20.368V21.628H131.219V20.368H121.175ZM125.387 19.036V20.728H126.983V19.036H125.387ZM122.291 22.432V23.692H128.411V26.068H130.007V22.432H122.291ZM134.782 16.06V16.768C134.782 18.16 133.99 19.624 132.154 20.224L132.958 21.484C135.094 20.788 136.078 18.856 136.078 16.768V16.06H134.782ZM135.118 16.06V16.768C135.118 18.736 136.066 20.584 138.13 21.268L138.91 20.02C137.158 19.432 136.402 18.064 136.402 16.768V16.06H135.118ZM138.262 17.608V18.904H140.374V17.608H138.262ZM132.586 15.568V16.828H138.562V15.568H132.586ZM133.942 22.072V23.344H139.918V26.068H141.514V22.072H133.942ZM139.918 14.956V21.568H141.514V14.956H139.918Z" fill="#333333"/>
<path d="M182.668 15.28V15.796C182.668 17.104 181.408 18.556 178.852 18.892L179.476 20.176C182.392 19.744 184.072 17.932 184.072 15.796V15.28H182.668ZM182.968 15.28V15.796C182.968 17.932 184.648 19.744 187.564 20.176L188.176 18.892C185.632 18.556 184.36 17.092 184.36 15.796V15.28H182.968ZM182.68 22V26.068H184.264V22H182.68ZM178.492 20.992V22.288H188.536V20.992H178.492ZM192.219 15.916V16.6C192.219 17.908 191.415 19.252 189.555 19.792L190.359 21.04C192.495 20.392 193.527 18.592 193.527 16.6V15.916H192.219ZM192.543 15.916V16.6C192.543 18.52 193.575 20.236 195.675 20.848L196.455 19.612C194.655 19.096 193.851 17.836 193.851 16.6V15.916H192.543ZM189.987 15.556V16.816H196.035V15.556H189.987ZM197.151 14.956V20.98H198.759V14.956H197.151ZM191.367 21.46V25.948H198.759V21.46H197.175V22.468H192.939V21.46H191.367ZM192.939 23.704H197.175V24.676H192.939V23.704ZM210.827 14.956V22H212.423V14.956H210.827ZM211.979 17.788V19.096H213.899V17.788H211.979ZM208.811 22.12C206.519 22.12 205.079 22.852 205.079 24.1C205.079 25.336 206.519 26.068 208.811 26.068C211.103 26.068 212.543 25.336 212.543 24.1C212.543 22.852 211.103 22.12 208.811 22.12ZM208.811 23.32C210.215 23.32 210.959 23.572 210.959 24.1C210.959 24.628 210.215 24.88 208.811 24.88C207.407 24.88 206.663 24.628 206.663 24.1C206.663 23.572 207.407 23.32 208.811 23.32ZM203.675 16.012V17.248H210.215V16.012H203.675ZM206.951 17.62C205.331 17.62 204.215 18.424 204.215 19.612C204.215 20.812 205.331 21.604 206.951 21.604C208.559 21.604 209.675 20.812 209.675 19.612C209.675 18.424 208.559 17.62 206.951 17.62ZM206.951 18.784C207.659 18.784 208.151 19.072 208.151 19.612C208.151 20.152 207.659 20.44 206.951 20.44C206.231 20.44 205.751 20.152 205.751 19.612C205.751 19.072 206.231 18.784 206.951 18.784ZM206.147 14.884V16.672H207.743V14.884H206.147ZM215.95 15.388V19.324H223.498V15.388H215.95ZM221.926 16.636V18.076H217.51V16.636H221.926ZM214.714 20.368V21.628H224.758V20.368H214.714ZM218.926 19.036V20.728H220.522V19.036H218.926ZM215.83 22.432V23.692H221.95V26.068H223.546V22.432H215.83Z" fill="#333333"/>
<path d="M262.492 23.488V24.784H272.548V23.488H262.492ZM266.704 21.112V23.8H268.3V21.112H266.704ZM263.548 15.664V21.448H271.456V15.664H269.872V17.368H265.132V15.664H263.548ZM265.132 18.616H269.872V20.176H265.132V18.616ZM275.787 21.976V26.068H277.419V21.976H275.787ZM279.627 21.976V26.068H281.259V21.976H279.627ZM273.519 21.136V22.42H283.587V21.136H273.519ZM278.523 15.328C276.159 15.328 274.515 16.3 274.515 17.824C274.515 19.324 276.159 20.296 278.523 20.296C280.899 20.296 282.543 19.324 282.543 17.824C282.543 16.3 280.899 15.328 278.523 15.328ZM278.523 16.6C279.987 16.6 280.899 17.032 280.899 17.824C280.899 18.604 279.987 19.036 278.523 19.036C277.071 19.036 276.147 18.604 276.147 17.824C276.147 17.032 277.071 16.6 278.523 16.6ZM284.762 20.776C284.762 20.408 284.862 20.152 285.062 20.008C285.262 19.856 285.506 19.78 285.794 19.78C286.074 19.78 286.314 19.856 286.514 20.008C286.714 20.152 286.814 20.408 286.814 20.776C286.814 21.128 286.714 21.384 286.514 21.544C286.314 21.696 286.074 21.772 285.794 21.772C285.506 21.772 285.262 21.696 285.062 21.544C284.862 21.384 284.762 21.128 284.762 20.776ZM295.6 14.944V26.092H297.208V14.944H295.6ZM291.22 15.724C289.54 15.724 288.304 17.26 288.304 19.684C288.304 22.132 289.54 23.668 291.22 23.668C292.9 23.668 294.136 22.132 294.136 19.684C294.136 17.26 292.9 15.724 291.22 15.724ZM291.22 17.176C292.048 17.176 292.6 18.052 292.6 19.684C292.6 21.34 292.048 22.228 291.22 22.228C290.392 22.228 289.828 21.34 289.828 19.684C289.828 18.052 290.392 17.176 291.22 17.176ZM301.275 18.676V20.716H302.871V18.676H301.275ZM305.187 18.676V20.716H306.771V18.676H305.187ZM299.019 20.224V21.484H309.063V20.224H299.019ZM304.023 22.048C301.611 22.048 300.159 22.768 300.159 24.052C300.159 25.348 301.611 26.068 304.023 26.068C306.423 26.068 307.875 25.348 307.875 24.052C307.875 22.768 306.423 22.048 304.023 22.048ZM304.023 23.248C305.511 23.248 306.267 23.5 306.267 24.052C306.267 24.616 305.511 24.868 304.023 24.868C302.535 24.868 301.779 24.616 301.779 24.052C301.779 23.5 302.535 23.248 304.023 23.248ZM304.047 15.112C301.587 15.112 300.027 15.928 300.027 17.26C300.027 18.58 301.587 19.372 304.047 19.372C306.495 19.372 308.067 18.58 308.067 17.26C308.067 15.928 306.495 15.112 304.047 15.112ZM304.047 16.336C305.571 16.336 306.423 16.636 306.423 17.26C306.423 17.872 305.571 18.172 304.047 18.172C302.523 18.172 301.671 17.872 301.671 17.26C301.671 16.636 302.523 16.336 304.047 16.336ZM317.714 14.956V26.068H319.322V14.956H317.714ZM314.438 16.108V16.396C314.438 19.372 313.286 21.388 310.094 22.924L310.922 24.196C314.87 22.288 316.022 19.504 316.022 16.108H314.438ZM310.682 16.108V17.368H315.194V16.108H310.682ZM328.237 14.956V22.912H329.845V14.956H328.237ZM329.389 18.052V19.36H331.321V18.052H329.389ZM325.141 15.784V16.576C325.141 18.34 323.737 19.828 321.013 20.572L321.685 21.844C324.997 20.884 326.845 18.808 326.845 15.784H325.141ZM321.493 15.784V17.068H326.005V15.784H321.493ZM322.657 24.604V25.876H330.217V24.604H322.657ZM322.657 22.108V25.168H324.265V22.108H322.657Z" fill="#333333"/>
<rect x="0.5" y="39.5" width="59" height="131" stroke="#9C9C9C"/>
<rect x="249.5" y="39.5" width="95" height="131" stroke="#9C9C9C"/>
<rect x="59.5" y="39.5" width="95" height="131" stroke="#9C9C9C"/>
<rect x="154.5" y="39.5" width="95" height="131" stroke="#9C9C9C"/>
<path d="M23.1449 97.592V99.38H24.1529V97.592H23.1449ZM27.8969 91.088V101.936H28.8929V91.088H27.8969ZM20.2529 99.872C22.2569 99.872 24.8729 99.848 27.2849 99.44L27.2129 98.708C24.8729 99.008 22.1729 99.032 20.1209 99.044L20.2529 99.872ZM20.3489 92.408V93.212H26.9369V92.408H20.3489ZM23.6369 93.836C22.0889 93.836 21.0329 94.628 21.0329 95.84C21.0329 97.064 22.0889 97.844 23.6369 97.844C25.1969 97.844 26.2529 97.064 26.2529 95.84C26.2529 94.628 25.1969 93.836 23.6369 93.836ZM23.6369 94.604C24.6209 94.604 25.3049 95.096 25.3049 95.84C25.3049 96.584 24.6209 97.076 23.6369 97.076C22.6649 97.076 21.9809 96.584 21.9809 95.84C21.9809 95.096 22.6649 94.604 23.6369 94.604ZM23.1449 91.088V92.852H24.1409V91.088H23.1449ZM33.752 92.024V93.968C33.752 95.948 32.516 98.036 30.944 98.828L31.556 99.62C33.272 98.708 34.568 96.368 34.568 93.968V92.024H33.752ZM33.932 92.024V93.968C33.932 96.296 35.192 98.516 36.872 99.416L37.484 98.624C35.948 97.856 34.736 95.876 34.736 93.968V92.024H33.932ZM38.432 91.088V101.936H39.44V91.088H38.432ZM39.2 95.48V96.32H41.216V95.48H39.2ZM17.2539 109.088V119.936H18.2139V109.088H17.2539ZM15.4299 113.504V114.32H17.5179V113.504H15.4299ZM14.7939 109.328V119.384H15.7299V109.328H14.7939ZM9.53788 110.396V116.66H10.5339V110.396H9.53788ZM9.53788 116.264V117.128H10.2339C11.3979 117.128 12.6459 117.068 14.1219 116.78L14.0139 115.916C12.5979 116.192 11.3499 116.264 10.2339 116.264H9.53788ZM20.0489 115.508V116.324H29.8889V115.508H20.0489ZM24.4409 115.892V119.936H25.4249V115.892H24.4409ZM21.2849 109.52V114.212H28.6289V109.52H27.6449V111.008H22.2809V109.52H21.2849ZM22.2809 111.812H27.6449V113.408H22.2809V111.812ZM36.884 111.896V112.724H39.332V111.896H36.884ZM39.02 109.088V115.556H40.016V109.088H39.02ZM36.452 115.88C34.208 115.88 32.828 116.636 32.828 117.908C32.828 119.192 34.208 119.924 36.452 119.924C38.684 119.924 40.064 119.192 40.064 117.908C40.064 116.636 38.684 115.88 36.452 115.88ZM36.452 116.66C38.084 116.66 39.08 117.116 39.08 117.908C39.08 118.688 38.084 119.144 36.452 119.144C34.82 119.144 33.824 118.688 33.824 117.908C33.824 117.116 34.82 116.66 36.452 116.66ZM33.86 110.18V111.056C33.86 112.616 32.744 114.068 31.136 114.656L31.652 115.448C33.452 114.776 34.676 113.06 34.676 111.056V110.18H33.86ZM34.052 110.18V111.056C34.052 112.88 35.216 114.512 36.98 115.148L37.484 114.356C35.912 113.804 34.856 112.46 34.856 111.056V110.18H34.052ZM31.436 109.88V110.696H37.232V109.88H31.436ZM44.3951 111.08V111.428C44.3951 112.808 43.5911 114.116 42.2111 114.668L42.7031 115.412C44.2751 114.752 45.1511 113.18 45.1511 111.428V111.08H44.3951ZM44.5871 111.08V111.428C44.5871 113.096 45.4631 114.596 47.0591 115.22L47.5271 114.476C46.1591 113.948 45.3311 112.724 45.3311 111.428V111.08H44.5871ZM42.4271 110.516V111.32H47.2631V110.516H42.4271ZM44.3951 109.208V110.852H45.3311V109.208H44.3951ZM50.3231 109.1V115.748H51.2711V109.1H50.3231ZM48.5711 111.98V112.796H50.6231V111.98H48.5711ZM48.0191 109.28V115.676H48.9551V109.28H48.0191ZM43.9991 116.324V117.128H50.2871V119.936H51.2711V116.324H43.9991Z" fill="white"/>
<path d="M71.684 61.592V63.38H72.692V61.592H71.684ZM76.436 55.088V65.936H77.432V55.088H76.436ZM68.792 63.872C70.796 63.872 73.412 63.848 75.824 63.44L75.752 62.708C73.412 63.008 70.712 63.032 68.66 63.044L68.792 63.872ZM68.888 56.408V57.212H75.476V56.408H68.888ZM72.176 57.836C70.628 57.836 69.572 58.628 69.572 59.84C69.572 61.064 70.628 61.844 72.176 61.844C73.736 61.844 74.792 61.064 74.792 59.84C74.792 58.628 73.736 57.836 72.176 57.836ZM72.176 58.604C73.16 58.604 73.844 59.096 73.844 59.84C73.844 60.584 73.16 61.076 72.176 61.076C71.204 61.076 70.52 60.584 70.52 59.84C70.52 59.096 71.204 58.604 72.176 58.604ZM71.684 55.088V56.852H72.68V55.088H71.684ZM82.7111 60.548V62.96H83.7071V60.548H82.7111ZM87.5231 55.088V63.344H88.5191V55.088H87.5231ZM81.1151 64.88V65.696H88.7831V64.88H81.1151ZM81.1151 62.54V65.108H82.1111V62.54H81.1151ZM79.7111 60.92C81.6791 60.92 84.3071 60.884 86.6471 60.512L86.5751 59.78C84.2711 60.08 81.5831 60.104 79.5791 60.104L79.7111 60.92ZM85.3151 61.496V62.228H87.7751V61.496H85.3151ZM83.1071 55.532C81.5111 55.532 80.4311 56.276 80.4311 57.416C80.4311 58.568 81.5111 59.312 83.1071 59.312C84.6911 59.312 85.7711 58.568 85.7711 57.416C85.7711 56.276 84.6911 55.532 83.1071 55.532ZM83.1071 56.276C84.1151 56.276 84.8231 56.72 84.8231 57.416C84.8231 58.112 84.1151 58.556 83.1071 58.556C82.0871 58.556 81.3791 58.112 81.3791 57.416C81.3791 56.72 82.0871 56.276 83.1071 56.276ZM98.0101 55.076V65.936H99.0181V55.076H98.0101ZM98.7421 59.48V60.308H100.746V59.48H98.7421ZM95.2381 56.252V56.408C95.2381 59.276 93.7381 61.592 90.7381 63.116L91.2901 63.884C94.7941 62.12 96.2101 59.336 96.2101 56.252H95.2381ZM91.2421 56.252V57.068H95.7541V56.252H91.2421ZM109.601 55.088V60.908H110.609V55.088H109.601ZM103.613 61.448V65.792H110.609V61.448H109.625V62.768H104.597V61.448H103.613ZM104.597 63.56H109.625V64.988H104.597V63.56ZM104.789 55.604C103.145 55.604 101.957 56.624 101.957 58.1C101.957 59.588 103.145 60.608 104.789 60.608C106.433 60.608 107.609 59.588 107.609 58.1C107.609 56.624 106.433 55.604 104.789 55.604ZM104.789 56.432C105.869 56.432 106.649 57.116 106.649 58.1C106.649 59.084 105.869 59.768 104.789 59.768C103.709 59.768 102.929 59.084 102.929 58.1C102.929 57.116 103.709 56.432 104.789 56.432ZM123.289 55.088V61.22H124.285V55.088H123.289ZM124.021 57.572V58.4H125.893V57.572H124.021ZM117.445 61.808V65.792H124.285V61.808H117.445ZM123.313 62.612V64.976H118.429V62.612H123.313ZM116.389 55.628V59.972H117.385V55.628H116.389ZM116.389 59.564V60.404H117.241C118.861 60.404 120.481 60.296 122.317 59.912L122.197 59.096C120.421 59.456 118.801 59.564 117.241 59.564H116.389ZM129.325 58.76V60.812H130.309V58.76H129.325ZM133.309 58.76V60.812H134.293V58.76H133.309ZM126.901 60.452V61.256H136.705V60.452H126.901ZM131.797 62.072C129.469 62.072 128.076 62.756 128.076 63.992C128.076 65.228 129.469 65.924 131.797 65.924C134.125 65.924 135.517 65.228 135.517 63.992C135.517 62.756 134.125 62.072 131.797 62.072ZM131.797 62.84C133.501 62.84 134.509 63.26 134.509 63.992C134.509 64.736 133.501 65.144 131.797 65.144C130.105 65.144 129.085 64.736 129.085 63.992C129.085 63.26 130.105 62.84 131.797 62.84ZM131.809 55.28C129.445 55.28 127.993 56.036 127.993 57.308C127.993 58.568 129.445 59.312 131.809 59.312C134.161 59.312 135.625 58.568 135.625 57.308C135.625 56.036 134.161 55.28 131.809 55.28ZM131.809 56.06C133.537 56.06 134.605 56.516 134.605 57.308C134.605 58.088 133.537 58.544 131.809 58.544C130.081 58.544 129.013 58.088 129.013 57.308C129.013 56.516 130.081 56.06 131.809 56.06ZM68.48 79.712C68.48 78.736 68.62 77.796 68.9 76.892C69.188 75.98 69.636 75.16 70.244 74.432H71.24C70.68 75.184 70.256 76.012 69.968 76.916C69.688 77.82 69.548 78.748 69.548 79.7C69.548 80.628 69.688 81.54 69.968 82.436C70.256 83.324 70.676 84.144 71.228 84.896H70.244C69.636 84.192 69.188 83.396 68.9 82.508C68.62 81.612 68.48 80.68 68.48 79.712ZM72.1857 79.508V80.324H82.0257V79.508H72.1857ZM76.5777 79.892V83.936H77.5617V79.892H76.5777ZM73.4217 73.52V78.212H80.7657V73.52H79.7817V75.008H74.4177V73.52H73.4217ZM74.4177 75.812H79.7817V77.408H74.4177V75.812ZM89.0207 75.896V76.724H91.4687V75.896H89.0207ZM91.1567 73.088V79.556H92.1527V73.088H91.1567ZM88.5887 79.88C86.3447 79.88 84.9647 80.636 84.9647 81.908C84.9647 83.192 86.3447 83.924 88.5887 83.924C90.8207 83.924 92.2007 83.192 92.2007 81.908C92.2007 80.636 90.8207 79.88 88.5887 79.88ZM88.5887 80.66C90.2207 80.66 91.2167 81.116 91.2167 81.908C91.2167 82.688 90.2207 83.144 88.5887 83.144C86.9567 83.144 85.9607 82.688 85.9607 81.908C85.9607 81.116 86.9567 80.66 88.5887 80.66ZM85.9967 74.18V75.056C85.9967 76.616 84.8807 78.068 83.2727 78.656L83.7887 79.448C85.5887 78.776 86.8127 77.06 86.8127 75.056V74.18H85.9967ZM86.1887 74.18V75.056C86.1887 76.88 87.3527 78.512 89.1167 79.148L89.6207 78.356C88.0487 77.804 86.9927 76.46 86.9927 75.056V74.18H86.1887ZM83.5727 73.88V74.696H89.3687V73.88H83.5727ZM102.196 73.088V83.936H103.192V73.088H102.196ZM99.6638 77.432V78.26H102.64V77.432H99.6638ZM98.7158 74.252V74.42C98.7158 77.252 97.4198 79.556 94.2638 81.104L94.8158 81.884C98.4158 80.084 99.6998 77.348 99.6998 74.252H98.7158ZM94.7318 74.252V75.068H99.2438V74.252H94.7318ZM105.663 80.516V81.344H106.383C107.727 81.344 108.951 81.308 110.451 81.044L110.367 80.216C108.903 80.468 107.703 80.516 106.383 80.516H105.663ZM105.639 74.264V75.08H108.735V77.264H105.663V80.828H106.635V78.08H109.707V74.264H105.639ZM113.559 73.088V83.936H114.519V73.088H113.559ZM111.723 77.372V78.188H113.811V77.372H111.723ZM111.099 73.328V83.384H112.035V73.328H111.099ZM118.874 79.712C118.874 80.68 118.73 81.612 118.442 82.508C118.162 83.396 117.718 84.192 117.11 84.896H116.126C116.678 84.144 117.094 83.324 117.374 82.436C117.662 81.54 117.806 80.628 117.806 79.7C117.806 78.748 117.662 77.82 117.374 76.916C117.094 76.012 116.674 75.184 116.114 74.432H117.11C117.718 75.16 118.162 75.98 118.442 76.892C118.73 77.796 118.874 78.736 118.874 79.712ZM121.572 81.608L121.656 81.74C121.544 82.164 121.392 82.628 121.2 83.132C121.008 83.644 120.816 84.116 120.624 84.548H119.844C119.956 84.092 120.068 83.592 120.18 83.048C120.3 82.504 120.388 82.024 120.444 81.608H121.572ZM131.692 76.76V77.576H134.716V76.76H131.692ZM129.076 74.024V75.956C129.076 77.972 127.852 80.06 126.256 80.852L126.892 81.644C128.608 80.72 129.892 78.392 129.892 75.956V74.024H129.076ZM129.268 74.024V75.956C129.268 78.332 130.528 80.564 132.28 81.452L132.868 80.648C131.296 79.904 130.072 77.936 130.072 75.956V74.024H129.268ZM134.224 73.076V83.948H135.208V73.076H134.224ZM76.472 91.076V101.948H77.468V91.076H76.472ZM69.212 92V99.332H74.324V92H73.328V94.868H70.196V92H69.212ZM70.196 95.66H73.328V98.516H70.196V95.66ZM83.9831 91.832V92.66C83.9831 94.508 81.9431 96.164 80.0351 96.524L80.4791 97.352C82.6511 96.86 84.8471 95.024 84.8471 92.66V91.832H83.9831ZM84.1631 91.832V92.66C84.1631 95.036 86.3711 96.86 88.5311 97.352L88.9751 96.524C87.0791 96.164 85.0271 94.52 85.0271 92.66V91.832H84.1631ZM79.6391 99.656V100.472H89.4671V99.656H79.6391ZM93.7833 97.508V98.324H103.623V97.508H93.7833ZM98.1753 97.892V101.936H99.1593V97.892H98.1753ZM95.0193 91.52V96.212H102.363V91.52H101.379V93.008H96.0153V91.52H95.0193ZM96.0153 93.812H101.379V95.408H96.0153V93.812ZM110.618 93.896V94.724H113.066V93.896H110.618ZM112.754 91.088V97.556H113.75V91.088H112.754ZM110.186 97.88C107.942 97.88 106.562 98.636 106.562 99.908C106.562 101.192 107.942 101.924 110.186 101.924C112.418 101.924 113.798 101.192 113.798 99.908C113.798 98.636 112.418 97.88 110.186 97.88ZM110.186 98.66C111.818 98.66 112.814 99.116 112.814 99.908C112.814 100.688 111.818 101.144 110.186 101.144C108.554 101.144 107.558 100.688 107.558 99.908C107.558 99.116 108.554 98.66 110.186 98.66ZM107.594 92.18V93.056C107.594 94.616 106.478 96.068 104.87 96.656L105.386 97.448C107.186 96.776 108.41 95.06 108.41 93.056V92.18H107.594ZM107.786 92.18V93.056C107.786 94.88 108.95 96.512 110.714 97.148L111.218 96.356C109.646 95.804 108.59 94.46 108.59 93.056V92.18H107.786ZM105.17 91.88V92.696H110.966V91.88H105.17ZM118.525 92.024V93.968C118.525 95.948 117.289 98.036 115.717 98.828L116.329 99.62C118.045 98.708 119.341 96.368 119.341 93.968V92.024H118.525ZM118.705 92.024V93.968C118.705 96.296 119.965 98.516 121.645 99.416L122.257 98.624C120.721 97.856 119.509 95.876 119.509 93.968V92.024H118.705ZM123.205 91.088V101.936H124.213V91.088H123.205ZM123.973 95.48V96.32H125.989V95.48H123.973ZM129.325 94.76V96.812H130.309V94.76H129.325ZM133.309 94.76V96.812H134.293V94.76H133.309ZM126.901 96.452V97.256H136.705V96.452H126.901ZM131.797 98.072C129.469 98.072 128.076 98.756 128.076 99.992C128.076 101.228 129.469 101.924 131.797 101.924C134.125 101.924 135.517 101.228 135.517 99.992C135.517 98.756 134.125 98.072 131.797 98.072ZM131.797 98.84C133.501 98.84 134.509 99.26 134.509 99.992C134.509 100.736 133.501 101.144 131.797 101.144C130.105 101.144 129.085 100.736 129.085 99.992C129.085 99.26 130.105 98.84 131.797 98.84ZM131.809 91.28C129.445 91.28 127.993 92.036 127.993 93.308C127.993 94.568 129.445 95.312 131.809 95.312C134.161 95.312 135.625 94.568 135.625 93.308C135.625 92.036 134.161 91.28 131.809 91.28ZM131.809 92.06C133.537 92.06 134.605 92.516 134.605 93.308C134.605 94.088 133.537 94.544 131.809 94.544C130.081 94.544 129.013 94.088 129.013 93.308C129.013 92.516 130.081 92.06 131.809 92.06ZM68.48 115.712C68.48 114.736 68.62 113.796 68.9 112.892C69.188 111.98 69.636 111.16 70.244 110.432H71.24C70.68 111.184 70.256 112.012 69.968 112.916C69.688 113.82 69.548 114.748 69.548 115.7C69.548 116.628 69.688 117.54 69.968 118.436C70.256 119.324 70.676 120.144 71.228 120.896H70.244C69.636 120.192 69.188 119.396 68.9 118.508C68.62 117.612 68.48 116.68 68.48 115.712ZM72.1857 110.816V111.644H78.5817V110.816H72.1857ZM75.3897 112.532C73.9377 112.532 72.8457 113.564 72.8457 115.028C72.8457 116.48 73.9377 117.524 75.3897 117.524C76.8537 117.524 77.9337 116.48 77.9337 115.028C77.9337 113.564 76.8537 112.532 75.3897 112.532ZM75.3897 113.372C76.3257 113.372 77.0217 114.056 77.0217 115.028C77.0217 115.988 76.3257 116.672 75.3897 116.672C74.4657 116.672 73.7697 115.988 73.7697 115.028C73.7697 114.056 74.4657 113.372 75.3897 113.372ZM74.8977 109.22V111.212H75.8937V109.22H74.8977ZM80.1417 109.088V119.936H81.1257V109.088H80.1417ZM78.3657 113.624V114.452H80.8737V113.624H78.3657ZM86.7767 109.592C85.1687 109.592 84.0167 110.492 84.0167 111.824C84.0167 113.144 85.1687 114.068 86.7767 114.068C88.3967 114.068 89.5487 113.144 89.5487 111.824C89.5487 110.492 88.3967 109.592 86.7767 109.592ZM86.7767 110.42C87.8327 110.42 88.5887 110.996 88.5887 111.824C88.5887 112.664 87.8327 113.228 86.7767 113.228C85.7207 113.228 84.9647 112.664 84.9647 111.824C84.9647 110.996 85.7207 110.42 86.7767 110.42ZM86.3327 115.268V119.6H87.3287V115.268H86.3327ZM91.1327 109.088V119.948H92.1167V109.088H91.1327ZM83.3447 115.808C85.3247 115.808 87.9887 115.772 90.4367 115.328L90.3647 114.584C87.9767 114.944 85.2287 114.968 83.2127 114.968L83.3447 115.808ZM102.172 109.076V119.948H103.168V109.076H102.172ZM94.8998 116.504V117.332H95.7998C97.6598 117.332 99.2918 117.26 101.26 116.936L101.152 116.12C99.2318 116.432 97.6118 116.504 95.7998 116.504H94.8998ZM94.8758 110.096V110.912H98.8838V113.156H94.8998V116.816H95.8958V113.972H99.8918V110.096H94.8758ZM107.775 115.556V119.936H108.771V115.556H107.775ZM111.651 115.556V119.936H112.659V115.556H111.651ZM105.303 115.424V116.24H115.143V115.424H105.303ZM106.539 109.508V114.152H113.883V109.508H112.899V110.96H107.535V109.508H106.539ZM107.535 111.776H112.899V113.324H107.535V111.776ZM117.974 117.608L118.058 117.74C117.946 118.164 117.794 118.628 117.602 119.132C117.41 119.644 117.218 120.116 117.026 120.548H116.246C116.358 120.092 116.47 119.592 116.582 119.048C116.702 118.504 116.79 118.024 116.846 117.608H117.974ZM130.554 109.076V119.948H131.55V109.076H130.554ZM125.826 109.916C124.23 109.916 123.078 111.392 123.078 113.696C123.078 116.012 124.23 117.488 125.826 117.488C127.434 117.488 128.586 116.012 128.586 113.696C128.586 111.392 127.434 109.916 125.826 109.916ZM125.826 110.816C126.894 110.816 127.626 111.944 127.626 113.696C127.626 115.46 126.894 116.612 125.826 116.612C124.77 116.612 124.026 115.46 124.026 113.696C124.026 111.944 124.77 110.816 125.826 110.816ZM141.905 109.088V117.32H142.853V109.088H141.905ZM138.101 112.232V113.048H140.153V112.232H138.101ZM139.841 109.304V117.008H140.789V109.304H139.841ZM134.201 109.952V115.268H138.401V109.952H137.453V111.776H135.137V109.952H134.201ZM135.137 112.568H137.453V114.464H135.137V112.568ZM135.785 118.88V119.696H143.189V118.88H135.785ZM135.785 116.216V119.324H136.781V116.216H135.785ZM69.86 132.932V133.736H77.312V132.932H69.86ZM68.6 135.716V136.544H78.428V135.716H68.6ZM69.86 128.012V133.184H70.868V128.828H77.192V128.012H69.86ZM70.544 130.436V131.228H76.964V130.436H70.544ZM82.7443 133.508V134.324H92.5843V133.508H82.7443ZM87.1363 133.892V137.936H88.1203V133.892H87.1363ZM83.9803 127.52V132.212H91.3243V127.52H90.3403V129.008H84.9763V127.52H83.9803ZM84.9763 129.812H90.3403V131.408H84.9763V129.812ZM99.5793 129.896V130.724H102.027V129.896H99.5793ZM101.715 127.088V133.556H102.711V127.088H101.715ZM99.1473 133.88C96.9033 133.88 95.5233 134.636 95.5233 135.908C95.5233 137.192 96.9033 137.924 99.1473 137.924C101.379 137.924 102.759 137.192 102.759 135.908C102.759 134.636 101.379 133.88 99.1473 133.88ZM99.1473 134.66C100.779 134.66 101.775 135.116 101.775 135.908C101.775 136.688 100.779 137.144 99.1473 137.144C97.5153 137.144 96.5193 136.688 96.5193 135.908C96.5193 135.116 97.5153 134.66 99.1473 134.66ZM96.5553 128.18V129.056C96.5553 130.616 95.4393 132.068 93.8313 132.656L94.3473 133.448C96.1473 132.776 97.3713 131.06 97.3713 129.056V128.18H96.5553ZM96.7473 128.18V129.056C96.7473 130.88 97.9113 132.512 99.6753 133.148L100.179 132.356C98.6073 131.804 97.5513 130.46 97.5513 129.056V128.18H96.7473ZM94.1313 127.88V128.696H99.9273V127.88H94.1313ZM113.09 127.088V137.936H114.05V127.088H113.09ZM111.098 127.316V137.396H112.034V127.316H111.098ZM109.598 130.76V131.564H111.53V130.76H109.598ZM109.514 133.244V134.048H111.458V133.244H109.514ZM104.81 128.948V129.752H110.15V128.948H104.81ZM107.462 130.496C106.154 130.496 105.194 131.516 105.194 133.004C105.194 134.48 106.154 135.512 107.462 135.512C108.782 135.512 109.742 134.48 109.742 133.004C109.742 131.516 108.782 130.496 107.462 130.496ZM107.462 131.336C108.278 131.336 108.854 132.02 108.854 133.004C108.854 133.976 108.278 134.66 107.462 134.66C106.658 134.66 106.07 133.976 106.07 133.004C106.07 132.02 106.658 131.336 107.462 131.336ZM106.982 127.364V129.404H107.966V127.364H106.982ZM116.329 132.272V133.1H117.025C118.765 133.1 119.797 133.052 121.045 132.812L120.949 131.996C119.737 132.236 118.729 132.272 117.025 132.272H116.329ZM116.329 127.88V132.716H117.289V128.696H120.529V127.88H116.329ZM116.989 130.04V130.82H120.397V130.04H116.989ZM124.057 127.088V133.664H125.005V127.088H124.057ZM122.305 129.92V130.736H124.357V129.92H122.305ZM121.669 127.292V133.604H122.605V127.292H121.669ZM117.733 134.24V135.056H124.021V137.936H125.005V134.24H117.733ZM130.03 132.248V133.076H139.834V132.248H130.03ZM131.266 130.412V131.216H138.694V130.412H131.266ZM131.266 127.52V130.796H132.25V128.336H138.61V127.52H131.266ZM134.914 134.012C132.598 134.012 131.194 134.72 131.194 135.968C131.194 137.216 132.598 137.912 134.914 137.912C137.23 137.912 138.634 137.216 138.634 135.968C138.634 134.72 137.23 134.012 134.914 134.012ZM134.914 134.78C136.618 134.78 137.626 135.212 137.626 135.968C137.626 136.712 136.618 137.132 134.914 137.132C133.222 137.132 132.202 136.712 132.202 135.968C132.202 135.212 133.222 134.78 134.914 134.78ZM143.589 133.712C143.589 134.68 143.445 135.612 143.157 136.508C142.877 137.396 142.433 138.192 141.825 138.896H140.841C141.393 138.144 141.809 137.324 142.089 136.436C142.377 135.54 142.521 134.628 142.521 133.7C142.521 132.748 142.377 131.82 142.089 130.916C141.809 130.012 141.389 129.184 140.829 128.432H141.825C142.433 129.16 142.877 129.98 143.157 130.892C143.445 131.796 143.589 132.736 143.589 133.712ZM71.432 150.176V151.568H72.428V150.176H71.432ZM76.004 145.1V152.372H77V145.1H76.004ZM76.58 148.376V149.204H78.584V148.376H76.58ZM68.66 152.06C70.556 152.048 73.124 152.036 75.44 151.628L75.356 150.92C73.112 151.244 70.472 151.244 68.528 151.244L68.66 152.06ZM69.872 152.912V153.704H76.004V155.936H77V152.912H69.872ZM68.804 146.072V146.816H75.032V146.072H68.804ZM71.924 147.236C70.388 147.236 69.392 147.848 69.392 148.844C69.392 149.84 70.388 150.452 71.924 150.452C73.448 150.452 74.444 149.84 74.444 148.844C74.444 147.848 73.448 147.236 71.924 147.236ZM71.924 147.92C72.884 147.92 73.508 148.268 73.508 148.844C73.508 149.396 72.884 149.756 71.924 149.756C70.952 149.756 70.328 149.396 70.328 148.844C70.328 148.268 70.952 147.92 71.924 147.92ZM71.432 145.004V146.432H72.428V145.004H71.432ZM87.5231 145.1V153.02H88.5311V145.1H87.5231ZM81.5591 154.88V155.696H88.8551V154.88H81.5591ZM81.5591 152.204V155.156H82.5431V152.204H81.5591ZM82.7111 145.844C81.0911 145.844 79.8791 146.948 79.8791 148.52C79.8791 150.08 81.0911 151.196 82.7111 151.196C84.3311 151.196 85.5311 150.08 85.5311 148.52C85.5311 146.948 84.3311 145.844 82.7111 145.844ZM82.7111 146.708C83.7671 146.708 84.5711 147.452 84.5711 148.52C84.5711 149.576 83.7671 150.32 82.7111 150.32C81.6551 150.32 80.8511 149.576 80.8511 148.52C80.8511 147.452 81.6551 146.708 82.7111 146.708ZM94.3593 145.784V150.224H99.4113V145.784H94.3593ZM98.4513 146.588V149.432H95.3193V146.588H98.4513ZM101.679 145.088V151.316H102.675V145.088H101.679ZM98.7393 152.6V152.804C98.7393 153.884 97.0113 154.916 95.1273 155.132L95.4633 155.9C97.6593 155.612 99.5913 154.364 99.5913 152.804V152.6H98.7393ZM98.8833 152.6V152.804C98.8833 154.328 100.767 155.6 102.975 155.9L103.311 155.132C101.427 154.904 99.7473 153.848 99.7473 152.804V152.6H98.8833ZM95.5593 152.048V152.828H102.927V152.048H95.5593ZM98.7393 151.004V152.396H99.7473V151.004H98.7393ZM112.908 151.892C110.7 151.892 109.344 152.636 109.344 153.908C109.344 155.18 110.7 155.924 112.908 155.924C115.116 155.924 116.472 155.18 116.472 153.908C116.472 152.636 115.116 151.892 112.908 151.892ZM112.908 152.696C114.516 152.696 115.5 153.14 115.5 153.908C115.5 154.688 114.516 155.132 112.908 155.132C111.3 155.132 110.316 154.688 110.316 153.908C110.316 153.14 111.3 152.696 112.908 152.696ZM115.368 145.088V151.604H116.364V145.088H115.368ZM116.088 147.812V148.652H117.972V147.812H116.088ZM108.396 145.772V150.776H113.412V145.772H112.44V147.392H109.38V145.772H108.396ZM109.38 148.184H112.44V149.972H109.38V148.184ZM121.859 146.636V148.4C121.859 150.272 120.551 152.312 118.979 153.056L119.555 153.848C121.283 152.996 122.663 150.692 122.663 148.4V146.636H121.859ZM122.051 146.636V148.4C122.051 150.656 123.443 152.768 125.195 153.584L125.759 152.792C124.163 152.108 122.855 150.236 122.855 148.4V146.636H122.051ZM119.339 146.192V147.032H125.399V146.192H119.339ZM126.863 145.088V155.936H127.859V145.088H126.863Z" fill="white"/>
<path d="M166.132 62.54V65.96H167.14V62.54H166.132ZM169.864 62.54V65.96H170.86V62.54H169.864ZM164.104 56.288V57.092H172.828V56.288H164.104ZM163.6 62.024V62.84H173.428V62.024H163.6ZM168.496 57.704C166.276 57.704 164.968 58.352 164.968 59.492C164.968 60.644 166.276 61.292 168.496 61.292C170.704 61.292 172.012 60.644 172.012 59.492C172.012 58.352 170.704 57.704 168.496 57.704ZM168.496 58.46C170.08 58.46 170.992 58.832 170.992 59.492C170.992 60.164 170.08 60.536 168.496 60.536C166.912 60.536 166 60.164 166 59.492C166 58.832 166.912 58.46 168.496 58.46ZM167.992 55.028V56.864H168.988V55.028H167.992ZM182.883 55.088V65.936H183.843V55.088H182.883ZM181.047 59.432V60.26H183.135V59.432H181.047ZM180.423 55.328V65.384H181.359V55.328H180.423ZM175.023 62.432V63.26H175.731C177.363 63.26 178.455 63.212 179.751 62.936L179.655 62.108C178.395 62.372 177.315 62.432 175.731 62.432H175.023ZM175.023 56.408V62.804H176.007V57.224H179.055V56.408H175.023ZM191.426 58.076V58.892H194.162V58.076H191.426ZM193.598 55.1V63.044H194.594V55.1H193.598ZM187.67 64.88V65.696H194.894V64.88H187.67ZM187.67 62.348V65.3H188.666V62.348H187.67ZM188.438 56.444V57.32C188.438 58.856 187.322 60.296 185.702 60.872L186.218 61.664C188.03 60.992 189.254 59.288 189.254 57.32V56.444H188.438ZM188.63 56.444V57.308C188.63 59.144 189.794 60.776 191.558 61.412L192.062 60.632C190.49 60.08 189.434 58.712 189.434 57.308V56.444H188.63ZM186.014 55.976V56.78H191.81V55.976H186.014ZM199.525 61.556V63.32H200.521V61.556H199.525ZM204.085 55.088V65.936H205.081V55.088H204.085ZM204.757 59.696V60.536H206.761V59.696H204.757ZM196.729 63.872C198.625 63.872 201.169 63.86 203.509 63.44L203.425 62.696C201.181 63.02 198.529 63.044 196.585 63.044L196.729 63.872ZM196.765 56.396V57.2H203.257V56.396H196.765ZM200.017 57.836C198.505 57.836 197.473 58.628 197.473 59.84C197.473 61.064 198.505 61.844 200.017 61.844C201.529 61.844 202.573 61.064 202.573 59.84C202.573 58.628 201.529 57.836 200.017 57.836ZM200.017 58.604C200.989 58.604 201.637 59.096 201.637 59.84C201.637 60.584 200.989 61.076 200.017 61.076C199.045 61.076 198.409 60.584 198.409 59.84C198.409 59.096 199.045 58.604 200.017 58.604ZM199.525 55.1V56.936H200.521V55.1H199.525ZM212.868 58.148V58.964H215.988V58.148H212.868ZM215.676 55.1V63.128H216.672V55.1H215.676ZM209.7 64.88V65.696H216.936V64.88H209.7ZM209.7 62.348V65.3H210.696V62.348H209.7ZM208.284 55.808V61.28H213.18V55.808H212.208V57.728H209.268V55.808H208.284ZM209.268 58.508H212.208V60.464H209.268V58.508ZM219.275 56.672V57.488H228.083V56.672H219.275ZM218.795 63.848V64.676H228.623V63.848H218.795ZM223.199 62.132V64.172H224.183V62.132H223.199ZM223.679 58.22C221.495 58.22 220.139 58.976 220.139 60.284C220.139 61.592 221.495 62.348 223.679 62.348C225.875 62.348 227.231 61.592 227.231 60.284C227.231 58.976 225.875 58.22 223.679 58.22ZM223.679 59C225.263 59 226.223 59.48 226.223 60.284C226.223 61.088 225.263 61.556 223.679 61.556C222.107 61.556 221.135 61.088 221.135 60.284C221.135 59.48 222.107 59 223.679 59ZM223.199 55.268V57.176H224.183V55.268H223.199ZM231.454 63.608L231.538 63.74C231.426 64.164 231.274 64.628 231.082 65.132C230.89 65.644 230.698 66.116 230.506 66.548H229.726C229.838 66.092 229.95 65.592 230.062 65.048C230.182 64.504 230.27 64.024 230.326 63.608H231.454ZM171.472 73.076V83.948H172.468V73.076H171.472ZM166.744 73.916C165.148 73.916 163.996 75.392 163.996 77.696C163.996 80.012 165.148 81.488 166.744 81.488C168.352 81.488 169.504 80.012 169.504 77.696C169.504 75.392 168.352 73.916 166.744 73.916ZM166.744 74.816C167.812 74.816 168.544 75.944 168.544 77.696C168.544 79.46 167.812 80.612 166.744 80.612C165.688 80.612 164.944 79.46 164.944 77.696C164.944 75.944 165.688 74.816 166.744 74.816ZM175.023 74.336V81.032H179.163V74.336H175.023ZM178.227 75.128V80.24H175.959V75.128H178.227ZM182.895 73.088V83.936H183.855V73.088H182.895ZM178.659 77.168V77.996H181.155V77.168H178.659ZM180.747 73.316V83.396H181.695V73.316H180.747ZM188.714 73.484C187.106 73.484 185.918 74.468 185.918 75.896C185.918 77.312 187.106 78.296 188.714 78.296C190.334 78.296 191.522 77.312 191.522 75.896C191.522 74.468 190.334 73.484 188.714 73.484ZM188.714 74.3C189.77 74.3 190.55 74.96 190.55 75.896C190.55 76.832 189.77 77.48 188.714 77.48C187.67 77.48 186.878 76.832 186.878 75.896C186.878 74.96 187.67 74.3 188.714 74.3ZM193.562 73.088V78.644H194.57V73.088H193.562ZM187.55 79.172V79.976H193.586V81.068H187.574V83.444H188.546V81.812H194.57V79.172H187.55ZM187.574 83V83.792H194.93V83H187.574ZM201.061 74.156V74.612C201.061 76.04 199.201 77.288 197.293 77.564L197.677 78.356C199.861 77.984 201.925 76.556 201.925 74.612V74.156H201.061ZM201.313 74.156V74.612C201.313 76.556 203.365 77.984 205.561 78.356L205.933 77.564C204.037 77.288 202.165 76.04 202.165 74.612V74.156H201.313ZM201.097 79.796V83.936H202.081V79.796H201.097ZM196.717 79.268V80.084H206.521V79.268H196.717ZM197.629 73.76V74.564H205.573V73.76H197.629ZM207.756 81.704V82.532H217.584V81.704H207.756ZM212.124 79.076V81.98H213.108V79.076H212.124ZM212.1 73.808V74.648C212.1 76.436 210.048 78.032 208.14 78.38L208.56 79.208C210.744 78.752 212.964 76.964 212.964 74.648V73.808H212.1ZM212.28 73.808V74.648C212.28 76.964 214.5 78.752 216.684 79.208L217.116 78.38C215.208 78.032 213.144 76.448 213.144 74.648V73.808H212.28ZM220.415 81.608L220.499 81.74C220.387 82.164 220.235 82.628 220.043 83.132C219.851 83.644 219.659 84.116 219.467 84.548H218.687C218.799 84.092 218.911 83.592 219.023 83.048C219.143 82.504 219.231 82.024 219.287 81.608H220.415ZM233.019 73.088V83.936H234.015V73.088H233.019ZM229.839 74.252V74.42C229.839 77.3 228.387 79.604 225.255 81.116L225.783 81.92C229.407 80.144 230.823 77.396 230.823 74.252H229.839ZM225.747 74.252V75.068H230.271V74.252H225.747ZM171.496 91.088V101.936H172.492V91.088H171.496ZM168.316 92.252V92.42C168.316 95.3 166.864 97.604 163.732 99.116L164.26 99.92C167.884 98.144 169.3 95.396 169.3 92.252H168.316ZM164.224 92.252V93.068H168.748V92.252H164.224ZM180.423 93.896V94.724H182.871V93.896H180.423ZM182.559 91.088V97.556H183.555V91.088H182.559ZM179.991 97.88C177.747 97.88 176.367 98.636 176.367 99.908C176.367 101.192 177.747 101.924 179.991 101.924C182.223 101.924 183.603 101.192 183.603 99.908C183.603 98.636 182.223 97.88 179.991 97.88ZM179.991 98.66C181.623 98.66 182.619 99.116 182.619 99.908C182.619 100.688 181.623 101.144 179.991 101.144C178.359 101.144 177.363 100.688 177.363 99.908C177.363 99.116 178.359 98.66 179.991 98.66ZM177.399 92.18V93.056C177.399 94.616 176.283 96.068 174.675 96.656L175.191 97.448C176.991 96.776 178.215 95.06 178.215 93.056V92.18H177.399ZM177.591 92.18V93.056C177.591 94.88 178.755 96.512 180.519 97.148L181.023 96.356C179.451 95.804 178.395 94.46 178.395 93.056V92.18H177.591ZM174.975 91.88V92.696H180.771V91.88H174.975ZM185.678 99.728V100.556H195.506V99.728H185.678ZM190.07 97.136V99.968H191.066V97.136H190.07ZM186.83 91.856V97.4H194.33V91.856H193.346V93.788H187.814V91.856H186.83ZM187.814 94.592H193.346V96.584H187.814V94.592ZM198.337 99.608L198.421 99.74C198.309 100.164 198.157 100.628 197.965 101.132C197.773 101.644 197.581 102.116 197.389 102.548H196.609C196.721 102.092 196.833 101.592 196.945 101.048C197.065 100.504 197.153 100.024 197.209 99.608H198.337ZM207.281 93.26C206.361 93.26 205.637 93.568 205.109 94.184C204.581 94.8 204.317 95.644 204.317 96.716C204.317 97.78 204.561 98.624 205.049 99.248C205.545 99.864 206.285 100.172 207.269 100.172C207.637 100.172 207.989 100.14 208.325 100.076C208.661 100.012 208.993 99.932 209.321 99.836V100.772C209.001 100.892 208.669 100.98 208.325 101.036C207.989 101.092 207.585 101.12 207.113 101.12C206.241 101.12 205.513 100.94 204.929 100.58C204.345 100.22 203.905 99.708 203.609 99.044C203.321 98.38 203.177 97.6 203.177 96.704C203.177 95.84 203.333 95.08 203.645 94.424C203.965 93.76 204.433 93.244 205.049 92.876C205.665 92.5 206.413 92.312 207.293 92.312C208.197 92.312 208.985 92.48 209.657 92.816L209.225 93.728C208.961 93.608 208.665 93.5 208.337 93.404C208.017 93.308 207.665 93.26 207.281 93.26ZM213.603 101H210.507V100.376L211.515 100.148V93.296L210.507 93.056V92.432H213.603V93.056L212.595 93.296V100.148L213.603 100.376V101ZM218.438 92.432L215.246 101H214.214L217.406 92.432H218.438ZM226.587 96.632C226.587 98.08 226.191 99.172 225.399 99.908C224.615 100.636 223.519 101 222.111 101H219.723V92.432H222.363C223.219 92.432 223.963 92.592 224.595 92.912C225.235 93.232 225.727 93.704 226.071 94.328C226.415 94.952 226.587 95.72 226.587 96.632ZM225.447 96.668C225.447 95.524 225.163 94.688 224.595 94.16C224.035 93.624 223.239 93.356 222.207 93.356H220.803V100.076H221.967C224.287 100.076 225.447 98.94 225.447 96.668ZM230.9 101H227.804V100.376L228.812 100.148V93.296L227.804 93.056V92.432H230.9V93.056L229.892 93.296V100.148L230.9 100.376V101Z" fill="white"/>
<path d="M258.684 61.592V63.38H259.692V61.592H258.684ZM263.436 55.088V65.936H264.432V55.088H263.436ZM255.792 63.872C257.796 63.872 260.412 63.848 262.824 63.44L262.752 62.708C260.412 63.008 257.712 63.032 255.66 63.044L255.792 63.872ZM255.888 56.408V57.212H262.476V56.408H255.888ZM259.176 57.836C257.628 57.836 256.572 58.628 256.572 59.84C256.572 61.064 257.628 61.844 259.176 61.844C260.736 61.844 261.792 61.064 261.792 59.84C261.792 58.628 260.736 57.836 259.176 57.836ZM259.176 58.604C260.16 58.604 260.844 59.096 260.844 59.84C260.844 60.584 260.16 61.076 259.176 61.076C258.204 61.076 257.52 60.584 257.52 59.84C257.52 59.096 258.204 58.604 259.176 58.604ZM258.684 55.088V56.852H259.68V55.088H258.684ZM269.711 60.548V62.96H270.707V60.548H269.711ZM274.523 55.088V63.344H275.519V55.088H274.523ZM268.115 64.88V65.696H275.783V64.88H268.115ZM268.115 62.54V65.108H269.111V62.54H268.115ZM266.711 60.92C268.679 60.92 271.307 60.884 273.647 60.512L273.575 59.78C271.271 60.08 268.583 60.104 266.579 60.104L266.711 60.92ZM272.315 61.496V62.228H274.775V61.496H272.315ZM270.107 55.532C268.511 55.532 267.431 56.276 267.431 57.416C267.431 58.568 268.511 59.312 270.107 59.312C271.691 59.312 272.771 58.568 272.771 57.416C272.771 56.276 271.691 55.532 270.107 55.532ZM270.107 56.276C271.115 56.276 271.823 56.72 271.823 57.416C271.823 58.112 271.115 58.556 270.107 58.556C269.087 58.556 268.379 58.112 268.379 57.416C268.379 56.72 269.087 56.276 270.107 56.276ZM278.17 59.576V60.368H278.998C281.23 60.368 282.466 60.332 283.954 60.092L283.87 59.288C282.406 59.54 281.206 59.576 278.998 59.576H278.17ZM278.17 55.628V60.056H279.154V56.42H283.126V55.628H278.17ZM278.842 57.572V58.352H282.922V57.572H278.842ZM285.094 55.088V60.74H286.09V55.088H285.094ZM285.658 57.452V58.268H287.686V57.452H285.658ZM279.202 61.28V62.06H285.118V63.104H279.226V65.42H280.21V63.836H286.09V61.28H279.202ZM279.226 65.036V65.816H286.486V65.036H279.226ZM291.825 60.824V63.128H292.821V60.824H291.825ZM289.581 60.296V61.112H295.221V60.296H289.581ZM289.581 56.072V60.608H290.577V56.876H295.185V56.072H289.581ZM290.289 58.16V58.952H294.957V58.16H290.289ZM296.553 55.076V65.948H297.549V55.076H296.553ZM288.909 63.764C290.841 63.764 293.493 63.752 295.929 63.296L295.845 62.552C293.481 62.912 290.745 62.924 288.765 62.924L288.909 63.764ZM303.377 56.324V57.128H312.101V56.324H303.377ZM302.873 62.12V62.936H312.701V62.12H302.873ZM307.265 62.78V65.948H308.261V62.78H307.265ZM307.769 57.752C305.549 57.752 304.241 58.4 304.241 59.564C304.241 60.716 305.549 61.376 307.769 61.376C309.977 61.376 311.285 60.716 311.285 59.564C311.285 58.4 309.977 57.752 307.769 57.752ZM307.769 58.52C309.353 58.52 310.265 58.892 310.265 59.564C310.265 60.236 309.353 60.608 307.769 60.608C306.185 60.608 305.273 60.236 305.273 59.564C305.273 58.892 306.185 58.52 307.769 58.52ZM307.265 55.028V56.864H308.261V55.028H307.265ZM322.346 58.436C322.346 59.012 322.182 59.472 321.854 59.816C321.534 60.152 321.106 60.376 320.57 60.488V60.536C321.25 60.616 321.758 60.832 322.094 61.184C322.438 61.536 322.61 61.996 322.61 62.564C322.61 63.068 322.494 63.512 322.262 63.896C322.03 64.28 321.67 64.58 321.182 64.796C320.702 65.012 320.082 65.12 319.322 65.12C318.874 65.12 318.458 65.084 318.074 65.012C317.69 64.948 317.322 64.828 316.97 64.652V63.668C317.33 63.852 317.718 63.992 318.134 64.088C318.55 64.184 318.95 64.232 319.334 64.232C320.102 64.232 320.654 64.084 320.99 63.788C321.334 63.484 321.506 63.068 321.506 62.54C321.506 62.004 321.294 61.62 320.87 61.388C320.454 61.148 319.866 61.028 319.106 61.028H318.278V60.128H319.118C319.822 60.128 320.354 59.98 320.714 59.684C321.082 59.388 321.266 58.996 321.266 58.508C321.266 58.092 321.126 57.772 320.846 57.548C320.566 57.316 320.186 57.2 319.706 57.2C319.242 57.2 318.846 57.268 318.518 57.404C318.19 57.54 317.866 57.712 317.546 57.92L317.018 57.2C317.322 56.96 317.698 56.752 318.146 56.576C318.602 56.4 319.118 56.312 319.694 56.312C320.59 56.312 321.254 56.512 321.686 56.912C322.126 57.312 322.346 57.82 322.346 58.436ZM331.817 55.088V63.128H332.813V55.088H331.817ZM328.757 56.504V57.308H332.189V56.504H328.757ZM325.877 64.88V65.696H333.101V64.88H325.877ZM325.877 62.432V65.252H326.873V62.432H325.877ZM324.521 55.88V60.992H325.517V55.88H324.521ZM324.521 60.68V61.508H325.337C326.933 61.508 328.385 61.436 330.125 61.124L330.029 60.296C328.337 60.596 326.885 60.68 325.337 60.68H324.521ZM328.757 58.568V59.384H332.189V58.568H328.757ZM263.016 73.088V81.02H264.012V73.088H263.016ZM263.7 76.376V77.204H265.62V76.376H263.7ZM260.052 73.928V74.36C260.052 76.448 258.336 78.128 255.6 78.968L256.032 79.784C259.14 78.788 261.108 76.736 261.108 73.928H260.052ZM256.044 73.928V74.744H260.556V73.928H256.044ZM257.244 82.88V83.696H264.492V82.88H257.244ZM257.244 80.216V83.204H258.24V80.216H257.244ZM269.756 81.728V82.556H279.584V81.728H269.756ZM274.148 79.136V81.968H275.144V79.136H274.148ZM270.908 73.856V79.4H278.408V73.856H277.424V75.788H271.892V73.856H270.908ZM271.892 76.592H277.424V78.584H271.892V76.592ZM281.371 73.928V74.744H286.171V73.928H281.371ZM283.003 76.352V79.064H283.987V76.352H283.003ZM285.775 73.928V74.504C285.775 75.2 285.775 76.184 285.499 77.612L286.471 77.72C286.759 76.292 286.759 75.212 286.759 74.504V73.928H285.775ZM288.235 73.088V81.26H289.231V73.088H288.235ZM288.775 76.616V77.444H290.779V76.616H288.775ZM282.379 82.88V83.696H289.579V82.88H282.379ZM282.379 80.504V83.132H283.363V80.504H282.379ZM280.819 79.532C282.727 79.532 285.319 79.484 287.575 79.088L287.503 78.368C285.307 78.668 282.643 78.716 280.711 78.716L280.819 79.532Z" fill="white"/>
</svg>
