<svg width="351" height="122" viewBox="0 0 351 122" fill="none" xmlns="http://www.w3.org/2000/svg">
<rect x="0.5" y="0.5" width="175" height="39" fill="#DDDDDD" stroke="#9C9C9C"/>
<rect x="175.5" y="0.5" width="175" height="39" fill="#DDDDDD" stroke="#9C9C9C"/>
<path d="M69.668 15.28V15.796C69.668 17.104 68.408 18.556 65.852 18.892L66.476 20.176C69.392 19.744 71.072 17.932 71.072 15.796V15.28H69.668ZM69.968 15.28V15.796C69.968 17.932 71.648 19.744 74.564 20.176L75.176 18.892C72.632 18.556 71.36 17.092 71.36 15.796V15.28H69.968ZM69.68 22V26.068H71.264V22H69.68ZM65.492 20.992V22.288H75.536V20.992H65.492ZM76.9271 19.996V21.256H77.8511C80.0711 21.256 81.4151 21.208 82.9031 20.944L82.7351 19.696C81.2831 19.948 80.0111 19.996 77.8511 19.996H76.9271ZM76.9271 15.676V20.404H78.5231V16.948H82.1471V15.676H76.9271ZM78.0311 17.836V19.072H81.9071V17.836H78.0311ZM83.6711 14.956V21.664H85.2671V14.956H83.6711ZM84.8231 17.644V18.964H86.7431V17.644H84.8231ZM77.8511 22.132V23.404H83.6711V26.068H85.2671V22.132H77.8511ZM93.1741 17.404V18.688H95.9581V17.404H93.1741ZM90.6301 15.412C88.9501 15.412 87.6901 16.528 87.6901 18.064C87.6901 19.612 88.9501 20.716 90.6301 20.716C92.2981 20.716 93.5581 19.612 93.5581 18.064C93.5581 16.528 92.2981 15.412 90.6301 15.412ZM90.6301 16.744C91.4461 16.744 92.0341 17.236 92.0341 18.064C92.0341 18.892 91.4461 19.396 90.6301 19.396C89.8141 19.396 89.2141 18.892 89.2141 18.064C89.2141 17.236 89.8141 16.744 90.6301 16.744ZM95.2621 14.956V20.932H96.8581V14.956H95.2621ZM89.4781 21.412V25.948H96.8581V21.412H95.2741V22.468H91.0621V21.412H89.4781ZM91.0621 23.692H95.2741V24.676H91.0621V23.692ZM103.121 19.168V20.452H104.885V19.168H103.121ZM100.541 18.04V18.328C100.541 20.032 99.9772 21.856 98.3932 22.78L99.2932 23.98C101.069 22.96 101.741 20.644 101.741 18.328V18.04H100.541ZM100.853 18.04V18.328C100.853 20.608 101.537 22.78 103.337 23.716L104.201 22.54C102.629 21.7 102.053 20.008 102.053 18.328V18.04H100.853ZM98.8132 16.816V18.1H103.769V16.816H98.8132ZM100.541 15.328V17.86H102.053V15.328H100.541ZM106.625 14.956V26.068H108.137V14.956H106.625ZM104.381 15.136V25.564H105.869V15.136H104.381Z" fill="#333333"/>
<path d="M232.08 15.4C230.4 15.4 229.176 16.372 229.176 17.776C229.176 19.156 230.4 20.152 232.08 20.152C233.772 20.152 234.996 19.156 234.996 17.776C234.996 16.372 233.772 15.4 232.08 15.4ZM232.08 16.696C232.896 16.696 233.472 17.08 233.472 17.776C233.472 18.46 232.896 18.844 232.08 18.844C231.276 18.844 230.7 18.46 230.7 17.776C230.7 17.08 231.276 16.696 232.08 16.696ZM231.336 21.256V25.732H232.932V21.256H231.336ZM236.196 14.956V26.068H237.78V14.956H236.196ZM228.708 22.096C230.628 22.084 233.256 22.06 235.668 21.58L235.56 20.416C233.208 20.776 230.46 20.8 228.516 20.8L228.708 22.096ZM239.927 19.996V21.256H240.851C243.071 21.256 244.415 21.208 245.903 20.944L245.735 19.696C244.283 19.948 243.011 19.996 240.851 19.996H239.927ZM239.927 15.676V20.404H241.523V16.948H245.147V15.676H239.927ZM241.031 17.836V19.072H244.907V17.836H241.031ZM246.671 14.956V21.664H248.267V14.956H246.671ZM247.823 17.644V18.964H249.743V17.644H247.823ZM240.851 22.132V23.404H246.671V26.068H248.267V22.132H240.851ZM256.174 17.404V18.688H258.958V17.404H256.174ZM253.63 15.412C251.95 15.412 250.69 16.528 250.69 18.064C250.69 19.612 251.95 20.716 253.63 20.716C255.298 20.716 256.558 19.612 256.558 18.064C256.558 16.528 255.298 15.412 253.63 15.412ZM253.63 16.744C254.446 16.744 255.034 17.236 255.034 18.064C255.034 18.892 254.446 19.396 253.63 19.396C252.814 19.396 252.214 18.892 252.214 18.064C252.214 17.236 252.814 16.744 253.63 16.744ZM258.262 14.956V20.932H259.858V14.956H258.262ZM252.478 21.412V25.948H259.858V21.412H258.274V22.468H254.062V21.412H252.478ZM254.062 23.692H258.274V24.676H254.062V23.692ZM261.597 21.172V22.444H271.665V21.172H261.597ZM265.797 21.988V26.068H267.381V21.988H265.797ZM262.761 15.496V19.984H270.465V15.496H262.761ZM268.893 16.756V18.724H264.333V16.756H268.893ZM283.745 14.956V26.068H285.269V14.956H283.745ZM282.293 19.24V20.512H284.141V19.24H282.293ZM281.261 15.148V25.54H282.749V15.148H281.261ZM276.185 16.18V22.6H277.781V16.18H276.185ZM276.185 22V23.368H276.953C278.081 23.368 279.353 23.308 280.805 23.044L280.649 21.676C279.269 21.94 278.021 22 276.953 22H276.185ZM289.049 18.676V20.716H290.645V18.676H289.049ZM292.961 18.676V20.716H294.545V18.676H292.961ZM286.793 20.224V21.484H296.837V20.224H286.793ZM291.797 22.048C289.385 22.048 287.933 22.768 287.933 24.052C287.933 25.348 289.385 26.068 291.797 26.068C294.197 26.068 295.649 25.348 295.649 24.052C295.649 22.768 294.197 22.048 291.797 22.048ZM291.797 23.248C293.285 23.248 294.041 23.5 294.041 24.052C294.041 24.616 293.285 24.868 291.797 24.868C290.309 24.868 289.553 24.616 289.553 24.052C289.553 23.5 290.309 23.248 291.797 23.248ZM291.821 15.112C289.361 15.112 287.801 15.928 287.801 17.26C287.801 18.58 289.361 19.372 291.821 19.372C294.269 19.372 295.841 18.58 295.841 17.26C295.841 15.928 294.269 15.112 291.821 15.112ZM291.821 16.336C293.345 16.336 294.197 16.636 294.197 17.26C294.197 17.872 293.345 18.172 291.821 18.172C290.297 18.172 289.445 17.872 289.445 17.26C289.445 16.636 290.297 16.336 291.821 16.336Z" fill="#333333"/>
<rect x="0.5" y="39.5" width="175" height="41" stroke="#9C9C9C"/>
<rect x="175.5" y="39.5" width="175" height="41" stroke="#9C9C9C"/>
<path d="M62.48 61.712C62.48 60.736 62.62 59.796 62.9 58.892C63.188 57.98 63.636 57.16 64.244 56.432H65.24C64.68 57.184 64.256 58.012 63.968 58.916C63.688 59.82 63.548 60.748 63.548 61.7C63.548 62.628 63.688 63.54 63.968 64.436C64.256 65.324 64.676 66.144 65.228 66.896H64.244C63.636 66.192 63.188 65.396 62.9 64.508C62.62 63.612 62.48 62.68 62.48 61.712ZM70.5417 56.156V56.612C70.5417 58.04 68.6817 59.288 66.7737 59.564L67.1577 60.356C69.3417 59.984 71.4057 58.556 71.4057 56.612V56.156H70.5417ZM70.7937 56.156V56.612C70.7937 58.556 72.8457 59.984 75.0417 60.356L75.4137 59.564C73.5177 59.288 71.6457 58.04 71.6457 56.612V56.156H70.7937ZM70.5777 61.796V65.936H71.5617V61.796H70.5777ZM66.1977 61.268V62.084H76.0017V61.268H66.1977ZM67.1097 55.76V56.564H75.0537V55.76H67.1097ZM79.7567 61.712C79.7567 62.68 79.6127 63.612 79.3247 64.508C79.0447 65.396 78.6007 66.192 77.9927 66.896H77.0087C77.5607 66.144 77.9767 65.324 78.2567 64.436C78.5447 63.54 78.6887 62.628 78.6887 61.7C78.6887 60.748 78.5447 59.82 78.2567 58.916C77.9767 58.012 77.5567 57.184 76.9967 56.432H77.9927C78.6007 57.16 79.0447 57.98 79.3247 58.892C79.6127 59.796 79.7567 60.736 79.7567 61.712ZM89.1384 55.088V65.936H90.0984V55.088H89.1384ZM85.5624 59.216V60.092H87.3624V59.216H85.5624ZM87.0384 55.352V65.372H87.9864V55.352H87.0384ZM80.9304 56.456V57.272H85.8864V56.456H80.9304ZM80.8344 63.272C82.2264 63.272 84.4944 63.224 86.1864 62.9L86.1144 62.168C84.4704 62.384 82.1184 62.432 80.7144 62.432L80.8344 63.272ZM81.8184 56.984V62.66H82.7304V56.984H81.8184ZM84.0744 56.984V62.66H84.9864V56.984H84.0744ZM99.7454 55.076V65.948H100.741V55.076H99.7454ZM95.0174 55.916C93.4214 55.916 92.2694 57.392 92.2694 59.696C92.2694 62.012 93.4214 63.488 95.0174 63.488C96.6254 63.488 97.7774 62.012 97.7774 59.696C97.7774 57.392 96.6254 55.916 95.0174 55.916ZM95.0174 56.816C96.0854 56.816 96.8174 57.944 96.8174 59.696C96.8174 61.46 96.0854 62.612 95.0174 62.612C93.9614 62.612 93.2174 61.46 93.2174 59.696C93.2174 57.944 93.9614 56.816 95.0174 56.816ZM103.812 55.412V56.192H111.781V55.412H103.812ZM103.861 58.256V59.024H111.733V58.256H103.861ZM105.457 55.712V58.76H106.453V55.712H105.457ZM109.153 55.712V58.76H110.137V55.712H109.153ZM102.901 59.924V60.728H112.705V59.924H102.901ZM104.089 61.676V62.42H110.473V63.344H104.113V65.36H105.097V64.052H111.457V61.676H104.089ZM104.113 65.06V65.816H111.781V65.06H104.113Z" fill="white"/>
<path d="M232.348 58.076V58.892H235.084V58.076H232.348ZM234.52 55.1V63.044H235.516V55.1H234.52ZM228.592 64.88V65.696H235.816V64.88H228.592ZM228.592 62.348V65.3H229.588V62.348H228.592ZM229.36 56.444V57.32C229.36 58.856 228.244 60.296 226.624 60.872L227.14 61.664C228.952 60.992 230.176 59.288 230.176 57.32V56.444H229.36ZM229.552 56.444V57.308C229.552 59.144 230.716 60.776 232.48 61.412L232.984 60.632C231.412 60.08 230.356 58.712 230.356 57.308V56.444H229.552ZM226.936 55.976V56.78H232.732V55.976H226.936ZM240.315 56.636V58.4C240.315 60.236 239.007 62.3 237.459 63.056L238.035 63.848C239.727 62.984 241.107 60.656 241.107 58.4V56.636H240.315ZM240.495 56.636V58.4C240.495 60.548 241.803 62.732 243.519 63.584L244.083 62.792C242.511 62.048 241.287 60.116 241.287 58.4V56.636H240.495ZM237.843 56.192V57.032H243.687V56.192H237.843ZM244.971 55.088V65.936H245.979V55.088H244.971ZM245.739 59.468V60.308H247.755V59.468H245.739ZM259.715 55.088V60.62H260.711V55.088H259.715ZM256.283 55.616V56.108C256.283 57.98 254.771 59.408 251.963 60.056L252.311 60.872C255.479 60.104 257.363 58.352 257.363 55.616H256.283ZM252.527 55.616V56.432H256.739V55.616H252.527ZM256.979 56.648V57.44H259.883V56.648H256.979ZM256.883 58.724V59.504H259.823V58.724H256.883ZM253.727 61.124V61.928H259.727V63.02H253.763V65.516H254.747V63.788H260.711V61.124H253.727ZM253.763 65.036V65.828H261.071V65.036H253.763ZM271.078 55.088V65.936H272.038V55.088H271.078ZM267.13 58.976V59.804H269.206V58.976H267.13ZM268.906 55.34V65.384H269.842V55.34H268.906ZM265.042 56.768V58.148C265.042 60.14 264.202 62.12 262.69 63.032L263.302 63.776C264.898 62.768 265.81 60.524 265.81 58.148V56.768H265.042ZM265.246 56.768V58.148C265.246 60.416 266.122 62.552 267.706 63.512L268.318 62.78C266.83 61.916 266.014 60.032 266.014 58.148V56.768H265.246ZM262.99 56.348V57.176H267.946V56.348H262.99ZM284.923 55.076V65.948H285.907V55.076H284.923ZM282.583 59.432V60.26H285.211V59.432H282.583ZM279.751 57.668V58.592C279.751 60.464 278.599 62.312 277.003 63.08L277.567 63.848C279.283 62.996 280.543 60.884 280.543 58.592V57.668H279.751ZM279.943 57.668V58.592C279.943 60.812 281.215 62.84 282.955 63.644L283.507 62.876C281.911 62.144 280.723 60.38 280.723 58.592V57.668H279.943ZM277.303 56.972V57.776H283.135V56.972H277.303ZM279.739 55.28V57.416H280.735V55.28H279.739ZM295.926 55.076V65.948H296.922V55.076H295.926ZM288.654 62.504V63.332H289.554C291.414 63.332 293.046 63.26 295.014 62.936L294.906 62.12C292.986 62.432 291.366 62.504 289.554 62.504H288.654ZM288.63 56.096V56.912H292.638V59.156H288.654V62.816H289.65V59.972H293.646V56.096H288.63Z" fill="white"/>
<rect x="0.5" y="80.5" width="175" height="41" stroke="#9C9C9C"/>
<rect x="175.5" y="80.5" width="175" height="41" stroke="#9C9C9C"/>
<path d="M40.944 97.156V97.612C40.944 99.04 39.084 100.288 37.176 100.564L37.56 101.356C39.744 100.984 41.808 99.556 41.808 97.612V97.156H40.944ZM41.196 97.156V97.612C41.196 99.556 43.248 100.984 45.444 101.356L45.816 100.564C43.92 100.288 42.048 99.04 42.048 97.612V97.156H41.196ZM40.98 102.796V106.936H41.964V102.796H40.98ZM36.6 102.268V103.084H46.404V102.268H36.6ZM37.512 96.76V97.564H45.456V96.76H37.512ZM50.4591 96.604V97.66C50.4591 99.28 49.3671 100.78 47.7231 101.38L48.2271 102.172C50.0631 101.476 51.2871 99.712 51.2871 97.66V96.604H50.4591ZM50.6391 96.604V97.66C50.6391 99.652 51.8631 101.308 53.6751 101.968L54.1791 101.188C52.5711 100.624 51.4551 99.22 51.4551 97.66V96.604H50.6391ZM49.2831 103.168V103.984H55.5231V106.936H56.5311V103.168H49.2831ZM55.5231 96.088V102.616H56.5311V96.088H55.5231ZM61.7621 102.592V104.38H62.7701V102.592H61.7621ZM66.5141 96.088V106.936H67.5101V96.088H66.5141ZM58.8701 104.872C60.8741 104.872 63.4901 104.848 65.9021 104.44L65.8301 103.708C63.4901 104.008 60.7901 104.032 58.7381 104.044L58.8701 104.872ZM58.9661 97.408V98.212H65.5541V97.408H58.9661ZM62.2541 98.836C60.7061 98.836 59.6501 99.628 59.6501 100.84C59.6501 102.064 60.7061 102.844 62.2541 102.844C63.8141 102.844 64.8701 102.064 64.8701 100.84C64.8701 99.628 63.8141 98.836 62.2541 98.836ZM62.2541 99.604C63.2381 99.604 63.9221 100.096 63.9221 100.84C63.9221 101.584 63.2381 102.076 62.2541 102.076C61.2821 102.076 60.5981 101.584 60.5981 100.84C60.5981 100.096 61.2821 99.604 62.2541 99.604ZM61.7621 96.088V97.852H62.7581V96.088H61.7621ZM72.3692 97.024V98.968C72.3692 100.948 71.1332 103.036 69.5612 103.828L70.1732 104.62C71.8892 103.708 73.1852 101.368 73.1852 98.968V97.024H72.3692ZM72.5492 97.024V98.968C72.5492 101.296 73.8092 103.516 75.4892 104.416L76.1012 103.624C74.5652 102.856 73.3532 100.876 73.3532 98.968V97.024H72.5492ZM77.0492 96.088V106.936H78.0572V96.088H77.0492ZM77.8172 100.48V101.32H79.8332V100.48H77.8172ZM85.0374 96.52V97.324H91.5054V98.584H85.0614V101.224H86.0694V99.352H92.5014V96.52H85.0374ZM85.0614 100.732V101.548H92.7534V100.732H85.0614ZM83.8614 102.664V103.492H93.7014V102.664H83.8614ZM88.2654 102.976V106.948H89.2494V102.976H88.2654ZM102.977 100.408V101.248H104.981V100.408H102.977ZM102.245 96.076V106.936H103.253V96.076H102.245ZM95.3325 97.144V103.864H96.3285V97.144H95.3325ZM95.3325 103.348V104.188H96.1965C97.8405 104.188 99.5085 104.08 101.357 103.696L101.237 102.868C99.4485 103.24 97.8045 103.348 96.1965 103.348H95.3325ZM105.952 104.704V105.532H115.78V104.704H105.952ZM110.32 102.076V104.98H111.304V102.076H110.32ZM110.296 96.808V97.648C110.296 99.436 108.244 101.032 106.336 101.38L106.756 102.208C108.94 101.752 111.16 99.964 111.16 97.648V96.808H110.296ZM110.476 96.808V97.648C110.476 99.964 112.696 101.752 114.88 102.208L115.312 101.38C113.404 101.032 111.34 99.448 111.34 97.648V96.808H110.476ZM116.991 104.716V105.544H126.819V104.716H116.991ZM117.843 97.168V97.984H125.895V97.168H117.843ZM117.867 101.752V102.568H125.883V101.752H117.867ZM119.535 97.924V101.836H120.531V97.924H119.535ZM123.231 97.924V101.836H124.215V97.924H123.231ZM129.29 101.932V102.736H136.742V101.932H129.29ZM128.03 104.716V105.544H137.858V104.716H128.03ZM129.29 97.012V102.184H130.298V97.828H136.622V97.012H129.29ZM129.974 99.436V100.228H136.394V99.436H129.974Z" fill="white"/>
<path d="M215.208 97.216V97.324C215.208 100.276 214.128 102.7 210.696 104.392L211.236 105.16C215.124 103.228 216.18 100.348 216.18 97.216H215.208ZM211.284 97.216V98.02H215.796V97.216H211.284ZM215.052 99.904L210.744 100.192L210.9 101.08L215.052 100.672V99.904ZM217.932 96.076V106.936H218.94V96.076H217.932ZM218.664 100.48V101.308H220.668V100.48H218.664ZM226.247 97.216V97.324C226.247 100.276 225.167 102.7 221.735 104.392L222.275 105.16C226.163 103.228 227.219 100.348 227.219 97.216H226.247ZM222.323 97.216V98.02H226.835V97.216H222.323ZM226.091 99.904L221.783 100.192L221.939 101.08L226.091 100.672V99.904ZM228.971 96.076V106.936H229.979V96.076H228.971ZM229.703 100.48V101.308H231.707V100.48H229.703ZM237.07 102.22V104.92H238.066V102.22H237.07ZM237.574 96.796C235.282 96.796 233.626 97.912 233.626 99.64C233.626 101.368 235.282 102.484 237.574 102.484C239.866 102.484 241.51 101.368 241.51 99.64C241.51 97.912 239.866 96.796 237.574 96.796ZM237.574 97.588C239.29 97.588 240.55 98.404 240.55 99.64C240.55 100.876 239.29 101.692 237.574 101.692C235.846 101.692 234.586 100.876 234.586 99.64C234.586 98.404 235.846 97.588 237.574 97.588ZM232.678 104.728V105.556H242.506V104.728H232.678ZM254.25 96.088V101.608H255.246V96.088H254.25ZM254.814 98.416V99.244H256.842V98.416H254.814ZM248.358 102.124V102.916H254.274V104.032H248.382V106.408H249.366V104.788H255.246V102.124H248.358ZM248.382 105.988V106.792H255.642V105.988H248.382ZM249.822 96.472C248.214 96.472 247.026 97.468 247.026 98.884C247.026 100.312 248.214 101.308 249.822 101.308C251.454 101.308 252.63 100.312 252.63 98.884C252.63 97.468 251.454 96.472 249.822 96.472ZM249.822 97.288C250.89 97.288 251.67 97.948 251.67 98.884C251.67 99.832 250.89 100.492 249.822 100.492C248.778 100.492 247.998 99.832 247.998 98.884C247.998 97.948 248.778 97.288 249.822 97.288ZM265.757 96.088V102.52H266.765V96.088H265.757ZM258.425 101.188V102.016H259.301C261.317 102.016 262.781 101.956 264.569 101.656L264.461 100.852C262.721 101.128 261.269 101.188 259.301 101.188H258.425ZM258.401 96.736V97.552H262.349V98.932H258.425V101.68H259.397V99.7H263.321V96.736H258.401ZM259.757 103.12V106.792H266.765V103.12H259.757ZM265.781 103.912V105.988H260.729V103.912H265.781ZM268.901 101.932V102.748H278.705V101.932H268.901ZM273.305 100.468V102.208H274.289V100.468H273.305ZM269.993 103.696V104.512H276.449V106.936H277.445V103.696H269.993ZM270.197 100.024V100.804H277.553V100.024H270.197ZM270.197 96.376V100.384H271.181V97.156H277.505V96.376H270.197ZM270.893 98.176V98.932H277.217V98.176H270.893ZM288.481 99.76V100.576H291.505V99.76H288.481ZM285.865 97.024V98.956C285.865 100.972 284.641 103.06 283.045 103.852L283.681 104.644C285.397 103.72 286.681 101.392 286.681 98.956V97.024H285.865ZM286.057 97.024V98.956C286.057 101.332 287.317 103.564 289.069 104.452L289.657 103.648C288.085 102.904 286.861 100.936 286.861 98.956V97.024H286.057ZM291.013 96.076V106.948H291.997V96.076H291.013ZM301.98 96.076V106.948H302.976V96.076H301.98ZM294.72 97V104.332H299.832V97H298.836V99.868H295.704V97H294.72ZM295.704 100.66H298.836V103.516H295.704V100.66ZM309.491 96.832V97.66C309.491 99.508 307.451 101.164 305.543 101.524L305.987 102.352C308.159 101.86 310.355 100.024 310.355 97.66V96.832H309.491ZM309.671 96.832V97.66C309.671 100.036 311.879 101.86 314.039 102.352L314.483 101.524C312.587 101.164 310.535 99.52 310.535 97.66V96.832H309.671ZM305.147 104.656V105.472H314.975V104.656H305.147Z" fill="white"/>
</svg>
