<svg width="351" height="394" viewBox="0 0 351 394" fill="none" xmlns="http://www.w3.org/2000/svg">
<rect x="0.5" y="0.5" width="139.399" height="39" fill="#DDDDDD" stroke="#9C9C9C"/>
<rect x="140.5" y="0.5" width="139.399" height="39" fill="#DDDDDD" stroke="#9C9C9C"/>
<rect x="279.5" y="0.5" width="71" height="39" fill="#DDDDDD" stroke="#9C9C9C"/>
<path d="M59.948 15.52V20.716H65.204V15.52H63.644V16.924H61.532V15.52H59.948ZM61.532 18.136H63.644V19.444H61.532V18.136ZM64.844 17.488V18.772H67.544V17.488H64.844ZM67.184 14.956V21.04H68.78V14.956H67.184ZM61.4 21.508V25.936H68.78V21.508H67.196V22.504H62.984V21.508H61.4ZM62.984 23.728H67.196V24.664H62.984V23.728ZM70.9391 20.092V21.376H71.7911C73.9151 21.376 75.0551 21.34 76.3511 21.1L76.1951 19.84C74.9351 20.056 73.8551 20.092 71.7911 20.092H70.9391ZM70.9271 15.532V16.804H74.2271V17.812H70.9391V21.04H72.5231V18.988H75.8111V15.532H70.9271ZM78.2231 14.968V21.712H79.8191V14.968H78.2231ZM76.4471 16.432V17.704H78.5231V16.432H76.4471ZM76.4471 18.736V20.008H78.5231V18.736H76.4471ZM76.0631 21.904C73.6991 21.904 72.2591 22.672 72.2591 24.004C72.2591 25.336 73.6991 26.104 76.0631 26.104C78.4271 26.104 79.8671 25.336 79.8671 24.004C79.8671 22.672 78.4271 21.904 76.0631 21.904ZM76.0631 23.104C77.5271 23.104 78.2831 23.392 78.2831 24.004C78.2831 24.616 77.5271 24.904 76.0631 24.904C74.6111 24.904 73.8551 24.616 73.8551 24.004C73.8551 23.392 74.6111 23.104 76.0631 23.104Z" fill="#333333"/>
<path d="M206.632 14.956V22H208.228V14.956H206.632ZM207.784 17.788V19.096H209.704V17.788H207.784ZM204.616 22.12C202.324 22.12 200.884 22.852 200.884 24.1C200.884 25.336 202.324 26.068 204.616 26.068C206.908 26.068 208.348 25.336 208.348 24.1C208.348 22.852 206.908 22.12 204.616 22.12ZM204.616 23.32C206.02 23.32 206.764 23.572 206.764 24.1C206.764 24.628 206.02 24.88 204.616 24.88C203.212 24.88 202.468 24.628 202.468 24.1C202.468 23.572 203.212 23.32 204.616 23.32ZM199.48 16.012V17.248H206.02V16.012H199.48ZM202.756 17.62C201.136 17.62 200.02 18.424 200.02 19.612C200.02 20.812 201.136 21.604 202.756 21.604C204.364 21.604 205.48 20.812 205.48 19.612C205.48 18.424 204.364 17.62 202.756 17.62ZM202.756 18.784C203.464 18.784 203.956 19.072 203.956 19.612C203.956 20.152 203.464 20.44 202.756 20.44C202.036 20.44 201.556 20.152 201.556 19.612C201.556 19.072 202.036 18.784 202.756 18.784ZM201.952 14.884V16.672H203.548V14.884H201.952ZM211.755 15.388V19.324H219.303V15.388H211.755ZM217.731 16.636V18.076H213.315V16.636H217.731ZM210.519 20.368V21.628H220.563V20.368H210.519ZM214.731 19.036V20.728H216.327V19.036H214.731ZM211.635 22.432V23.692H217.755V26.068H219.351V22.432H211.635Z" fill="#333333"/>
<path d="M312.136 14.956V26.068H313.744V14.956H312.136ZM308.86 16.108V16.396C308.86 19.372 307.708 21.388 304.516 22.924L305.344 24.196C309.292 22.288 310.444 19.504 310.444 16.108H308.86ZM305.104 16.108V17.368H309.616V16.108H305.104ZM322.659 14.956V22.912H324.267V14.956H322.659ZM323.811 18.052V19.36H325.743V18.052H323.811ZM319.563 15.784V16.576C319.563 18.34 318.159 19.828 315.435 20.572L316.107 21.844C319.419 20.884 321.267 18.808 321.267 15.784H319.563ZM315.915 15.784V17.068H320.427V15.784H315.915ZM317.079 24.604V25.876H324.639V24.604H317.079ZM317.079 22.108V25.168H318.687V22.108H317.079Z" fill="#333333"/>
<rect x="0.5" y="39.5" width="140" height="177" stroke="#9C9C9C"/>
<rect x="140.5" y="39.5" width="139" height="59" stroke="#9C9C9C"/>
<path d="M13.348 58.076V58.892H16.084V58.076H13.348ZM15.52 55.1V63.044H16.516V55.1H15.52ZM9.592 64.88V65.696H16.816V64.88H9.592ZM9.592 62.348V65.3H10.588V62.348H9.592ZM10.36 56.444V57.32C10.36 58.856 9.244 60.296 7.624 60.872L8.14 61.664C9.952 60.992 11.176 59.288 11.176 57.32V56.444H10.36ZM10.552 56.444V57.308C10.552 59.144 11.716 60.776 13.48 61.412L13.984 60.632C12.412 60.08 11.356 58.712 11.356 57.308V56.444H10.552ZM7.936 55.976V56.78H13.732V55.976H7.936ZM21.3151 56.636V58.4C21.3151 60.236 20.0071 62.3 18.4591 63.056L19.0351 63.848C20.7271 62.984 22.1071 60.656 22.1071 58.4V56.636H21.3151ZM21.4951 56.636V58.4C21.4951 60.548 22.8031 62.732 24.5191 63.584L25.0831 62.792C23.5111 62.048 22.2871 60.116 22.2871 58.4V56.636H21.4951ZM18.8431 56.192V57.032H24.6871V56.192H18.8431ZM25.9711 55.088V65.936H26.9791V55.088H25.9711ZM26.7391 59.468V60.308H28.7551V59.468H26.7391ZM32.3061 55.652V56.756C32.3061 58.412 31.2501 59.876 29.6181 60.476L30.1461 61.28C31.9581 60.572 33.1341 58.844 33.1341 56.756V55.652H32.3061ZM32.4861 55.652V56.828C32.4861 58.712 33.6741 60.32 35.4141 60.968L35.9421 60.188C34.3821 59.648 33.3021 58.292 33.3021 56.828V55.652H32.4861ZM37.0941 55.088V61.664H38.0901V55.088H37.0941ZM37.8141 57.884V58.724H39.6981V57.884H37.8141ZM34.6341 61.964C32.4141 61.964 31.0701 62.696 31.0701 63.944C31.0701 65.192 32.4141 65.912 34.6341 65.912C36.8541 65.912 38.1981 65.192 38.1981 63.944C38.1981 62.696 36.8541 61.964 34.6341 61.964ZM34.6341 62.756C36.2421 62.756 37.2261 63.188 37.2261 63.944C37.2261 64.7 36.2421 65.132 34.6341 65.132C33.0261 65.132 32.0421 64.7 32.0421 63.944C32.0421 63.188 33.0261 62.756 34.6341 62.756ZM48.6372 55.088V65.936H49.6332V55.088H48.6372ZM46.1052 59.432V60.26H49.0812V59.432H46.1052ZM45.1572 56.252V56.42C45.1572 59.252 43.8612 61.556 40.7052 63.104L41.2572 63.884C44.8572 62.084 46.1412 59.348 46.1412 56.252H45.1572ZM41.1732 56.252V57.068H45.6852V56.252H41.1732ZM52.1043 62.516V63.344H52.8243C54.1683 63.344 55.3923 63.308 56.8923 63.044L56.8083 62.216C55.3443 62.468 54.1443 62.516 52.8243 62.516H52.1043ZM52.0803 56.264V57.08H55.1763V59.264H52.1043V62.828H53.0763V60.08H56.1483V56.264H52.0803ZM60.0003 55.088V65.936H60.9603V55.088H60.0003ZM58.1643 59.372V60.188H60.2523V59.372H58.1643ZM57.5403 55.328V65.384H58.4763V55.328H57.5403ZM65.9125 60.248V61.076H75.7165V60.248H65.9125ZM67.1485 58.412V59.216H74.5765V58.412H67.1485ZM67.1485 55.52V58.796H68.1325V56.336H74.4925V55.52H67.1485ZM70.7965 62.012C68.4805 62.012 67.0765 62.72 67.0765 63.968C67.0765 65.216 68.4805 65.912 70.7965 65.912C73.1125 65.912 74.5165 65.216 74.5165 63.968C74.5165 62.72 73.1125 62.012 70.7965 62.012ZM70.7965 62.78C72.5005 62.78 73.5085 63.212 73.5085 63.968C73.5085 64.712 72.5005 65.132 70.7965 65.132C69.1045 65.132 68.0845 64.712 68.0845 63.968C68.0845 63.212 69.1045 62.78 70.7965 62.78ZM81.3436 59.3V60.128H83.3956V59.3H81.3436ZM85.2076 55.088V65.936H86.1676V55.088H85.2076ZM83.0596 55.316V65.396H84.0076V55.316H83.0596ZM79.3876 55.988C77.9836 55.988 77.0836 57.44 77.0836 59.768C77.0836 62.096 77.9836 63.548 79.3876 63.548C80.7916 63.548 81.7036 62.096 81.7036 59.768C81.7036 57.44 80.7916 55.988 79.3876 55.988ZM79.3876 56.912C80.2516 56.912 80.7916 58.016 80.7916 59.768C80.7916 61.52 80.2516 62.624 79.3876 62.624C78.5356 62.624 77.9956 61.52 77.9956 59.768C77.9956 58.016 78.5356 56.912 79.3876 56.912ZM93.4026 58.76V59.576H96.4266V58.76H93.4026ZM90.7866 56.024V57.956C90.7866 59.972 89.5626 62.06 87.9666 62.852L88.6026 63.644C90.3186 62.72 91.6026 60.392 91.6026 57.956V56.024H90.7866ZM90.9786 56.024V57.956C90.9786 60.332 92.2386 62.564 93.9906 63.452L94.5786 62.648C93.0066 61.904 91.7826 59.936 91.7826 57.956V56.024H90.9786ZM95.9346 55.076V65.948H96.9186V55.076H95.9346ZM102.546 55.868C100.854 55.868 99.6297 56.912 99.6297 58.424C99.6297 59.948 100.854 60.992 102.546 60.992C104.238 60.992 105.45 59.948 105.45 58.424C105.45 56.912 104.238 55.868 102.546 55.868ZM102.546 56.732C103.662 56.732 104.478 57.416 104.478 58.424C104.478 59.432 103.662 60.128 102.546 60.128C101.418 60.128 100.602 59.432 100.602 58.424C100.602 57.416 101.418 56.732 102.546 56.732ZM106.866 55.076V65.948H107.862V55.076H106.866ZM99.2217 63.572C101.154 63.572 103.806 63.56 106.242 63.092L106.158 62.36C103.794 62.732 101.058 62.744 99.0777 62.744L99.2217 63.572ZM113.186 63.704V64.532H123.014V63.704H113.186ZM117.554 61.076V63.98H118.538V61.076H117.554ZM117.53 55.808V56.648C117.53 58.436 115.478 60.032 113.57 60.38L113.99 61.208C116.174 60.752 118.394 58.964 118.394 56.648V55.808H117.53ZM117.71 55.808V56.648C117.71 58.964 119.93 60.752 122.114 61.208L122.546 60.38C120.638 60.032 118.574 58.448 118.574 56.648V55.808H117.71ZM15.472 73.076V83.948H16.468V73.076H15.472ZM8.212 74V81.332H13.324V74H12.328V76.868H9.196V74H8.212ZM9.196 77.66H12.328V80.516H9.196V77.66ZM21.3151 74.636V76.4C21.3151 78.236 20.0071 80.3 18.4591 81.056L19.0351 81.848C20.7271 80.984 22.1071 78.656 22.1071 76.4V74.636H21.3151ZM21.4951 74.636V76.4C21.4951 78.548 22.8031 80.732 24.5191 81.584L25.0831 80.792C23.5111 80.048 22.2871 78.116 22.2871 76.4V74.636H21.4951ZM18.8431 74.192V75.032H24.6871V74.192H18.8431ZM25.9711 73.088V83.936H26.9791V73.088H25.9711ZM26.7391 77.468V78.308H28.7551V77.468H26.7391ZM29.6781 81.728V82.556H39.5061V81.728H29.6781ZM34.0701 79.136V81.968H35.0661V79.136H34.0701ZM30.8301 73.856V79.4H38.3301V73.856H37.3461V75.788H31.8141V73.856H30.8301ZM31.8141 76.592H37.3461V78.584H31.8141V76.592ZM41.1972 74.672V75.488H50.0052V74.672H41.1972ZM40.7172 81.848V82.676H50.5452V81.848H40.7172ZM45.1212 80.132V82.172H46.1052V80.132H45.1212ZM45.6012 76.22C43.4172 76.22 42.0612 76.976 42.0612 78.284C42.0612 79.592 43.4172 80.348 45.6012 80.348C47.7972 80.348 49.1532 79.592 49.1532 78.284C49.1532 76.976 47.7972 76.22 45.6012 76.22ZM45.6012 77C47.1852 77 48.1452 77.48 48.1452 78.284C48.1452 79.088 47.1852 79.556 45.6012 79.556C44.0292 79.556 43.0572 79.088 43.0572 78.284C43.0572 77.48 44.0292 77 45.6012 77ZM45.1212 73.268V75.176H46.1052V73.268H45.1212ZM56.1483 77.3V78.128H58.2003V77.3H56.1483ZM60.0123 73.088V83.936H60.9723V73.088H60.0123ZM57.8643 73.316V83.396H58.8123V73.316H57.8643ZM54.1923 73.988C52.7883 73.988 51.8883 75.44 51.8883 77.768C51.8883 80.096 52.7883 81.548 54.1923 81.548C55.5963 81.548 56.5083 80.096 56.5083 77.768C56.5083 75.44 55.5963 73.988 54.1923 73.988ZM54.1923 74.912C55.0563 74.912 55.5963 76.016 55.5963 77.768C55.5963 79.52 55.0563 80.624 54.1923 80.624C53.3403 80.624 52.8003 79.52 52.8003 77.768C52.8003 76.016 53.3403 74.912 54.1923 74.912ZM66.4885 73.928V74.744H71.2885V73.928H66.4885ZM68.1205 76.352V79.064H69.1045V76.352H68.1205ZM70.8925 73.928V74.504C70.8925 75.2 70.8925 76.184 70.6165 77.612L71.5885 77.72C71.8765 76.292 71.8765 75.212 71.8765 74.504V73.928H70.8925ZM73.3525 73.088V81.26H74.3485V73.088H73.3525ZM73.8925 76.616V77.444H75.8965V76.616H73.8925ZM67.4965 82.88V83.696H74.6965V82.88H67.4965ZM67.4965 80.504V83.132H68.4805V80.504H67.4965ZM65.9365 79.532C67.8445 79.532 70.4365 79.484 72.6925 79.088L72.6205 78.368C70.4245 78.668 67.7605 78.716 65.8285 78.716L65.9365 79.532ZM84.3676 73.1V81.236H85.3636V73.1H84.3676ZM85.0516 76.652V77.492H86.9716V76.652H85.0516ZM76.9756 74.408V75.212H83.3836V74.408H76.9756ZM80.1796 75.812C78.6316 75.812 77.5756 76.616 77.5756 77.84C77.5756 79.052 78.6316 79.856 80.1796 79.856C81.7156 79.856 82.7716 79.052 82.7716 77.84C82.7716 76.616 81.7156 75.812 80.1796 75.812ZM80.1796 76.592C81.1516 76.592 81.8236 77.084 81.8236 77.84C81.8236 78.584 81.1516 79.076 80.1796 79.076C79.1956 79.076 78.5236 78.584 78.5236 77.84C78.5236 77.084 79.1956 76.592 80.1796 76.592ZM79.6756 73.088V74.828H80.6716V73.088H79.6756ZM78.6076 82.88V83.696H85.8556V82.88H78.6076ZM78.6076 80.588V83.228H79.6036V80.588H78.6076ZM91.6358 73.64V78.608H96.5318V73.64H95.5598V75.308H92.6198V73.64H91.6358ZM92.6198 76.088H95.5598V77.792H92.6198V76.088ZM96.2558 75.752V76.568H99.3278V75.752H96.2558ZM99.0278 73.088V79.016H100.024V73.088H99.0278ZM93.0758 79.544V83.792H100.024V79.544H99.0398V80.852H94.0598V79.544H93.0758ZM94.0598 81.644H99.0398V82.976H94.0598V81.644ZM102.135 78.032V78.8H111.975V78.032H102.135ZM103.299 79.772V80.48H109.767V81.404H103.335V83.36H104.319V82.088H110.739V79.772H103.299ZM103.335 83.096V83.816H111.087V83.096H103.335ZM103.383 73.388V74.096H109.731V74.972H103.407V76.82H104.391V75.644H110.703V73.388H103.383ZM103.407 76.568V77.288H110.907V76.568H103.407ZM104.787 78.332V80.216H105.771V78.332H104.787ZM108.339 78.332V80.216H109.323V78.332H108.339Z" fill="white"/>
<path d="M150.8 58.1V58.904H153.212V58.1H150.8ZM150.716 60.824V61.628H153.188V60.824H150.716ZM154.856 55.088V65.936H155.816V55.088H154.856ZM152.684 55.364V65.384H153.62V55.364H152.684ZM150.26 56.456V56.636C150.26 59.192 149.12 61.352 146.588 62.888L147.164 63.596C150.08 61.856 151.22 59.3 151.22 56.456H150.26ZM147.068 56.456V57.272H150.656V56.456H147.068ZM165.751 56.732V57.572H167.635V56.732H165.751ZM165.751 59.06V59.888H167.635V59.06H165.751ZM165.055 55.088V61.532H166.051V55.088H165.055ZM159.007 62.048V62.852H165.055V65.936H166.051V62.048H159.007ZM160.663 55.724C159.031 55.724 157.831 56.78 157.831 58.304C157.831 59.816 159.031 60.86 160.663 60.86C162.295 60.86 163.495 59.816 163.495 58.304C163.495 56.78 162.295 55.724 160.663 55.724ZM160.663 56.576C161.743 56.576 162.523 57.272 162.523 58.304C162.523 59.324 161.743 60.032 160.663 60.032C159.583 60.032 158.803 59.324 158.803 58.304C158.803 57.272 159.583 56.576 160.663 56.576ZM176.955 60.104V60.92H180.855V60.104H176.955ZM171.795 63.728V64.556H181.623V63.728H171.795ZM176.187 61.448V64.124H177.171V61.448H176.187ZM176.955 56.096V60.536H177.951V56.912H180.747V56.096H176.955ZM172.635 56.108V60.488H173.631V56.924H176.307V56.108H172.635ZM172.635 60.08V60.92H173.235C174.327 60.92 175.323 60.872 176.499 60.62L176.403 59.78C175.275 60.044 174.291 60.08 173.235 60.08H172.635ZM184.154 58.34V59.156H191.522V58.34H184.154ZM182.822 60.608V61.424H192.662V60.608H182.822ZM184.154 55.484V58.748H185.138V55.484H184.154ZM184.082 64.856V65.672H191.582V64.856H184.082ZM184.082 62.504V65.072H185.066V62.504H184.082ZM199.691 56.936V57.404C199.691 58.868 198.611 60.188 197.015 60.704L197.495 61.484C199.307 60.872 200.507 59.288 200.507 57.404V56.936H199.691ZM199.871 56.936V57.404C199.871 59.18 201.119 60.644 202.943 61.208L203.399 60.428C201.803 59.96 200.687 58.748 200.687 57.404V56.936H199.871ZM197.291 56.396V57.2H203.075V56.396H197.291ZM199.691 55.04V56.684H200.687V55.04H199.691ZM202.751 58.172V59H205.199V58.172H202.751ZM204.911 55.088V61.652H205.907V55.088H204.911ZM202.343 61.94C200.087 61.94 198.719 62.672 198.719 63.932C198.719 65.18 200.087 65.912 202.343 65.912C204.587 65.912 205.955 65.18 205.955 63.932C205.955 62.672 204.587 61.94 202.343 61.94ZM202.343 62.72C203.975 62.72 204.971 63.164 204.971 63.932C204.971 64.688 203.975 65.132 202.343 65.132C200.699 65.132 199.715 64.688 199.715 63.932C199.715 63.164 200.699 62.72 202.343 62.72ZM216.142 56.732V57.572H218.026V56.732H216.142ZM216.142 59.06V59.888H218.026V59.06H216.142ZM215.446 55.088V61.532H216.442V55.088H215.446ZM209.398 62.048V62.852H215.446V65.936H216.442V62.048H209.398ZM211.054 55.724C209.422 55.724 208.222 56.78 208.222 58.304C208.222 59.816 209.422 60.86 211.054 60.86C212.686 60.86 213.886 59.816 213.886 58.304C213.886 56.78 212.686 55.724 211.054 55.724ZM211.054 56.576C212.134 56.576 212.914 57.272 212.914 58.304C212.914 59.324 212.134 60.032 211.054 60.032C209.974 60.032 209.194 59.324 209.194 58.304C209.194 57.272 209.974 56.576 211.054 56.576ZM221.769 56.756V57.212C221.769 58.496 220.641 59.588 219.033 60.008L219.477 60.788C221.313 60.284 222.585 58.928 222.585 57.212V56.756H221.769ZM221.949 56.756V57.212C221.949 58.844 223.257 60.116 225.105 60.572L225.525 59.804C223.929 59.432 222.765 58.412 222.765 57.212V56.756H221.949ZM219.369 56.156V56.972H225.153V56.156H219.369ZM221.769 55.04V56.612H222.765V55.04H221.769ZM224.841 57.776V58.592H227.625V57.776H224.841ZM226.989 55.088V60.764H227.985V55.088H226.989ZM221.001 61.292V62.084H227.001V63.128H221.025V65.48H221.997V63.872H227.985V61.292H221.001ZM221.025 65.036V65.816H228.381V65.036H221.025ZM233.192 61.592V63.38H234.2V61.592H233.192ZM237.944 55.088V65.936H238.94V55.088H237.944ZM230.3 63.872C232.304 63.872 234.92 63.848 237.332 63.44L237.26 62.708C234.92 63.008 232.22 63.032 230.168 63.044L230.3 63.872ZM230.396 56.408V57.212H236.984V56.408H230.396ZM233.684 57.836C232.136 57.836 231.08 58.628 231.08 59.84C231.08 61.064 232.136 61.844 233.684 61.844C235.244 61.844 236.3 61.064 236.3 59.84C236.3 58.628 235.244 57.836 233.684 57.836ZM233.684 58.604C234.668 58.604 235.352 59.096 235.352 59.84C235.352 60.584 234.668 61.076 233.684 61.076C232.712 61.076 232.028 60.584 232.028 59.84C232.028 59.096 232.712 58.604 233.684 58.604ZM233.192 55.088V56.852H234.188V55.088H233.192ZM244.264 60.248V61.076H254.068V60.248H244.264ZM245.5 58.412V59.216H252.928V58.412H245.5ZM245.5 55.52V58.796H246.484V56.336H252.844V55.52H245.5ZM249.148 62.012C246.832 62.012 245.428 62.72 245.428 63.968C245.428 65.216 246.832 65.912 249.148 65.912C251.464 65.912 252.868 65.216 252.868 63.968C252.868 62.72 251.464 62.012 249.148 62.012ZM249.148 62.78C250.852 62.78 251.86 63.212 251.86 63.968C251.86 64.712 250.852 65.132 249.148 65.132C247.456 65.132 246.436 64.712 246.436 63.968C246.436 63.212 247.456 62.78 249.148 62.78ZM259.695 59.3V60.128H261.747V59.3H259.695ZM263.559 55.088V65.936H264.519V55.088H263.559ZM261.411 55.316V65.396H262.359V55.316H261.411ZM257.739 55.988C256.335 55.988 255.435 57.44 255.435 59.768C255.435 62.096 256.335 63.548 257.739 63.548C259.143 63.548 260.055 62.096 260.055 59.768C260.055 57.44 259.143 55.988 257.739 55.988ZM257.739 56.912C258.603 56.912 259.143 58.016 259.143 59.768C259.143 61.52 258.603 62.624 257.739 62.624C256.887 62.624 256.347 61.52 256.347 59.768C256.347 58.016 256.887 56.912 257.739 56.912ZM147.176 73.928V74.744H151.976V73.928H147.176ZM148.808 76.352V79.064H149.792V76.352H148.808ZM151.58 73.928V74.504C151.58 75.2 151.58 76.184 151.304 77.612L152.276 77.72C152.564 76.292 152.564 75.212 152.564 74.504V73.928H151.58ZM154.04 73.088V81.26H155.036V73.088H154.04ZM154.58 76.616V77.444H156.584V76.616H154.58ZM148.184 82.88V83.696H155.384V82.88H148.184ZM148.184 80.504V83.132H149.168V80.504H148.184ZM146.624 79.532C148.532 79.532 151.124 79.484 153.38 79.088L153.308 78.368C151.112 78.668 148.448 78.716 146.516 78.716L146.624 79.532ZM165.055 73.1V81.236H166.051V73.1H165.055ZM165.739 76.652V77.492H167.659V76.652H165.739ZM157.663 74.408V75.212H164.071V74.408H157.663ZM160.867 75.812C159.319 75.812 158.263 76.616 158.263 77.84C158.263 79.052 159.319 79.856 160.867 79.856C162.403 79.856 163.459 79.052 163.459 77.84C163.459 76.616 162.403 75.812 160.867 75.812ZM160.867 76.592C161.839 76.592 162.511 77.084 162.511 77.84C162.511 78.584 161.839 79.076 160.867 79.076C159.883 79.076 159.211 78.584 159.211 77.84C159.211 77.084 159.883 76.592 160.867 76.592ZM160.363 73.088V74.828H161.359V73.088H160.363ZM159.295 82.88V83.696H166.543V82.88H159.295ZM159.295 80.588V83.228H160.291V80.588H159.295ZM179.691 73.088V83.936H180.687V73.088H179.691ZM176.511 74.252V74.42C176.511 77.3 175.059 79.604 171.927 81.116L172.455 81.92C176.079 80.144 177.495 77.396 177.495 74.252H176.511ZM172.419 74.252V75.068H176.943V74.252H172.419ZM182.822 79.052V79.868H192.662V79.052H182.822ZM184.07 73.364V74.144H190.418V75.26H184.094V77.456H185.078V75.992H191.39V73.364H184.07ZM184.094 77.132V77.912H191.63V77.132H184.094ZM187.238 77.54V79.46H188.234V77.54H187.238ZM183.914 80.696V81.512H190.466V83.84H191.462V80.696H183.914Z" fill="white"/>
<rect x="279.5" y="39.5" width="71" height="59" stroke="#9C9C9C"/>
<path d="M309.12 58.744C309.664 58.744 310.136 58.844 310.536 59.044C310.944 59.244 311.26 59.532 311.484 59.908C311.708 60.276 311.82 60.728 311.82 61.264C311.82 61.856 311.7 62.368 311.46 62.8C311.22 63.224 310.872 63.552 310.416 63.784C309.968 64.008 309.424 64.12 308.784 64.12C308.368 64.12 307.98 64.08 307.62 64C307.26 63.92 306.952 63.804 306.696 63.652V62.656C306.968 62.832 307.296 62.972 307.68 63.076C308.072 63.172 308.444 63.22 308.796 63.22C309.188 63.22 309.528 63.156 309.816 63.028C310.112 62.892 310.34 62.688 310.5 62.416C310.668 62.136 310.752 61.788 310.752 61.372C310.752 60.812 310.592 60.384 310.272 60.088C309.952 59.784 309.448 59.632 308.76 59.632C308.544 59.632 308.3 59.652 308.028 59.692C307.764 59.732 307.552 59.772 307.392 59.812L306.888 59.476L307.188 55.432H311.256V56.392H308.088L307.896 58.876C308.032 58.852 308.204 58.824 308.412 58.792C308.62 58.76 308.856 58.744 309.12 58.744ZM320.965 54.088V62.128H321.961V54.088H320.965ZM317.905 55.504V56.308H321.337V55.504H317.905ZM315.025 63.88V64.696H322.249V63.88H315.025ZM315.025 61.432V64.252H316.021V61.432H315.025ZM313.669 54.88V59.992H314.665V54.88H313.669ZM313.669 59.68V60.508H314.485C316.081 60.508 317.533 60.436 319.273 60.124L319.177 59.296C317.485 59.596 316.033 59.68 314.485 59.68H313.669ZM317.905 57.568V58.384H321.337V57.568H317.905Z" fill="white"/>
<rect x="140.5" y="98.5" width="139" height="59" stroke="#9C9C9C"/>
<path d="M154.844 114.088V124.936H155.804V114.088H154.844ZM153.008 118.432V119.26H155.096V118.432H153.008ZM152.384 114.328V124.384H153.32V114.328H152.384ZM146.984 121.432V122.26H147.692C149.324 122.26 150.416 122.212 151.712 121.936L151.616 121.108C150.356 121.372 149.276 121.432 147.692 121.432H146.984ZM146.984 115.408V121.804H147.968V116.224H151.016V115.408H146.984ZM158.887 114.652V115.468H165.871V114.652H158.887ZM157.639 118.648V119.464H167.467V118.648H157.639ZM165.223 114.652V115.456C165.223 116.356 165.223 117.4 164.863 118.888L165.835 118.936C166.195 117.436 166.195 116.38 166.195 115.456V114.652H165.223ZM158.839 120.94V124.792H166.231V120.94H158.839ZM165.259 121.732V123.988H159.811V121.732H165.259ZM176.598 114.088V119.62H177.594V114.088H176.598ZM173.166 114.616V115.108C173.166 116.98 171.654 118.408 168.846 119.056L169.194 119.872C172.362 119.104 174.246 117.352 174.246 114.616H173.166ZM169.41 114.616V115.432H173.622V114.616H169.41ZM173.862 115.648V116.44H176.766V115.648H173.862ZM173.766 117.724V118.504H176.706V117.724H173.766ZM170.61 120.124V120.928H176.61V122.02H170.646V124.516H171.63V122.788H177.594V120.124H170.61ZM170.646 124.036V124.828H177.954V124.036H170.646ZM187.961 114.088V124.936H188.921V114.088H187.961ZM184.013 117.976V118.804H186.089V117.976H184.013ZM185.789 114.34V124.384H186.725V114.34H185.789ZM181.925 115.768V117.148C181.925 119.14 181.085 121.12 179.573 122.032L180.185 122.776C181.781 121.768 182.693 119.524 182.693 117.148V115.768H181.925ZM182.129 115.768V117.148C182.129 119.416 183.005 121.552 184.589 122.512L185.201 121.78C183.713 120.916 182.897 119.032 182.897 117.148V115.768H182.129ZM179.873 115.348V116.176H184.829V115.348H179.873ZM194.437 114.784V119.224H199.489V114.784H194.437ZM198.529 115.588V118.432H195.397V115.588H198.529ZM201.757 114.088V120.316H202.753V114.088H201.757ZM198.817 121.6V121.804C198.817 122.884 197.089 123.916 195.205 124.132L195.541 124.9C197.737 124.612 199.669 123.364 199.669 121.804V121.6H198.817ZM198.961 121.6V121.804C198.961 123.328 200.845 124.6 203.053 124.9L203.389 124.132C201.505 123.904 199.825 122.848 199.825 121.804V121.6H198.961ZM195.637 121.048V121.828H203.005V121.048H195.637ZM198.817 120.004V121.396H199.825V120.004H198.817ZM216.322 114.088V124.936H217.27V114.088H216.322ZM214.606 118.456V119.296H216.694V118.456H214.606ZM213.958 114.316V124.396H214.894V114.316H213.958ZM210.262 115.768V117.016C210.262 119.224 209.47 121.072 207.91 121.936L208.522 122.704C210.19 121.708 211.042 119.62 211.042 117.016V115.768H210.262ZM210.442 115.768V117.016C210.442 119.404 211.306 121.408 212.962 122.32L213.55 121.552C212.026 120.772 211.222 119.008 211.222 117.016V115.768H210.442ZM208.162 115.36V116.188H213.202V115.36H208.162ZM221.877 120.556V122.32H222.873V120.556H221.877ZM226.437 114.088V124.936H227.433V114.088H226.437ZM227.109 118.696V119.536H229.113V118.696H227.109ZM219.081 122.872C220.977 122.872 223.521 122.86 225.861 122.44L225.777 121.696C223.533 122.02 220.881 122.044 218.937 122.044L219.081 122.872ZM219.117 115.396V116.2H225.609V115.396H219.117ZM222.369 116.836C220.857 116.836 219.825 117.628 219.825 118.84C219.825 120.064 220.857 120.844 222.369 120.844C223.881 120.844 224.925 120.064 224.925 118.84C224.925 117.628 223.881 116.836 222.369 116.836ZM222.369 117.604C223.341 117.604 223.989 118.096 223.989 118.84C223.989 119.584 223.341 120.076 222.369 120.076C221.397 120.076 220.761 119.584 220.761 118.84C220.761 118.096 221.397 117.604 222.369 117.604ZM221.877 114.1V115.936H222.873V114.1H221.877ZM233.225 119.248V120.076H243.029V119.248H233.225ZM234.461 117.412V118.216H241.889V117.412H234.461ZM234.461 114.52V117.796H235.445V115.336H241.805V114.52H234.461ZM238.109 121.012C235.793 121.012 234.389 121.72 234.389 122.968C234.389 124.216 235.793 124.912 238.109 124.912C240.425 124.912 241.829 124.216 241.829 122.968C241.829 121.72 240.425 121.012 238.109 121.012ZM238.109 121.78C239.813 121.78 240.821 122.212 240.821 122.968C240.821 123.712 239.813 124.132 238.109 124.132C236.417 124.132 235.397 123.712 235.397 122.968C235.397 122.212 236.417 121.78 238.109 121.78ZM247.78 114.868C246.088 114.868 244.864 115.912 244.864 117.424C244.864 118.948 246.088 119.992 247.78 119.992C249.472 119.992 250.684 118.948 250.684 117.424C250.684 115.912 249.472 114.868 247.78 114.868ZM247.78 115.732C248.896 115.732 249.712 116.416 249.712 117.424C249.712 118.432 248.896 119.128 247.78 119.128C246.652 119.128 245.836 118.432 245.836 117.424C245.836 116.416 246.652 115.732 247.78 115.732ZM252.1 114.076V124.948H253.096V114.076H252.1ZM244.456 122.572C246.388 122.572 249.04 122.56 251.476 122.092L251.392 121.36C249.028 121.732 246.292 121.744 244.312 121.744L244.456 122.572ZM263.28 120.928C260.964 120.928 259.5 121.684 259.5 122.932C259.5 124.168 260.964 124.912 263.28 124.912C265.584 124.912 267.06 124.168 267.06 122.932C267.06 121.684 265.584 120.928 263.28 120.928ZM263.28 121.708C264.984 121.708 266.064 122.176 266.064 122.932C266.064 123.676 264.984 124.144 263.28 124.144C261.576 124.144 260.484 123.676 260.484 122.932C260.484 122.176 261.576 121.708 263.28 121.708ZM259.584 114.628V115.444H266.568V114.628H259.584ZM258.42 119.14V119.944H268.212V119.14H258.42ZM262.44 117.052V119.368H263.424V117.052H262.44ZM265.992 114.628V115.552C265.992 116.404 265.992 117.196 265.692 118.312L266.676 118.432C266.964 117.304 266.964 116.428 266.964 115.552V114.628H265.992ZM147.872 138.292V142.792H155.156V138.292H154.16V139.72H148.856V138.292H147.872ZM148.856 140.512H154.16V141.988H148.856V140.512ZM147.848 132.58V133.396H154.832V132.58H147.848ZM146.6 136.504V137.332H156.428V136.504H146.6ZM154.184 132.58V133.372C154.184 134.26 154.184 135.292 153.824 136.744L154.82 136.732C155.156 135.28 155.156 134.26 155.156 133.372V132.58H154.184ZM162.031 136.3V137.128H164.083V136.3H162.031ZM165.895 132.088V142.936H166.855V132.088H165.895ZM163.747 132.316V142.396H164.695V132.316H163.747ZM160.075 132.988C158.671 132.988 157.771 134.44 157.771 136.768C157.771 139.096 158.671 140.548 160.075 140.548C161.479 140.548 162.391 139.096 162.391 136.768C162.391 134.44 161.479 132.988 160.075 132.988ZM160.075 133.912C160.939 133.912 161.479 135.016 161.479 136.768C161.479 138.52 160.939 139.624 160.075 139.624C159.223 139.624 158.683 138.52 158.683 136.768C158.683 135.016 159.223 133.912 160.075 133.912ZM172.371 132.928V133.744H177.171V132.928H172.371ZM174.003 135.352V138.064H174.987V135.352H174.003ZM176.775 132.928V133.504C176.775 134.2 176.775 135.184 176.499 136.612L177.471 136.72C177.759 135.292 177.759 134.212 177.759 133.504V132.928H176.775ZM179.235 132.088V140.26H180.231V132.088H179.235ZM179.775 135.616V136.444H181.779V135.616H179.775ZM173.379 141.88V142.696H180.579V141.88H173.379ZM173.379 139.504V142.132H174.363V139.504H173.379ZM171.819 138.532C173.727 138.532 176.319 138.484 178.575 138.088L178.503 137.368C176.307 137.668 173.643 137.716 171.711 137.716L171.819 138.532ZM190.25 132.1V140.236H191.246V132.1H190.25ZM190.934 135.652V136.492H192.854V135.652H190.934ZM182.858 133.408V134.212H189.266V133.408H182.858ZM186.062 134.812C184.514 134.812 183.458 135.616 183.458 136.84C183.458 138.052 184.514 138.856 186.062 138.856C187.598 138.856 188.654 138.052 188.654 136.84C188.654 135.616 187.598 134.812 186.062 134.812ZM186.062 135.592C187.034 135.592 187.706 136.084 187.706 136.84C187.706 137.584 187.034 138.076 186.062 138.076C185.078 138.076 184.406 137.584 184.406 136.84C184.406 136.084 185.078 135.592 186.062 135.592ZM185.558 132.088V133.828H186.554V132.088H185.558ZM184.49 141.88V142.696H191.738V141.88H184.49ZM184.49 139.588V142.228H185.486V139.588H184.49ZM204.887 132.088V142.936H205.883V132.088H204.887ZM201.707 133.252V133.42C201.707 136.3 200.255 138.604 197.123 140.116L197.651 140.92C201.275 139.144 202.691 136.396 202.691 133.252H201.707ZM197.615 133.252V134.068H202.139V133.252H197.615ZM208.018 138.052V138.868H217.858V138.052H208.018ZM209.266 132.364V133.144H215.614V134.26H209.29V136.456H210.274V134.992H216.586V132.364H209.266ZM209.29 136.132V136.912H216.826V136.132H209.29ZM212.434 136.54V138.46H213.43V136.54H212.434ZM209.11 139.696V140.512H215.662V142.84H216.658V139.696H209.11Z" fill="white"/>
<rect x="279.5" y="98.5" width="71" height="59" stroke="#9C9C9C"/>
<path d="M309.12 117.744C309.664 117.744 310.136 117.844 310.536 118.044C310.944 118.244 311.26 118.532 311.484 118.908C311.708 119.276 311.82 119.728 311.82 120.264C311.82 120.856 311.7 121.368 311.46 121.8C311.22 122.224 310.872 122.552 310.416 122.784C309.968 123.008 309.424 123.12 308.784 123.12C308.368 123.12 307.98 123.08 307.62 123C307.26 122.92 306.952 122.804 306.696 122.652V121.656C306.968 121.832 307.296 121.972 307.68 122.076C308.072 122.172 308.444 122.22 308.796 122.22C309.188 122.22 309.528 122.156 309.816 122.028C310.112 121.892 310.34 121.688 310.5 121.416C310.668 121.136 310.752 120.788 310.752 120.372C310.752 119.812 310.592 119.384 310.272 119.088C309.952 118.784 309.448 118.632 308.76 118.632C308.544 118.632 308.3 118.652 308.028 118.692C307.764 118.732 307.552 118.772 307.392 118.812L306.888 118.476L307.188 114.432H311.256V115.392H308.088L307.896 117.876C308.032 117.852 308.204 117.824 308.412 117.792C308.62 117.76 308.856 117.744 309.12 117.744ZM320.965 113.088V121.128H321.961V113.088H320.965ZM317.905 114.504V115.308H321.337V114.504H317.905ZM315.025 122.88V123.696H322.249V122.88H315.025ZM315.025 120.432V123.252H316.021V120.432H315.025ZM313.669 113.88V118.992H314.665V113.88H313.669ZM313.669 118.68V119.508H314.485C316.081 119.508 317.533 119.436 319.273 119.124L319.177 118.296C317.485 118.596 316.033 118.68 314.485 118.68H313.669ZM317.905 116.568V117.384H321.337V116.568H317.905Z" fill="white"/>
<rect x="140.5" y="157.5" width="139" height="59" stroke="#9C9C9C"/>
<path d="M146.6 181.704V182.532H156.428V181.704H146.6ZM150.968 179.076V181.98H151.952V179.076H150.968ZM150.944 173.808V174.648C150.944 176.436 148.892 178.032 146.984 178.38L147.404 179.208C149.588 178.752 151.808 176.964 151.808 174.648V173.808H150.944ZM151.124 173.808V174.648C151.124 176.964 153.344 178.752 155.528 179.208L155.96 178.38C154.052 178.032 151.988 176.448 151.988 174.648V173.808H151.124ZM165.511 173.076V183.948H166.507V173.076H165.511ZM158.251 174V181.332H163.363V174H162.367V176.868H159.235V174H158.251ZM159.235 177.66H162.367V180.516H159.235V177.66ZM171.354 174.636V176.4C171.354 178.236 170.046 180.3 168.498 181.056L169.074 181.848C170.766 180.984 172.146 178.656 172.146 176.4V174.636H171.354ZM171.534 174.636V176.4C171.534 178.548 172.842 180.732 174.558 181.584L175.122 180.792C173.55 180.048 172.326 178.116 172.326 176.4V174.636H171.534ZM168.882 174.192V175.032H174.726V174.192H168.882ZM176.01 173.088V183.936H177.018V173.088H176.01ZM176.778 177.468V178.308H178.794V177.468H176.778ZM183.233 173.868C181.541 173.868 180.317 174.912 180.317 176.424C180.317 177.948 181.541 178.992 183.233 178.992C184.925 178.992 186.137 177.948 186.137 176.424C186.137 174.912 184.925 173.868 183.233 173.868ZM183.233 174.732C184.349 174.732 185.165 175.416 185.165 176.424C185.165 177.432 184.349 178.128 183.233 178.128C182.105 178.128 181.289 177.432 181.289 176.424C181.289 175.416 182.105 174.732 183.233 174.732ZM187.553 173.076V183.948H188.549V173.076H187.553ZM179.909 181.572C181.841 181.572 184.493 181.56 186.929 181.092L186.845 180.36C184.481 180.732 181.745 180.744 179.765 180.744L179.909 181.572ZM198.265 178.296V179.952H199.249V178.296H198.265ZM195.169 173.256V176.832H202.393V173.256H201.397V174.264H196.153V173.256H195.169ZM196.153 175.032H201.397V176.064H196.153V175.032ZM193.861 177.72V178.524H203.665V177.72H193.861ZM195.049 179.58V180.336H201.433V181.272H195.073V183.336H196.057V181.992H202.417V179.58H195.049ZM195.073 183.048V183.816H202.741V183.048H195.073ZM205.357 174.06V179.088H210.337V174.06H205.357ZM209.365 174.864V178.284H206.329V174.864H209.365ZM212.329 173.076V181.032H213.325V173.076H212.329ZM213.013 176.388V177.216H214.933V176.388H213.013ZM206.569 182.88V183.696H213.817V182.88H206.569ZM206.569 180.276V183.228H207.565V180.276H206.569ZM224.229 178.104V178.92H228.129V178.104H224.229ZM219.069 181.728V182.556H228.897V181.728H219.069ZM223.461 179.448V182.124H224.445V179.448H223.461ZM224.229 174.096V178.536H225.225V174.912H228.021V174.096H224.229ZM219.909 174.108V178.488H220.905V174.924H223.581V174.108H219.909ZM219.909 178.08V178.92H220.509C221.601 178.92 222.597 178.872 223.773 178.62L223.677 177.78C222.549 178.044 221.565 178.08 220.509 178.08H219.909ZM231.428 176.34V177.156H238.796V176.34H231.428ZM230.096 178.608V179.424H239.936V178.608H230.096ZM231.428 173.484V176.748H232.412V173.484H231.428ZM231.356 182.856V183.672H238.856V182.856H231.356ZM231.356 180.504V183.072H232.34V180.504H231.356ZM244.252 178.812V179.628H254.08V178.812H244.252ZM248.74 179.22V181.716H249.736V179.22H248.74ZM245.5 182.88V183.696H252.988V182.88H245.5ZM245.5 180.756V183.192H246.484V180.756H245.5ZM245.56 173.424V177.768H252.784V173.424H251.788V174.804H246.544V173.424H245.56ZM246.544 175.584H251.788V176.964H246.544V175.584ZM257.535 174.408V175.284C257.535 176.628 256.755 177.996 255.339 178.596L255.867 179.364C257.463 178.668 258.327 177.024 258.327 175.284V174.408H257.535ZM257.715 174.408V175.284C257.715 176.976 258.519 178.44 260.067 179.076L260.595 178.308C259.239 177.78 258.495 176.592 258.495 175.284V174.408H257.715ZM255.555 173.988V174.804H260.403V173.988H255.555ZM263.487 173.1V179.736H264.435V173.1H263.487ZM261.759 175.968V176.784H263.811V175.968H261.759ZM261.183 173.304V179.388H262.119V173.304H261.183ZM260.871 179.988C258.627 179.988 257.259 180.708 257.259 181.956C257.259 183.192 258.627 183.912 260.871 183.912C263.103 183.912 264.495 183.192 264.495 181.956C264.495 180.708 263.103 179.988 260.871 179.988ZM260.871 180.768C262.503 180.768 263.499 181.2 263.499 181.956C263.499 182.7 262.503 183.132 260.871 183.132C259.239 183.132 258.231 182.7 258.231 181.956C258.231 181.2 259.239 180.768 260.871 180.768ZM154.532 191.076V201.948H155.516V191.076H154.532ZM152.192 195.432V196.26H154.82V195.432H152.192ZM149.36 193.668V194.592C149.36 196.464 148.208 198.312 146.612 199.08L147.176 199.848C148.892 198.996 150.152 196.884 150.152 194.592V193.668H149.36ZM149.552 193.668V194.592C149.552 196.812 150.824 198.84 152.564 199.644L153.116 198.876C151.52 198.144 150.332 196.38 150.332 194.592V193.668H149.552ZM146.912 192.972V193.776H152.744V192.972H146.912ZM149.348 191.28V193.416H150.344V191.28H149.348ZM165.535 191.076V201.948H166.531V191.076H165.535ZM158.263 198.504V199.332H159.163C161.023 199.332 162.655 199.26 164.623 198.936L164.515 198.12C162.595 198.432 160.975 198.504 159.163 198.504H158.263ZM158.239 192.096V192.912H162.247V195.156H158.263V198.816H159.259V195.972H163.255V192.096H158.239ZM173.07 195.3V196.128H175.122V195.3H173.07ZM176.934 191.088V201.936H177.894V191.088H176.934ZM174.786 191.316V201.396H175.734V191.316H174.786ZM171.114 191.988C169.71 191.988 168.81 193.44 168.81 195.768C168.81 198.096 169.71 199.548 171.114 199.548C172.518 199.548 173.43 198.096 173.43 195.768C173.43 193.44 172.518 191.988 171.114 191.988ZM171.114 192.912C171.978 192.912 172.518 194.016 172.518 195.768C172.518 197.52 171.978 198.624 171.114 198.624C170.262 198.624 169.722 197.52 169.722 195.768C169.722 194.016 170.262 192.912 171.114 192.912ZM183.41 191.928V192.744H188.21V191.928H183.41ZM185.042 194.352V197.064H186.026V194.352H185.042ZM187.814 191.928V192.504C187.814 193.2 187.814 194.184 187.538 195.612L188.51 195.72C188.798 194.292 188.798 193.212 188.798 192.504V191.928H187.814ZM190.274 191.088V199.26H191.27V191.088H190.274ZM190.814 194.616V195.444H192.818V194.616H190.814ZM184.418 200.88V201.696H191.618V200.88H184.418ZM184.418 198.504V201.132H185.402V198.504H184.418ZM182.858 197.532C184.766 197.532 187.358 197.484 189.614 197.088L189.542 196.368C187.346 196.668 184.682 196.716 182.75 196.716L182.858 197.532ZM201.289 191.1V199.236H202.285V191.1H201.289ZM201.973 194.652V195.492H203.893V194.652H201.973ZM193.897 192.408V193.212H200.305V192.408H193.897ZM197.101 193.812C195.553 193.812 194.497 194.616 194.497 195.84C194.497 197.052 195.553 197.856 197.101 197.856C198.637 197.856 199.693 197.052 199.693 195.84C199.693 194.616 198.637 193.812 197.101 193.812ZM197.101 194.592C198.073 194.592 198.745 195.084 198.745 195.84C198.745 196.584 198.073 197.076 197.101 197.076C196.117 197.076 195.445 196.584 195.445 195.84C195.445 195.084 196.117 194.592 197.101 194.592ZM196.597 191.088V192.828H197.593V191.088H196.597ZM195.529 200.88V201.696H202.777V200.88H195.529ZM195.529 198.588V201.228H196.525V198.588H195.529ZM215.926 191.088V201.936H216.922V191.088H215.926ZM212.746 192.252V192.42C212.746 195.3 211.294 197.604 208.162 199.116L208.69 199.92C212.314 198.144 213.73 195.396 213.73 192.252H212.746ZM208.654 192.252V193.068H213.178V192.252H208.654ZM219.057 197.052V197.868H228.897V197.052H219.057ZM220.305 191.364V192.144H226.653V193.26H220.329V195.456H221.313V193.992H227.625V191.364H220.305ZM220.329 195.132V195.912H227.865V195.132H220.329ZM223.473 195.54V197.46H224.469V195.54H223.473ZM220.149 198.696V199.512H226.701V201.84H227.697V198.696H220.149Z" fill="white"/>
<rect x="279.5" y="157.5" width="71" height="59" stroke="#9C9C9C"/>
<path d="M311.58 175.436C311.58 175.82 311.508 176.152 311.364 176.432C311.228 176.712 311.036 176.94 310.788 177.116C310.54 177.292 310.244 177.416 309.9 177.488V177.536C310.548 177.616 311.032 177.832 311.352 178.184C311.672 178.536 311.832 178.996 311.832 179.564C311.832 180.06 311.72 180.504 311.496 180.896C311.28 181.28 310.94 181.58 310.476 181.796C310.02 182.012 309.436 182.12 308.724 182.12C308.3 182.12 307.908 182.084 307.548 182.012C307.188 181.948 306.84 181.828 306.504 181.652V180.668C306.84 180.844 307.204 180.984 307.596 181.088C307.988 181.184 308.364 181.232 308.724 181.232C309.436 181.232 309.948 181.084 310.26 180.788C310.572 180.484 310.728 180.068 310.728 179.54C310.728 179.18 310.64 178.892 310.464 178.676C310.296 178.452 310.044 178.288 309.708 178.184C309.38 178.08 308.976 178.028 308.496 178.028H307.74V177.128H308.508C308.956 177.128 309.328 177.06 309.624 176.924C309.92 176.788 310.14 176.6 310.284 176.36C310.436 176.112 310.512 175.828 310.512 175.508C310.512 175.092 310.384 174.772 310.128 174.548C309.872 174.316 309.52 174.2 309.072 174.2C308.784 174.2 308.524 174.232 308.292 174.296C308.06 174.352 307.844 174.436 307.644 174.548C307.452 174.652 307.26 174.776 307.068 174.92L306.552 174.2C306.744 174.04 306.964 173.892 307.212 173.756C307.468 173.62 307.752 173.512 308.064 173.432C308.376 173.352 308.712 173.312 309.072 173.312C309.912 173.312 310.54 173.512 310.956 173.912C311.372 174.312 311.58 174.82 311.58 175.436ZM320.965 172.088V180.128H321.961V172.088H320.965ZM317.905 173.504V174.308H321.337V173.504H317.905ZM315.025 181.88V182.696H322.249V181.88H315.025ZM315.025 179.432V182.252H316.021V179.432H315.025ZM313.669 172.88V177.992H314.665V172.88H313.669ZM313.669 177.68V178.508H314.485C316.081 178.508 317.533 178.436 319.273 178.124L319.177 177.296C317.485 177.596 316.033 177.68 314.485 177.68H313.669ZM317.905 175.568V176.384H321.337V175.568H317.905Z" fill="white"/>
<rect x="0.5" y="216.5" width="140" height="59" stroke="#9C9C9C"/>
<rect x="140.5" y="216.5" width="139" height="59" stroke="#9C9C9C"/>
<path d="M11.14 232.592C9.532 232.592 8.38 233.492 8.38 234.824C8.38 236.144 9.532 237.068 11.14 237.068C12.76 237.068 13.912 236.144 13.912 234.824C13.912 233.492 12.76 232.592 11.14 232.592ZM11.14 233.42C12.196 233.42 12.952 233.996 12.952 234.824C12.952 235.664 12.196 236.228 11.14 236.228C10.084 236.228 9.328 235.664 9.328 234.824C9.328 233.996 10.084 233.42 11.14 233.42ZM10.696 238.268V242.6H11.692V238.268H10.696ZM15.496 232.088V242.948H16.48V232.088H15.496ZM7.708 238.808C9.688 238.808 12.352 238.772 14.8 238.328L14.728 237.584C12.34 237.944 9.592 237.968 7.576 237.968L7.708 238.808ZM26.5231 232.088V242.936H27.5191V232.088H26.5231ZM21.6391 234.668V235.592C21.6391 237.488 20.4391 239.336 18.8311 240.08L19.3951 240.848C21.1351 240.008 22.4431 237.908 22.4431 235.592V234.668H21.6391ZM21.8311 234.668V235.592C21.8311 237.836 23.1631 239.864 24.9151 240.656L25.4791 239.876C23.8591 239.168 22.6231 237.404 22.6231 235.592V234.668H21.8311ZM19.1311 233.972V234.776H25.1071V233.972H19.1311ZM21.6391 232.28V234.416H22.6351V232.28H21.6391ZM35.4621 234.896V235.724H37.9101V234.896H35.4621ZM37.5981 232.088V238.556H38.5941V232.088H37.5981ZM35.0301 238.88C32.7861 238.88 31.4061 239.636 31.4061 240.908C31.4061 242.192 32.7861 242.924 35.0301 242.924C37.2621 242.924 38.6421 242.192 38.6421 240.908C38.6421 239.636 37.2621 238.88 35.0301 238.88ZM35.0301 239.66C36.6621 239.66 37.6581 240.116 37.6581 240.908C37.6581 241.688 36.6621 242.144 35.0301 242.144C33.3981 242.144 32.4021 241.688 32.4021 240.908C32.4021 240.116 33.3981 239.66 35.0301 239.66ZM32.4381 233.18V234.056C32.4381 235.616 31.3221 237.068 29.7141 237.656L30.2301 238.448C32.0301 237.776 33.2541 236.06 33.2541 234.056V233.18H32.4381ZM32.6301 233.18V234.056C32.6301 235.88 33.7941 237.512 35.5581 238.148L36.0621 237.356C34.4901 236.804 33.4341 235.46 33.4341 234.056V233.18H32.6301ZM30.0141 232.88V233.696H35.8101V232.88H30.0141ZM40.7172 240.728V241.556H50.5452V240.728H40.7172ZM45.1092 238.136V240.968H46.1052V238.136H45.1092ZM41.8692 232.856V238.4H49.3692V232.856H48.3852V234.788H42.8532V232.856H41.8692ZM42.8532 235.592H48.3852V237.584H42.8532V235.592ZM55.2723 232.868C53.5803 232.868 52.3563 233.912 52.3563 235.424C52.3563 236.948 53.5803 237.992 55.2723 237.992C56.9643 237.992 58.1763 236.948 58.1763 235.424C58.1763 233.912 56.9643 232.868 55.2723 232.868ZM55.2723 233.732C56.3883 233.732 57.2043 234.416 57.2043 235.424C57.2043 236.432 56.3883 237.128 55.2723 237.128C54.1443 237.128 53.3283 236.432 53.3283 235.424C53.3283 234.416 54.1443 233.732 55.2723 233.732ZM59.5923 232.076V242.948H60.5883V232.076H59.5923ZM51.9482 240.572C53.8803 240.572 56.5323 240.56 58.9683 240.092L58.8843 239.36C56.5203 239.732 53.7843 239.744 51.8043 239.744L51.9482 240.572ZM65.9125 240.728V241.556H75.7405V240.728H65.9125ZM70.3045 238.136V240.968H71.3005V238.136H70.3045ZM67.0645 232.856V238.4H74.5645V232.856H73.5805V234.788H68.0485V232.856H67.0645ZM68.0485 235.592H73.5805V237.584H68.0485V235.592ZM77.4316 233.672V234.488H86.2396V233.672H77.4316ZM76.9516 240.848V241.676H86.7796V240.848H76.9516ZM81.3556 239.132V241.172H82.3396V239.132H81.3556ZM81.8356 235.22C79.6516 235.22 78.2956 235.976 78.2956 237.284C78.2956 238.592 79.6516 239.348 81.8356 239.348C84.0316 239.348 85.3876 238.592 85.3876 237.284C85.3876 235.976 84.0316 235.22 81.8356 235.22ZM81.8356 236C83.4196 236 84.3796 236.48 84.3796 237.284C84.3796 238.088 83.4196 238.556 81.8356 238.556C80.2636 238.556 79.2916 238.088 79.2916 237.284C79.2916 236.48 80.2636 236 81.8356 236ZM81.3556 232.268V234.176H82.3396V232.268H81.3556ZM91.6718 232.784V237.224H96.7238V232.784H91.6718ZM95.7638 233.588V236.432H92.6318V233.588H95.7638ZM98.9918 232.088V238.316H99.9878V232.088H98.9918ZM96.0518 239.6V239.804C96.0518 240.884 94.3238 241.916 92.4398 242.132L92.7758 242.9C94.9718 242.612 96.9038 241.364 96.9038 239.804V239.6H96.0518ZM96.1958 239.6V239.804C96.1958 241.328 98.0798 242.6 100.288 242.9L100.624 242.132C98.7398 241.904 97.0598 240.848 97.0598 239.804V239.6H96.1958ZM92.8718 239.048V239.828H100.24V239.048H92.8718ZM96.0518 238.004V239.396H97.0598V238.004H96.0518ZM113.136 232.076V242.948H114.132V232.076H113.136ZM108.408 232.916C106.812 232.916 105.66 234.392 105.66 236.696C105.66 239.012 106.812 240.488 108.408 240.488C110.016 240.488 111.168 239.012 111.168 236.696C111.168 234.392 110.016 232.916 108.408 232.916ZM108.408 233.816C109.476 233.816 110.208 234.944 110.208 236.696C110.208 238.46 109.476 239.612 108.408 239.612C107.352 239.612 106.608 238.46 106.608 236.696C106.608 234.944 107.352 233.816 108.408 233.816ZM118.715 235.76V237.812H119.699V235.76H118.715ZM122.699 235.76V237.812H123.683V235.76H122.699ZM116.291 237.452V238.256H126.095V237.452H116.291ZM121.187 239.072C118.859 239.072 117.467 239.756 117.467 240.992C117.467 242.228 118.859 242.924 121.187 242.924C123.515 242.924 124.907 242.228 124.907 240.992C124.907 239.756 123.515 239.072 121.187 239.072ZM121.187 239.84C122.891 239.84 123.899 240.26 123.899 240.992C123.899 241.736 122.891 242.144 121.187 242.144C119.495 242.144 118.475 241.736 118.475 240.992C118.475 240.26 119.495 239.84 121.187 239.84ZM121.199 232.28C118.835 232.28 117.383 233.036 117.383 234.308C117.383 235.568 118.835 236.312 121.199 236.312C123.551 236.312 125.015 235.568 125.015 234.308C125.015 233.036 123.551 232.28 121.199 232.28ZM121.199 233.06C122.927 233.06 123.995 233.516 123.995 234.308C123.995 235.088 122.927 235.544 121.199 235.544C119.471 235.544 118.403 235.088 118.403 234.308C118.403 233.516 119.471 233.06 121.199 233.06ZM7.6 255.248V256.076H17.404V255.248H7.6ZM8.836 253.412V254.216H16.264V253.412H8.836ZM8.836 250.52V253.796H9.82V251.336H16.18V250.52H8.836ZM12.484 257.012C10.168 257.012 8.764 257.72 8.764 258.968C8.764 260.216 10.168 260.912 12.484 260.912C14.8 260.912 16.204 260.216 16.204 258.968C16.204 257.72 14.8 257.012 12.484 257.012ZM12.484 257.78C14.188 257.78 15.196 258.212 15.196 258.968C15.196 259.712 14.188 260.132 12.484 260.132C10.792 260.132 9.772 259.712 9.772 258.968C9.772 258.212 10.792 257.78 12.484 257.78ZM23.0311 254.3V255.128H25.0831V254.3H23.0311ZM26.8951 250.088V260.936H27.8551V250.088H26.8951ZM24.7471 250.316V260.396H25.6951V250.316H24.7471ZM21.0751 250.988C19.6711 250.988 18.7711 252.44 18.7711 254.768C18.7711 257.096 19.6711 258.548 21.0751 258.548C22.4791 258.548 23.3911 257.096 23.3911 254.768C23.3911 252.44 22.4791 250.988 21.0751 250.988ZM21.0751 251.912C21.9391 251.912 22.4791 253.016 22.4791 254.768C22.4791 256.52 21.9391 257.624 21.0751 257.624C20.2231 257.624 19.6831 256.52 19.6831 254.768C19.6831 253.016 20.2231 251.912 21.0751 251.912ZM33.3713 250.928V251.744H38.1713V250.928H33.3713ZM35.0033 253.352V256.064H35.9873V253.352H35.0033ZM37.7753 250.928V251.504C37.7753 252.2 37.7753 253.184 37.4993 254.612L38.4713 254.72C38.7593 253.292 38.7593 252.212 38.7593 251.504V250.928H37.7753ZM40.2353 250.088V258.26H41.2313V250.088H40.2353ZM40.7753 253.616V254.444H42.7793V253.616H40.7753ZM34.3793 259.88V260.696H41.5793V259.88H34.3793ZM34.3793 257.504V260.132H35.3633V257.504H34.3793ZM32.8193 256.532C34.7273 256.532 37.3193 256.484 39.5753 256.088L39.5033 255.368C37.3073 255.668 34.6433 255.716 32.7113 255.716L32.8193 256.532ZM51.2504 250.1V258.236H52.2464V250.1H51.2504ZM51.9344 253.652V254.492H53.8544V253.652H51.9344ZM43.8584 251.408V252.212H50.2664V251.408H43.8584ZM47.0624 252.812C45.5144 252.812 44.4584 253.616 44.4584 254.84C44.4584 256.052 45.5144 256.856 47.0624 256.856C48.5984 256.856 49.6544 256.052 49.6544 254.84C49.6544 253.616 48.5984 252.812 47.0624 252.812ZM47.0624 253.592C48.0344 253.592 48.7064 254.084 48.7064 254.84C48.7064 255.584 48.0344 256.076 47.0624 256.076C46.0784 256.076 45.4064 255.584 45.4064 254.84C45.4064 254.084 46.0784 253.592 47.0624 253.592ZM46.5584 250.088V251.828H47.5544V250.088H46.5584ZM45.4904 259.88V260.696H52.7384V259.88H45.4904ZM45.4904 257.588V260.228H46.4864V257.588H45.4904ZM58.5186 250.64V255.608H63.4146V250.64H62.4426V252.308H59.5026V250.64H58.5186ZM59.5026 253.088H62.4426V254.792H59.5026V253.088ZM63.1386 252.752V253.568H66.2106V252.752H63.1386ZM65.9106 250.088V256.016H66.9066V250.088H65.9106ZM59.9586 256.544V260.792H66.9066V256.544H65.9226V257.852H60.9426V256.544H59.9586ZM60.9426 258.644H65.9226V259.976H60.9426V258.644ZM69.0177 255.032V255.8H78.8577V255.032H69.0177ZM70.1817 256.772V257.48H76.6497V258.404H70.2177V260.36H71.2017V259.088H77.6217V256.772H70.1817ZM70.2177 260.096V260.816H77.9697V260.096H70.2177ZM70.2657 250.388V251.096H76.6137V251.972H70.2897V253.82H71.2737V252.644H77.5857V250.388H70.2657ZM70.2897 253.568V254.288H77.7897V253.568H70.2897ZM71.6697 255.332V257.216H72.6537V255.332H71.6697ZM75.2217 255.332V257.216H76.2057V255.332H75.2217Z" fill="white"/>
<path d="M154.832 232.088V242.936H155.792V232.088H154.832ZM153.08 236.444V237.26H155.156V236.444H153.08ZM150.272 233.48V233.672C150.272 236.18 149.312 238.376 146.588 239.9L147.176 240.608C150.272 238.868 151.232 236.276 151.232 233.48H150.272ZM147.008 233.48V234.308H150.608V233.48H147.008ZM152.42 232.376V242.408H153.368V232.376H152.42ZM165.523 232.1V240.02H166.531V232.1H165.523ZM159.559 241.88V242.696H166.855V241.88H159.559ZM159.559 239.204V242.156H160.543V239.204H159.559ZM160.711 232.844C159.091 232.844 157.879 233.948 157.879 235.52C157.879 237.08 159.091 238.196 160.711 238.196C162.331 238.196 163.531 237.08 163.531 235.52C163.531 233.948 162.331 232.844 160.711 232.844ZM160.711 233.708C161.767 233.708 162.571 234.452 162.571 235.52C162.571 236.576 161.767 237.32 160.711 237.32C159.655 237.32 158.851 236.576 158.851 235.52C158.851 234.452 159.655 233.708 160.711 233.708ZM172.218 232.592C170.61 232.592 169.458 233.492 169.458 234.824C169.458 236.144 170.61 237.068 172.218 237.068C173.838 237.068 174.99 236.144 174.99 234.824C174.99 233.492 173.838 232.592 172.218 232.592ZM172.218 233.42C173.274 233.42 174.03 233.996 174.03 234.824C174.03 235.664 173.274 236.228 172.218 236.228C171.162 236.228 170.406 235.664 170.406 234.824C170.406 233.996 171.162 233.42 172.218 233.42ZM171.774 238.268V242.6H172.77V238.268H171.774ZM176.574 232.088V242.948H177.558V232.088H176.574ZM168.786 238.808C170.766 238.808 173.43 238.772 175.878 238.328L175.806 237.584C173.418 237.944 170.67 237.968 168.654 237.968L168.786 238.808ZM187.601 232.088V242.936H188.597V232.088H187.601ZM182.717 234.668V235.592C182.717 237.488 181.517 239.336 179.909 240.08L180.473 240.848C182.213 240.008 183.521 237.908 183.521 235.592V234.668H182.717ZM182.909 234.668V235.592C182.909 237.836 184.241 239.864 185.993 240.656L186.557 239.876C184.937 239.168 183.701 237.404 183.701 235.592V234.668H182.909ZM180.209 233.972V234.776H186.185V233.972H180.209ZM182.717 232.28V234.416H183.713V232.28H182.717ZM196.54 234.896V235.724H198.988V234.896H196.54ZM198.676 232.088V238.556H199.672V232.088H198.676ZM196.108 238.88C193.864 238.88 192.484 239.636 192.484 240.908C192.484 242.192 193.864 242.924 196.108 242.924C198.34 242.924 199.72 242.192 199.72 240.908C199.72 239.636 198.34 238.88 196.108 238.88ZM196.108 239.66C197.74 239.66 198.736 240.116 198.736 240.908C198.736 241.688 197.74 242.144 196.108 242.144C194.476 242.144 193.48 241.688 193.48 240.908C193.48 240.116 194.476 239.66 196.108 239.66ZM193.516 233.18V234.056C193.516 235.616 192.4 237.068 190.792 237.656L191.308 238.448C193.108 237.776 194.332 236.06 194.332 234.056V233.18H193.516ZM193.708 233.18V234.056C193.708 235.88 194.872 237.512 196.636 238.148L197.14 237.356C195.568 236.804 194.512 235.46 194.512 234.056V233.18H193.708ZM191.092 232.88V233.696H196.888V232.88H191.092ZM201.795 240.728V241.556H211.623V240.728H201.795ZM206.187 238.136V240.968H207.183V238.136H206.187ZM202.947 232.856V238.4H210.447V232.856H209.463V234.788H203.931V232.856H202.947ZM203.931 235.592H209.463V237.584H203.931V235.592ZM217.226 236.3V237.128H219.278V236.3H217.226ZM221.09 232.088V242.936H222.05V232.088H221.09ZM218.942 232.316V242.396H219.89V232.316H218.942ZM215.27 232.988C213.866 232.988 212.966 234.44 212.966 236.768C212.966 239.096 213.866 240.548 215.27 240.548C216.674 240.548 217.586 239.096 217.586 236.768C217.586 234.44 216.674 232.988 215.27 232.988ZM215.27 233.912C216.134 233.912 216.674 235.016 216.674 236.768C216.674 238.52 216.134 239.624 215.27 239.624C214.418 239.624 213.878 238.52 213.878 236.768C213.878 235.016 214.418 233.912 215.27 233.912ZM227.567 232.928V233.744H232.367V232.928H227.567ZM229.199 235.352V238.064H230.183V235.352H229.199ZM231.971 232.928V233.504C231.971 234.2 231.971 235.184 231.695 236.612L232.667 236.72C232.955 235.292 232.955 234.212 232.955 233.504V232.928H231.971ZM234.431 232.088V240.26H235.427V232.088H234.431ZM234.971 235.616V236.444H236.975V235.616H234.971ZM228.575 241.88V242.696H235.775V241.88H228.575ZM228.575 239.504V242.132H229.559V239.504H228.575ZM227.015 238.532C228.923 238.532 231.515 238.484 233.771 238.088L233.699 237.368C231.503 237.668 228.839 237.716 226.907 237.716L227.015 238.532ZM245.446 232.1V240.236H246.442V232.1H245.446ZM246.13 235.652V236.492H248.05V235.652H246.13ZM238.054 233.408V234.212H244.462V233.408H238.054ZM241.258 234.812C239.71 234.812 238.654 235.616 238.654 236.84C238.654 238.052 239.71 238.856 241.258 238.856C242.794 238.856 243.85 238.052 243.85 236.84C243.85 235.616 242.794 234.812 241.258 234.812ZM241.258 235.592C242.23 235.592 242.902 236.084 242.902 236.84C242.902 237.584 242.23 238.076 241.258 238.076C240.274 238.076 239.602 237.584 239.602 236.84C239.602 236.084 240.274 235.592 241.258 235.592ZM240.754 232.088V233.828H241.75V232.088H240.754ZM239.686 241.88V242.696H246.934V241.88H239.686ZM239.686 239.588V242.228H240.682V239.588H239.686ZM260.082 232.088V242.936H261.078V232.088H260.082ZM256.902 233.252V233.42C256.902 236.3 255.45 238.604 252.318 240.116L252.846 240.92C256.47 239.144 257.886 236.396 257.886 233.252H256.902ZM252.81 233.252V234.068H257.334V233.252H252.81ZM263.213 238.052V238.868H273.053V238.052H263.213ZM264.461 232.364V233.144H270.809V234.26H264.485V236.456H265.469V234.992H271.781V232.364H264.461ZM264.485 236.132V236.912H272.021V236.132H264.485ZM267.629 236.54V238.46H268.625V236.54H267.629ZM264.305 239.696V240.512H270.857V242.84H271.853V239.696H264.305Z" fill="white"/>
<rect x="279.5" y="216.5" width="71" height="59" stroke="#9C9C9C"/>
<path d="M301.6 237.34C301.6 236.844 301.632 236.356 301.696 235.876C301.76 235.396 301.872 234.944 302.032 234.52C302.192 234.088 302.412 233.708 302.692 233.38C302.972 233.044 303.328 232.784 303.76 232.6C304.192 232.408 304.712 232.312 305.32 232.312C305.48 232.312 305.652 232.32 305.836 232.336C306.028 232.352 306.188 232.38 306.316 232.42V233.32C306.18 233.272 306.024 233.236 305.848 233.212C305.68 233.188 305.512 233.176 305.344 233.176C304.832 233.176 304.404 233.268 304.06 233.452C303.716 233.636 303.444 233.888 303.244 234.208C303.044 234.528 302.896 234.896 302.8 235.312C302.712 235.728 302.656 236.172 302.632 236.644H302.704C302.816 236.452 302.956 236.28 303.124 236.128C303.3 235.976 303.508 235.856 303.748 235.768C303.996 235.68 304.28 235.636 304.6 235.636C305.072 235.636 305.48 235.74 305.824 235.948C306.176 236.148 306.448 236.444 306.64 236.836C306.832 237.22 306.928 237.688 306.928 238.24C306.928 238.832 306.824 239.344 306.616 239.776C306.408 240.208 306.112 240.54 305.728 240.772C305.344 241.004 304.888 241.12 304.36 241.12C303.976 241.12 303.616 241.044 303.28 240.892C302.944 240.74 302.648 240.508 302.392 240.196C302.144 239.884 301.948 239.492 301.804 239.02C301.668 238.54 301.6 237.98 301.6 237.34ZM304.348 240.232C304.812 240.232 305.184 240.072 305.464 239.752C305.752 239.424 305.896 238.92 305.896 238.24C305.896 237.696 305.768 237.264 305.512 236.944C305.264 236.624 304.884 236.464 304.372 236.464C304.028 236.464 303.728 236.544 303.472 236.704C303.216 236.856 303.016 237.052 302.872 237.292C302.728 237.532 302.656 237.78 302.656 238.036C302.656 238.3 302.692 238.56 302.764 238.816C302.836 239.072 302.94 239.308 303.076 239.524C303.22 239.74 303.396 239.912 303.604 240.04C303.82 240.168 304.068 240.232 304.348 240.232ZM316.277 231.088V241.936H317.237V231.088H316.277ZM314.525 235.444V236.26H316.601V235.444H314.525ZM311.717 232.48V232.672C311.717 235.18 310.757 237.376 308.033 238.9L308.621 239.608C311.717 237.868 312.677 235.276 312.677 232.48H311.717ZM308.453 232.48V233.308H312.053V232.48H308.453ZM313.865 231.376V241.408H314.813V231.376H313.865ZM321.988 235.576V237.508H322.984V235.576H321.988ZM326.968 231.088V237.472H327.964V231.088H326.968ZM319.168 235.912C321.196 235.912 323.788 235.888 326.164 235.54L326.104 234.892C323.788 235.156 321.136 235.168 319.048 235.168L319.168 235.912ZM320.692 237.868V238.588H326.98V239.464H320.716V241.348H321.688V240.124H327.964V237.868H320.692ZM320.716 241.096V241.816H328.324V241.096H320.716ZM324.808 236.248V236.896H327.28V236.248H324.808ZM322.552 231.292C320.932 231.292 319.876 231.916 319.876 232.924C319.876 233.932 320.932 234.556 322.552 234.556C324.16 234.556 325.216 233.932 325.216 232.924C325.216 231.916 324.16 231.292 322.552 231.292ZM322.552 231.988C323.596 231.988 324.28 232.348 324.28 232.924C324.28 233.5 323.596 233.86 322.552 233.86C321.484 233.86 320.8 233.5 320.8 232.924C320.8 232.348 321.484 231.988 322.552 231.988Z" fill="white"/>
<rect x="0.5" y="275.5" width="140" height="59" stroke="#9C9C9C"/>
<rect x="140.5" y="275.5" width="139" height="59" stroke="#9C9C9C"/>
<path d="M13.348 294.076V294.892H16.084V294.076H13.348ZM15.52 291.1V299.044H16.516V291.1H15.52ZM9.592 300.88V301.696H16.816V300.88H9.592ZM9.592 298.348V301.3H10.588V298.348H9.592ZM10.36 292.444V293.32C10.36 294.856 9.244 296.296 7.624 296.872L8.14 297.664C9.952 296.992 11.176 295.288 11.176 293.32V292.444H10.36ZM10.552 292.444V293.308C10.552 295.144 11.716 296.776 13.48 297.412L13.984 296.632C12.412 296.08 11.356 294.712 11.356 293.308V292.444H10.552ZM7.936 291.976V292.78H13.732V291.976H7.936ZM21.3151 292.636V294.4C21.3151 296.236 20.0071 298.3 18.4591 299.056L19.0351 299.848C20.7271 298.984 22.1071 296.656 22.1071 294.4V292.636H21.3151ZM21.4951 292.636V294.4C21.4951 296.548 22.8031 298.732 24.5191 299.584L25.0831 298.792C23.5111 298.048 22.2871 296.116 22.2871 294.4V292.636H21.4951ZM18.8431 292.192V293.032H24.6871V292.192H18.8431ZM25.9711 291.088V301.936H26.9791V291.088H25.9711ZM26.7391 295.468V296.308H28.7551V295.468H26.7391ZM30.9261 291.652V292.468H37.9101V291.652H30.9261ZM29.6781 295.648V296.464H39.5061V295.648H29.6781ZM37.2621 291.652V292.456C37.2621 293.356 37.2621 294.4 36.9021 295.888L37.8741 295.936C38.2341 294.436 38.2341 293.38 38.2341 292.456V291.652H37.2621ZM30.8781 297.94V301.792H38.2701V297.94H30.8781ZM37.2981 298.732V300.988H31.8501V298.732H37.2981ZM43.1772 296.56V298.708H44.1732V296.56H43.1772ZM47.0772 296.56V298.708H48.0732V296.56H47.0772ZM40.7052 296.164V296.968H50.5092V296.164H40.7052ZM45.6012 298.072C43.2732 298.072 41.8812 298.768 41.8812 300.004C41.8812 301.228 43.2732 301.924 45.6012 301.924C47.9292 301.924 49.3212 301.228 49.3212 300.004C49.3212 298.768 47.9292 298.072 45.6012 298.072ZM45.6012 298.852C47.3052 298.852 48.3132 299.272 48.3132 300.004C48.3132 300.736 47.3052 301.144 45.6012 301.144C43.9092 301.144 42.8892 300.736 42.8892 300.004C42.8892 299.272 43.9092 298.852 45.6012 298.852ZM45.6132 291.304C43.2492 291.304 41.7972 292.06 41.7972 293.332C41.7972 294.604 43.2492 295.36 45.6132 295.36C47.9652 295.36 49.4292 294.604 49.4292 293.332C49.4292 292.06 47.9652 291.304 45.6132 291.304ZM45.6132 292.084C47.3292 292.084 48.4092 292.54 48.4092 293.332C48.4092 294.124 47.3292 294.58 45.6132 294.58C43.8852 294.58 42.8172 294.124 42.8172 293.332C42.8172 292.54 43.8852 292.084 45.6132 292.084ZM59.6763 291.088V301.936H60.6723V291.088H59.6763ZM57.1443 295.432V296.26H60.1203V295.432H57.1443ZM56.1963 292.252V292.42C56.1963 295.252 54.9003 297.556 51.7443 299.104L52.2963 299.884C55.8963 298.084 57.1803 295.348 57.1803 292.252H56.1963ZM52.2123 292.252V293.068H56.7243V292.252H52.2123ZM63.1433 298.516V299.344H63.8633C65.2073 299.344 66.4313 299.308 67.9313 299.044L67.8473 298.216C66.3833 298.468 65.1833 298.516 63.8633 298.516H63.1433ZM63.1193 292.264V293.08H66.2153V295.264H63.1433V298.828H64.1153V296.08H67.1873V292.264H63.1193ZM71.0393 291.088V301.936H71.9993V291.088H71.0393ZM69.2033 295.372V296.188H71.2913V295.372H69.2033ZM68.5793 291.328V301.384H69.5153V291.328H68.5793ZM74.3624 291.64V296.608H79.2584V291.64H78.2864V293.308H75.3464V291.64H74.3624ZM75.3464 294.088H78.2864V295.792H75.3464V294.088ZM78.9824 293.752V294.568H82.0544V293.752H78.9824ZM81.7544 291.088V297.016H82.7504V291.088H81.7544ZM75.8024 297.544V301.792H82.7504V297.544H81.7664V298.852H76.7864V297.544H75.8024ZM76.7864 299.644H81.7664V300.976H76.7864V299.644Z" fill="white"/>
<path d="M152.348 294.076V294.892H155.084V294.076H152.348ZM154.52 291.1V299.044H155.516V291.1H154.52ZM148.592 300.88V301.696H155.816V300.88H148.592ZM148.592 298.348V301.3H149.588V298.348H148.592ZM149.36 292.444V293.32C149.36 294.856 148.244 296.296 146.624 296.872L147.14 297.664C148.952 296.992 150.176 295.288 150.176 293.32V292.444H149.36ZM149.552 292.444V293.308C149.552 295.144 150.716 296.776 152.48 297.412L152.984 296.632C151.412 296.08 150.356 294.712 150.356 293.308V292.444H149.552ZM146.936 291.976V292.78H152.732V291.976H146.936ZM160.315 292.636V294.4C160.315 296.236 159.007 298.3 157.459 299.056L158.035 299.848C159.727 298.984 161.107 296.656 161.107 294.4V292.636H160.315ZM160.495 292.636V294.4C160.495 296.548 161.803 298.732 163.519 299.584L164.083 298.792C162.511 298.048 161.287 296.116 161.287 294.4V292.636H160.495ZM157.843 292.192V293.032H163.687V292.192H157.843ZM164.971 291.088V301.936H165.979V291.088H164.971ZM165.739 295.468V296.308H167.755V295.468H165.739ZM169.926 291.652V292.468H176.91V291.652H169.926ZM168.678 295.648V296.464H178.506V295.648H168.678ZM176.262 291.652V292.456C176.262 293.356 176.262 294.4 175.902 295.888L176.874 295.936C177.234 294.436 177.234 293.38 177.234 292.456V291.652H176.262ZM169.878 297.94V301.792H177.27V297.94H169.878ZM176.298 298.732V300.988H170.85V298.732H176.298ZM182.177 296.56V298.708H183.173V296.56H182.177ZM186.077 296.56V298.708H187.073V296.56H186.077ZM179.705 296.164V296.968H189.509V296.164H179.705ZM184.601 298.072C182.273 298.072 180.881 298.768 180.881 300.004C180.881 301.228 182.273 301.924 184.601 301.924C186.929 301.924 188.321 301.228 188.321 300.004C188.321 298.768 186.929 298.072 184.601 298.072ZM184.601 298.852C186.305 298.852 187.313 299.272 187.313 300.004C187.313 300.736 186.305 301.144 184.601 301.144C182.909 301.144 181.889 300.736 181.889 300.004C181.889 299.272 182.909 298.852 184.601 298.852ZM184.613 291.304C182.249 291.304 180.797 292.06 180.797 293.332C180.797 294.604 182.249 295.36 184.613 295.36C186.965 295.36 188.429 294.604 188.429 293.332C188.429 292.06 186.965 291.304 184.613 291.304ZM184.613 292.084C186.329 292.084 187.409 292.54 187.409 293.332C187.409 294.124 186.329 294.58 184.613 294.58C182.885 294.58 181.817 294.124 181.817 293.332C181.817 292.54 182.885 292.084 184.613 292.084ZM201.793 291.088V301.936H202.789V291.088H201.793ZM199.261 295.432V296.26H202.237V295.432H199.261ZM198.313 292.252V292.42C198.313 295.252 197.017 297.556 193.861 299.104L194.413 299.884C198.013 298.084 199.297 295.348 199.297 292.252H198.313ZM194.329 292.252V293.068H198.841V292.252H194.329ZM205.261 298.516V299.344H205.981C207.325 299.344 208.549 299.308 210.049 299.044L209.965 298.216C208.501 298.468 207.301 298.516 205.981 298.516H205.261ZM205.237 292.264V293.08H208.333V295.264H205.261V298.828H206.233V296.08H209.305V292.264H205.237ZM213.157 291.088V301.936H214.117V291.088H213.157ZM211.321 295.372V296.188H213.409V295.372H211.321ZM210.697 291.328V301.384H211.633V291.328H210.697ZM220.344 295.3V296.128H222.396V295.3H220.344ZM224.208 291.088V301.936H225.168V291.088H224.208ZM222.06 291.316V301.396H223.008V291.316H222.06ZM218.388 291.988C216.984 291.988 216.084 293.44 216.084 295.768C216.084 298.096 216.984 299.548 218.388 299.548C219.792 299.548 220.704 298.096 220.704 295.768C220.704 293.44 219.792 291.988 218.388 291.988ZM218.388 292.912C219.252 292.912 219.792 294.016 219.792 295.768C219.792 297.52 219.252 298.624 218.388 298.624C217.536 298.624 216.996 297.52 216.996 295.768C216.996 294.016 217.536 292.912 218.388 292.912ZM230.684 291.928V292.744H235.484V291.928H230.684ZM232.316 294.352V297.064H233.3V294.352H232.316ZM235.088 291.928V292.504C235.088 293.2 235.088 294.184 234.812 295.612L235.784 295.72C236.072 294.292 236.072 293.212 236.072 292.504V291.928H235.088ZM237.548 291.088V299.26H238.544V291.088H237.548ZM238.088 294.616V295.444H240.092V294.616H238.088ZM231.692 300.88V301.696H238.892V300.88H231.692ZM231.692 298.504V301.132H232.676V298.504H231.692ZM230.132 297.532C232.04 297.532 234.632 297.484 236.888 297.088L236.816 296.368C234.62 296.668 231.956 296.716 230.024 296.716L230.132 297.532ZM248.563 291.1V299.236H249.559V291.1H248.563ZM249.247 294.652V295.492H251.167V294.652H249.247ZM241.171 292.408V293.212H247.579V292.408H241.171ZM244.375 293.812C242.827 293.812 241.771 294.616 241.771 295.84C241.771 297.052 242.827 297.856 244.375 297.856C245.911 297.856 246.967 297.052 246.967 295.84C246.967 294.616 245.911 293.812 244.375 293.812ZM244.375 294.592C245.347 294.592 246.019 295.084 246.019 295.84C246.019 296.584 245.347 297.076 244.375 297.076C243.391 297.076 242.719 296.584 242.719 295.84C242.719 295.084 243.391 294.592 244.375 294.592ZM243.871 291.088V292.828H244.867V291.088H243.871ZM242.803 300.88V301.696H250.051V300.88H242.803ZM242.803 298.588V301.228H243.799V298.588H242.803ZM263.199 291.088V301.936H264.195V291.088H263.199ZM260.019 292.252V292.42C260.019 295.3 258.567 297.604 255.435 299.116L255.963 299.92C259.587 298.144 261.003 295.396 261.003 292.252H260.019ZM255.927 292.252V293.068H260.451V292.252H255.927ZM146.588 315.052V315.868H156.428V315.052H146.588ZM147.836 309.364V310.144H154.184V311.26H147.86V313.456H148.844V311.992H155.156V309.364H147.836ZM147.86 313.132V313.912H155.396V313.132H147.86ZM151.004 313.54V315.46H152V313.54H151.004ZM147.68 316.696V317.512H154.232V319.84H155.228V316.696H147.68Z" fill="white"/>
<rect x="279.5" y="275.5" width="71" height="59" stroke="#9C9C9C"/>
<path d="M310.12 294.744C310.664 294.744 311.136 294.844 311.536 295.044C311.944 295.244 312.26 295.532 312.484 295.908C312.708 296.276 312.82 296.728 312.82 297.264C312.82 297.856 312.7 298.368 312.46 298.8C312.22 299.224 311.872 299.552 311.416 299.784C310.968 300.008 310.424 300.12 309.784 300.12C309.368 300.12 308.98 300.08 308.62 300C308.26 299.92 307.952 299.804 307.696 299.652V298.656C307.968 298.832 308.296 298.972 308.68 299.076C309.072 299.172 309.444 299.22 309.796 299.22C310.188 299.22 310.528 299.156 310.816 299.028C311.112 298.892 311.34 298.688 311.5 298.416C311.668 298.136 311.752 297.788 311.752 297.372C311.752 296.812 311.592 296.384 311.272 296.088C310.952 295.784 310.448 295.632 309.76 295.632C309.544 295.632 309.3 295.652 309.028 295.692C308.764 295.732 308.552 295.772 308.392 295.812L307.888 295.476L308.188 291.432H312.256V292.392H309.088L308.896 294.876C309.032 294.852 309.204 294.824 309.412 294.792C309.62 294.76 309.856 294.744 310.12 294.744ZM321.965 290.088V298.128H322.961V290.088H321.965ZM318.905 291.504V292.308H322.337V291.504H318.905ZM316.025 299.88V300.696H323.249V299.88H316.025ZM316.025 297.432V300.252H317.021V297.432H316.025ZM314.669 290.88V295.992H315.665V290.88H314.669ZM314.669 295.68V296.508H315.485C317.081 296.508 318.533 296.436 320.273 296.124L320.177 295.296C318.485 295.596 317.033 295.68 315.485 295.68H314.669ZM318.905 293.568V294.384H322.337V293.568H318.905Z" fill="white"/>
<rect x="0.5" y="334.5" width="140" height="59" stroke="#9C9C9C"/>
<rect x="140.5" y="334.5" width="139" height="59" stroke="#9C9C9C"/>
<path d="M7.588 355.836V356.64H17.392V355.836H7.588ZM11.992 354.432V356.172H12.976V354.432H11.992ZM8.884 353.988V354.768H16.24V353.988H8.884ZM8.884 350.4V354.408H9.868V351.18H16.192V350.4H8.884ZM9.58 352.176V352.944H15.904V352.176H9.58ZM12.484 357.444C10.12 357.444 8.764 358.044 8.764 359.184C8.764 360.312 10.12 360.912 12.484 360.912C14.848 360.912 16.204 360.312 16.204 359.184C16.204 358.044 14.848 357.444 12.484 357.444ZM12.484 358.2C14.224 358.2 15.196 358.548 15.196 359.184C15.196 359.832 14.224 360.168 12.484 360.168C10.744 360.168 9.772 359.832 9.772 359.184C9.772 358.548 10.744 358.2 12.484 358.2ZM26.5231 350.1V358.044H27.5311V350.1H26.5231ZM20.5591 359.88V360.696H27.8551V359.88H20.5591ZM20.5591 357.312V360.264H21.5431V357.312H20.5591ZM21.4591 350.688V351.792C21.4591 353.472 20.3791 355.056 18.7471 355.692L19.2631 356.496C21.0871 355.752 22.2871 353.904 22.2871 351.792V350.688H21.4591ZM21.6391 350.688V351.792C21.6391 353.856 22.8391 355.596 24.6391 356.292L25.1671 355.488C23.5471 354.9 22.4551 353.424 22.4551 351.792V350.688H21.6391ZM37.5501 350.076V360.948H38.5461V350.076H37.5501ZM30.2901 351V358.332H35.4021V351H34.4061V353.868H31.2741V351H30.2901ZM31.2741 354.66H34.4061V357.516H31.2741V354.66ZM41.2812 350.688V355.128H46.3332V350.688H41.2812ZM45.3732 351.48V354.324H42.2412V351.48H45.3732ZM48.6012 350.088V355.668H49.5972V350.088H48.6012ZM42.5772 356.208V357H48.6132V358.092H42.6012V360.36H43.5732V358.836H49.5972V356.208H42.5772ZM42.6012 360.024V360.816H49.9692V360.024H42.6012ZM51.7563 358.728V359.556H61.5843V358.728H51.7563ZM56.1483 356.136V358.968H57.1443V356.136H56.1483ZM52.9083 350.856V356.4H60.4083V350.856H59.4243V352.788H53.8923V350.856H52.9083ZM53.8923 353.592H59.4243V355.584H53.8923V353.592ZM63.2753 351.672V352.488H72.0833V351.672H63.2753ZM62.7953 358.848V359.676H72.6233V358.848H62.7953ZM67.1993 357.132V359.172H68.1833V357.132H67.1993ZM67.6793 353.22C65.4953 353.22 64.1393 353.976 64.1393 355.284C64.1393 356.592 65.4953 357.348 67.6793 357.348C69.8753 357.348 71.2313 356.592 71.2313 355.284C71.2313 353.976 69.8753 353.22 67.6793 353.22ZM67.6793 354C69.2633 354 70.2233 354.48 70.2233 355.284C70.2233 356.088 69.2633 356.556 67.6793 356.556C66.1073 356.556 65.1353 356.088 65.1353 355.284C65.1353 354.48 66.1073 354 67.6793 354ZM67.1993 350.268V352.176H68.1833V350.268H67.1993ZM74.3624 350.64V355.608H79.2584V350.64H78.2864V352.308H75.3464V350.64H74.3624ZM75.3464 353.088H78.2864V354.792H75.3464V353.088ZM78.9824 352.752V353.568H82.0544V352.752H78.9824ZM81.7544 350.088V356.016H82.7504V350.088H81.7544ZM75.8024 356.544V360.792H82.7504V356.544H81.7664V357.852H76.7864V356.544H75.8024ZM76.7864 358.644H81.7664V359.976H76.7864V358.644Z" fill="white"/>
<path d="M152.012 353.76V354.576H155.036V353.76H152.012ZM149.396 351.024V352.956C149.396 354.972 148.172 357.06 146.576 357.852L147.212 358.644C148.928 357.72 150.212 355.392 150.212 352.956V351.024H149.396ZM149.588 351.024V352.956C149.588 355.332 150.848 357.564 152.6 358.452L153.188 357.648C151.616 356.904 150.392 354.936 150.392 352.956V351.024H149.588ZM154.544 350.076V360.948H155.528V350.076H154.544ZM165.511 350.076V360.948H166.507V350.076H165.511ZM158.251 351V358.332H163.363V351H162.367V353.868H159.235V351H158.251ZM159.235 354.66H162.367V357.516H159.235V354.66ZM173.022 350.832V351.66C173.022 353.508 170.982 355.164 169.074 355.524L169.518 356.352C171.69 355.86 173.886 354.024 173.886 351.66V350.832H173.022ZM173.202 350.832V351.66C173.202 354.036 175.41 355.86 177.57 356.352L178.014 355.524C176.118 355.164 174.066 353.52 174.066 351.66V350.832H173.202ZM168.678 358.656V359.472H178.506V358.656H168.678ZM190.706 350.076V360.948H191.702V350.076H190.706ZM185.978 350.916C184.382 350.916 183.23 352.392 183.23 354.696C183.23 357.012 184.382 358.488 185.978 358.488C187.586 358.488 188.738 357.012 188.738 354.696C188.738 352.392 187.586 350.916 185.978 350.916ZM185.978 351.816C187.046 351.816 187.778 352.944 187.778 354.696C187.778 356.46 187.046 357.612 185.978 357.612C184.922 357.612 184.178 356.46 184.178 354.696C184.178 352.944 184.922 351.816 185.978 351.816ZM196.285 353.76V355.812H197.269V353.76H196.285ZM200.269 353.76V355.812H201.253V353.76H200.269ZM193.861 355.452V356.256H203.665V355.452H193.861ZM198.757 357.072C196.429 357.072 195.037 357.756 195.037 358.992C195.037 360.228 196.429 360.924 198.757 360.924C201.085 360.924 202.477 360.228 202.477 358.992C202.477 357.756 201.085 357.072 198.757 357.072ZM198.757 357.84C200.461 357.84 201.469 358.26 201.469 358.992C201.469 359.736 200.461 360.144 198.757 360.144C197.065 360.144 196.045 359.736 196.045 358.992C196.045 358.26 197.065 357.84 198.757 357.84ZM198.769 350.28C196.405 350.28 194.953 351.036 194.953 352.308C194.953 353.568 196.405 354.312 198.769 354.312C201.121 354.312 202.585 353.568 202.585 352.308C202.585 351.036 201.121 350.28 198.769 350.28ZM198.769 351.06C200.497 351.06 201.565 351.516 201.565 352.308C201.565 353.088 200.497 353.544 198.769 353.544C197.041 353.544 195.973 353.088 195.973 352.308C195.973 351.516 197.041 351.06 198.769 351.06ZM208.606 350.928V351.744H213.406V350.928H208.606ZM210.238 353.352V356.064H211.222V353.352H210.238ZM213.01 350.928V351.504C213.01 352.2 213.01 353.184 212.734 354.612L213.706 354.72C213.994 353.292 213.994 352.212 213.994 351.504V350.928H213.01ZM215.47 350.088V358.26H216.466V350.088H215.47ZM216.01 353.616V354.444H218.014V353.616H216.01ZM209.614 359.88V360.696H216.814V359.88H209.614ZM209.614 357.504V360.132H210.598V357.504H209.614ZM208.054 356.532C209.962 356.532 212.554 356.484 214.81 356.088L214.738 355.368C212.542 355.668 209.878 355.716 207.946 355.716L208.054 356.532ZM219.513 355.8V356.628H220.293C222.381 356.628 223.521 356.58 224.901 356.34L224.805 355.524C223.449 355.764 222.345 355.8 220.293 355.8H219.513ZM219.489 350.856V351.66H223.173V353.244H219.513V356.292H220.497V354.036H224.157V350.856H219.489ZM226.989 350.1V358.08H227.985V350.1H226.989ZM224.889 351.912V352.716H227.229V351.912H224.889ZM220.977 359.832V360.648H228.321V359.832H220.977ZM220.977 357.492V360.192H221.961V357.492H220.977ZM224.889 354.348V355.164H227.229V354.348H224.889ZM241.457 350.088V360.936H242.417V350.088H241.457ZM239.705 354.444V355.26H241.781V354.444H239.705ZM236.897 351.48V351.672C236.897 354.18 235.937 356.376 233.213 357.9L233.801 358.608C236.897 356.868 237.857 354.276 237.857 351.48H236.897ZM233.633 351.48V352.308H237.233V351.48H233.633ZM239.045 350.376V360.408H239.993V350.376H239.045ZM252.148 350.1V358.02H253.156V350.1H252.148ZM246.184 359.88V360.696H253.48V359.88H246.184ZM246.184 357.204V360.156H247.168V357.204H246.184ZM247.336 350.844C245.716 350.844 244.504 351.948 244.504 353.52C244.504 355.08 245.716 356.196 247.336 356.196C248.956 356.196 250.156 355.08 250.156 353.52C250.156 351.948 248.956 350.844 247.336 350.844ZM247.336 351.708C248.392 351.708 249.196 352.452 249.196 353.52C249.196 354.576 248.392 355.32 247.336 355.32C246.28 355.32 245.476 354.576 245.476 353.52C245.476 352.452 246.28 351.708 247.336 351.708ZM261.087 352.896V353.724H263.535V352.896H261.087ZM263.223 350.088V356.556H264.219V350.088H263.223ZM260.655 356.88C258.411 356.88 257.031 357.636 257.031 358.908C257.031 360.192 258.411 360.924 260.655 360.924C262.887 360.924 264.267 360.192 264.267 358.908C264.267 357.636 262.887 356.88 260.655 356.88ZM260.655 357.66C262.287 357.66 263.283 358.116 263.283 358.908C263.283 359.688 262.287 360.144 260.655 360.144C259.023 360.144 258.027 359.688 258.027 358.908C258.027 358.116 259.023 357.66 260.655 357.66ZM258.063 351.18V352.056C258.063 353.616 256.947 355.068 255.339 355.656L255.855 356.448C257.655 355.776 258.879 354.06 258.879 352.056V351.18H258.063ZM258.255 351.18V352.056C258.255 353.88 259.419 355.512 261.183 356.148L261.687 355.356C260.115 354.804 259.059 353.46 259.059 352.056V351.18H258.255ZM255.639 350.88V351.696H261.435V350.88H255.639ZM146.6 376.728V377.556H156.428V376.728H146.6ZM150.992 374.136V376.968H151.988V374.136H150.992ZM147.752 368.856V374.4H155.252V368.856H154.268V370.788H148.736V368.856H147.752ZM148.736 371.592H154.268V373.584H148.736V371.592ZM157.519 374.712C157.519 373.736 157.659 372.796 157.939 371.892C158.227 370.98 158.675 370.16 159.283 369.432H160.279C159.719 370.184 159.295 371.012 159.007 371.916C158.727 372.82 158.587 373.748 158.587 374.7C158.587 375.628 158.727 376.54 159.007 377.436C159.295 378.324 159.715 379.144 160.267 379.896H159.283C158.675 379.192 158.227 378.396 157.939 377.508C157.659 376.612 157.519 375.68 157.519 374.712ZM161.237 376.776V377.604H171.065V376.776H161.237ZM165.629 374.448V377.124H166.625V374.448H165.629ZM162.425 368.892V369.696H168.869V371.376H162.461V374.352H163.445V372.18H169.853V368.892H162.425ZM162.461 373.932V374.748H170.105V373.932H162.461ZM173.332 369.24V370.044H180.316V369.24H173.332ZM172.276 376.524V377.352H182.08V376.524H172.276ZM179.788 369.24V370.32C179.788 371.664 179.788 373.284 179.356 375.504L180.352 375.6C180.76 373.26 180.76 371.712 180.76 370.32V369.24H179.788ZM191.211 368.088V378.936H192.207V368.088H191.211ZM188.031 369.252V369.42C188.031 372.3 186.579 374.604 183.447 376.116L183.975 376.92C187.599 375.144 189.015 372.396 189.015 369.252H188.031ZM183.939 369.252V370.068H188.463V369.252H183.939ZM194.342 374.052V374.868H204.182V374.052H194.342ZM195.59 368.364V369.144H201.938V370.26H195.614V372.456H196.598V370.992H202.91V368.364H195.59ZM195.614 372.132V372.912H203.15V372.132H195.614ZM198.758 372.54V374.46H199.754V372.54H198.758ZM195.434 375.696V376.512H201.986V378.84H202.982V375.696H195.434ZM207.913 374.712C207.913 375.68 207.769 376.612 207.481 377.508C207.201 378.396 206.757 379.192 206.149 379.896H205.165C205.717 379.144 206.133 378.324 206.413 377.436C206.701 376.54 206.845 375.628 206.845 374.7C206.845 373.748 206.701 372.82 206.413 371.916C206.133 371.012 205.713 370.184 205.153 369.432H206.149C206.757 370.16 207.201 370.98 207.481 371.892C207.769 372.796 207.913 373.736 207.913 374.712Z" fill="white"/>
<rect x="279.5" y="334.5" width="71" height="59" stroke="#9C9C9C"/>
<path d="M306.58 352.436C306.58 352.82 306.508 353.152 306.364 353.432C306.228 353.712 306.036 353.94 305.788 354.116C305.54 354.292 305.244 354.416 304.9 354.488V354.536C305.548 354.616 306.032 354.832 306.352 355.184C306.672 355.536 306.832 355.996 306.832 356.564C306.832 357.06 306.72 357.504 306.496 357.896C306.28 358.28 305.94 358.58 305.476 358.796C305.02 359.012 304.436 359.12 303.724 359.12C303.3 359.12 302.908 359.084 302.548 359.012C302.188 358.948 301.84 358.828 301.504 358.652V357.668C301.84 357.844 302.204 357.984 302.596 358.088C302.988 358.184 303.364 358.232 303.724 358.232C304.436 358.232 304.948 358.084 305.26 357.788C305.572 357.484 305.728 357.068 305.728 356.54C305.728 356.18 305.64 355.892 305.464 355.676C305.296 355.452 305.044 355.288 304.708 355.184C304.38 355.08 303.976 355.028 303.496 355.028H302.74V354.128H303.508C303.956 354.128 304.328 354.06 304.624 353.924C304.92 353.788 305.14 353.6 305.284 353.36C305.436 353.112 305.512 352.828 305.512 352.508C305.512 352.092 305.384 351.772 305.128 351.548C304.872 351.316 304.52 351.2 304.072 351.2C303.784 351.2 303.524 351.232 303.292 351.296C303.06 351.352 302.844 351.436 302.644 351.548C302.452 351.652 302.26 351.776 302.068 351.92L301.552 351.2C301.744 351.04 301.964 350.892 302.212 350.756C302.468 350.62 302.752 350.512 303.064 350.432C303.376 350.352 303.712 350.312 304.072 350.312C304.912 350.312 305.54 350.512 305.956 350.912C306.372 351.312 306.58 351.82 306.58 352.436ZM316.277 349.088V359.936H317.237V349.088H316.277ZM314.525 353.444V354.26H316.601V353.444H314.525ZM311.717 350.48V350.672C311.717 353.18 310.757 355.376 308.033 356.9L308.621 357.608C311.717 355.868 312.677 353.276 312.677 350.48H311.717ZM308.453 350.48V351.308H312.053V350.48H308.453ZM313.865 349.376V359.408H314.813V349.376H313.865ZM321.988 353.576V355.508H322.984V353.576H321.988ZM326.968 349.088V355.472H327.964V349.088H326.968ZM319.168 353.912C321.196 353.912 323.788 353.888 326.164 353.54L326.104 352.892C323.788 353.156 321.136 353.168 319.048 353.168L319.168 353.912ZM320.692 355.868V356.588H326.98V357.464H320.716V359.348H321.688V358.124H327.964V355.868H320.692ZM320.716 359.096V359.816H328.324V359.096H320.716ZM324.808 354.248V354.896H327.28V354.248H324.808ZM322.552 349.292C320.932 349.292 319.876 349.916 319.876 350.924C319.876 351.932 320.932 352.556 322.552 352.556C324.16 352.556 325.216 351.932 325.216 350.924C325.216 349.916 324.16 349.292 322.552 349.292ZM322.552 349.988C323.596 349.988 324.28 350.348 324.28 350.924C324.28 351.5 323.596 351.86 322.552 351.86C321.484 351.86 320.8 351.5 320.8 350.924C320.8 350.348 321.484 349.988 322.552 349.988Z" fill="white"/>
</svg>
