<svg width="351" height="117" viewBox="0 0 351 117" fill="none" xmlns="http://www.w3.org/2000/svg">
<rect x="0.5" y="0.5" width="175" height="39" fill="#DDDDDD" stroke="#9C9C9C"/>
<rect x="175.5" y="0.5" width="175" height="39" fill="#DDDDDD" stroke="#9C9C9C"/>
<path d="M46.472 14.956V26.068H47.996V14.956H46.472ZM45.068 19.144V20.416H46.904V19.144H45.068ZM41.756 16.312V16.648C41.756 19.312 40.868 21.184 38.336 22.684L39.26 23.788C42.368 21.976 43.28 19.444 43.28 16.312H41.756ZM38.9 16.312V17.596H42.224V16.312H38.9ZM44.012 15.244V25.588H45.5V15.244H44.012ZM57.1511 14.968V22.948H58.7591V14.968H57.1511ZM51.3551 24.604V25.876H59.0351V24.604H51.3551ZM51.3551 22.144V25.12H52.9511V22.144H51.3551ZM52.7111 15.664C51.0071 15.664 49.6871 16.84 49.6871 18.484C49.6871 20.116 51.0071 21.304 52.7111 21.304C54.4151 21.304 55.7231 20.116 55.7231 18.484C55.7231 16.84 54.4151 15.664 52.7111 15.664ZM52.7111 17.044C53.5271 17.044 54.1631 17.572 54.1631 18.484C54.1631 19.384 53.5271 19.912 52.7111 19.912C51.8831 19.912 51.2471 19.384 51.2471 18.484C51.2471 17.572 51.8831 17.044 52.7111 17.044ZM66.5821 17.644V18.94H68.6941V17.644H66.5821ZM68.2621 14.956V21.556H69.8581V14.956H68.2621ZM66.0901 21.796C63.7381 21.796 62.2861 22.6 62.2861 23.944C62.2861 25.3 63.7381 26.08 66.0901 26.08C68.4421 26.08 69.8941 25.3 69.8941 23.944C69.8941 22.6 68.4421 21.796 66.0901 21.796ZM66.0901 23.008C67.5421 23.008 68.3101 23.308 68.3101 23.944C68.3101 24.568 67.5421 24.868 66.0901 24.868C64.6501 24.868 63.8821 24.568 63.8821 23.944C63.8821 23.308 64.6501 23.008 66.0901 23.008ZM63.1261 16.072V16.768C63.1261 18.196 62.3341 19.672 60.4981 20.296L61.3141 21.556C63.4381 20.836 64.4221 18.892 64.4221 16.768V16.072H63.1261ZM63.4621 16.072V16.768C63.4621 18.748 64.4101 20.596 66.4741 21.28L67.2541 20.02C65.5021 19.432 64.7461 18.076 64.7461 16.768V16.072H63.4621ZM60.9301 15.628V16.9H66.9061V15.628H60.9301ZM71.6092 23.488V24.784H81.6652V23.488H71.6092ZM75.8212 21.112V23.8H77.4172V21.112H75.8212ZM72.6652 15.664V21.448H80.5732V15.664H78.9892V17.368H74.2492V15.664H72.6652ZM74.2492 18.616H78.9892V20.176H74.2492V18.616ZM82.6483 23.488V24.784H92.7043V23.488H82.6483ZM86.8603 21.112V23.8H88.4563V21.112H86.8603ZM83.7043 15.664V21.448H91.6123V15.664H90.0283V17.368H85.2883V15.664H83.7043ZM85.2883 18.616H90.0283V20.176H85.2883V18.616ZM94.1073 16.336V17.608H103.275V16.336H94.1073ZM93.6873 23.668V24.952H103.743V23.668H93.6873ZM97.8993 22.204V24.172H99.4833V22.204H97.8993ZM98.6793 18.088C96.3633 18.088 94.9113 18.892 94.9113 20.26C94.9113 21.628 96.3633 22.432 98.6793 22.432C100.995 22.432 102.447 21.628 102.447 20.26C102.447 18.892 100.995 18.088 98.6793 18.088ZM98.6793 19.324C100.071 19.324 100.815 19.624 100.815 20.26C100.815 20.896 100.071 21.184 98.6793 21.184C97.2873 21.184 96.5433 20.896 96.5433 20.26C96.5433 19.624 97.2873 19.324 98.6793 19.324ZM97.8993 15.076V17.128H99.4833V15.076H97.8993ZM106.706 17.14V17.488C106.706 18.676 106.106 19.816 104.702 20.332L105.434 21.508C107.174 20.86 107.894 19.264 107.894 17.488V17.14H106.706ZM107.03 17.14V17.488C107.03 19.192 107.75 20.728 109.502 21.328L110.21 20.152C108.818 19.672 108.206 18.604 108.206 17.488V17.14H107.03ZM105.014 16.204V17.452H109.886V16.204H105.014ZM106.706 15.064V16.78H108.206V15.064H106.706ZM112.67 14.968V21.772H114.182V14.968H112.67ZM111.338 17.74V19.012H113.102V17.74H111.338ZM110.354 15.136V21.724H111.842V15.136H110.354ZM106.55 22.24V23.512H112.598V26.068H114.182V22.24H106.55ZM123.385 14.968V21.244H124.993V14.968H123.385ZM117.601 21.748V25.948H124.993V21.748H117.601ZM123.421 22.996V24.688H119.161V22.996H123.421ZM118.945 15.472C117.217 15.472 115.921 16.576 115.921 18.136C115.921 19.684 117.217 20.8 118.945 20.8C120.673 20.8 121.957 19.684 121.957 18.136C121.957 16.576 120.673 15.472 118.945 15.472ZM118.945 16.792C119.785 16.792 120.397 17.284 120.397 18.136C120.397 18.976 119.785 19.468 118.945 19.468C118.105 19.468 117.481 18.976 117.481 18.136C117.481 17.284 118.105 16.792 118.945 16.792ZM129.289 16.708V17.956C129.289 19.78 128.389 21.856 126.553 22.72L127.453 23.98C129.493 23.02 130.549 20.464 130.549 17.956V16.708H129.289ZM129.625 16.708V17.956C129.625 20.32 130.657 22.756 132.697 23.704L133.573 22.444C131.749 21.604 130.885 19.636 130.885 17.956V16.708H129.625ZM126.985 16.024V17.332H133.081V16.024H126.985ZM133.897 14.956V26.068H135.505V14.956H133.897ZM135.145 19.192V20.512H137.113V19.192H135.145Z" fill="#333333"/>
<path d="M221.472 14.956V26.068H222.996V14.956H221.472ZM220.068 19.144V20.416H221.904V19.144H220.068ZM216.756 16.312V16.648C216.756 19.312 215.868 21.184 213.336 22.684L214.26 23.788C217.368 21.976 218.28 19.444 218.28 16.312H216.756ZM213.9 16.312V17.596H217.224V16.312H213.9ZM219.012 15.244V25.588H220.5V15.244H219.012ZM232.151 14.968V22.948H233.759V14.968H232.151ZM226.355 24.604V25.876H234.035V24.604H226.355ZM226.355 22.144V25.12H227.951V22.144H226.355ZM227.711 15.664C226.007 15.664 224.687 16.84 224.687 18.484C224.687 20.116 226.007 21.304 227.711 21.304C229.415 21.304 230.723 20.116 230.723 18.484C230.723 16.84 229.415 15.664 227.711 15.664ZM227.711 17.044C228.527 17.044 229.163 17.572 229.163 18.484C229.163 19.384 228.527 19.912 227.711 19.912C226.883 19.912 226.247 19.384 226.247 18.484C226.247 17.572 226.883 17.044 227.711 17.044ZM241.582 17.644V18.94H243.694V17.644H241.582ZM243.262 14.956V21.556H244.858V14.956H243.262ZM241.09 21.796C238.738 21.796 237.286 22.6 237.286 23.944C237.286 25.3 238.738 26.08 241.09 26.08C243.442 26.08 244.894 25.3 244.894 23.944C244.894 22.6 243.442 21.796 241.09 21.796ZM241.09 23.008C242.542 23.008 243.31 23.308 243.31 23.944C243.31 24.568 242.542 24.868 241.09 24.868C239.65 24.868 238.882 24.568 238.882 23.944C238.882 23.308 239.65 23.008 241.09 23.008ZM238.126 16.072V16.768C238.126 18.196 237.334 19.672 235.498 20.296L236.314 21.556C238.438 20.836 239.422 18.892 239.422 16.768V16.072H238.126ZM238.462 16.072V16.768C238.462 18.748 239.41 20.596 241.474 21.28L242.254 20.02C240.502 19.432 239.746 18.076 239.746 16.768V16.072H238.462ZM235.93 15.628V16.9H241.906V15.628H235.93ZM246.609 23.488V24.784H256.665V23.488H246.609ZM250.821 21.112V23.8H252.417V21.112H250.821ZM247.665 15.664V21.448H255.573V15.664H253.989V17.368H249.249V15.664H247.665ZM249.249 18.616H253.989V20.176H249.249V18.616ZM257.648 23.488V24.784H267.704V23.488H257.648ZM261.86 21.112V23.8H263.456V21.112H261.86ZM258.704 15.664V21.448H266.612V15.664H265.028V17.368H260.288V15.664H258.704ZM260.288 18.616H265.028V20.176H260.288V18.616ZM269.107 16.336V17.608H278.275V16.336H269.107ZM268.687 23.668V24.952H278.743V23.668H268.687ZM272.899 22.204V24.172H274.483V22.204H272.899ZM273.679 18.088C271.363 18.088 269.911 18.892 269.911 20.26C269.911 21.628 271.363 22.432 273.679 22.432C275.995 22.432 277.447 21.628 277.447 20.26C277.447 18.892 275.995 18.088 273.679 18.088ZM273.679 19.324C275.071 19.324 275.815 19.624 275.815 20.26C275.815 20.896 275.071 21.184 273.679 21.184C272.287 21.184 271.543 20.896 271.543 20.26C271.543 19.624 272.287 19.324 273.679 19.324ZM272.899 15.076V17.128H274.483V15.076H272.899ZM286.866 14.956V21.184H288.462V14.956H286.866ZM288.018 17.452V18.748H289.938V17.452H288.018ZM280.134 19.516V20.8H281.058C283.53 20.8 284.802 20.74 286.158 20.44L286.002 19.18C284.67 19.456 283.47 19.516 281.058 19.516H280.134ZM280.134 15.64V20.26H281.718V16.912H285.066V15.64H280.134ZM281.238 21.664V25.948H288.462V21.664H281.238ZM286.902 22.924V24.688H282.81V22.924H286.902ZM297.917 14.956V21.364H299.525V14.956H297.917ZM299.057 17.584V18.88H300.977V17.584H299.057ZM295.877 21.568C293.585 21.568 292.109 22.42 292.109 23.824C292.109 25.24 293.585 26.08 295.877 26.08C298.157 26.08 299.633 25.24 299.633 23.824C299.633 22.42 298.157 21.568 295.877 21.568ZM295.877 22.84C297.281 22.84 298.061 23.152 298.061 23.824C298.061 24.484 297.281 24.808 295.877 24.808C294.461 24.808 293.681 24.484 293.681 23.824C293.681 23.152 294.461 22.84 295.877 22.84ZM291.137 19.516V20.788H292.061C294.569 20.788 295.853 20.74 297.209 20.44L297.053 19.168C295.721 19.456 294.509 19.516 292.061 19.516H291.137ZM291.137 15.7V20.38H292.721V16.972H296.105V15.7H291.137ZM304.289 16.708V17.956C304.289 19.78 303.389 21.856 301.553 22.72L302.453 23.98C304.493 23.02 305.549 20.464 305.549 17.956V16.708H304.289ZM304.625 16.708V17.956C304.625 20.32 305.657 22.756 307.697 23.704L308.573 22.444C306.749 21.604 305.885 19.636 305.885 17.956V16.708H304.625ZM301.985 16.024V17.332H308.081V16.024H301.985ZM308.897 14.956V26.068H310.505V14.956H308.897ZM310.145 19.192V20.512H312.113V19.192H310.145Z" fill="#333333"/>
<rect x="0.5" y="39.5" width="175" height="77" stroke="#9C9C9C"/>
<rect x="175.5" y="39.5" width="175" height="77" stroke="#9C9C9C"/>
<path d="M26.324 55.7V56.816C26.324 58.472 25.244 59.924 23.588 60.512L24.104 61.328C25.964 60.632 27.152 58.916 27.152 56.816V55.7H26.324ZM26.504 55.7V56.78C26.504 58.748 27.668 60.344 29.42 61.004L29.96 60.224C28.376 59.672 27.32 58.316 27.32 56.78V55.7H26.504ZM31.52 55.088V61.508H32.516V55.088H31.52ZM28.952 61.82C26.708 61.82 25.328 62.576 25.328 63.872C25.328 65.168 26.708 65.912 28.952 65.912C31.184 65.912 32.564 65.168 32.564 63.872C32.564 62.576 31.184 61.82 28.952 61.82ZM28.952 62.612C30.584 62.612 31.58 63.08 31.58 63.872C31.58 64.664 30.584 65.132 28.952 65.132C27.32 65.132 26.324 64.664 26.324 63.872C26.324 63.08 27.32 62.612 28.952 62.612ZM29.168 57.38V58.208H31.736V57.38H29.168ZM39.8111 56.84V57.656H42.9431V56.84H39.8111ZM39.8111 59V59.804H42.9671V59H39.8111ZM42.5591 55.088V61.508H43.5551V55.088H42.5591ZM35.1311 55.904V60.728H40.0871V55.904H35.1311ZM39.1031 56.708V59.936H36.1031V56.708H39.1031ZM39.9911 61.82C37.7471 61.82 36.3671 62.576 36.3671 63.872C36.3671 65.168 37.7471 65.912 39.9911 65.912C42.2231 65.912 43.6031 65.168 43.6031 63.872C43.6031 62.576 42.2231 61.82 39.9911 61.82ZM39.9911 62.612C41.6231 62.612 42.6191 63.08 42.6191 63.872C42.6191 64.664 41.6231 65.132 39.9911 65.132C38.3591 65.132 37.3631 64.664 37.3631 63.872C37.3631 63.08 38.3591 62.612 39.9911 62.612ZM49.0593 59.216C49.0593 58.912 49.1313 58.7 49.2753 58.58C49.4193 58.46 49.5913 58.4 49.7913 58.4C49.9913 58.4 50.1673 58.46 50.3193 58.58C50.4713 58.7 50.5473 58.912 50.5473 59.216C50.5473 59.504 50.4713 59.712 50.3193 59.84C50.1673 59.968 49.9913 60.032 49.7913 60.032C49.5913 60.032 49.4193 59.968 49.2753 59.84C49.1313 59.712 49.0593 59.504 49.0593 59.216ZM49.0593 64.352C49.0593 64.056 49.1313 63.848 49.2753 63.728C49.4193 63.608 49.5913 63.548 49.7913 63.548C49.9913 63.548 50.1673 63.608 50.3193 63.728C50.4713 63.848 50.5473 64.056 50.5473 64.352C50.5473 64.64 50.4713 64.848 50.3193 64.976C50.1673 65.104 49.9913 65.168 49.7913 65.168C49.5913 65.168 49.4193 65.104 49.2753 64.976C49.1313 64.848 49.0593 64.64 49.0593 64.352ZM63.2354 56.708V57.536H65.1194V56.708H63.2354ZM63.2354 59.012V59.84H65.1194V59.012H63.2354ZM58.1474 55.724C56.5154 55.724 55.3154 56.78 55.3154 58.292C55.3154 59.792 56.5154 60.836 58.1474 60.836C59.7794 60.836 60.9794 59.792 60.9794 58.292C60.9794 56.78 59.7794 55.724 58.1474 55.724ZM58.1474 56.564C59.2274 56.564 60.0074 57.272 60.0074 58.292C60.0074 59.312 59.2274 60.008 58.1474 60.008C57.0674 60.008 56.2874 59.312 56.2874 58.292C56.2874 57.272 57.0674 56.564 58.1474 56.564ZM62.5394 55.088V61.508H63.5354V55.088H62.5394ZM60.0794 61.856C57.8714 61.856 56.5154 62.612 56.5154 63.884C56.5154 65.168 57.8714 65.912 60.0794 65.912C62.2874 65.912 63.6434 65.168 63.6434 63.884C63.6434 62.612 62.2874 61.856 60.0794 61.856ZM60.0794 62.66C61.6874 62.66 62.6714 63.104 62.6714 63.884C62.6714 64.664 61.6874 65.12 60.0794 65.12C58.4714 65.12 57.4874 64.664 57.4874 63.884C57.4874 63.104 58.4714 62.66 60.0794 62.66ZM74.4545 55.088V65.936H75.4025V55.088H74.4545ZM72.7385 59.456V60.296H74.8265V59.456H72.7385ZM72.0905 55.316V65.396H73.0265V55.316H72.0905ZM68.3945 56.768V58.016C68.3945 60.224 67.6025 62.072 66.0425 62.936L66.6545 63.704C68.3225 62.708 69.1745 60.62 69.1745 58.016V56.768H68.3945ZM68.5745 56.768V58.016C68.5745 60.404 69.4385 62.408 71.0945 63.32L71.6825 62.552C70.1585 61.772 69.3545 60.008 69.3545 58.016V56.768H68.5745ZM66.2945 56.36V57.188H71.3345V56.36H66.2945ZM80.2736 60.548V62.96H81.2696V60.548H80.2736ZM85.0856 55.088V63.344H86.0816V55.088H85.0856ZM78.6776 64.88V65.696H86.3456V64.88H78.6776ZM78.6776 62.54V65.108H79.6736V62.54H78.6776ZM77.2736 60.92C79.2416 60.92 81.8696 60.884 84.2096 60.512L84.1376 59.78C81.8336 60.08 79.1456 60.104 77.1416 60.104L77.2736 60.92ZM82.8776 61.496V62.228H85.3376V61.496H82.8776ZM80.6696 55.532C79.0736 55.532 77.9936 56.276 77.9936 57.416C77.9936 58.568 79.0736 59.312 80.6696 59.312C82.2536 59.312 83.3336 58.568 83.3336 57.416C83.3336 56.276 82.2536 55.532 80.6696 55.532ZM80.6696 56.276C81.6776 56.276 82.3856 56.72 82.3856 57.416C82.3856 58.112 81.6776 58.556 80.6696 58.556C79.6496 58.556 78.9416 58.112 78.9416 57.416C78.9416 56.72 79.6496 56.276 80.6696 56.276ZM28.616 74.78V75.596H31.88V74.78H28.616ZM28.616 77.384V78.2H31.88V77.384H28.616ZM31.52 73.1V81.116H32.516V73.1H31.52ZM25.592 82.88V83.696H32.816V82.88H25.592ZM25.592 80.288V83.24H26.588V80.288H25.592ZM26.552 73.784C24.956 73.784 23.756 74.9 23.756 76.496C23.756 78.092 24.956 79.208 26.552 79.208C28.148 79.208 29.348 78.092 29.348 76.496C29.348 74.9 28.148 73.784 26.552 73.784ZM26.552 74.66C27.608 74.66 28.4 75.428 28.4 76.496C28.4 77.576 27.608 78.344 26.552 78.344C25.496 78.344 24.716 77.576 24.716 76.496C24.716 75.428 25.496 74.66 26.552 74.66ZM35.1071 78.284V79.112H35.9591C37.9631 79.112 39.3911 79.052 41.1071 78.752L41.0231 77.936C39.3311 78.224 37.9271 78.284 35.9591 78.284H35.1071ZM35.0831 73.724V74.54H38.9831V75.968H35.1071V78.692H36.0791V76.736H39.9671V73.724H35.0831ZM42.0551 73.1V79.688H43.0511V73.1H42.0551ZM42.7511 75.86V76.7H44.6591V75.86H42.7511ZM36.0071 80.252V81.068H42.0551V83.936H43.0511V80.252H36.0071ZM53.6101 73.076V83.948H54.5941V73.076H53.6101ZM51.2701 77.432V78.26H53.8981V77.432H51.2701ZM48.4381 75.668V76.592C48.4381 78.464 47.2861 80.312 45.6901 81.08L46.2541 81.848C47.9701 80.996 49.2301 78.884 49.2301 76.592V75.668H48.4381ZM48.6301 75.668V76.592C48.6301 78.812 49.9021 80.84 51.6421 81.644L52.1941 80.876C50.5981 80.144 49.4101 78.38 49.4101 76.592V75.668H48.6301ZM45.9901 74.972V75.776H51.8221V74.972H45.9901ZM48.4261 73.28V75.416H49.4221V73.28H48.4261ZM60.0984 77.216C60.0984 76.912 60.1704 76.7 60.3144 76.58C60.4584 76.46 60.6304 76.4 60.8304 76.4C61.0304 76.4 61.2064 76.46 61.3584 76.58C61.5104 76.7 61.5864 76.912 61.5864 77.216C61.5864 77.504 61.5104 77.712 61.3584 77.84C61.2064 77.968 61.0304 78.032 60.8304 78.032C60.6304 78.032 60.4584 77.968 60.3144 77.84C60.1704 77.712 60.0984 77.504 60.0984 77.216ZM60.0984 82.352C60.0984 82.056 60.1704 81.848 60.3144 81.728C60.4584 81.608 60.6304 81.548 60.8304 81.548C61.0304 81.548 61.2064 81.608 61.3584 81.728C61.5104 81.848 61.5864 82.056 61.5864 82.352C61.5864 82.64 61.5104 82.848 61.3584 82.976C61.2064 83.104 61.0304 83.168 60.8304 83.168C60.6304 83.168 60.4584 83.104 60.3144 82.976C60.1704 82.848 60.0984 82.64 60.0984 82.352ZM71.8385 78.704C71.8385 79.632 71.7425 80.424 71.5505 81.08C71.3585 81.736 71.0505 82.24 70.6265 82.592C70.2105 82.944 69.6625 83.12 68.9825 83.12C68.0145 83.12 67.2985 82.732 66.8345 81.956C66.3785 81.172 66.1505 80.088 66.1505 78.704C66.1505 77.776 66.2425 76.984 66.4265 76.328C66.6185 75.672 66.9225 75.172 67.3385 74.828C67.7545 74.476 68.3025 74.3 68.9825 74.3C69.9425 74.3 70.6585 74.688 71.1305 75.464C71.6025 76.232 71.8385 77.312 71.8385 78.704ZM67.2065 78.704C67.2065 79.88 67.3385 80.76 67.6025 81.344C67.8745 81.928 68.3345 82.22 68.9825 82.22C69.6225 82.22 70.0785 81.932 70.3505 81.356C70.6305 80.772 70.7705 79.888 70.7705 78.704C70.7705 77.536 70.6305 76.66 70.3505 76.076C70.0785 75.492 69.6225 75.2 68.9825 75.2C68.3345 75.2 67.8745 75.492 67.6025 76.076C67.3385 76.66 67.2065 77.536 67.2065 78.704ZM78.6697 83H73.0057V82.124L75.2497 79.856C75.6737 79.424 76.0337 79.04 76.3297 78.704C76.6337 78.368 76.8617 78.04 77.0137 77.72C77.1657 77.4 77.2417 77.044 77.2417 76.652C77.2417 76.18 77.1017 75.824 76.8217 75.584C76.5417 75.336 76.1777 75.212 75.7297 75.212C75.3057 75.212 74.9377 75.284 74.6257 75.428C74.3137 75.572 73.9937 75.772 73.6657 76.028L73.1017 75.32C73.4377 75.04 73.8217 74.804 74.2537 74.612C74.6937 74.412 75.1857 74.312 75.7297 74.312C76.5297 74.312 77.1617 74.516 77.6257 74.924C78.0897 75.332 78.3217 75.888 78.3217 76.592C78.3217 77.04 78.2297 77.46 78.0457 77.852C77.8617 78.244 77.6057 78.632 77.2777 79.016C76.9497 79.4 76.5657 79.804 76.1257 80.228L74.3377 81.992V82.04H78.6697V83ZM79.7769 80.252V79.316H82.6809V80.252H79.7769ZM83.8241 79.34C83.8241 78.724 83.8761 78.12 83.9801 77.528C84.0921 76.928 84.2881 76.388 84.5681 75.908C84.8561 75.42 85.2561 75.032 85.7681 74.744C86.2801 74.456 86.9401 74.312 87.7481 74.312C87.9161 74.312 88.1001 74.32 88.3001 74.336C88.5081 74.352 88.6761 74.38 88.8041 74.42V75.32C88.6601 75.272 88.4961 75.236 88.3121 75.212C88.1281 75.188 87.9481 75.176 87.7721 75.176C87.2201 75.176 86.7601 75.268 86.3921 75.452C86.0241 75.636 85.7321 75.888 85.5161 76.208C85.3081 76.528 85.1561 76.896 85.0601 77.312C84.9641 77.728 84.9041 78.172 84.8801 78.644H84.9521C85.1361 78.364 85.3921 78.128 85.7201 77.936C86.0481 77.736 86.4681 77.636 86.9801 77.636C87.7241 77.636 88.3241 77.864 88.7801 78.32C89.2361 78.768 89.4641 79.408 89.4641 80.24C89.4641 81.136 89.2161 81.84 88.7201 82.352C88.2321 82.864 87.5721 83.12 86.7401 83.12C86.1961 83.12 85.7041 82.984 85.2641 82.712C84.8241 82.44 84.4721 82.024 84.2081 81.464C83.9521 80.904 83.8241 80.196 83.8241 79.34ZM86.7281 82.232C87.2321 82.232 87.6401 82.072 87.9521 81.752C88.2641 81.424 88.4201 80.92 88.4201 80.24C88.4201 79.696 88.2801 79.264 88.0001 78.944C87.7281 78.624 87.3161 78.464 86.7641 78.464C86.3881 78.464 86.0601 78.544 85.7801 78.704C85.5001 78.856 85.2801 79.056 85.1201 79.304C84.9681 79.544 84.8921 79.788 84.8921 80.036C84.8921 80.38 84.9601 80.724 85.0961 81.068C85.2321 81.404 85.4361 81.684 85.7081 81.908C85.9801 82.124 86.3201 82.232 86.7281 82.232ZM96.2713 78.092C96.2713 78.708 96.2153 79.316 96.1033 79.916C95.9993 80.508 95.8033 81.048 95.5153 81.536C95.2353 82.016 94.8353 82.4 94.3153 82.688C93.8033 82.976 93.1433 83.12 92.3353 83.12C92.1753 83.12 91.9873 83.108 91.7713 83.084C91.5553 83.068 91.3833 83.04 91.2553 83V82.1C91.5673 82.204 91.9193 82.256 92.3113 82.256C92.8713 82.256 93.3313 82.164 93.6913 81.98C94.0593 81.796 94.3513 81.548 94.5673 81.236C94.7833 80.916 94.9393 80.548 95.0353 80.132C95.1313 79.708 95.1873 79.264 95.2033 78.8H95.1313C94.9473 79.072 94.6913 79.308 94.3633 79.508C94.0353 79.7 93.6113 79.796 93.0913 79.796C92.3553 79.796 91.7593 79.572 91.3033 79.124C90.8553 78.668 90.6313 78.028 90.6313 77.204C90.6313 76.604 90.7433 76.088 90.9673 75.656C91.1913 75.224 91.5073 74.892 91.9153 74.66C92.3313 74.428 92.8153 74.312 93.3673 74.312C93.9113 74.312 94.4033 74.452 94.8433 74.732C95.2833 75.004 95.6313 75.42 95.8873 75.98C96.1433 76.532 96.2713 77.236 96.2713 78.092ZM93.3673 75.2C92.8713 75.2 92.4633 75.364 92.1433 75.692C91.8313 76.02 91.6753 76.52 91.6753 77.192C91.6753 77.744 91.8073 78.18 92.0713 78.5C92.3433 78.812 92.7593 78.968 93.3193 78.968C93.7033 78.968 94.0353 78.892 94.3153 78.74C94.5953 78.58 94.8113 78.38 94.9633 78.14C95.1233 77.9 95.2033 77.652 95.2033 77.396C95.2033 77.052 95.1353 76.712 94.9993 76.376C94.8633 76.04 94.6593 75.76 94.3873 75.536C94.1153 75.312 93.7753 75.2 93.3673 75.2ZM100.198 77.744C101.07 77.744 101.766 77.964 102.286 78.404C102.814 78.844 103.078 79.464 103.078 80.264C103.078 81.152 102.794 81.852 102.226 82.364C101.666 82.868 100.882 83.12 99.8744 83.12C99.4264 83.12 99.0104 83.08 98.6264 83C98.2424 82.92 97.9184 82.804 97.6544 82.652V81.656C97.9424 81.832 98.2904 81.972 98.6984 82.076C99.1144 82.172 99.5104 82.22 99.8864 82.22C100.518 82.22 101.026 82.072 101.41 81.776C101.802 81.472 101.998 81.004 101.998 80.372C101.998 79.812 101.826 79.384 101.482 79.088C101.138 78.784 100.594 78.632 99.8504 78.632C99.6264 78.632 99.3704 78.652 99.0824 78.692C98.7944 78.732 98.5624 78.772 98.3864 78.812L97.8584 78.476L98.1824 74.432H102.478V75.392H99.0824L98.8784 77.876C99.0144 77.852 99.1984 77.824 99.4304 77.792C99.6624 77.76 99.9184 77.744 100.198 77.744ZM109.682 76.436C109.682 77.012 109.518 77.472 109.19 77.816C108.87 78.152 108.442 78.376 107.906 78.488V78.536C108.586 78.616 109.094 78.832 109.43 79.184C109.774 79.536 109.946 79.996 109.946 80.564C109.946 81.068 109.83 81.512 109.598 81.896C109.366 82.28 109.006 82.58 108.518 82.796C108.038 83.012 107.418 83.12 106.658 83.12C106.21 83.12 105.794 83.084 105.41 83.012C105.026 82.948 104.658 82.828 104.306 82.652V81.668C104.666 81.852 105.054 81.992 105.47 82.088C105.886 82.184 106.286 82.232 106.67 82.232C107.438 82.232 107.99 82.084 108.326 81.788C108.67 81.484 108.842 81.068 108.842 80.54C108.842 80.004 108.63 79.62 108.206 79.388C107.79 79.148 107.202 79.028 106.442 79.028H105.614V78.128H106.454C107.158 78.128 107.69 77.98 108.05 77.684C108.418 77.388 108.602 76.996 108.602 76.508C108.602 76.092 108.462 75.772 108.182 75.548C107.902 75.316 107.522 75.2 107.042 75.2C106.578 75.2 106.182 75.268 105.854 75.404C105.526 75.54 105.202 75.712 104.882 75.92L104.354 75.2C104.658 74.96 105.034 74.752 105.482 74.576C105.938 74.4 106.454 74.312 107.03 74.312C107.926 74.312 108.59 74.512 109.022 74.912C109.462 75.312 109.682 75.82 109.682 76.436ZM111.113 80.252V79.316H114.017V80.252H111.113ZM120.74 83H115.076V82.124L117.32 79.856C117.744 79.424 118.104 79.04 118.4 78.704C118.704 78.368 118.932 78.04 119.084 77.72C119.236 77.4 119.312 77.044 119.312 76.652C119.312 76.18 119.172 75.824 118.892 75.584C118.612 75.336 118.248 75.212 117.8 75.212C117.376 75.212 117.008 75.284 116.696 75.428C116.384 75.572 116.064 75.772 115.736 76.028L115.172 75.32C115.508 75.04 115.892 74.804 116.324 74.612C116.764 74.412 117.256 74.312 117.8 74.312C118.6 74.312 119.232 74.516 119.696 74.924C120.16 75.332 120.392 75.888 120.392 76.592C120.392 77.04 120.3 77.46 120.116 77.852C119.932 78.244 119.676 78.632 119.348 79.016C119.02 79.4 118.636 79.804 118.196 80.228L116.408 81.992V82.04H120.74V83ZM127.643 78.704C127.643 79.632 127.547 80.424 127.355 81.08C127.163 81.736 126.855 82.24 126.431 82.592C126.015 82.944 125.467 83.12 124.787 83.12C123.819 83.12 123.103 82.732 122.639 81.956C122.183 81.172 121.955 80.088 121.955 78.704C121.955 77.776 122.047 76.984 122.231 76.328C122.423 75.672 122.727 75.172 123.143 74.828C123.559 74.476 124.107 74.3 124.787 74.3C125.747 74.3 126.463 74.688 126.935 75.464C127.407 76.232 127.643 77.312 127.643 78.704ZM123.011 78.704C123.011 79.88 123.143 80.76 123.407 81.344C123.679 81.928 124.139 82.22 124.787 82.22C125.427 82.22 125.883 81.932 126.155 81.356C126.435 80.772 126.575 79.888 126.575 78.704C126.575 77.536 126.435 76.66 126.155 76.076C125.883 75.492 125.427 75.2 124.787 75.2C124.139 75.2 123.679 75.492 123.407 76.076C123.143 76.66 123.011 77.536 123.011 78.704ZM132.494 83H131.462V77.012C131.462 76.668 131.466 76.392 131.474 76.184C131.482 75.976 131.494 75.76 131.51 75.536C131.382 75.664 131.262 75.772 131.15 75.86C131.046 75.948 130.918 76.06 130.766 76.196L129.854 76.94L129.302 76.232L131.618 74.432H132.494V83ZM136.734 83L140.25 75.392H135.63V74.432H141.378V75.248L137.898 83H136.734ZM24.56 92.156C24.72 92.156 24.86 92.212 24.98 92.324C25.108 92.428 25.172 92.596 25.172 92.828C25.172 93.06 25.108 93.232 24.98 93.344C24.86 93.448 24.72 93.5 24.56 93.5C24.384 93.5 24.236 93.448 24.116 93.344C23.996 93.232 23.936 93.06 23.936 92.828C23.936 92.596 23.996 92.428 24.116 92.324C24.236 92.212 24.384 92.156 24.56 92.156ZM25.076 94.568V101H24.02V94.568H25.076ZM30.2098 94.448C30.9778 94.448 31.5578 94.636 31.9498 95.012C32.3418 95.388 32.5378 95.988 32.5378 96.812V101H31.4938V96.884C31.4938 95.852 31.0138 95.336 30.0538 95.336C29.3418 95.336 28.8498 95.536 28.5778 95.936C28.3058 96.336 28.1698 96.912 28.1698 97.664V101H27.1138V94.568H27.9658L28.1218 95.444H28.1818C28.3898 95.108 28.6778 94.86 29.0458 94.7C29.4138 94.532 29.8018 94.448 30.2098 94.448ZM37.4957 95.384H35.8757V101H34.8197V95.384H33.6917V94.892L34.8197 94.532V94.16C34.8197 93.328 34.9997 92.732 35.3597 92.372C35.7277 92.004 36.2437 91.82 36.9077 91.82C37.1557 91.82 37.3877 91.844 37.6037 91.892C37.8197 91.932 38.0037 91.98 38.1557 92.036L37.8797 92.864C37.7517 92.824 37.6037 92.784 37.4357 92.744C37.2677 92.704 37.0957 92.684 36.9197 92.684C36.5677 92.684 36.3037 92.804 36.1277 93.044C35.9597 93.276 35.8757 93.644 35.8757 94.148V94.568H37.4957V95.384ZM44.2487 97.772C44.2487 98.836 43.9767 99.66 43.4327 100.244C42.8967 100.828 42.1687 101.12 41.2487 101.12C40.6807 101.12 40.1727 100.992 39.7247 100.736C39.2847 100.472 38.9367 100.092 38.6807 99.596C38.4247 99.092 38.2967 98.484 38.2967 97.772C38.2967 96.708 38.5607 95.888 39.0887 95.312C39.6247 94.736 40.3567 94.448 41.2847 94.448C41.8607 94.448 42.3727 94.58 42.8207 94.844C43.2687 95.1 43.6167 95.476 43.8647 95.972C44.1207 96.46 44.2487 97.06 44.2487 97.772ZM39.3887 97.772C39.3887 98.532 39.5367 99.136 39.8327 99.584C40.1367 100.024 40.6167 100.244 41.2727 100.244C41.9207 100.244 42.3967 100.024 42.7007 99.584C43.0047 99.136 43.1567 98.532 43.1567 97.772C43.1567 97.012 43.0047 96.416 42.7007 95.984C42.3967 95.552 41.9167 95.336 41.2607 95.336C40.6047 95.336 40.1287 95.552 39.8327 95.984C39.5367 96.416 39.3887 97.012 39.3887 97.772ZM54.9943 96.716C54.9943 97.084 54.9503 97.444 54.8623 97.796C54.7823 98.148 54.6543 98.468 54.4783 98.756C54.3023 99.036 54.0863 99.264 53.8303 99.44C53.5743 99.608 53.2703 99.692 52.9183 99.692C52.5503 99.692 52.2583 99.588 52.0423 99.38C51.8343 99.164 51.7063 98.92 51.6583 98.648H51.5983C51.4543 98.944 51.2423 99.192 50.9623 99.392C50.6823 99.592 50.3303 99.692 49.9063 99.692C49.2903 99.692 48.8183 99.488 48.4903 99.08C48.1623 98.672 47.9983 98.132 47.9983 97.46C47.9983 96.94 48.1023 96.476 48.3103 96.068C48.5183 95.66 48.8103 95.34 49.1863 95.108C49.5703 94.876 50.0223 94.76 50.5423 94.76C50.8943 94.76 51.2383 94.792 51.5743 94.856C51.9183 94.912 52.1863 94.976 52.3783 95.048L52.2583 97.484C52.2503 97.628 52.2463 97.732 52.2463 97.796C52.2463 97.852 52.2463 97.892 52.2463 97.916C52.2463 98.34 52.3183 98.62 52.4623 98.756C52.6143 98.884 52.7903 98.948 52.9903 98.948C53.2383 98.948 53.4463 98.848 53.6143 98.648C53.7903 98.44 53.9223 98.168 54.0103 97.832C54.1063 97.496 54.1543 97.12 54.1543 96.704C54.1543 95.968 54.0023 95.34 53.6983 94.82C53.4023 94.3 52.9903 93.904 52.4623 93.632C51.9423 93.36 51.3503 93.224 50.6863 93.224C49.7743 93.224 49.0023 93.412 48.3703 93.788C47.7463 94.164 47.2703 94.684 46.9423 95.348C46.6223 96.004 46.4623 96.756 46.4623 97.604C46.4623 98.788 46.7743 99.696 47.3983 100.328C48.0223 100.96 48.9223 101.276 50.0983 101.276C50.5863 101.276 51.0503 101.22 51.4903 101.108C51.9383 101.004 52.3343 100.888 52.6783 100.76V101.576C52.3343 101.72 51.9463 101.836 51.5143 101.924C51.0903 102.02 50.6183 102.068 50.0983 102.068C49.1543 102.068 48.3463 101.892 47.6743 101.54C47.0023 101.188 46.4863 100.684 46.1263 100.028C45.7743 99.364 45.5983 98.568 45.5983 97.64C45.5983 96.896 45.7143 96.208 45.9463 95.576C46.1783 94.936 46.5143 94.384 46.9543 93.92C47.3943 93.448 47.9263 93.084 48.5503 92.828C49.1823 92.564 49.8943 92.432 50.6863 92.432C51.5183 92.432 52.2583 92.604 52.9063 92.948C53.5543 93.292 54.0623 93.784 54.4303 94.424C54.8063 95.064 54.9943 95.828 54.9943 96.716ZM48.9343 97.484C48.9343 98.004 49.0343 98.38 49.2343 98.612C49.4343 98.836 49.7103 98.948 50.0623 98.948C50.5103 98.948 50.8303 98.78 51.0223 98.444C51.2223 98.108 51.3383 97.672 51.3703 97.136L51.4423 95.636C51.3383 95.604 51.2063 95.576 51.0463 95.552C50.8863 95.528 50.7223 95.516 50.5543 95.516C50.1623 95.516 49.8463 95.612 49.6063 95.804C49.3663 95.996 49.1943 96.244 49.0903 96.548C48.9863 96.844 48.9343 97.156 48.9343 97.484ZM57.7713 91.88V94.1C57.7713 94.372 57.7633 94.628 57.7473 94.868C57.7393 95.1 57.7273 95.284 57.7113 95.42H57.7713C57.9553 95.148 58.2073 94.92 58.5273 94.736C58.8473 94.552 59.2593 94.46 59.7633 94.46C60.5633 94.46 61.2033 94.74 61.6833 95.3C62.1713 95.852 62.4153 96.68 62.4153 97.784C62.4153 98.888 62.1713 99.72 61.6833 100.28C61.1953 100.84 60.5553 101.12 59.7633 101.12C59.2593 101.12 58.8473 101.028 58.5273 100.844C58.2073 100.66 57.9553 100.44 57.7713 100.184H57.6873L57.4713 101H56.7153V91.88H57.7713ZM59.5833 95.336C58.8953 95.336 58.4193 95.532 58.1553 95.924C57.8993 96.316 57.7713 96.924 57.7713 97.748V97.796C57.7713 98.588 57.8993 99.196 58.1553 99.62C58.4193 100.036 58.9033 100.244 59.6073 100.244C60.1833 100.244 60.6113 100.032 60.8913 99.608C61.1793 99.184 61.3233 98.572 61.3233 97.772C61.3233 96.148 60.7433 95.336 59.5833 95.336ZM66.5821 94.448C67.1261 94.448 67.5981 94.568 67.9981 94.808C68.3981 95.048 68.7021 95.388 68.9101 95.828C69.1261 96.26 69.2341 96.768 69.2341 97.352V97.988H64.8301C64.8461 98.716 65.0301 99.272 65.3821 99.656C65.7421 100.032 66.2421 100.22 66.8821 100.22C67.2901 100.22 67.6501 100.184 67.9621 100.112C68.2821 100.032 68.6101 99.92 68.9461 99.776V100.7C68.6181 100.844 68.2941 100.948 67.9741 101.012C67.6541 101.084 67.2741 101.12 66.8341 101.12C66.2181 101.12 65.6781 100.996 65.2141 100.748C64.7501 100.5 64.3861 100.132 64.1221 99.644C63.8661 99.156 63.7381 98.552 63.7381 97.832C63.7381 97.128 63.8541 96.524 64.0861 96.02C64.3261 95.516 64.6581 95.128 65.0821 94.856C65.5141 94.584 66.0141 94.448 66.5821 94.448ZM66.5701 95.312C66.0661 95.312 65.6661 95.476 65.3701 95.804C65.0821 96.124 64.9101 96.572 64.8541 97.148H68.1301C68.1221 96.604 67.9941 96.164 67.7461 95.828C67.4981 95.484 67.1061 95.312 66.5701 95.312ZM73.9676 94.448C74.7356 94.448 75.3156 94.636 75.7076 95.012C76.0996 95.388 76.2956 95.988 76.2956 96.812V101H75.2516V96.884C75.2516 95.852 74.7716 95.336 73.8116 95.336C73.0996 95.336 72.6076 95.536 72.3356 95.936C72.0636 96.336 71.9276 96.912 71.9276 97.664V101H70.8716V94.568H71.7236L71.8796 95.444H71.9396C72.1476 95.108 72.4356 94.86 72.8036 94.7C73.1716 94.532 73.5596 94.448 73.9676 94.448ZM80.4375 100.256C80.5975 100.256 80.7615 100.244 80.9295 100.22C81.0975 100.196 81.2335 100.164 81.3375 100.124V100.928C81.2255 100.984 81.0655 101.028 80.8575 101.06C80.6495 101.1 80.4495 101.12 80.2575 101.12C79.9215 101.12 79.6095 101.064 79.3215 100.952C79.0415 100.832 78.8135 100.628 78.6375 100.34C78.4615 100.052 78.3735 99.648 78.3735 99.128V95.384H77.4615V94.88L78.3855 94.46L78.8055 93.092H79.4295V94.568H81.2895V95.384H79.4295V99.104C79.4295 99.496 79.5215 99.788 79.7055 99.98C79.8975 100.164 80.1415 100.256 80.4375 100.256ZM83.6815 101H82.6255V91.88H83.6815V101ZM88.2032 94.448C88.7472 94.448 89.2192 94.568 89.6192 94.808C90.0192 95.048 90.3232 95.388 90.5312 95.828C90.7472 96.26 90.8552 96.768 90.8552 97.352V97.988H86.4512C86.4672 98.716 86.6512 99.272 87.0032 99.656C87.3632 100.032 87.8632 100.22 88.5032 100.22C88.9112 100.22 89.2712 100.184 89.5832 100.112C89.9032 100.032 90.2312 99.92 90.5672 99.776V100.7C90.2392 100.844 89.9152 100.948 89.5952 101.012C89.2752 101.084 88.8952 101.12 88.4552 101.12C87.8392 101.12 87.2992 100.996 86.8352 100.748C86.3712 100.5 86.0072 100.132 85.7432 99.644C85.4872 99.156 85.3592 98.552 85.3592 97.832C85.3592 97.128 85.4752 96.524 85.7072 96.02C85.9472 95.516 86.2792 95.128 86.7032 94.856C87.1352 94.584 87.6352 94.448 88.2032 94.448ZM88.1912 95.312C87.6872 95.312 87.2872 95.476 86.9912 95.804C86.7032 96.124 86.5312 96.572 86.4752 97.148H89.7512C89.7432 96.604 89.6152 96.164 89.3672 95.828C89.1192 95.484 88.7272 95.312 88.1912 95.312ZM96.6807 99.224C96.6807 99.848 96.4487 100.32 95.9847 100.64C95.5207 100.96 94.8967 101.12 94.1127 101.12C93.6647 101.12 93.2767 101.084 92.9487 101.012C92.6287 100.94 92.3447 100.84 92.0967 100.712V99.752C92.3527 99.88 92.6607 100 93.0207 100.112C93.3887 100.216 93.7607 100.268 94.1367 100.268C94.6727 100.268 95.0607 100.184 95.3007 100.016C95.5407 99.84 95.6607 99.608 95.6607 99.32C95.6607 99.16 95.6167 99.016 95.5287 98.888C95.4407 98.76 95.2807 98.632 95.0487 98.504C94.8247 98.376 94.5007 98.232 94.0767 98.072C93.6607 97.912 93.3047 97.752 93.0087 97.592C92.7127 97.432 92.4847 97.24 92.3247 97.016C92.1647 96.792 92.0847 96.504 92.0847 96.152C92.0847 95.608 92.3047 95.188 92.7447 94.892C93.1927 94.596 93.7767 94.448 94.4967 94.448C94.8887 94.448 95.2527 94.488 95.5887 94.568C95.9327 94.648 96.2527 94.752 96.5487 94.88L96.1887 95.72C95.9167 95.608 95.6327 95.512 95.3367 95.432C95.0407 95.352 94.7367 95.312 94.4247 95.312C93.9927 95.312 93.6607 95.384 93.4287 95.528C93.2047 95.664 93.0927 95.852 93.0927 96.092C93.0927 96.276 93.1447 96.428 93.2487 96.548C93.3527 96.668 93.5247 96.788 93.7647 96.908C94.0127 97.028 94.3407 97.164 94.7487 97.316C95.1567 97.468 95.5047 97.624 95.7927 97.784C96.0807 97.944 96.3007 98.14 96.4527 98.372C96.6047 98.596 96.6807 98.88 96.6807 99.224ZM101.295 94.448C102.087 94.448 102.723 94.724 103.203 95.276C103.691 95.828 103.935 96.66 103.935 97.772C103.935 98.868 103.691 99.7 103.203 100.268C102.723 100.836 102.083 101.12 101.283 101.12C100.787 101.12 100.375 101.028 100.047 100.844C99.7268 100.66 99.4748 100.44 99.2908 100.184H99.2188C99.2268 100.32 99.2388 100.492 99.2548 100.7C99.2788 100.908 99.2908 101.088 99.2908 101.24V103.88H98.2348V94.568H99.0988L99.2428 95.444H99.2908C99.4828 95.164 99.7348 94.928 100.047 94.736C100.359 94.544 100.775 94.448 101.295 94.448ZM101.103 95.336C100.447 95.336 99.9828 95.52 99.7108 95.888C99.4388 96.256 99.2988 96.816 99.2908 97.568V97.772C99.2908 98.564 99.4188 99.176 99.6748 99.608C99.9388 100.032 100.423 100.244 101.127 100.244C101.511 100.244 101.831 100.14 102.087 99.932C102.343 99.716 102.531 99.42 102.651 99.044C102.779 98.668 102.843 98.24 102.843 97.76C102.843 97.024 102.699 96.436 102.411 95.996C102.131 95.556 101.695 95.336 101.103 95.336ZM108.054 94.46C108.838 94.46 109.418 94.632 109.794 94.976C110.17 95.32 110.358 95.868 110.358 96.62V101H109.59L109.386 100.088H109.338C109.058 100.44 108.762 100.7 108.45 100.868C108.138 101.036 107.714 101.12 107.178 101.12C106.594 101.12 106.11 100.968 105.726 100.664C105.342 100.352 105.15 99.868 105.15 99.212C105.15 98.572 105.402 98.08 105.906 97.736C106.41 97.384 107.186 97.192 108.234 97.16L109.326 97.124V96.74C109.326 96.204 109.21 95.832 108.978 95.624C108.746 95.416 108.418 95.312 107.994 95.312C107.658 95.312 107.338 95.364 107.034 95.468C106.73 95.564 106.446 95.676 106.182 95.804L105.858 95.012C106.138 94.86 106.47 94.732 106.854 94.628C107.238 94.516 107.638 94.46 108.054 94.46ZM109.314 97.856L108.366 97.892C107.566 97.924 107.01 98.052 106.698 98.276C106.394 98.5 106.242 98.816 106.242 99.224C106.242 99.584 106.35 99.848 106.566 100.016C106.79 100.184 107.074 100.268 107.418 100.268C107.954 100.268 108.402 100.12 108.762 99.824C109.13 99.52 109.314 99.056 109.314 98.432V97.856ZM114.924 101.12C114.348 101.12 113.84 101.004 113.4 100.772C112.96 100.54 112.612 100.18 112.356 99.692C112.108 99.204 111.984 98.58 111.984 97.82C111.984 97.028 112.112 96.384 112.368 95.888C112.632 95.392 112.992 95.028 113.448 94.796C113.904 94.564 114.42 94.448 114.996 94.448C115.316 94.448 115.628 94.484 115.932 94.556C116.244 94.62 116.496 94.7 116.688 94.796L116.364 95.672C116.172 95.6 115.948 95.532 115.692 95.468C115.436 95.404 115.196 95.372 114.972 95.372C113.708 95.372 113.076 96.184 113.076 97.808C113.076 98.584 113.228 99.18 113.532 99.596C113.844 100.004 114.304 100.208 114.912 100.208C115.256 100.208 115.564 100.172 115.836 100.1C116.108 100.028 116.356 99.94 116.58 99.836V100.772C116.364 100.884 116.124 100.968 115.86 101.024C115.604 101.088 115.292 101.12 114.924 101.12ZM120.594 94.448C121.138 94.448 121.61 94.568 122.01 94.808C122.41 95.048 122.714 95.388 122.922 95.828C123.138 96.26 123.246 96.768 123.246 97.352V97.988H118.842C118.858 98.716 119.042 99.272 119.394 99.656C119.754 100.032 120.254 100.22 120.894 100.22C121.302 100.22 121.662 100.184 121.974 100.112C122.294 100.032 122.622 99.92 122.958 99.776V100.7C122.63 100.844 122.306 100.948 121.986 101.012C121.666 101.084 121.286 101.12 120.846 101.12C120.23 101.12 119.69 100.996 119.226 100.748C118.762 100.5 118.398 100.132 118.134 99.644C117.878 99.156 117.75 98.552 117.75 97.832C117.75 97.128 117.866 96.524 118.098 96.02C118.338 95.516 118.67 95.128 119.094 94.856C119.526 94.584 120.026 94.448 120.594 94.448ZM120.582 95.312C120.078 95.312 119.678 95.476 119.382 95.804C119.094 96.124 118.922 96.572 118.866 97.148H122.142C122.134 96.604 122.006 96.164 121.758 95.828C121.51 95.484 121.118 95.312 120.582 95.312ZM124.727 100.352C124.727 100.056 124.799 99.848 124.943 99.728C125.087 99.608 125.259 99.548 125.459 99.548C125.659 99.548 125.835 99.608 125.987 99.728C126.139 99.848 126.215 100.056 126.215 100.352C126.215 100.64 126.139 100.848 125.987 100.976C125.835 101.104 125.659 101.168 125.459 101.168C125.259 101.168 125.087 101.104 124.943 100.976C124.799 100.848 124.727 100.64 124.727 100.352ZM130.674 101.12C130.098 101.12 129.59 101.004 129.15 100.772C128.71 100.54 128.362 100.18 128.106 99.692C127.858 99.204 127.734 98.58 127.734 97.82C127.734 97.028 127.862 96.384 128.118 95.888C128.382 95.392 128.742 95.028 129.198 94.796C129.654 94.564 130.17 94.448 130.746 94.448C131.066 94.448 131.378 94.484 131.682 94.556C131.994 94.62 132.246 94.7 132.438 94.796L132.114 95.672C131.922 95.6 131.698 95.532 131.442 95.468C131.186 95.404 130.946 95.372 130.722 95.372C129.458 95.372 128.826 96.184 128.826 97.808C128.826 98.584 128.978 99.18 129.282 99.596C129.594 100.004 130.054 100.208 130.662 100.208C131.006 100.208 131.314 100.172 131.586 100.1C131.858 100.028 132.106 99.94 132.33 99.836V100.772C132.114 100.884 131.874 100.968 131.61 101.024C131.354 101.088 131.042 101.12 130.674 101.12ZM139.452 97.772C139.452 98.836 139.18 99.66 138.636 100.244C138.1 100.828 137.372 101.12 136.452 101.12C135.884 101.12 135.376 100.992 134.928 100.736C134.488 100.472 134.14 100.092 133.884 99.596C133.628 99.092 133.5 98.484 133.5 97.772C133.5 96.708 133.764 95.888 134.292 95.312C134.828 94.736 135.56 94.448 136.488 94.448C137.064 94.448 137.576 94.58 138.024 94.844C138.472 95.1 138.82 95.476 139.068 95.972C139.324 96.46 139.452 97.06 139.452 97.772ZM134.592 97.772C134.592 98.532 134.74 99.136 135.036 99.584C135.34 100.024 135.82 100.244 136.476 100.244C137.124 100.244 137.6 100.024 137.904 99.584C138.208 99.136 138.36 98.532 138.36 97.772C138.36 97.012 138.208 96.416 137.904 95.984C137.6 95.552 137.12 95.336 136.464 95.336C135.808 95.336 135.332 95.552 135.036 95.984C134.74 96.416 134.592 97.012 134.592 97.772ZM148.181 94.448C148.909 94.448 149.453 94.636 149.813 95.012C150.173 95.388 150.353 95.988 150.353 96.812V101H149.309V96.86C149.309 95.844 148.873 95.336 148.001 95.336C147.377 95.336 146.929 95.516 146.657 95.876C146.393 96.236 146.261 96.76 146.261 97.448V101H145.217V96.86C145.217 95.844 144.777 95.336 143.897 95.336C143.249 95.336 142.801 95.536 142.553 95.936C142.305 96.336 142.181 96.912 142.181 97.664V101H141.125V94.568H141.977L142.133 95.444H142.193C142.393 95.108 142.661 94.86 142.997 94.7C143.341 94.532 143.705 94.448 144.089 94.448C145.097 94.448 145.753 94.808 146.057 95.528H146.117C146.333 95.16 146.625 94.888 146.993 94.712C147.361 94.536 147.757 94.448 148.181 94.448Z" fill="white"/>
<path d="M202.324 55.7V56.816C202.324 58.472 201.244 59.924 199.588 60.512L200.104 61.328C201.964 60.632 203.152 58.916 203.152 56.816V55.7H202.324ZM202.504 55.7V56.78C202.504 58.748 203.668 60.344 205.42 61.004L205.96 60.224C204.376 59.672 203.32 58.316 203.32 56.78V55.7H202.504ZM207.52 55.088V61.508H208.516V55.088H207.52ZM204.952 61.82C202.708 61.82 201.328 62.576 201.328 63.872C201.328 65.168 202.708 65.912 204.952 65.912C207.184 65.912 208.564 65.168 208.564 63.872C208.564 62.576 207.184 61.82 204.952 61.82ZM204.952 62.612C206.584 62.612 207.58 63.08 207.58 63.872C207.58 64.664 206.584 65.132 204.952 65.132C203.32 65.132 202.324 64.664 202.324 63.872C202.324 63.08 203.32 62.612 204.952 62.612ZM205.168 57.38V58.208H207.736V57.38H205.168ZM215.811 56.84V57.656H218.943V56.84H215.811ZM215.811 59V59.804H218.967V59H215.811ZM218.559 55.088V61.508H219.555V55.088H218.559ZM211.131 55.904V60.728H216.087V55.904H211.131ZM215.103 56.708V59.936H212.103V56.708H215.103ZM215.991 61.82C213.747 61.82 212.367 62.576 212.367 63.872C212.367 65.168 213.747 65.912 215.991 65.912C218.223 65.912 219.603 65.168 219.603 63.872C219.603 62.576 218.223 61.82 215.991 61.82ZM215.991 62.612C217.623 62.612 218.619 63.08 218.619 63.872C218.619 64.664 217.623 65.132 215.991 65.132C214.359 65.132 213.363 64.664 213.363 63.872C213.363 63.08 214.359 62.612 215.991 62.612ZM225.059 59.216C225.059 58.912 225.131 58.7 225.275 58.58C225.419 58.46 225.591 58.4 225.791 58.4C225.991 58.4 226.167 58.46 226.319 58.58C226.471 58.7 226.547 58.912 226.547 59.216C226.547 59.504 226.471 59.712 226.319 59.84C226.167 59.968 225.991 60.032 225.791 60.032C225.591 60.032 225.419 59.968 225.275 59.84C225.131 59.712 225.059 59.504 225.059 59.216ZM225.059 64.352C225.059 64.056 225.131 63.848 225.275 63.728C225.419 63.608 225.591 63.548 225.791 63.548C225.991 63.548 226.167 63.608 226.319 63.728C226.471 63.848 226.547 64.056 226.547 64.352C226.547 64.64 226.471 64.848 226.319 64.976C226.167 65.104 225.991 65.168 225.791 65.168C225.591 65.168 225.419 65.104 225.275 64.976C225.131 64.848 225.059 64.64 225.059 64.352ZM235.755 55.784V56.228C235.755 58.232 234.063 59.804 231.243 60.548L231.627 61.34C234.819 60.488 236.799 58.544 236.799 55.784H235.755ZM231.807 55.784V56.588H236.331V55.784H231.807ZM239.007 55.088V61.208H240.015V55.088H239.007ZM232.995 61.736V65.792H240.015V61.736H232.995ZM239.031 62.54V64.976H233.979V62.54H239.031ZM245.031 56.636V58.4C245.031 60.272 243.723 62.312 242.151 63.056L242.727 63.848C244.455 62.996 245.835 60.692 245.835 58.4V56.636H245.031ZM245.223 56.636V58.4C245.223 60.656 246.615 62.768 248.367 63.584L248.931 62.792C247.335 62.108 246.027 60.236 246.027 58.4V56.636H245.223ZM242.511 56.192V57.032H248.571V56.192H242.511ZM250.035 55.088V65.936H251.031V55.088H250.035ZM258.134 56.648V57.464H261.446V56.648H258.134ZM258.134 59.144V59.972H261.446V59.144H258.134ZM256.154 55.724C254.546 55.724 253.358 56.804 253.358 58.304C253.358 59.816 254.546 60.884 256.154 60.884C257.75 60.884 258.95 59.816 258.95 58.304C258.95 56.804 257.75 55.724 256.154 55.724ZM256.154 56.576C257.21 56.576 258.002 57.284 258.002 58.304C258.002 59.324 257.21 60.032 256.154 60.032C255.098 60.032 254.318 59.324 254.318 58.304C254.318 57.284 255.098 56.576 256.154 56.576ZM261.122 55.088V61.508H262.118V55.088H261.122ZM258.554 61.76C256.31 61.76 254.93 62.528 254.93 63.836C254.93 65.156 256.31 65.912 258.554 65.912C260.786 65.912 262.166 65.156 262.166 63.836C262.166 62.528 260.786 61.76 258.554 61.76ZM258.554 62.552C260.186 62.552 261.182 63.032 261.182 63.836C261.182 64.652 260.186 65.132 258.554 65.132C256.91 65.132 255.914 64.652 255.914 63.836C255.914 63.032 256.91 62.552 258.554 62.552ZM204.616 74.78V75.596H207.88V74.78H204.616ZM204.616 77.384V78.2H207.88V77.384H204.616ZM207.52 73.1V81.116H208.516V73.1H207.52ZM201.592 82.88V83.696H208.816V82.88H201.592ZM201.592 80.288V83.24H202.588V80.288H201.592ZM202.552 73.784C200.956 73.784 199.756 74.9 199.756 76.496C199.756 78.092 200.956 79.208 202.552 79.208C204.148 79.208 205.348 78.092 205.348 76.496C205.348 74.9 204.148 73.784 202.552 73.784ZM202.552 74.66C203.608 74.66 204.4 75.428 204.4 76.496C204.4 77.576 203.608 78.344 202.552 78.344C201.496 78.344 200.716 77.576 200.716 76.496C200.716 75.428 201.496 74.66 202.552 74.66ZM211.107 78.284V79.112H211.959C213.963 79.112 215.391 79.052 217.107 78.752L217.023 77.936C215.331 78.224 213.927 78.284 211.959 78.284H211.107ZM211.083 73.724V74.54H214.983V75.968H211.107V78.692H212.079V76.736H215.967V73.724H211.083ZM218.055 73.1V79.688H219.051V73.1H218.055ZM218.751 75.86V76.7H220.659V75.86H218.751ZM212.007 80.252V81.068H218.055V83.936H219.051V80.252H212.007ZM229.61 73.076V83.948H230.594V73.076H229.61ZM227.27 77.432V78.26H229.898V77.432H227.27ZM224.438 75.668V76.592C224.438 78.464 223.286 80.312 221.69 81.08L222.254 81.848C223.97 80.996 225.23 78.884 225.23 76.592V75.668H224.438ZM224.63 75.668V76.592C224.63 78.812 225.902 80.84 227.642 81.644L228.194 80.876C226.598 80.144 225.41 78.38 225.41 76.592V75.668H224.63ZM221.99 74.972V75.776H227.822V74.972H221.99ZM224.426 73.28V75.416H225.422V73.28H224.426ZM236.098 77.216C236.098 76.912 236.17 76.7 236.314 76.58C236.458 76.46 236.63 76.4 236.83 76.4C237.03 76.4 237.206 76.46 237.358 76.58C237.51 76.7 237.586 76.912 237.586 77.216C237.586 77.504 237.51 77.712 237.358 77.84C237.206 77.968 237.03 78.032 236.83 78.032C236.63 78.032 236.458 77.968 236.314 77.84C236.17 77.712 236.098 77.504 236.098 77.216ZM236.098 82.352C236.098 82.056 236.17 81.848 236.314 81.728C236.458 81.608 236.63 81.548 236.83 81.548C237.03 81.548 237.206 81.608 237.358 81.728C237.51 81.848 237.586 82.056 237.586 82.352C237.586 82.64 237.51 82.848 237.358 82.976C237.206 83.104 237.03 83.168 236.83 83.168C236.63 83.168 236.458 83.104 236.314 82.976C236.17 82.848 236.098 82.64 236.098 82.352ZM247.839 78.704C247.839 79.632 247.743 80.424 247.551 81.08C247.359 81.736 247.051 82.24 246.627 82.592C246.211 82.944 245.663 83.12 244.983 83.12C244.015 83.12 243.299 82.732 242.835 81.956C242.379 81.172 242.151 80.088 242.151 78.704C242.151 77.776 242.243 76.984 242.427 76.328C242.619 75.672 242.923 75.172 243.339 74.828C243.755 74.476 244.303 74.3 244.983 74.3C245.943 74.3 246.659 74.688 247.131 75.464C247.603 76.232 247.839 77.312 247.839 78.704ZM243.207 78.704C243.207 79.88 243.339 80.76 243.603 81.344C243.875 81.928 244.335 82.22 244.983 82.22C245.623 82.22 246.079 81.932 246.351 81.356C246.631 80.772 246.771 79.888 246.771 78.704C246.771 77.536 246.631 76.66 246.351 76.076C246.079 75.492 245.623 75.2 244.983 75.2C244.335 75.2 243.875 75.492 243.603 76.076C243.339 76.66 243.207 77.536 243.207 78.704ZM254.67 83H249.006V82.124L251.25 79.856C251.674 79.424 252.034 79.04 252.33 78.704C252.634 78.368 252.862 78.04 253.014 77.72C253.166 77.4 253.242 77.044 253.242 76.652C253.242 76.18 253.102 75.824 252.822 75.584C252.542 75.336 252.178 75.212 251.73 75.212C251.306 75.212 250.938 75.284 250.626 75.428C250.314 75.572 249.994 75.772 249.666 76.028L249.102 75.32C249.438 75.04 249.822 74.804 250.254 74.612C250.694 74.412 251.186 74.312 251.73 74.312C252.53 74.312 253.162 74.516 253.626 74.924C254.09 75.332 254.322 75.888 254.322 76.592C254.322 77.04 254.23 77.46 254.046 77.852C253.862 78.244 253.606 78.632 253.278 79.016C252.95 79.4 252.566 79.804 252.126 80.228L250.338 81.992V82.04H254.67V83ZM255.777 80.252V79.316H258.681V80.252H255.777ZM259.824 79.34C259.824 78.724 259.876 78.12 259.98 77.528C260.092 76.928 260.288 76.388 260.568 75.908C260.856 75.42 261.256 75.032 261.768 74.744C262.28 74.456 262.94 74.312 263.748 74.312C263.916 74.312 264.1 74.32 264.3 74.336C264.508 74.352 264.676 74.38 264.804 74.42V75.32C264.66 75.272 264.496 75.236 264.312 75.212C264.128 75.188 263.948 75.176 263.772 75.176C263.22 75.176 262.76 75.268 262.392 75.452C262.024 75.636 261.732 75.888 261.516 76.208C261.308 76.528 261.156 76.896 261.06 77.312C260.964 77.728 260.904 78.172 260.88 78.644H260.952C261.136 78.364 261.392 78.128 261.72 77.936C262.048 77.736 262.468 77.636 262.98 77.636C263.724 77.636 264.324 77.864 264.78 78.32C265.236 78.768 265.464 79.408 265.464 80.24C265.464 81.136 265.216 81.84 264.72 82.352C264.232 82.864 263.572 83.12 262.74 83.12C262.196 83.12 261.704 82.984 261.264 82.712C260.824 82.44 260.472 82.024 260.208 81.464C259.952 80.904 259.824 80.196 259.824 79.34ZM262.728 82.232C263.232 82.232 263.64 82.072 263.952 81.752C264.264 81.424 264.42 80.92 264.42 80.24C264.42 79.696 264.28 79.264 264 78.944C263.728 78.624 263.316 78.464 262.764 78.464C262.388 78.464 262.06 78.544 261.78 78.704C261.5 78.856 261.28 79.056 261.12 79.304C260.968 79.544 260.892 79.788 260.892 80.036C260.892 80.38 260.96 80.724 261.096 81.068C261.232 81.404 261.436 81.684 261.708 81.908C261.98 82.124 262.32 82.232 262.728 82.232ZM272.271 78.092C272.271 78.708 272.215 79.316 272.103 79.916C271.999 80.508 271.803 81.048 271.515 81.536C271.235 82.016 270.835 82.4 270.315 82.688C269.803 82.976 269.143 83.12 268.335 83.12C268.175 83.12 267.987 83.108 267.771 83.084C267.555 83.068 267.383 83.04 267.255 83V82.1C267.567 82.204 267.919 82.256 268.311 82.256C268.871 82.256 269.331 82.164 269.691 81.98C270.059 81.796 270.351 81.548 270.567 81.236C270.783 80.916 270.939 80.548 271.035 80.132C271.131 79.708 271.187 79.264 271.203 78.8H271.131C270.947 79.072 270.691 79.308 270.363 79.508C270.035 79.7 269.611 79.796 269.091 79.796C268.355 79.796 267.759 79.572 267.303 79.124C266.855 78.668 266.631 78.028 266.631 77.204C266.631 76.604 266.743 76.088 266.967 75.656C267.191 75.224 267.507 74.892 267.915 74.66C268.331 74.428 268.815 74.312 269.367 74.312C269.911 74.312 270.403 74.452 270.843 74.732C271.283 75.004 271.631 75.42 271.887 75.98C272.143 76.532 272.271 77.236 272.271 78.092ZM269.367 75.2C268.871 75.2 268.463 75.364 268.143 75.692C267.831 76.02 267.675 76.52 267.675 77.192C267.675 77.744 267.807 78.18 268.071 78.5C268.343 78.812 268.759 78.968 269.319 78.968C269.703 78.968 270.035 78.892 270.315 78.74C270.595 78.58 270.811 78.38 270.963 78.14C271.123 77.9 271.203 77.652 271.203 77.396C271.203 77.052 271.135 76.712 270.999 76.376C270.863 76.04 270.659 75.76 270.387 75.536C270.115 75.312 269.775 75.2 269.367 75.2ZM276.198 77.744C277.07 77.744 277.766 77.964 278.286 78.404C278.814 78.844 279.078 79.464 279.078 80.264C279.078 81.152 278.794 81.852 278.226 82.364C277.666 82.868 276.882 83.12 275.874 83.12C275.426 83.12 275.01 83.08 274.626 83C274.242 82.92 273.918 82.804 273.654 82.652V81.656C273.942 81.832 274.29 81.972 274.698 82.076C275.114 82.172 275.51 82.22 275.886 82.22C276.518 82.22 277.026 82.072 277.41 81.776C277.802 81.472 277.998 81.004 277.998 80.372C277.998 79.812 277.826 79.384 277.482 79.088C277.138 78.784 276.594 78.632 275.85 78.632C275.626 78.632 275.37 78.652 275.082 78.692C274.794 78.732 274.562 78.772 274.386 78.812L273.858 78.476L274.182 74.432H278.478V75.392H275.082L274.878 77.876C275.014 77.852 275.198 77.824 275.43 77.792C275.662 77.76 275.918 77.744 276.198 77.744ZM285.682 76.436C285.682 77.012 285.518 77.472 285.19 77.816C284.87 78.152 284.442 78.376 283.906 78.488V78.536C284.586 78.616 285.094 78.832 285.43 79.184C285.774 79.536 285.946 79.996 285.946 80.564C285.946 81.068 285.83 81.512 285.598 81.896C285.366 82.28 285.006 82.58 284.518 82.796C284.038 83.012 283.418 83.12 282.658 83.12C282.21 83.12 281.794 83.084 281.41 83.012C281.026 82.948 280.658 82.828 280.306 82.652V81.668C280.666 81.852 281.054 81.992 281.47 82.088C281.886 82.184 282.286 82.232 282.67 82.232C283.438 82.232 283.99 82.084 284.326 81.788C284.67 81.484 284.842 81.068 284.842 80.54C284.842 80.004 284.63 79.62 284.206 79.388C283.79 79.148 283.202 79.028 282.442 79.028H281.614V78.128H282.454C283.158 78.128 283.69 77.98 284.05 77.684C284.418 77.388 284.602 76.996 284.602 76.508C284.602 76.092 284.462 75.772 284.182 75.548C283.902 75.316 283.522 75.2 283.042 75.2C282.578 75.2 282.182 75.268 281.854 75.404C281.526 75.54 281.202 75.712 280.882 75.92L280.354 75.2C280.658 74.96 281.034 74.752 281.482 74.576C281.938 74.4 282.454 74.312 283.03 74.312C283.926 74.312 284.59 74.512 285.022 74.912C285.462 75.312 285.682 75.82 285.682 76.436ZM287.113 80.252V79.316H290.017V80.252H287.113ZM296.74 83H291.076V82.124L293.32 79.856C293.744 79.424 294.104 79.04 294.4 78.704C294.704 78.368 294.932 78.04 295.084 77.72C295.236 77.4 295.312 77.044 295.312 76.652C295.312 76.18 295.172 75.824 294.892 75.584C294.612 75.336 294.248 75.212 293.8 75.212C293.376 75.212 293.008 75.284 292.696 75.428C292.384 75.572 292.064 75.772 291.736 76.028L291.172 75.32C291.508 75.04 291.892 74.804 292.324 74.612C292.764 74.412 293.256 74.312 293.8 74.312C294.6 74.312 295.232 74.516 295.696 74.924C296.16 75.332 296.392 75.888 296.392 76.592C296.392 77.04 296.3 77.46 296.116 77.852C295.932 78.244 295.676 78.632 295.348 79.016C295.02 79.4 294.636 79.804 294.196 80.228L292.408 81.992V82.04H296.74V83ZM303.643 78.704C303.643 79.632 303.547 80.424 303.355 81.08C303.163 81.736 302.855 82.24 302.431 82.592C302.015 82.944 301.467 83.12 300.787 83.12C299.819 83.12 299.103 82.732 298.639 81.956C298.183 81.172 297.955 80.088 297.955 78.704C297.955 77.776 298.047 76.984 298.231 76.328C298.423 75.672 298.727 75.172 299.143 74.828C299.559 74.476 300.107 74.3 300.787 74.3C301.747 74.3 302.463 74.688 302.935 75.464C303.407 76.232 303.643 77.312 303.643 78.704ZM299.011 78.704C299.011 79.88 299.143 80.76 299.407 81.344C299.679 81.928 300.139 82.22 300.787 82.22C301.427 82.22 301.883 81.932 302.155 81.356C302.435 80.772 302.575 79.888 302.575 78.704C302.575 77.536 302.435 76.66 302.155 76.076C301.883 75.492 301.427 75.2 300.787 75.2C300.139 75.2 299.679 75.492 299.407 76.076C299.143 76.66 299.011 77.536 299.011 78.704ZM308.494 83H307.462V77.012C307.462 76.668 307.466 76.392 307.474 76.184C307.482 75.976 307.494 75.76 307.51 75.536C307.382 75.664 307.262 75.772 307.15 75.86C307.046 75.948 306.918 76.06 306.766 76.196L305.854 76.94L305.302 76.232L307.618 74.432H308.494V83ZM312.734 83L316.25 75.392H311.63V74.432H317.378V75.248L313.898 83H312.734ZM200.56 92.156C200.72 92.156 200.86 92.212 200.98 92.324C201.108 92.428 201.172 92.596 201.172 92.828C201.172 93.06 201.108 93.232 200.98 93.344C200.86 93.448 200.72 93.5 200.56 93.5C200.384 93.5 200.236 93.448 200.116 93.344C199.996 93.232 199.936 93.06 199.936 92.828C199.936 92.596 199.996 92.428 200.116 92.324C200.236 92.212 200.384 92.156 200.56 92.156ZM201.076 94.568V101H200.02V94.568H201.076ZM206.21 94.448C206.978 94.448 207.558 94.636 207.95 95.012C208.342 95.388 208.538 95.988 208.538 96.812V101H207.494V96.884C207.494 95.852 207.014 95.336 206.054 95.336C205.342 95.336 204.85 95.536 204.578 95.936C204.306 96.336 204.17 96.912 204.17 97.664V101H203.114V94.568H203.966L204.122 95.444H204.182C204.39 95.108 204.678 94.86 205.046 94.7C205.414 94.532 205.802 94.448 206.21 94.448ZM213.496 95.384H211.876V101H210.82V95.384H209.692V94.892L210.82 94.532V94.16C210.82 93.328 211 92.732 211.36 92.372C211.728 92.004 212.244 91.82 212.908 91.82C213.156 91.82 213.388 91.844 213.604 91.892C213.82 91.932 214.004 91.98 214.156 92.036L213.88 92.864C213.752 92.824 213.604 92.784 213.436 92.744C213.268 92.704 213.096 92.684 212.92 92.684C212.568 92.684 212.304 92.804 212.128 93.044C211.96 93.276 211.876 93.644 211.876 94.148V94.568H213.496V95.384ZM220.249 97.772C220.249 98.836 219.977 99.66 219.433 100.244C218.897 100.828 218.169 101.12 217.249 101.12C216.681 101.12 216.173 100.992 215.725 100.736C215.285 100.472 214.937 100.092 214.681 99.596C214.425 99.092 214.297 98.484 214.297 97.772C214.297 96.708 214.561 95.888 215.089 95.312C215.625 94.736 216.357 94.448 217.285 94.448C217.861 94.448 218.373 94.58 218.821 94.844C219.269 95.1 219.617 95.476 219.865 95.972C220.121 96.46 220.249 97.06 220.249 97.772ZM215.389 97.772C215.389 98.532 215.537 99.136 215.833 99.584C216.137 100.024 216.617 100.244 217.273 100.244C217.921 100.244 218.397 100.024 218.701 99.584C219.005 99.136 219.157 98.532 219.157 97.772C219.157 97.012 219.005 96.416 218.701 95.984C218.397 95.552 217.917 95.336 217.261 95.336C216.605 95.336 216.129 95.552 215.833 95.984C215.537 96.416 215.389 97.012 215.389 97.772ZM230.994 96.716C230.994 97.084 230.95 97.444 230.862 97.796C230.782 98.148 230.654 98.468 230.478 98.756C230.302 99.036 230.086 99.264 229.83 99.44C229.574 99.608 229.27 99.692 228.918 99.692C228.55 99.692 228.258 99.588 228.042 99.38C227.834 99.164 227.706 98.92 227.658 98.648H227.598C227.454 98.944 227.242 99.192 226.962 99.392C226.682 99.592 226.33 99.692 225.906 99.692C225.29 99.692 224.818 99.488 224.49 99.08C224.162 98.672 223.998 98.132 223.998 97.46C223.998 96.94 224.102 96.476 224.31 96.068C224.518 95.66 224.81 95.34 225.186 95.108C225.57 94.876 226.022 94.76 226.542 94.76C226.894 94.76 227.238 94.792 227.574 94.856C227.918 94.912 228.186 94.976 228.378 95.048L228.258 97.484C228.25 97.628 228.246 97.732 228.246 97.796C228.246 97.852 228.246 97.892 228.246 97.916C228.246 98.34 228.318 98.62 228.462 98.756C228.614 98.884 228.79 98.948 228.99 98.948C229.238 98.948 229.446 98.848 229.614 98.648C229.79 98.44 229.922 98.168 230.01 97.832C230.106 97.496 230.154 97.12 230.154 96.704C230.154 95.968 230.002 95.34 229.698 94.82C229.402 94.3 228.99 93.904 228.462 93.632C227.942 93.36 227.35 93.224 226.686 93.224C225.774 93.224 225.002 93.412 224.37 93.788C223.746 94.164 223.27 94.684 222.942 95.348C222.622 96.004 222.462 96.756 222.462 97.604C222.462 98.788 222.774 99.696 223.398 100.328C224.022 100.96 224.922 101.276 226.098 101.276C226.586 101.276 227.05 101.22 227.49 101.108C227.938 101.004 228.334 100.888 228.678 100.76V101.576C228.334 101.72 227.946 101.836 227.514 101.924C227.09 102.02 226.618 102.068 226.098 102.068C225.154 102.068 224.346 101.892 223.674 101.54C223.002 101.188 222.486 100.684 222.126 100.028C221.774 99.364 221.598 98.568 221.598 97.64C221.598 96.896 221.714 96.208 221.946 95.576C222.178 94.936 222.514 94.384 222.954 93.92C223.394 93.448 223.926 93.084 224.55 92.828C225.182 92.564 225.894 92.432 226.686 92.432C227.518 92.432 228.258 92.604 228.906 92.948C229.554 93.292 230.062 93.784 230.43 94.424C230.806 95.064 230.994 95.828 230.994 96.716ZM224.934 97.484C224.934 98.004 225.034 98.38 225.234 98.612C225.434 98.836 225.71 98.948 226.062 98.948C226.51 98.948 226.83 98.78 227.022 98.444C227.222 98.108 227.338 97.672 227.37 97.136L227.442 95.636C227.338 95.604 227.206 95.576 227.046 95.552C226.886 95.528 226.722 95.516 226.554 95.516C226.162 95.516 225.846 95.612 225.606 95.804C225.366 95.996 225.194 96.244 225.09 96.548C224.986 96.844 224.934 97.156 224.934 97.484ZM233.771 91.88V94.1C233.771 94.372 233.763 94.628 233.747 94.868C233.739 95.1 233.727 95.284 233.711 95.42H233.771C233.955 95.148 234.207 94.92 234.527 94.736C234.847 94.552 235.259 94.46 235.763 94.46C236.563 94.46 237.203 94.74 237.683 95.3C238.171 95.852 238.415 96.68 238.415 97.784C238.415 98.888 238.171 99.72 237.683 100.28C237.195 100.84 236.555 101.12 235.763 101.12C235.259 101.12 234.847 101.028 234.527 100.844C234.207 100.66 233.955 100.44 233.771 100.184H233.687L233.471 101H232.715V91.88H233.771ZM235.583 95.336C234.895 95.336 234.419 95.532 234.155 95.924C233.899 96.316 233.771 96.924 233.771 97.748V97.796C233.771 98.588 233.899 99.196 234.155 99.62C234.419 100.036 234.903 100.244 235.607 100.244C236.183 100.244 236.611 100.032 236.891 99.608C237.179 99.184 237.323 98.572 237.323 97.772C237.323 96.148 236.743 95.336 235.583 95.336ZM242.582 94.448C243.126 94.448 243.598 94.568 243.998 94.808C244.398 95.048 244.702 95.388 244.91 95.828C245.126 96.26 245.234 96.768 245.234 97.352V97.988H240.83C240.846 98.716 241.03 99.272 241.382 99.656C241.742 100.032 242.242 100.22 242.882 100.22C243.29 100.22 243.65 100.184 243.962 100.112C244.282 100.032 244.61 99.92 244.946 99.776V100.7C244.618 100.844 244.294 100.948 243.974 101.012C243.654 101.084 243.274 101.12 242.834 101.12C242.218 101.12 241.678 100.996 241.214 100.748C240.75 100.5 240.386 100.132 240.122 99.644C239.866 99.156 239.738 98.552 239.738 97.832C239.738 97.128 239.854 96.524 240.086 96.02C240.326 95.516 240.658 95.128 241.082 94.856C241.514 94.584 242.014 94.448 242.582 94.448ZM242.57 95.312C242.066 95.312 241.666 95.476 241.37 95.804C241.082 96.124 240.91 96.572 240.854 97.148H244.13C244.122 96.604 243.994 96.164 243.746 95.828C243.498 95.484 243.106 95.312 242.57 95.312ZM249.968 94.448C250.736 94.448 251.316 94.636 251.708 95.012C252.1 95.388 252.296 95.988 252.296 96.812V101H251.252V96.884C251.252 95.852 250.772 95.336 249.812 95.336C249.1 95.336 248.608 95.536 248.336 95.936C248.064 96.336 247.928 96.912 247.928 97.664V101H246.872V94.568H247.724L247.88 95.444H247.94C248.148 95.108 248.436 94.86 248.804 94.7C249.172 94.532 249.56 94.448 249.968 94.448ZM256.438 100.256C256.598 100.256 256.762 100.244 256.93 100.22C257.098 100.196 257.234 100.164 257.338 100.124V100.928C257.226 100.984 257.066 101.028 256.858 101.06C256.65 101.1 256.45 101.12 256.258 101.12C255.922 101.12 255.61 101.064 255.322 100.952C255.042 100.832 254.814 100.628 254.638 100.34C254.462 100.052 254.374 99.648 254.374 99.128V95.384H253.462V94.88L254.386 94.46L254.806 93.092H255.43V94.568H257.29V95.384H255.43V99.104C255.43 99.496 255.522 99.788 255.706 99.98C255.898 100.164 256.142 100.256 256.438 100.256ZM259.681 101H258.625V91.88H259.681V101ZM264.203 94.448C264.747 94.448 265.219 94.568 265.619 94.808C266.019 95.048 266.323 95.388 266.531 95.828C266.747 96.26 266.855 96.768 266.855 97.352V97.988H262.451C262.467 98.716 262.651 99.272 263.003 99.656C263.363 100.032 263.863 100.22 264.503 100.22C264.911 100.22 265.271 100.184 265.583 100.112C265.903 100.032 266.231 99.92 266.567 99.776V100.7C266.239 100.844 265.915 100.948 265.595 101.012C265.275 101.084 264.895 101.12 264.455 101.12C263.839 101.12 263.299 100.996 262.835 100.748C262.371 100.5 262.007 100.132 261.743 99.644C261.487 99.156 261.359 98.552 261.359 97.832C261.359 97.128 261.475 96.524 261.707 96.02C261.947 95.516 262.279 95.128 262.703 94.856C263.135 94.584 263.635 94.448 264.203 94.448ZM264.191 95.312C263.687 95.312 263.287 95.476 262.991 95.804C262.703 96.124 262.531 96.572 262.475 97.148H265.751C265.743 96.604 265.615 96.164 265.367 95.828C265.119 95.484 264.727 95.312 264.191 95.312ZM272.681 99.224C272.681 99.848 272.449 100.32 271.985 100.64C271.521 100.96 270.897 101.12 270.113 101.12C269.665 101.12 269.277 101.084 268.949 101.012C268.629 100.94 268.345 100.84 268.097 100.712V99.752C268.353 99.88 268.661 100 269.021 100.112C269.389 100.216 269.761 100.268 270.137 100.268C270.673 100.268 271.061 100.184 271.301 100.016C271.541 99.84 271.661 99.608 271.661 99.32C271.661 99.16 271.617 99.016 271.529 98.888C271.441 98.76 271.281 98.632 271.049 98.504C270.825 98.376 270.501 98.232 270.077 98.072C269.661 97.912 269.305 97.752 269.009 97.592C268.713 97.432 268.485 97.24 268.325 97.016C268.165 96.792 268.085 96.504 268.085 96.152C268.085 95.608 268.305 95.188 268.745 94.892C269.193 94.596 269.777 94.448 270.497 94.448C270.889 94.448 271.253 94.488 271.589 94.568C271.933 94.648 272.253 94.752 272.549 94.88L272.189 95.72C271.917 95.608 271.633 95.512 271.337 95.432C271.041 95.352 270.737 95.312 270.425 95.312C269.993 95.312 269.661 95.384 269.429 95.528C269.205 95.664 269.093 95.852 269.093 96.092C269.093 96.276 269.145 96.428 269.249 96.548C269.353 96.668 269.525 96.788 269.765 96.908C270.013 97.028 270.341 97.164 270.749 97.316C271.157 97.468 271.505 97.624 271.793 97.784C272.081 97.944 272.301 98.14 272.453 98.372C272.605 98.596 272.681 98.88 272.681 99.224ZM277.295 94.448C278.087 94.448 278.723 94.724 279.203 95.276C279.691 95.828 279.935 96.66 279.935 97.772C279.935 98.868 279.691 99.7 279.203 100.268C278.723 100.836 278.083 101.12 277.283 101.12C276.787 101.12 276.375 101.028 276.047 100.844C275.727 100.66 275.475 100.44 275.291 100.184H275.219C275.227 100.32 275.239 100.492 275.255 100.7C275.279 100.908 275.291 101.088 275.291 101.24V103.88H274.235V94.568H275.099L275.243 95.444H275.291C275.483 95.164 275.735 94.928 276.047 94.736C276.359 94.544 276.775 94.448 277.295 94.448ZM277.103 95.336C276.447 95.336 275.983 95.52 275.711 95.888C275.439 96.256 275.299 96.816 275.291 97.568V97.772C275.291 98.564 275.419 99.176 275.675 99.608C275.939 100.032 276.423 100.244 277.127 100.244C277.511 100.244 277.831 100.14 278.087 99.932C278.343 99.716 278.531 99.42 278.651 99.044C278.779 98.668 278.843 98.24 278.843 97.76C278.843 97.024 278.699 96.436 278.411 95.996C278.131 95.556 277.695 95.336 277.103 95.336ZM284.054 94.46C284.838 94.46 285.418 94.632 285.794 94.976C286.17 95.32 286.358 95.868 286.358 96.62V101H285.59L285.386 100.088H285.338C285.058 100.44 284.762 100.7 284.45 100.868C284.138 101.036 283.714 101.12 283.178 101.12C282.594 101.12 282.11 100.968 281.726 100.664C281.342 100.352 281.15 99.868 281.15 99.212C281.15 98.572 281.402 98.08 281.906 97.736C282.41 97.384 283.186 97.192 284.234 97.16L285.326 97.124V96.74C285.326 96.204 285.21 95.832 284.978 95.624C284.746 95.416 284.418 95.312 283.994 95.312C283.658 95.312 283.338 95.364 283.034 95.468C282.73 95.564 282.446 95.676 282.182 95.804L281.858 95.012C282.138 94.86 282.47 94.732 282.854 94.628C283.238 94.516 283.638 94.46 284.054 94.46ZM285.314 97.856L284.366 97.892C283.566 97.924 283.01 98.052 282.698 98.276C282.394 98.5 282.242 98.816 282.242 99.224C282.242 99.584 282.35 99.848 282.566 100.016C282.79 100.184 283.074 100.268 283.418 100.268C283.954 100.268 284.402 100.12 284.762 99.824C285.13 99.52 285.314 99.056 285.314 98.432V97.856ZM290.924 101.12C290.348 101.12 289.84 101.004 289.4 100.772C288.96 100.54 288.612 100.18 288.356 99.692C288.108 99.204 287.984 98.58 287.984 97.82C287.984 97.028 288.112 96.384 288.368 95.888C288.632 95.392 288.992 95.028 289.448 94.796C289.904 94.564 290.42 94.448 290.996 94.448C291.316 94.448 291.628 94.484 291.932 94.556C292.244 94.62 292.496 94.7 292.688 94.796L292.364 95.672C292.172 95.6 291.948 95.532 291.692 95.468C291.436 95.404 291.196 95.372 290.972 95.372C289.708 95.372 289.076 96.184 289.076 97.808C289.076 98.584 289.228 99.18 289.532 99.596C289.844 100.004 290.304 100.208 290.912 100.208C291.256 100.208 291.564 100.172 291.836 100.1C292.108 100.028 292.356 99.94 292.58 99.836V100.772C292.364 100.884 292.124 100.968 291.86 101.024C291.604 101.088 291.292 101.12 290.924 101.12ZM296.594 94.448C297.138 94.448 297.61 94.568 298.01 94.808C298.41 95.048 298.714 95.388 298.922 95.828C299.138 96.26 299.246 96.768 299.246 97.352V97.988H294.842C294.858 98.716 295.042 99.272 295.394 99.656C295.754 100.032 296.254 100.22 296.894 100.22C297.302 100.22 297.662 100.184 297.974 100.112C298.294 100.032 298.622 99.92 298.958 99.776V100.7C298.63 100.844 298.306 100.948 297.986 101.012C297.666 101.084 297.286 101.12 296.846 101.12C296.23 101.12 295.69 100.996 295.226 100.748C294.762 100.5 294.398 100.132 294.134 99.644C293.878 99.156 293.75 98.552 293.75 97.832C293.75 97.128 293.866 96.524 294.098 96.02C294.338 95.516 294.67 95.128 295.094 94.856C295.526 94.584 296.026 94.448 296.594 94.448ZM296.582 95.312C296.078 95.312 295.678 95.476 295.382 95.804C295.094 96.124 294.922 96.572 294.866 97.148H298.142C298.134 96.604 298.006 96.164 297.758 95.828C297.51 95.484 297.118 95.312 296.582 95.312ZM300.727 100.352C300.727 100.056 300.799 99.848 300.943 99.728C301.087 99.608 301.259 99.548 301.459 99.548C301.659 99.548 301.835 99.608 301.987 99.728C302.139 99.848 302.215 100.056 302.215 100.352C302.215 100.64 302.139 100.848 301.987 100.976C301.835 101.104 301.659 101.168 301.459 101.168C301.259 101.168 301.087 101.104 300.943 100.976C300.799 100.848 300.727 100.64 300.727 100.352ZM306.674 101.12C306.098 101.12 305.59 101.004 305.15 100.772C304.71 100.54 304.362 100.18 304.106 99.692C303.858 99.204 303.734 98.58 303.734 97.82C303.734 97.028 303.862 96.384 304.118 95.888C304.382 95.392 304.742 95.028 305.198 94.796C305.654 94.564 306.17 94.448 306.746 94.448C307.066 94.448 307.378 94.484 307.682 94.556C307.994 94.62 308.246 94.7 308.438 94.796L308.114 95.672C307.922 95.6 307.698 95.532 307.442 95.468C307.186 95.404 306.946 95.372 306.722 95.372C305.458 95.372 304.826 96.184 304.826 97.808C304.826 98.584 304.978 99.18 305.282 99.596C305.594 100.004 306.054 100.208 306.662 100.208C307.006 100.208 307.314 100.172 307.586 100.1C307.858 100.028 308.106 99.94 308.33 99.836V100.772C308.114 100.884 307.874 100.968 307.61 101.024C307.354 101.088 307.042 101.12 306.674 101.12ZM315.452 97.772C315.452 98.836 315.18 99.66 314.636 100.244C314.1 100.828 313.372 101.12 312.452 101.12C311.884 101.12 311.376 100.992 310.928 100.736C310.488 100.472 310.14 100.092 309.884 99.596C309.628 99.092 309.5 98.484 309.5 97.772C309.5 96.708 309.764 95.888 310.292 95.312C310.828 94.736 311.56 94.448 312.488 94.448C313.064 94.448 313.576 94.58 314.024 94.844C314.472 95.1 314.82 95.476 315.068 95.972C315.324 96.46 315.452 97.06 315.452 97.772ZM310.592 97.772C310.592 98.532 310.74 99.136 311.036 99.584C311.34 100.024 311.82 100.244 312.476 100.244C313.124 100.244 313.6 100.024 313.904 99.584C314.208 99.136 314.36 98.532 314.36 97.772C314.36 97.012 314.208 96.416 313.904 95.984C313.6 95.552 313.12 95.336 312.464 95.336C311.808 95.336 311.332 95.552 311.036 95.984C310.74 96.416 310.592 97.012 310.592 97.772ZM324.181 94.448C324.909 94.448 325.453 94.636 325.813 95.012C326.173 95.388 326.353 95.988 326.353 96.812V101H325.309V96.86C325.309 95.844 324.873 95.336 324.001 95.336C323.377 95.336 322.929 95.516 322.657 95.876C322.393 96.236 322.261 96.76 322.261 97.448V101H321.217V96.86C321.217 95.844 320.777 95.336 319.897 95.336C319.249 95.336 318.801 95.536 318.553 95.936C318.305 96.336 318.181 96.912 318.181 97.664V101H317.125V94.568H317.977L318.133 95.444H318.193C318.393 95.108 318.661 94.86 318.997 94.7C319.341 94.532 319.705 94.448 320.089 94.448C321.097 94.448 321.753 94.808 322.057 95.528H322.117C322.333 95.16 322.625 94.888 322.993 94.712C323.361 94.536 323.757 94.448 324.181 94.448Z" fill="white"/>
</svg>
