<svg width="351" height="165" viewBox="0 0 351 165" fill="none" xmlns="http://www.w3.org/2000/svg">
<rect x="0.5" y="0.5" width="153" height="41" stroke="#9C9C9C"/>
<rect x="153.5" y="0.5" width="197" height="41" stroke="#9C9C9C"/>
<path d="M16.832 16.088V26.936H17.792V16.088H16.832ZM15.08 20.444V21.26H17.156V20.444H15.08ZM12.272 17.48V17.672C12.272 20.18 11.312 22.376 8.588 23.9L9.176 24.608C12.272 22.868 13.232 20.276 13.232 17.48H12.272ZM9.008 17.48V18.308H12.608V17.48H9.008ZM14.42 16.376V26.408H15.368V16.376H14.42ZM27.5231 16.1V24.02H28.5311V16.1H27.5231ZM21.5591 25.88V26.696H28.8551V25.88H21.5591ZM21.5591 23.204V26.156H22.5431V23.204H21.5591ZM22.7111 16.844C21.0911 16.844 19.8791 17.948 19.8791 19.52C19.8791 21.08 21.0911 22.196 22.7111 22.196C24.3311 22.196 25.5311 21.08 25.5311 19.52C25.5311 17.948 24.3311 16.844 22.7111 16.844ZM22.7111 17.708C23.7671 17.708 24.5711 18.452 24.5711 19.52C24.5711 20.576 23.7671 21.32 22.7111 21.32C21.6551 21.32 20.8511 20.576 20.8511 19.52C20.8511 18.452 21.6551 17.708 22.7111 17.708ZM36.4621 18.896V19.724H38.9101V18.896H36.4621ZM38.5981 16.088V22.556H39.5941V16.088H38.5981ZM36.0301 22.88C33.7861 22.88 32.4061 23.636 32.4061 24.908C32.4061 26.192 33.7861 26.924 36.0301 26.924C38.2621 26.924 39.6421 26.192 39.6421 24.908C39.6421 23.636 38.2621 22.88 36.0301 22.88ZM36.0301 23.66C37.6621 23.66 38.6581 24.116 38.6581 24.908C38.6581 25.688 37.6621 26.144 36.0301 26.144C34.3981 26.144 33.4021 25.688 33.4021 24.908C33.4021 24.116 34.3981 23.66 36.0301 23.66ZM33.4381 17.18V18.056C33.4381 19.616 32.3221 21.068 30.7141 21.656L31.2301 22.448C33.0301 21.776 34.2541 20.06 34.2541 18.056V17.18H33.4381ZM33.6301 17.18V18.056C33.6301 19.88 34.7941 21.512 36.5581 22.148L37.0621 21.356C35.4901 20.804 34.4341 19.46 34.4341 18.056V17.18H33.6301ZM31.0141 16.88V17.696H36.8101V16.88H31.0141ZM41.7172 24.728V25.556H51.5452V24.728H41.7172ZM46.1092 22.136V24.968H47.1052V22.136H46.1092ZM42.8692 16.856V22.4H50.3692V16.856H49.3852V18.788H43.8532V16.856H42.8692ZM43.8532 19.592H49.3852V21.584H43.8532V19.592ZM58.8134 17.828V18.284C58.8134 19.736 57.6974 21.056 56.0654 21.572L56.5574 22.352C58.3814 21.752 59.6294 20.18 59.6294 18.284V17.828H58.8134ZM58.9814 17.828V18.284C58.9814 20.096 60.2534 21.572 62.1014 22.124L62.5574 21.344C60.9494 20.876 59.7974 19.652 59.7974 18.284V17.828H58.9814ZM56.3414 17.36V18.164H62.2454V17.36H56.3414ZM58.8134 16.028V17.708H59.7974V16.028H58.8134ZM63.7574 16.1V22.52H64.7654V16.1H63.7574ZM57.7574 23.072V26.792H64.7654V23.072H57.7574ZM63.7814 23.864V25.988H58.7294V23.864H63.7814ZM66.8885 17.936V18.752H72.2645V17.936H66.8885ZM69.5765 19.472C68.2325 19.472 67.2485 20.492 67.2485 21.956C67.2485 23.408 68.2325 24.428 69.5765 24.428C70.9325 24.428 71.9165 23.408 71.9165 21.956C71.9165 20.492 70.9325 19.472 69.5765 19.472ZM69.5765 20.324C70.4165 20.324 71.0285 20.996 71.0285 21.956C71.0285 22.916 70.4165 23.588 69.5765 23.588C68.7485 23.588 68.1485 22.916 68.1485 21.956C68.1485 20.996 68.7485 20.324 69.5765 20.324ZM75.1325 16.088V26.936H76.0925V16.088H75.1325ZM73.4045 20.648V21.476H75.4565V20.648H73.4045ZM72.8165 16.328V26.408H73.7525V16.328H72.8165ZM69.0965 16.4V18.44H70.0805V16.4H69.0965ZM85.8356 16.1V24.044H86.8436V16.1H85.8356ZM79.8716 25.88V26.696H87.1676V25.88H79.8716ZM79.8716 23.312V26.264H80.8556V23.312H79.8716ZM80.7716 16.688V17.792C80.7716 19.472 79.6916 21.056 78.0596 21.692L78.5756 22.496C80.3996 21.752 81.5996 19.904 81.5996 17.792V16.688H80.7716ZM80.9516 16.688V17.792C80.9516 19.856 82.1516 21.596 83.9516 22.292L84.4796 21.488C82.8596 20.9 81.7676 19.424 81.7676 17.792V16.688H80.9516ZM90.0226 17.168V17.996H97.0066V17.168H90.0226ZM88.9906 24.596V25.424H98.7946V24.596H88.9906ZM92.7946 20.72V25.004H93.7906V20.72H92.7946ZM96.6346 17.168V18.248C96.6346 19.544 96.6346 21.068 96.2266 23.144L97.2226 23.276C97.6186 21.08 97.6186 19.592 97.6186 18.248V17.168H96.6346ZM104.41 18.824V19.64H106.462V18.824H104.41ZM108.214 16.088V24.224H109.162V16.088H108.214ZM106.09 16.304V23.912H107.038V16.304H106.09ZM102.094 25.88V26.696H109.498V25.88H102.094ZM102.094 23.228V26.336H103.09V23.228H102.094ZM102.274 16.856V18.452C102.274 19.736 101.446 21.224 100.042 21.908L100.594 22.676C102.166 21.908 103.066 20.132 103.066 18.452V16.856H102.274ZM102.454 16.856V18.452C102.454 20.108 103.282 21.704 104.794 22.388L105.358 21.632C104.002 21.02 103.234 19.724 103.234 18.452V16.856H102.454ZM119.013 16.076V26.948H119.997V16.076H119.013ZM116.757 20.168V20.996H119.157V20.168H116.757ZM111.561 23.516V24.344H112.389C114.453 24.344 115.773 24.284 117.333 24.008L117.237 23.192C115.713 23.48 114.429 23.516 112.389 23.516H111.561ZM111.561 17.072V23.804H112.545V17.9H116.577V17.072H111.561ZM112.293 20.12V20.924H116.109V20.12H112.293Z" fill="white"/>
<path d="M162.48 22.712C162.48 21.736 162.62 20.796 162.9 19.892C163.188 18.98 163.636 18.16 164.244 17.432H165.24C164.68 18.184 164.256 19.012 163.968 19.916C163.688 20.82 163.548 21.748 163.548 22.7C163.548 23.628 163.688 24.54 163.968 25.436C164.256 26.324 164.676 27.144 165.228 27.896H164.244C163.636 27.192 163.188 26.396 162.9 25.508C162.62 24.612 162.48 23.68 162.48 22.712ZM167.446 16.592V17.408H174.43V16.592H167.446ZM166.198 20.48V21.296H176.026V20.48H166.198ZM170.602 21.032V23.588H171.586V21.032H170.602ZM173.782 16.592V17.396C173.782 18.272 173.782 19.304 173.422 20.756L174.394 20.876C174.754 19.388 174.754 18.296 174.754 17.396V16.592H173.782ZM167.218 23.264V24.08H173.83V26.936H174.826V23.264H167.218ZM182.349 19.148V19.964H185.469V19.148H182.349ZM185.157 16.1V24.128H186.153V16.1H185.157ZM179.181 25.88V26.696H186.417V25.88H179.181ZM179.181 23.348V26.3H180.177V23.348H179.181ZM177.765 16.808V22.28H182.661V16.808H181.689V18.728H178.749V16.808H177.765ZM178.749 19.508H181.689V21.464H178.749V19.508ZM189.512 22.448V26.792H193.268V22.448H192.344V23.804H190.448V22.448H189.512ZM190.448 24.548H192.344V26.012H190.448V24.548ZM195.368 22.388V23.288C195.368 24.392 194.696 25.58 193.388 26.132L193.892 26.888C195.392 26.252 196.136 24.764 196.136 23.288V22.388H195.368ZM195.572 22.388V23.288C195.572 24.824 196.304 26.264 197.816 26.888L198.32 26.132C197.012 25.628 196.34 24.452 196.34 23.288V22.388H195.572ZM193.724 18.632V19.46H196.64V18.632H193.724ZM191.228 16.568C189.608 16.568 188.432 17.576 188.432 19.064C188.432 20.54 189.608 21.56 191.228 21.56C192.848 21.56 194.024 20.54 194.024 19.064C194.024 17.576 192.848 16.568 191.228 16.568ZM191.228 17.396C192.296 17.396 193.064 18.08 193.064 19.064C193.064 20.036 192.296 20.732 191.228 20.732C190.16 20.732 189.392 20.036 189.392 19.064C189.392 18.08 190.16 17.396 191.228 17.396ZM196.196 16.088V21.836H197.192V16.088H196.196ZM207.187 16.076V26.948H208.183V16.076H207.187ZM202.459 16.916C200.863 16.916 199.711 18.392 199.711 20.696C199.711 23.012 200.863 24.488 202.459 24.488C204.067 24.488 205.219 23.012 205.219 20.696C205.219 18.392 204.067 16.916 202.459 16.916ZM202.459 17.816C203.527 17.816 204.259 18.944 204.259 20.696C204.259 22.46 203.527 23.612 202.459 23.612C201.403 23.612 200.659 22.46 200.659 20.696C200.659 18.944 201.403 17.816 202.459 17.816ZM212.874 22.712C212.874 23.68 212.73 24.612 212.442 25.508C212.162 26.396 211.718 27.192 211.11 27.896H210.126C210.678 27.144 211.094 26.324 211.374 25.436C211.662 24.54 211.806 23.628 211.806 22.7C211.806 21.748 211.662 20.82 211.374 19.916C211.094 19.012 210.674 18.184 210.114 17.432H211.11C211.718 18.16 212.162 18.98 212.442 19.892C212.73 20.796 212.874 21.736 212.874 22.712ZM217.612 26H216.58V20.012C216.58 19.668 216.584 19.392 216.592 19.184C216.6 18.976 216.612 18.76 216.628 18.536C216.5 18.664 216.38 18.772 216.268 18.86C216.164 18.948 216.036 19.06 215.884 19.196L214.972 19.94L214.42 19.232L216.736 17.432H217.612V26ZM224.479 26H223.447V20.012C223.447 19.668 223.451 19.392 223.459 19.184C223.467 18.976 223.479 18.76 223.495 18.536C223.367 18.664 223.247 18.772 223.135 18.86C223.031 18.948 222.903 19.06 222.751 19.196L221.839 19.94L221.287 19.232L223.603 17.432H224.479V26ZM230.506 17.312C231.258 17.312 231.874 17.488 232.354 17.84C232.834 18.192 233.074 18.7 233.074 19.364C233.074 19.708 232.998 20.008 232.846 20.264C232.702 20.52 232.506 20.748 232.258 20.948C232.01 21.14 231.738 21.312 231.442 21.464C231.794 21.64 232.114 21.832 232.402 22.04C232.69 22.248 232.918 22.492 233.086 22.772C233.262 23.052 233.35 23.388 233.35 23.78C233.35 24.5 233.094 25.072 232.582 25.496C232.07 25.912 231.39 26.12 230.542 26.12C229.614 26.12 228.902 25.92 228.406 25.52C227.918 25.112 227.674 24.544 227.674 23.816C227.674 23.432 227.754 23.096 227.914 22.808C228.082 22.512 228.302 22.26 228.574 22.052C228.846 21.844 229.138 21.668 229.45 21.524C229.026 21.284 228.67 20.996 228.382 20.66C228.094 20.316 227.95 19.88 227.95 19.352C227.95 18.92 228.062 18.552 228.286 18.248C228.51 17.944 228.814 17.712 229.198 17.552C229.582 17.392 230.018 17.312 230.506 17.312ZM230.494 18.164C230.046 18.164 229.682 18.272 229.402 18.488C229.122 18.696 228.982 19 228.982 19.4C228.982 19.696 229.05 19.944 229.186 20.144C229.33 20.344 229.522 20.516 229.762 20.66C230.002 20.796 230.266 20.928 230.554 21.056C230.97 20.88 231.318 20.668 231.598 20.42C231.886 20.172 232.03 19.832 232.03 19.4C232.03 19 231.89 18.696 231.61 18.488C231.33 18.272 230.958 18.164 230.494 18.164ZM228.706 23.828C228.706 24.244 228.854 24.592 229.15 24.872C229.446 25.144 229.902 25.28 230.518 25.28C231.102 25.28 231.546 25.144 231.85 24.872C232.162 24.592 232.318 24.232 232.318 23.792C232.318 23.376 232.154 23.032 231.826 22.76C231.498 22.48 231.062 22.236 230.518 22.028L230.326 21.956C229.798 22.188 229.394 22.448 229.114 22.736C228.842 23.024 228.706 23.388 228.706 23.828ZM238.297 17.432L235.105 26H234.073L237.265 17.432H238.297ZM242.498 19.448C243.29 19.448 243.926 19.724 244.406 20.276C244.894 20.828 245.138 21.66 245.138 22.772C245.138 23.868 244.894 24.7 244.406 25.268C243.926 25.836 243.286 26.12 242.486 26.12C241.99 26.12 241.578 26.028 241.25 25.844C240.93 25.66 240.678 25.44 240.494 25.184H240.422C240.43 25.32 240.442 25.492 240.458 25.7C240.482 25.908 240.494 26.088 240.494 26.24V28.88H239.438V19.568H240.302L240.446 20.444H240.494C240.686 20.164 240.938 19.928 241.25 19.736C241.562 19.544 241.978 19.448 242.498 19.448ZM242.306 20.336C241.65 20.336 241.186 20.52 240.914 20.888C240.642 21.256 240.502 21.816 240.494 22.568V22.772C240.494 23.564 240.622 24.176 240.878 24.608C241.142 25.032 241.626 25.244 242.33 25.244C242.714 25.244 243.034 25.14 243.29 24.932C243.546 24.716 243.734 24.42 243.854 24.044C243.982 23.668 244.046 23.24 244.046 22.76C244.046 22.024 243.902 21.436 243.614 20.996C243.334 20.556 242.898 20.336 242.306 20.336ZM249.821 19.448C249.941 19.448 250.069 19.456 250.205 19.472C250.341 19.48 250.465 19.496 250.577 19.52L250.445 20.492C250.341 20.468 250.225 20.448 250.097 20.432C249.969 20.416 249.853 20.408 249.749 20.408C249.421 20.408 249.113 20.5 248.825 20.684C248.537 20.86 248.305 21.112 248.129 21.44C247.961 21.76 247.877 22.136 247.877 22.568V26H246.821V19.568H247.685L247.805 20.744H247.853C248.053 20.392 248.317 20.088 248.645 19.832C248.981 19.576 249.373 19.448 249.821 19.448ZM252.318 17.156C252.478 17.156 252.618 17.212 252.738 17.324C252.866 17.428 252.93 17.596 252.93 17.828C252.93 18.06 252.866 18.232 252.738 18.344C252.618 18.448 252.478 18.5 252.318 18.5C252.142 18.5 251.994 18.448 251.874 18.344C251.754 18.232 251.694 18.06 251.694 17.828C251.694 17.596 251.754 17.428 251.874 17.324C251.994 17.212 252.142 17.156 252.318 17.156ZM252.834 19.568V26H251.778V19.568H252.834ZM256.288 26L253.852 19.568H254.98L256.348 23.36C256.412 23.536 256.48 23.732 256.552 23.948C256.624 24.164 256.688 24.372 256.744 24.572C256.8 24.772 256.84 24.936 256.864 25.064H256.912C256.936 24.936 256.98 24.772 257.044 24.572C257.108 24.364 257.176 24.156 257.248 23.948C257.32 23.732 257.388 23.536 257.452 23.36L258.82 19.568H259.948L257.5 26H256.288ZM263.401 19.46C264.185 19.46 264.765 19.632 265.141 19.976C265.517 20.32 265.705 20.868 265.705 21.62V26H264.937L264.733 25.088H264.685C264.405 25.44 264.109 25.7 263.797 25.868C263.485 26.036 263.061 26.12 262.525 26.12C261.941 26.12 261.457 25.968 261.073 25.664C260.689 25.352 260.497 24.868 260.497 24.212C260.497 23.572 260.749 23.08 261.253 22.736C261.757 22.384 262.533 22.192 263.581 22.16L264.673 22.124V21.74C264.673 21.204 264.557 20.832 264.325 20.624C264.093 20.416 263.765 20.312 263.341 20.312C263.005 20.312 262.685 20.364 262.381 20.468C262.077 20.564 261.793 20.676 261.529 20.804L261.205 20.012C261.485 19.86 261.817 19.732 262.201 19.628C262.585 19.516 262.985 19.46 263.401 19.46ZM264.661 22.856L263.713 22.892C262.913 22.924 262.357 23.052 262.045 23.276C261.741 23.5 261.589 23.816 261.589 24.224C261.589 24.584 261.697 24.848 261.913 25.016C262.137 25.184 262.421 25.268 262.765 25.268C263.301 25.268 263.749 25.12 264.109 24.824C264.477 24.52 264.661 24.056 264.661 23.432V22.856ZM270.272 26.12C269.696 26.12 269.188 26.004 268.748 25.772C268.308 25.54 267.96 25.18 267.704 24.692C267.456 24.204 267.332 23.58 267.332 22.82C267.332 22.028 267.46 21.384 267.716 20.888C267.98 20.392 268.34 20.028 268.796 19.796C269.252 19.564 269.768 19.448 270.344 19.448C270.664 19.448 270.976 19.484 271.28 19.556C271.592 19.62 271.844 19.7 272.036 19.796L271.712 20.672C271.52 20.6 271.296 20.532 271.04 20.468C270.784 20.404 270.544 20.372 270.32 20.372C269.056 20.372 268.424 21.184 268.424 22.808C268.424 23.584 268.576 24.18 268.88 24.596C269.192 25.004 269.652 25.208 270.26 25.208C270.604 25.208 270.912 25.172 271.184 25.1C271.456 25.028 271.704 24.94 271.928 24.836V25.772C271.712 25.884 271.472 25.968 271.208 26.024C270.952 26.088 270.64 26.12 270.272 26.12ZM272.45 19.568H273.578L274.97 23.228C275.09 23.556 275.198 23.864 275.294 24.152C275.39 24.44 275.462 24.716 275.51 24.98H275.558C275.606 24.78 275.682 24.52 275.786 24.2C275.89 23.872 275.998 23.544 276.11 23.216L277.418 19.568H278.558L275.786 26.888C275.554 27.496 275.262 27.98 274.91 28.34C274.558 28.7 274.07 28.88 273.446 28.88C273.254 28.88 273.086 28.868 272.942 28.844C272.798 28.828 272.674 28.808 272.57 28.784V27.944C272.658 27.96 272.762 27.976 272.882 27.992C273.01 28.008 273.142 28.016 273.278 28.016C273.646 28.016 273.942 27.912 274.166 27.704C274.39 27.496 274.57 27.22 274.706 26.876L275.042 26.024L272.45 19.568ZM278.938 25.352C278.938 25.056 279.01 24.848 279.154 24.728C279.298 24.608 279.47 24.548 279.67 24.548C279.87 24.548 280.046 24.608 280.198 24.728C280.35 24.848 280.426 25.056 280.426 25.352C280.426 25.64 280.35 25.848 280.198 25.976C280.046 26.104 279.87 26.168 279.67 26.168C279.47 26.168 279.298 26.104 279.154 25.976C279.01 25.848 278.938 25.64 278.938 25.352ZM283.349 16.88V21.644C283.349 21.772 283.341 21.94 283.325 22.148C283.317 22.356 283.309 22.536 283.301 22.688H283.349C283.397 22.624 283.469 22.532 283.565 22.412C283.661 22.292 283.757 22.172 283.853 22.052C283.957 21.924 284.045 21.82 284.117 21.74L286.169 19.568H287.405L284.801 22.316L287.585 26H286.313L284.081 23L283.349 23.636V26H282.305V16.88H283.349ZM289.255 17.156C289.415 17.156 289.555 17.212 289.675 17.324C289.803 17.428 289.867 17.596 289.867 17.828C289.867 18.06 289.803 18.232 289.675 18.344C289.555 18.448 289.415 18.5 289.255 18.5C289.079 18.5 288.931 18.448 288.811 18.344C288.691 18.232 288.631 18.06 288.631 17.828C288.631 17.596 288.691 17.428 288.811 17.324C288.931 17.212 289.079 17.156 289.255 17.156ZM289.771 19.568V26H288.715V19.568H289.771ZM295.997 24.224C295.997 24.848 295.765 25.32 295.301 25.64C294.837 25.96 294.213 26.12 293.429 26.12C292.981 26.12 292.593 26.084 292.265 26.012C291.945 25.94 291.661 25.84 291.413 25.712V24.752C291.669 24.88 291.977 25 292.337 25.112C292.705 25.216 293.077 25.268 293.453 25.268C293.989 25.268 294.377 25.184 294.617 25.016C294.857 24.84 294.977 24.608 294.977 24.32C294.977 24.16 294.933 24.016 294.845 23.888C294.757 23.76 294.597 23.632 294.365 23.504C294.141 23.376 293.817 23.232 293.393 23.072C292.977 22.912 292.621 22.752 292.325 22.592C292.029 22.432 291.801 22.24 291.641 22.016C291.481 21.792 291.401 21.504 291.401 21.152C291.401 20.608 291.621 20.188 292.061 19.892C292.509 19.596 293.093 19.448 293.813 19.448C294.205 19.448 294.569 19.488 294.905 19.568C295.249 19.648 295.569 19.752 295.865 19.88L295.505 20.72C295.233 20.608 294.949 20.512 294.653 20.432C294.357 20.352 294.053 20.312 293.741 20.312C293.309 20.312 292.977 20.384 292.745 20.528C292.521 20.664 292.409 20.852 292.409 21.092C292.409 21.276 292.461 21.428 292.565 21.548C292.669 21.668 292.841 21.788 293.081 21.908C293.329 22.028 293.657 22.164 294.065 22.316C294.473 22.468 294.821 22.624 295.109 22.784C295.397 22.944 295.617 23.14 295.769 23.372C295.921 23.596 295.997 23.88 295.997 24.224ZM299.987 19.46C300.771 19.46 301.351 19.632 301.727 19.976C302.103 20.32 302.291 20.868 302.291 21.62V26H301.523L301.319 25.088H301.271C300.991 25.44 300.695 25.7 300.383 25.868C300.071 26.036 299.647 26.12 299.111 26.12C298.527 26.12 298.043 25.968 297.659 25.664C297.275 25.352 297.083 24.868 297.083 24.212C297.083 23.572 297.335 23.08 297.839 22.736C298.343 22.384 299.119 22.192 300.167 22.16L301.259 22.124V21.74C301.259 21.204 301.143 20.832 300.911 20.624C300.679 20.416 300.351 20.312 299.927 20.312C299.591 20.312 299.271 20.364 298.967 20.468C298.663 20.564 298.379 20.676 298.115 20.804L297.791 20.012C298.071 19.86 298.403 19.732 298.787 19.628C299.171 19.516 299.571 19.46 299.987 19.46ZM301.247 22.856L300.299 22.892C299.499 22.924 298.943 23.052 298.631 23.276C298.327 23.5 298.175 23.816 298.175 24.224C298.175 24.584 298.283 24.848 298.499 25.016C298.723 25.184 299.007 25.268 299.351 25.268C299.887 25.268 300.335 25.12 300.695 24.824C301.063 24.52 301.247 24.056 301.247 23.432V22.856ZM304.122 25.352C304.122 25.056 304.194 24.848 304.338 24.728C304.482 24.608 304.654 24.548 304.854 24.548C305.054 24.548 305.23 24.608 305.382 24.728C305.534 24.848 305.61 25.056 305.61 25.352C305.61 25.64 305.534 25.848 305.382 25.976C305.23 26.104 305.054 26.168 304.854 26.168C304.654 26.168 304.482 26.104 304.338 25.976C304.194 25.848 304.122 25.64 304.122 25.352ZM313.081 22.772C313.081 23.836 312.809 24.66 312.265 25.244C311.729 25.828 311.001 26.12 310.081 26.12C309.513 26.12 309.005 25.992 308.557 25.736C308.117 25.472 307.769 25.092 307.513 24.596C307.257 24.092 307.129 23.484 307.129 22.772C307.129 21.708 307.393 20.888 307.921 20.312C308.457 19.736 309.189 19.448 310.117 19.448C310.693 19.448 311.205 19.58 311.653 19.844C312.101 20.1 312.449 20.476 312.697 20.972C312.953 21.46 313.081 22.06 313.081 22.772ZM308.221 22.772C308.221 23.532 308.369 24.136 308.665 24.584C308.969 25.024 309.449 25.244 310.105 25.244C310.753 25.244 311.229 25.024 311.533 24.584C311.837 24.136 311.989 23.532 311.989 22.772C311.989 22.012 311.837 21.416 311.533 20.984C311.229 20.552 310.749 20.336 310.093 20.336C309.437 20.336 308.961 20.552 308.665 20.984C308.369 21.416 308.221 22.012 308.221 22.772ZM317.754 19.448C317.874 19.448 318.002 19.456 318.138 19.472C318.274 19.48 318.398 19.496 318.51 19.52L318.378 20.492C318.274 20.468 318.158 20.448 318.03 20.432C317.902 20.416 317.786 20.408 317.682 20.408C317.354 20.408 317.046 20.5 316.758 20.684C316.47 20.86 316.238 21.112 316.062 21.44C315.894 21.76 315.81 22.136 315.81 22.568V26H314.754V19.568H315.618L315.738 20.744H315.786C315.986 20.392 316.25 20.088 316.578 19.832C316.914 19.576 317.306 19.448 317.754 19.448ZM318.841 25.352C318.841 25.056 318.913 24.848 319.057 24.728C319.201 24.608 319.373 24.548 319.573 24.548C319.773 24.548 319.949 24.608 320.101 24.728C320.253 24.848 320.329 25.056 320.329 25.352C320.329 25.64 320.253 25.848 320.101 25.976C319.949 26.104 319.773 26.168 319.573 26.168C319.373 26.168 319.201 26.104 319.057 25.976C318.913 25.848 318.841 25.64 318.841 25.352ZM323.252 16.88V21.644C323.252 21.772 323.244 21.94 323.228 22.148C323.22 22.356 323.212 22.536 323.204 22.688H323.252C323.3 22.624 323.372 22.532 323.468 22.412C323.564 22.292 323.66 22.172 323.756 22.052C323.86 21.924 323.948 21.82 324.02 21.74L326.072 19.568H327.308L324.704 22.316L327.488 26H326.216L323.984 23L323.252 23.636V26H322.208V16.88H323.252ZM331.618 19.448C331.738 19.448 331.866 19.456 332.002 19.472C332.138 19.48 332.262 19.496 332.374 19.52L332.242 20.492C332.138 20.468 332.022 20.448 331.894 20.432C331.766 20.416 331.65 20.408 331.546 20.408C331.218 20.408 330.91 20.5 330.622 20.684C330.334 20.86 330.102 21.112 329.926 21.44C329.758 21.76 329.674 22.136 329.674 22.568V26H328.618V19.568H329.482L329.602 20.744H329.65C329.85 20.392 330.114 20.088 330.442 19.832C330.778 19.576 331.17 19.448 331.618 19.448Z" fill="white"/>
<rect x="0.5" y="41.5" width="153" height="41" stroke="#9C9C9C"/>
<rect x="153.5" y="41.5" width="197" height="41" stroke="#9C9C9C"/>
<path d="M16.844 57.088V67.936H17.804V57.088H16.844ZM15.008 61.432V62.26H17.096V61.432H15.008ZM14.384 57.328V67.384H15.32V57.328H14.384ZM8.984 64.432V65.26H9.692C11.324 65.26 12.416 65.212 13.712 64.936L13.616 64.108C12.356 64.372 11.276 64.432 9.692 64.432H8.984ZM8.984 58.408V64.804H9.968V59.224H13.016V58.408H8.984ZM24.1511 57.784V58.204C24.1511 60.22 22.4951 61.792 19.7471 62.572L20.1551 63.352C23.2751 62.476 25.1951 60.52 25.1951 57.784H24.1511ZM20.3111 57.784V58.588H24.8231V57.784H20.3111ZM27.5591 57.088V63.28H28.5551V57.088H27.5591ZM25.2071 59.872V60.7H27.7511V59.872H25.2071ZM21.5591 63.736V67.792H28.5551V63.736H21.5591ZM27.5831 64.54V66.976H22.5431V64.54H27.5831ZM33.3781 58.72V59.176C33.3781 60.448 32.2501 61.552 30.6421 61.972L31.0861 62.74C32.9221 62.236 34.1941 60.88 34.1941 59.176V58.72H33.3781ZM33.5581 58.72V59.176C33.5581 60.772 34.7941 62.068 36.6181 62.536L37.0501 61.768C35.4661 61.372 34.3741 60.34 34.3741 59.176V58.72H33.5581ZM30.9781 58.192V59.008H36.7621V58.192H30.9781ZM33.3781 57.04V58.624H34.3741V57.04H33.3781ZM38.0941 57.088V62.8H39.0901V57.088H38.0941ZM38.6581 59.488V60.316H40.6861V59.488H38.6581ZM32.2021 63.34V64.12H38.1181V65.164H32.2261V67.468H33.2101V65.896H39.0901V63.34H32.2021ZM32.2261 67.036V67.816H39.4861V67.036H32.2261ZM44.4172 58.936V59.404C44.4172 60.868 43.3372 62.188 41.7412 62.704L42.2212 63.484C44.0332 62.872 45.2332 61.288 45.2332 59.404V58.936H44.4172ZM44.5972 58.936V59.404C44.5972 61.18 45.8452 62.644 47.6692 63.208L48.1252 62.428C46.5292 61.96 45.4132 60.748 45.4132 59.404V58.936H44.5972ZM42.0172 58.396V59.2H47.8012V58.396H42.0172ZM44.4172 57.04V58.684H45.4132V57.04H44.4172ZM47.4772 60.172V61H49.9252V60.172H47.4772ZM49.6372 57.088V63.652H50.6332V57.088H49.6372ZM47.0692 63.94C44.8132 63.94 43.4452 64.672 43.4452 65.932C43.4452 67.18 44.8132 67.912 47.0692 67.912C49.3132 67.912 50.6812 67.18 50.6812 65.932C50.6812 64.672 49.3132 63.94 47.0692 63.94ZM47.0692 64.72C48.7012 64.72 49.6972 65.164 49.6972 65.932C49.6972 66.688 48.7012 67.132 47.0692 67.132C45.4252 67.132 44.4412 66.688 44.4412 65.932C44.4412 65.164 45.4252 64.72 47.0692 64.72ZM58.5254 58.024V59.968C58.5254 61.948 57.2894 64.036 55.7174 64.828L56.3294 65.62C58.0454 64.708 59.3414 62.368 59.3414 59.968V58.024H58.5254ZM58.7054 58.024V59.968C58.7054 62.296 59.9654 64.516 61.6454 65.416L62.2574 64.624C60.7214 63.856 59.5094 61.876 59.5094 59.968V58.024H58.7054ZM63.2054 57.088V67.936H64.2134V57.088H63.2054ZM63.9734 61.48V62.32H65.9894V61.48H63.9734ZM74.7845 57.076V67.948H75.7805V57.076H74.7845ZM70.0565 57.916C68.4605 57.916 67.3085 59.392 67.3085 61.696C67.3085 64.012 68.4605 65.488 70.0565 65.488C71.6645 65.488 72.8165 64.012 72.8165 61.696C72.8165 59.392 71.6645 57.916 70.0565 57.916ZM70.0565 58.816C71.1245 58.816 71.8565 59.944 71.8565 61.696C71.8565 63.46 71.1245 64.612 70.0565 64.612C69.0005 64.612 68.2565 63.46 68.2565 61.696C68.2565 59.944 69.0005 58.816 70.0565 58.816ZM85.8956 57.076V67.948H86.8796V57.076H85.8956ZM83.0276 61.108V61.924H86.1836V61.108H83.0276ZM78.3836 57.94V65.224H83.3636V57.94H82.3796V60.76H79.3676V57.94H78.3836ZM79.3676 61.552H82.3796V64.396H79.3676V61.552ZM89.5186 57.7V62.776H94.4146V57.7H93.4426V59.416H90.5026V57.7H89.5186ZM90.5026 60.208H93.4426V61.972H90.5026V60.208ZM94.1386 59.824V60.652H97.2106V59.824H94.1386ZM96.9106 57.088V63.376H97.9066V57.088H96.9106ZM90.8746 63.928V67.792H97.9066V63.928H90.8746ZM96.9346 64.72V66.988H91.8466V64.72H96.9346ZM103.078 58.42V59.056C103.078 60.532 101.914 61.792 100.246 62.284L100.738 63.064C102.598 62.488 103.906 60.976 103.906 59.056V58.42H103.078ZM103.258 58.42V59.056C103.258 60.868 104.53 62.32 106.366 62.884L106.846 62.092C105.226 61.624 104.086 60.424 104.086 59.056V58.42H103.258ZM100.606 58.12V58.948H106.558V58.12H100.606ZM103.09 62.584V65.056H104.086V62.584H103.09ZM107.866 57.076V67.948H108.862V57.076H107.866ZM100.222 65.644C102.154 65.644 104.806 65.632 107.242 65.176L107.158 64.444C104.794 64.804 102.058 64.816 100.078 64.816L100.222 65.644ZM115.449 57.472V58.072C115.449 59.62 113.541 60.916 111.561 61.216L111.957 62.02C114.213 61.636 116.325 60.148 116.325 58.072V57.472H115.449ZM115.629 57.472V58.072C115.629 60.124 117.753 61.636 119.985 62.02L120.381 61.216C118.425 60.916 116.493 59.584 116.493 58.072V57.472H115.629ZM115.449 63.808V67.936H116.433V63.808H115.449ZM111.069 63.196V64.024H120.873V63.196H111.069ZM124.76 58.024V59.968C124.76 61.948 123.524 64.036 121.952 64.828L122.564 65.62C124.28 64.708 125.576 62.368 125.576 59.968V58.024H124.76ZM124.94 58.024V59.968C124.94 62.296 126.2 64.516 127.88 65.416L128.492 64.624C126.956 63.856 125.744 61.876 125.744 59.968V58.024H124.94ZM129.44 57.088V67.936H130.448V57.088H129.44ZM130.208 61.48V62.32H132.224V61.48H130.208ZM140.563 57.076V64.936H141.559V57.076H140.563ZM141.259 60.304V61.132H143.167V60.304H141.259ZM133.639 62.2V63.028H134.479C136.759 63.028 138.043 62.956 139.531 62.644L139.423 61.84C137.971 62.14 136.711 62.2 134.479 62.2H133.639ZM133.639 58.012V62.644H134.623V58.84H138.427V58.012H133.639ZM134.803 66.88V67.696H142.051V66.88H134.803ZM134.803 64.156V67.252H135.799V64.156H134.803Z" fill="white"/>
<path d="M162.48 63.712C162.48 62.736 162.62 61.796 162.9 60.892C163.188 59.98 163.636 59.16 164.244 58.432H165.24C164.68 59.184 164.256 60.012 163.968 60.916C163.688 61.82 163.548 62.748 163.548 63.7C163.548 64.628 163.688 65.54 163.968 66.436C164.256 67.324 164.676 68.144 165.228 68.896H164.244C163.636 68.192 163.188 67.396 162.9 66.508C162.62 65.612 162.48 64.68 162.48 63.712ZM167.446 57.592V58.408H174.43V57.592H167.446ZM166.198 61.48V62.296H176.026V61.48H166.198ZM170.602 62.032V64.588H171.586V62.032H170.602ZM173.782 57.592V58.396C173.782 59.272 173.782 60.304 173.422 61.756L174.394 61.876C174.754 60.388 174.754 59.296 174.754 58.396V57.592H173.782ZM167.218 64.264V65.08H173.83V67.936H174.826V64.264H167.218ZM182.349 60.148V60.964H185.469V60.148H182.349ZM185.157 57.1V65.128H186.153V57.1H185.157ZM179.181 66.88V67.696H186.417V66.88H179.181ZM179.181 64.348V67.3H180.177V64.348H179.181ZM177.765 57.808V63.28H182.661V57.808H181.689V59.728H178.749V57.808H177.765ZM178.749 60.508H181.689V62.464H178.749V60.508ZM189.512 63.448V67.792H193.268V63.448H192.344V64.804H190.448V63.448H189.512ZM190.448 65.548H192.344V67.012H190.448V65.548ZM195.368 63.388V64.288C195.368 65.392 194.696 66.58 193.388 67.132L193.892 67.888C195.392 67.252 196.136 65.764 196.136 64.288V63.388H195.368ZM195.572 63.388V64.288C195.572 65.824 196.304 67.264 197.816 67.888L198.32 67.132C197.012 66.628 196.34 65.452 196.34 64.288V63.388H195.572ZM193.724 59.632V60.46H196.64V59.632H193.724ZM191.228 57.568C189.608 57.568 188.432 58.576 188.432 60.064C188.432 61.54 189.608 62.56 191.228 62.56C192.848 62.56 194.024 61.54 194.024 60.064C194.024 58.576 192.848 57.568 191.228 57.568ZM191.228 58.396C192.296 58.396 193.064 59.08 193.064 60.064C193.064 61.036 192.296 61.732 191.228 61.732C190.16 61.732 189.392 61.036 189.392 60.064C189.392 59.08 190.16 58.396 191.228 58.396ZM196.196 57.088V62.836H197.192V57.088H196.196ZM207.187 57.076V67.948H208.183V57.076H207.187ZM202.459 57.916C200.863 57.916 199.711 59.392 199.711 61.696C199.711 64.012 200.863 65.488 202.459 65.488C204.067 65.488 205.219 64.012 205.219 61.696C205.219 59.392 204.067 57.916 202.459 57.916ZM202.459 58.816C203.527 58.816 204.259 59.944 204.259 61.696C204.259 63.46 203.527 64.612 202.459 64.612C201.403 64.612 200.659 63.46 200.659 61.696C200.659 59.944 201.403 58.816 202.459 58.816ZM212.874 63.712C212.874 64.68 212.73 65.612 212.442 66.508C212.162 67.396 211.718 68.192 211.11 68.896H210.126C210.678 68.144 211.094 67.324 211.374 66.436C211.662 65.54 211.806 64.628 211.806 63.7C211.806 62.748 211.662 61.82 211.374 60.916C211.094 60.012 210.674 59.184 210.114 58.432H211.11C211.718 59.16 212.162 59.98 212.442 60.892C212.73 61.796 212.874 62.736 212.874 63.712ZM217.612 67H216.58V61.012C216.58 60.668 216.584 60.392 216.592 60.184C216.6 59.976 216.612 59.76 216.628 59.536C216.5 59.664 216.38 59.772 216.268 59.86C216.164 59.948 216.036 60.06 215.884 60.196L214.972 60.94L214.42 60.232L216.736 58.432H217.612V67ZM226.135 60.436C226.135 61.012 225.971 61.472 225.643 61.816C225.323 62.152 224.895 62.376 224.359 62.488V62.536C225.039 62.616 225.547 62.832 225.883 63.184C226.227 63.536 226.399 63.996 226.399 64.564C226.399 65.068 226.283 65.512 226.051 65.896C225.819 66.28 225.459 66.58 224.971 66.796C224.491 67.012 223.871 67.12 223.111 67.12C222.663 67.12 222.247 67.084 221.863 67.012C221.479 66.948 221.111 66.828 220.759 66.652V65.668C221.119 65.852 221.507 65.992 221.923 66.088C222.339 66.184 222.739 66.232 223.123 66.232C223.891 66.232 224.443 66.084 224.779 65.788C225.123 65.484 225.295 65.068 225.295 64.54C225.295 64.004 225.083 63.62 224.659 63.388C224.243 63.148 223.655 63.028 222.895 63.028H222.067V62.128H222.907C223.611 62.128 224.143 61.98 224.503 61.684C224.871 61.388 225.055 60.996 225.055 60.508C225.055 60.092 224.915 59.772 224.635 59.548C224.355 59.316 223.975 59.2 223.495 59.2C223.031 59.2 222.635 59.268 222.307 59.404C221.979 59.54 221.655 59.712 221.335 59.92L220.807 59.2C221.111 58.96 221.487 58.752 221.935 58.576C222.391 58.4 222.907 58.312 223.483 58.312C224.379 58.312 225.043 58.512 225.475 58.912C225.915 59.312 226.135 59.82 226.135 60.436ZM233.362 62.704C233.362 63.632 233.266 64.424 233.074 65.08C232.882 65.736 232.574 66.24 232.15 66.592C231.734 66.944 231.186 67.12 230.506 67.12C229.538 67.12 228.822 66.732 228.358 65.956C227.902 65.172 227.674 64.088 227.674 62.704C227.674 61.776 227.766 60.984 227.95 60.328C228.142 59.672 228.446 59.172 228.862 58.828C229.278 58.476 229.826 58.3 230.506 58.3C231.466 58.3 232.182 58.688 232.654 59.464C233.126 60.232 233.362 61.312 233.362 62.704ZM228.73 62.704C228.73 63.88 228.862 64.76 229.126 65.344C229.398 65.928 229.858 66.22 230.506 66.22C231.146 66.22 231.602 65.932 231.874 65.356C232.154 64.772 232.294 63.888 232.294 62.704C232.294 61.536 232.154 60.66 231.874 60.076C231.602 59.492 231.146 59.2 230.506 59.2C229.858 59.2 229.398 59.492 229.126 60.076C228.862 60.66 228.73 61.536 228.73 62.704ZM238.213 67H237.181V61.012C237.181 60.668 237.185 60.392 237.193 60.184C237.201 59.976 237.213 59.76 237.229 59.536C237.101 59.664 236.981 59.772 236.869 59.86C236.765 59.948 236.637 60.06 236.485 60.196L235.573 60.94L235.021 60.232L237.337 58.432H238.213V67ZM245.164 58.432L241.972 67H240.94L244.132 58.432H245.164ZM251.561 66.988L250.457 63.364C250.353 63.036 250.261 62.716 250.181 62.404C250.101 62.092 250.045 61.844 250.013 61.66H249.965C249.933 61.844 249.881 62.092 249.809 62.404C249.737 62.716 249.645 63.04 249.533 63.376L248.381 66.988H247.181L245.417 60.556H246.509L247.397 63.988C247.485 64.332 247.569 64.68 247.649 65.032C247.729 65.384 247.785 65.676 247.817 65.908H247.865C247.889 65.772 247.925 65.604 247.973 65.404C248.021 65.204 248.073 64.996 248.129 64.78C248.185 64.556 248.241 64.356 248.297 64.18L249.437 60.556H250.589L251.693 64.18C251.773 64.46 251.857 64.76 251.945 65.08C252.033 65.4 252.093 65.672 252.125 65.896H252.173C252.197 65.696 252.249 65.42 252.329 65.068C252.417 64.716 252.509 64.356 252.605 63.988L253.505 60.556H254.585L252.797 66.988H251.561ZM260.995 66.988L259.891 63.364C259.787 63.036 259.695 62.716 259.615 62.404C259.535 62.092 259.479 61.844 259.447 61.66H259.399C259.367 61.844 259.315 62.092 259.243 62.404C259.171 62.716 259.079 63.04 258.967 63.376L257.815 66.988H256.615L254.851 60.556H255.943L256.831 63.988C256.919 64.332 257.003 64.68 257.083 65.032C257.163 65.384 257.219 65.676 257.251 65.908H257.299C257.323 65.772 257.359 65.604 257.407 65.404C257.455 65.204 257.507 64.996 257.563 64.78C257.619 64.556 257.675 64.356 257.731 64.18L258.871 60.556H260.023L261.127 64.18C261.207 64.46 261.291 64.76 261.379 65.08C261.467 65.4 261.527 65.672 261.559 65.896H261.607C261.631 65.696 261.683 65.42 261.763 65.068C261.851 64.716 261.943 64.356 262.039 63.988L262.939 60.556H264.019L262.231 66.988H260.995ZM270.428 66.988L269.324 63.364C269.22 63.036 269.128 62.716 269.048 62.404C268.968 62.092 268.912 61.844 268.88 61.66H268.832C268.8 61.844 268.748 62.092 268.676 62.404C268.604 62.716 268.512 63.04 268.4 63.376L267.248 66.988H266.048L264.284 60.556H265.376L266.264 63.988C266.352 64.332 266.436 64.68 266.516 65.032C266.596 65.384 266.652 65.676 266.684 65.908H266.732C266.756 65.772 266.792 65.604 266.84 65.404C266.888 65.204 266.94 64.996 266.996 64.78C267.052 64.556 267.108 64.356 267.164 64.18L268.304 60.556H269.456L270.56 64.18C270.64 64.46 270.724 64.76 270.812 65.08C270.9 65.4 270.96 65.672 270.992 65.896H271.04C271.064 65.696 271.116 65.42 271.196 65.068C271.284 64.716 271.376 64.356 271.472 63.988L272.372 60.556H273.452L271.664 66.988H270.428ZM273.969 66.352C273.969 66.056 274.041 65.848 274.185 65.728C274.329 65.608 274.501 65.548 274.701 65.548C274.901 65.548 275.077 65.608 275.229 65.728C275.381 65.848 275.457 66.056 275.457 66.352C275.457 66.64 275.381 66.848 275.229 66.976C275.077 67.104 274.901 67.168 274.701 67.168C274.501 67.168 274.329 67.104 274.185 66.976C274.041 66.848 273.969 66.64 273.969 66.352ZM281.524 65.224C281.524 65.848 281.292 66.32 280.828 66.64C280.364 66.96 279.74 67.12 278.956 67.12C278.508 67.12 278.12 67.084 277.792 67.012C277.472 66.94 277.188 66.84 276.94 66.712V65.752C277.196 65.88 277.504 66 277.864 66.112C278.232 66.216 278.604 66.268 278.98 66.268C279.516 66.268 279.904 66.184 280.144 66.016C280.384 65.84 280.504 65.608 280.504 65.32C280.504 65.16 280.46 65.016 280.372 64.888C280.284 64.76 280.124 64.632 279.892 64.504C279.668 64.376 279.344 64.232 278.92 64.072C278.504 63.912 278.148 63.752 277.852 63.592C277.556 63.432 277.328 63.24 277.168 63.016C277.008 62.792 276.928 62.504 276.928 62.152C276.928 61.608 277.148 61.188 277.588 60.892C278.036 60.596 278.62 60.448 279.34 60.448C279.732 60.448 280.096 60.488 280.432 60.568C280.776 60.648 281.096 60.752 281.392 60.88L281.032 61.72C280.76 61.608 280.476 61.512 280.18 61.432C279.884 61.352 279.58 61.312 279.268 61.312C278.836 61.312 278.504 61.384 278.272 61.528C278.048 61.664 277.936 61.852 277.936 62.092C277.936 62.276 277.988 62.428 278.092 62.548C278.196 62.668 278.368 62.788 278.608 62.908C278.856 63.028 279.184 63.164 279.592 63.316C280 63.468 280.348 63.624 280.636 63.784C280.924 63.944 281.144 64.14 281.296 64.372C281.448 64.596 281.524 64.88 281.524 65.224ZM286.139 60.448C286.931 60.448 287.567 60.724 288.047 61.276C288.535 61.828 288.779 62.66 288.779 63.772C288.779 64.868 288.535 65.7 288.047 66.268C287.567 66.836 286.927 67.12 286.127 67.12C285.631 67.12 285.219 67.028 284.891 66.844C284.571 66.66 284.319 66.44 284.135 66.184H284.063C284.071 66.32 284.083 66.492 284.099 66.7C284.123 66.908 284.135 67.088 284.135 67.24V69.88H283.079V60.568H283.943L284.087 61.444H284.135C284.327 61.164 284.579 60.928 284.891 60.736C285.203 60.544 285.619 60.448 286.139 60.448ZM285.947 61.336C285.291 61.336 284.827 61.52 284.555 61.888C284.283 62.256 284.143 62.816 284.135 63.568V63.772C284.135 64.564 284.263 65.176 284.519 65.608C284.783 66.032 285.267 66.244 285.971 66.244C286.355 66.244 286.675 66.14 286.931 65.932C287.187 65.716 287.375 65.42 287.495 65.044C287.623 64.668 287.687 64.24 287.687 63.76C287.687 63.024 287.543 62.436 287.255 61.996C286.975 61.556 286.539 61.336 285.947 61.336ZM296.053 63.772C296.053 64.836 295.781 65.66 295.237 66.244C294.701 66.828 293.973 67.12 293.053 67.12C292.485 67.12 291.977 66.992 291.529 66.736C291.089 66.472 290.741 66.092 290.485 65.596C290.229 65.092 290.101 64.484 290.101 63.772C290.101 62.708 290.365 61.888 290.893 61.312C291.429 60.736 292.161 60.448 293.089 60.448C293.665 60.448 294.177 60.58 294.625 60.844C295.073 61.1 295.421 61.476 295.669 61.972C295.925 62.46 296.053 63.06 296.053 63.772ZM291.193 63.772C291.193 64.532 291.341 65.136 291.637 65.584C291.941 66.024 292.421 66.244 293.077 66.244C293.725 66.244 294.201 66.024 294.505 65.584C294.809 65.136 294.961 64.532 294.961 63.772C294.961 63.012 294.809 62.416 294.505 61.984C294.201 61.552 293.721 61.336 293.065 61.336C292.409 61.336 291.933 61.552 291.637 61.984C291.341 62.416 291.193 63.012 291.193 63.772ZM297.571 66.352C297.571 66.056 297.643 65.848 297.787 65.728C297.931 65.608 298.103 65.548 298.303 65.548C298.503 65.548 298.679 65.608 298.831 65.728C298.983 65.848 299.059 66.056 299.059 66.352C299.059 66.64 298.983 66.848 298.831 66.976C298.679 67.104 298.503 67.168 298.303 67.168C298.103 67.168 297.931 67.104 297.787 66.976C297.643 66.848 297.571 66.64 297.571 66.352ZM303.218 60.448C303.642 60.448 304.022 60.528 304.358 60.688C304.702 60.848 304.994 61.092 305.234 61.42H305.294L305.438 60.568H306.278V67.108C306.278 68.028 306.042 68.72 305.57 69.184C305.106 69.648 304.382 69.88 303.398 69.88C302.454 69.88 301.682 69.744 301.082 69.472V68.5C301.714 68.836 302.506 69.004 303.458 69.004C304.01 69.004 304.442 68.84 304.754 68.512C305.074 68.192 305.234 67.752 305.234 67.192V66.94C305.234 66.844 305.238 66.708 305.246 66.532C305.254 66.348 305.262 66.22 305.27 66.148H305.222C304.79 66.796 304.126 67.12 303.23 67.12C302.398 67.12 301.746 66.828 301.274 66.244C300.81 65.66 300.578 64.844 300.578 63.796C300.578 62.772 300.81 61.96 301.274 61.36C301.746 60.752 302.394 60.448 303.218 60.448ZM303.362 61.336C302.826 61.336 302.41 61.552 302.114 61.984C301.818 62.408 301.67 63.016 301.67 63.808C301.67 64.6 301.814 65.208 302.102 65.632C302.39 66.048 302.818 66.256 303.386 66.256C304.034 66.256 304.506 66.084 304.802 65.74C305.098 65.388 305.246 64.824 305.246 64.048V63.796C305.246 62.924 305.094 62.296 304.79 61.912C304.486 61.528 304.01 61.336 303.362 61.336ZM313.913 63.772C313.913 64.836 313.641 65.66 313.097 66.244C312.561 66.828 311.833 67.12 310.913 67.12C310.345 67.12 309.837 66.992 309.389 66.736C308.949 66.472 308.601 66.092 308.345 65.596C308.089 65.092 307.961 64.484 307.961 63.772C307.961 62.708 308.225 61.888 308.753 61.312C309.289 60.736 310.021 60.448 310.949 60.448C311.525 60.448 312.037 60.58 312.485 60.844C312.933 61.1 313.281 61.476 313.529 61.972C313.785 62.46 313.913 63.06 313.913 63.772ZM309.053 63.772C309.053 64.532 309.201 65.136 309.497 65.584C309.801 66.024 310.281 66.244 310.937 66.244C311.585 66.244 312.061 66.024 312.365 65.584C312.669 65.136 312.821 64.532 312.821 63.772C312.821 63.012 312.669 62.416 312.365 61.984C312.061 61.552 311.581 61.336 310.925 61.336C310.269 61.336 309.793 61.552 309.497 61.984C309.201 62.416 309.053 63.012 309.053 63.772ZM315.43 66.352C315.43 66.056 315.502 65.848 315.646 65.728C315.79 65.608 315.962 65.548 316.162 65.548C316.362 65.548 316.538 65.608 316.69 65.728C316.842 65.848 316.918 66.056 316.918 66.352C316.918 66.64 316.842 66.848 316.69 66.976C316.538 67.104 316.362 67.168 316.162 67.168C315.962 67.168 315.79 67.104 315.646 66.976C315.502 66.848 315.43 66.64 315.43 66.352ZM319.841 57.88V62.644C319.841 62.772 319.833 62.94 319.817 63.148C319.809 63.356 319.801 63.536 319.793 63.688H319.841C319.889 63.624 319.961 63.532 320.057 63.412C320.153 63.292 320.249 63.172 320.345 63.052C320.449 62.924 320.537 62.82 320.609 62.74L322.661 60.568H323.897L321.293 63.316L324.077 67H322.805L320.573 64L319.841 64.636V67H318.797V57.88H319.841ZM328.208 60.448C328.328 60.448 328.456 60.456 328.592 60.472C328.728 60.48 328.852 60.496 328.964 60.52L328.832 61.492C328.728 61.468 328.612 61.448 328.484 61.432C328.356 61.416 328.24 61.408 328.136 61.408C327.808 61.408 327.5 61.5 327.212 61.684C326.924 61.86 326.692 62.112 326.516 62.44C326.348 62.76 326.264 63.136 326.264 63.568V67H325.208V60.568H326.072L326.192 61.744H326.24C326.44 61.392 326.704 61.088 327.032 60.832C327.368 60.576 327.76 60.448 328.208 60.448Z" fill="white"/>
<rect x="0.5" y="82.5" width="153" height="41" stroke="#9C9C9C"/>
<rect x="153.5" y="82.5" width="197" height="41" stroke="#9C9C9C"/>
<path d="M13.784 100.08V100.896H16.688V100.08H13.784ZM13.688 102.336V103.152H16.616V102.336H13.688ZM16.52 98.088V104.592H17.516V98.088H16.52ZM13.124 98.904V99.336C13.124 101.388 11.504 102.984 8.732 103.788L9.14 104.592C12.26 103.656 14.192 101.7 14.192 98.904H13.124ZM9.296 98.904V99.72H13.808V98.904H9.296ZM13.988 104.712C11.792 104.712 10.4 105.492 10.4 106.8C10.4 108.108 11.792 108.888 13.988 108.888C16.184 108.888 17.576 108.108 17.576 106.8C17.576 105.492 16.184 104.712 13.988 104.712ZM13.988 105.492C15.584 105.492 16.604 105.984 16.604 106.8C16.604 107.616 15.584 108.096 13.988 108.096C12.404 108.096 11.384 107.616 11.384 106.8C11.384 105.984 12.404 105.492 13.988 105.492ZM22.3391 99.72V100.176C22.3391 101.448 21.2111 102.552 19.6031 102.972L20.0471 103.74C21.8831 103.236 23.1551 101.88 23.1551 100.176V99.72H22.3391ZM22.5191 99.72V100.176C22.5191 101.772 23.7551 103.068 25.5791 103.536L26.0111 102.768C24.4271 102.372 23.3351 101.34 23.3351 100.176V99.72H22.5191ZM19.9391 99.192V100.008H25.7231V99.192H19.9391ZM22.3391 98.04V99.624H23.3351V98.04H22.3391ZM27.0551 98.088V103.8H28.0511V98.088H27.0551ZM27.6191 100.488V101.316H29.6471V100.488H27.6191ZM21.1631 104.34V105.12H27.0791V106.164H21.1871V108.468H22.1711V106.896H28.0511V104.34H21.1631ZM21.1871 108.036V108.816H28.4471V108.036H21.1871ZM33.3781 99.936V100.404C33.3781 101.868 32.2981 103.188 30.7021 103.704L31.1821 104.484C32.9941 103.872 34.1941 102.288 34.1941 100.404V99.936H33.3781ZM33.5581 99.936V100.404C33.5581 102.18 34.8061 103.644 36.6301 104.208L37.0861 103.428C35.4901 102.96 34.3741 101.748 34.3741 100.404V99.936H33.5581ZM30.9781 99.396V100.2H36.7621V99.396H30.9781ZM33.3781 98.04V99.684H34.3741V98.04H33.3781ZM36.4381 101.172V102H38.8861V101.172H36.4381ZM38.5981 98.088V104.652H39.5941V98.088H38.5981ZM36.0301 104.94C33.7741 104.94 32.4061 105.672 32.4061 106.932C32.4061 108.18 33.7741 108.912 36.0301 108.912C38.2741 108.912 39.6421 108.18 39.6421 106.932C39.6421 105.672 38.2741 104.94 36.0301 104.94ZM36.0301 105.72C37.6621 105.72 38.6581 106.164 38.6581 106.932C38.6581 107.688 37.6621 108.132 36.0301 108.132C34.3861 108.132 33.4021 107.688 33.4021 106.932C33.4021 106.164 34.3861 105.72 36.0301 105.72ZM47.4864 99.024V100.968C47.4864 102.948 46.2504 105.036 44.6784 105.828L45.2904 106.62C47.0064 105.708 48.3024 103.368 48.3024 100.968V99.024H47.4864ZM47.6664 99.024V100.968C47.6664 103.296 48.9264 105.516 50.6064 106.416L51.2184 105.624C49.6824 104.856 48.4704 102.876 48.4704 100.968V99.024H47.6664ZM52.1664 98.088V108.936H53.1744V98.088H52.1664ZM52.9344 102.48V103.32H54.9504V102.48H52.9344ZM63.7454 98.076V108.948H64.7414V98.076H63.7454ZM59.0174 98.916C57.4214 98.916 56.2694 100.392 56.2694 102.696C56.2694 105.012 57.4214 106.488 59.0174 106.488C60.6254 106.488 61.7774 105.012 61.7774 102.696C61.7774 100.392 60.6254 98.916 59.0174 98.916ZM59.0174 99.816C60.0854 99.816 60.8174 100.944 60.8174 102.696C60.8174 104.46 60.0854 105.612 59.0174 105.612C57.9614 105.612 57.2174 104.46 57.2174 102.696C57.2174 100.944 57.9614 99.816 59.0174 99.816ZM74.8565 98.076V108.948H75.8405V98.076H74.8565ZM71.9885 102.108V102.924H75.1445V102.108H71.9885ZM67.3445 98.94V106.224H72.3245V98.94H71.3405V101.76H68.3285V98.94H67.3445ZM68.3285 102.552H71.3405V105.396H68.3285V102.552ZM85.3676 98.076V106.068H86.3636V98.076H85.3676ZM86.0516 101.376V102.204H87.9716V101.376H86.0516ZM79.6076 107.88V108.696H86.8556V107.88H79.6076ZM79.6076 105.252V108.204H80.6036V105.252H79.6076ZM80.9756 98.844C79.3556 98.844 78.1436 99.96 78.1436 101.52C78.1436 103.092 79.3556 104.196 80.9756 104.196C82.5956 104.196 83.8076 103.092 83.8076 101.52C83.8076 99.96 82.5956 98.844 80.9756 98.844ZM80.9756 99.72C82.0316 99.72 82.8356 100.464 82.8356 101.52C82.8356 102.588 82.0316 103.32 80.9756 103.32C79.9196 103.32 79.1156 102.588 79.1156 101.52C79.1156 100.464 79.9196 99.72 80.9756 99.72ZM94.7386 101.076V101.892H97.4746V101.076H94.7386ZM96.9106 98.1V106.044H97.9066V98.1H96.9106ZM90.9826 107.88V108.696H98.2066V107.88H90.9826ZM90.9826 105.348V108.3H91.9786V105.348H90.9826ZM91.7506 99.444V100.32C91.7506 101.856 90.6346 103.296 89.0146 103.872L89.5306 104.664C91.3426 103.992 92.5666 102.288 92.5666 100.32V99.444H91.7506ZM91.9426 99.444V100.308C91.9426 102.144 93.1066 103.776 94.8706 104.412L95.3746 103.632C93.8026 103.08 92.7466 101.712 92.7466 100.308V99.444H91.9426ZM89.3266 98.976V99.78H95.1226V98.976H89.3266ZM101.278 98.592V99.408H108.262V98.592H101.278ZM100.03 102.48V103.296H109.858V102.48H100.03ZM104.434 103.032V105.588H105.418V103.032H104.434ZM107.614 98.592V99.396C107.614 100.272 107.614 101.304 107.254 102.756L108.226 102.876C108.586 101.388 108.586 100.296 108.586 99.396V98.592H107.614ZM101.05 105.264V106.08H107.662V108.936H108.658V105.264H101.05Z" fill="white"/>
<path d="M162.48 104.712C162.48 103.736 162.62 102.796 162.9 101.892C163.188 100.98 163.636 100.16 164.244 99.432H165.24C164.68 100.184 164.256 101.012 163.968 101.916C163.688 102.82 163.548 103.748 163.548 104.7C163.548 105.628 163.688 106.54 163.968 107.436C164.256 108.324 164.676 109.144 165.228 109.896H164.244C163.636 109.192 163.188 108.396 162.9 107.508C162.62 106.612 162.48 105.68 162.48 104.712ZM167.446 98.592V99.408H174.43V98.592H167.446ZM166.198 102.48V103.296H176.026V102.48H166.198ZM170.602 103.032V105.588H171.586V103.032H170.602ZM173.782 98.592V99.396C173.782 100.272 173.782 101.304 173.422 102.756L174.394 102.876C174.754 101.388 174.754 100.296 174.754 99.396V98.592H173.782ZM167.218 105.264V106.08H173.83V108.936H174.826V105.264H167.218ZM182.349 101.148V101.964H185.469V101.148H182.349ZM185.157 98.1V106.128H186.153V98.1H185.157ZM179.181 107.88V108.696H186.417V107.88H179.181ZM179.181 105.348V108.3H180.177V105.348H179.181ZM177.765 98.808V104.28H182.661V98.808H181.689V100.728H178.749V98.808H177.765ZM178.749 101.508H181.689V103.464H178.749V101.508ZM189.512 104.448V108.792H193.268V104.448H192.344V105.804H190.448V104.448H189.512ZM190.448 106.548H192.344V108.012H190.448V106.548ZM195.368 104.388V105.288C195.368 106.392 194.696 107.58 193.388 108.132L193.892 108.888C195.392 108.252 196.136 106.764 196.136 105.288V104.388H195.368ZM195.572 104.388V105.288C195.572 106.824 196.304 108.264 197.816 108.888L198.32 108.132C197.012 107.628 196.34 106.452 196.34 105.288V104.388H195.572ZM193.724 100.632V101.46H196.64V100.632H193.724ZM191.228 98.568C189.608 98.568 188.432 99.576 188.432 101.064C188.432 102.54 189.608 103.56 191.228 103.56C192.848 103.56 194.024 102.54 194.024 101.064C194.024 99.576 192.848 98.568 191.228 98.568ZM191.228 99.396C192.296 99.396 193.064 100.08 193.064 101.064C193.064 102.036 192.296 102.732 191.228 102.732C190.16 102.732 189.392 102.036 189.392 101.064C189.392 100.08 190.16 99.396 191.228 99.396ZM196.196 98.088V103.836H197.192V98.088H196.196ZM207.187 98.076V108.948H208.183V98.076H207.187ZM202.459 98.916C200.863 98.916 199.711 100.392 199.711 102.696C199.711 105.012 200.863 106.488 202.459 106.488C204.067 106.488 205.219 105.012 205.219 102.696C205.219 100.392 204.067 98.916 202.459 98.916ZM202.459 99.816C203.527 99.816 204.259 100.944 204.259 102.696C204.259 104.46 203.527 105.612 202.459 105.612C201.403 105.612 200.659 104.46 200.659 102.696C200.659 100.944 201.403 99.816 202.459 99.816ZM212.874 104.712C212.874 105.68 212.73 106.612 212.442 107.508C212.162 108.396 211.718 109.192 211.11 109.896H210.126C210.678 109.144 211.094 108.324 211.374 107.436C211.662 106.54 211.806 105.628 211.806 104.7C211.806 103.748 211.662 102.82 211.374 101.916C211.094 101.012 210.674 100.184 210.114 99.432H211.11C211.718 100.16 212.162 100.98 212.442 101.892C212.73 102.796 212.874 103.736 212.874 104.712ZM220.729 108H219.697V102.012C219.697 101.668 219.701 101.392 219.709 101.184C219.717 100.976 219.729 100.76 219.745 100.536C219.617 100.664 219.497 100.772 219.385 100.86C219.281 100.948 219.153 101.06 219.001 101.196L218.089 101.94L217.537 101.232L219.853 99.432H220.729V108ZM226.756 99.312C227.508 99.312 228.124 99.488 228.604 99.84C229.084 100.192 229.324 100.7 229.324 101.364C229.324 101.708 229.248 102.008 229.096 102.264C228.952 102.52 228.756 102.748 228.508 102.948C228.26 103.14 227.988 103.312 227.692 103.464C228.044 103.64 228.364 103.832 228.652 104.04C228.94 104.248 229.168 104.492 229.336 104.772C229.512 105.052 229.6 105.388 229.6 105.78C229.6 106.5 229.344 107.072 228.832 107.496C228.32 107.912 227.64 108.12 226.792 108.12C225.864 108.12 225.152 107.92 224.656 107.52C224.168 107.112 223.924 106.544 223.924 105.816C223.924 105.432 224.004 105.096 224.164 104.808C224.332 104.512 224.552 104.26 224.824 104.052C225.096 103.844 225.388 103.668 225.7 103.524C225.276 103.284 224.92 102.996 224.632 102.66C224.344 102.316 224.2 101.88 224.2 101.352C224.2 100.92 224.312 100.552 224.536 100.248C224.76 99.944 225.064 99.712 225.448 99.552C225.832 99.392 226.268 99.312 226.756 99.312ZM226.744 100.164C226.296 100.164 225.932 100.272 225.652 100.488C225.372 100.696 225.232 101 225.232 101.4C225.232 101.696 225.3 101.944 225.436 102.144C225.58 102.344 225.772 102.516 226.012 102.66C226.252 102.796 226.516 102.928 226.804 103.056C227.22 102.88 227.568 102.668 227.848 102.42C228.136 102.172 228.28 101.832 228.28 101.4C228.28 101 228.14 100.696 227.86 100.488C227.58 100.272 227.208 100.164 226.744 100.164ZM224.956 105.828C224.956 106.244 225.104 106.592 225.4 106.872C225.696 107.144 226.152 107.28 226.768 107.28C227.352 107.28 227.796 107.144 228.1 106.872C228.412 106.592 228.568 106.232 228.568 105.792C228.568 105.376 228.404 105.032 228.076 104.76C227.748 104.48 227.312 104.236 226.768 104.028L226.576 103.956C226.048 104.188 225.644 104.448 225.364 104.736C225.092 105.024 224.956 105.388 224.956 105.828ZM236.443 108H230.779V107.124L233.023 104.856C233.447 104.424 233.807 104.04 234.103 103.704C234.407 103.368 234.635 103.04 234.787 102.72C234.939 102.4 235.015 102.044 235.015 101.652C235.015 101.18 234.875 100.824 234.595 100.584C234.315 100.336 233.951 100.212 233.503 100.212C233.079 100.212 232.711 100.284 232.399 100.428C232.087 100.572 231.767 100.772 231.439 101.028L230.875 100.32C231.211 100.04 231.595 99.804 232.027 99.612C232.467 99.412 232.959 99.312 233.503 99.312C234.303 99.312 234.935 99.516 235.399 99.924C235.863 100.332 236.095 100.888 236.095 101.592C236.095 102.04 236.003 102.46 235.819 102.852C235.635 103.244 235.379 103.632 235.051 104.016C234.723 104.4 234.339 104.804 233.899 105.228L232.111 106.992V107.04H236.443V108ZM241.414 99.432L238.222 108H237.19L240.382 99.432H241.414ZM247.811 107.988L246.707 104.364C246.603 104.036 246.511 103.716 246.431 103.404C246.351 103.092 246.295 102.844 246.263 102.66H246.215C246.183 102.844 246.131 103.092 246.059 103.404C245.987 103.716 245.895 104.04 245.783 104.376L244.631 107.988H243.431L241.667 101.556H242.759L243.647 104.988C243.735 105.332 243.819 105.68 243.899 106.032C243.979 106.384 244.035 106.676 244.067 106.908H244.115C244.139 106.772 244.175 106.604 244.223 106.404C244.271 106.204 244.323 105.996 244.379 105.78C244.435 105.556 244.491 105.356 244.547 105.18L245.687 101.556H246.839L247.943 105.18C248.023 105.46 248.107 105.76 248.195 106.08C248.283 106.4 248.343 106.672 248.375 106.896H248.423C248.447 106.696 248.499 106.42 248.579 106.068C248.667 105.716 248.759 105.356 248.855 104.988L249.755 101.556H250.835L249.047 107.988H247.811ZM257.245 107.988L256.141 104.364C256.037 104.036 255.945 103.716 255.865 103.404C255.785 103.092 255.729 102.844 255.697 102.66H255.649C255.617 102.844 255.565 103.092 255.493 103.404C255.421 103.716 255.329 104.04 255.217 104.376L254.065 107.988H252.865L251.101 101.556H252.193L253.081 104.988C253.169 105.332 253.253 105.68 253.333 106.032C253.413 106.384 253.469 106.676 253.501 106.908H253.549C253.573 106.772 253.609 106.604 253.657 106.404C253.705 106.204 253.757 105.996 253.813 105.78C253.869 105.556 253.925 105.356 253.981 105.18L255.121 101.556H256.273L257.377 105.18C257.457 105.46 257.541 105.76 257.629 106.08C257.717 106.4 257.777 106.672 257.809 106.896H257.857C257.881 106.696 257.933 106.42 258.013 106.068C258.101 105.716 258.193 105.356 258.289 104.988L259.189 101.556H260.269L258.481 107.988H257.245ZM266.678 107.988L265.574 104.364C265.47 104.036 265.378 103.716 265.298 103.404C265.218 103.092 265.162 102.844 265.13 102.66H265.082C265.05 102.844 264.998 103.092 264.926 103.404C264.854 103.716 264.762 104.04 264.65 104.376L263.498 107.988H262.298L260.534 101.556H261.626L262.514 104.988C262.602 105.332 262.686 105.68 262.766 106.032C262.846 106.384 262.902 106.676 262.934 106.908H262.982C263.006 106.772 263.042 106.604 263.09 106.404C263.138 106.204 263.19 105.996 263.246 105.78C263.302 105.556 263.358 105.356 263.414 105.18L264.554 101.556H265.706L266.81 105.18C266.89 105.46 266.974 105.76 267.062 106.08C267.15 106.4 267.21 106.672 267.242 106.896H267.29C267.314 106.696 267.366 106.42 267.446 106.068C267.534 105.716 267.626 105.356 267.722 104.988L268.622 101.556H269.702L267.914 107.988H266.678ZM270.219 107.352C270.219 107.056 270.291 106.848 270.435 106.728C270.579 106.608 270.751 106.548 270.951 106.548C271.151 106.548 271.327 106.608 271.479 106.728C271.631 106.848 271.707 107.056 271.707 107.352C271.707 107.64 271.631 107.848 271.479 107.976C271.327 108.104 271.151 108.168 270.951 108.168C270.751 108.168 270.579 108.104 270.435 107.976C270.291 107.848 270.219 107.64 270.219 107.352ZM276.166 108.12C275.59 108.12 275.082 108.004 274.642 107.772C274.202 107.54 273.854 107.18 273.598 106.692C273.35 106.204 273.226 105.58 273.226 104.82C273.226 104.028 273.354 103.384 273.61 102.888C273.874 102.392 274.234 102.028 274.69 101.796C275.146 101.564 275.662 101.448 276.238 101.448C276.558 101.448 276.87 101.484 277.174 101.556C277.486 101.62 277.738 101.7 277.93 101.796L277.606 102.672C277.414 102.6 277.19 102.532 276.934 102.468C276.678 102.404 276.438 102.372 276.214 102.372C274.95 102.372 274.318 103.184 274.318 104.808C274.318 105.584 274.47 106.18 274.774 106.596C275.086 107.004 275.546 107.208 276.154 107.208C276.498 107.208 276.806 107.172 277.078 107.1C277.35 107.028 277.598 106.94 277.822 106.836V107.772C277.606 107.884 277.366 107.968 277.102 108.024C276.846 108.088 276.534 108.12 276.166 108.12ZM278.344 101.568H279.472L280.864 105.228C280.984 105.556 281.092 105.864 281.188 106.152C281.284 106.44 281.356 106.716 281.404 106.98H281.452C281.5 106.78 281.576 106.52 281.68 106.2C281.784 105.872 281.892 105.544 282.004 105.216L283.312 101.568H284.452L281.68 108.888C281.448 109.496 281.156 109.98 280.804 110.34C280.452 110.7 279.964 110.88 279.34 110.88C279.148 110.88 278.98 110.868 278.836 110.844C278.692 110.828 278.568 110.808 278.464 110.784V109.944C278.552 109.96 278.656 109.976 278.776 109.992C278.904 110.008 279.036 110.016 279.172 110.016C279.54 110.016 279.836 109.912 280.06 109.704C280.284 109.496 280.464 109.22 280.6 108.876L280.936 108.024L278.344 101.568ZM286.525 98.88V101.1C286.525 101.372 286.517 101.628 286.501 101.868C286.493 102.1 286.481 102.284 286.465 102.42H286.525C286.709 102.148 286.961 101.92 287.281 101.736C287.601 101.552 288.013 101.46 288.517 101.46C289.317 101.46 289.957 101.74 290.437 102.3C290.925 102.852 291.169 103.68 291.169 104.784C291.169 105.888 290.925 106.72 290.437 107.28C289.949 107.84 289.309 108.12 288.517 108.12C288.013 108.12 287.601 108.028 287.281 107.844C286.961 107.66 286.709 107.44 286.525 107.184H286.441L286.225 108H285.469V98.88H286.525ZM288.337 102.336C287.649 102.336 287.173 102.532 286.909 102.924C286.653 103.316 286.525 103.924 286.525 104.748V104.796C286.525 105.588 286.653 106.196 286.909 106.62C287.173 107.036 287.657 107.244 288.361 107.244C288.937 107.244 289.365 107.032 289.645 106.608C289.933 106.184 290.077 105.572 290.077 104.772C290.077 103.148 289.497 102.336 288.337 102.336ZM295.336 101.448C295.88 101.448 296.352 101.568 296.752 101.808C297.152 102.048 297.456 102.388 297.664 102.828C297.88 103.26 297.988 103.768 297.988 104.352V104.988H293.584C293.6 105.716 293.784 106.272 294.136 106.656C294.496 107.032 294.996 107.22 295.636 107.22C296.044 107.22 296.404 107.184 296.716 107.112C297.036 107.032 297.364 106.92 297.7 106.776V107.7C297.372 107.844 297.048 107.948 296.728 108.012C296.408 108.084 296.028 108.12 295.588 108.12C294.972 108.12 294.432 107.996 293.968 107.748C293.504 107.5 293.14 107.132 292.876 106.644C292.62 106.156 292.492 105.552 292.492 104.832C292.492 104.128 292.608 103.524 292.84 103.02C293.08 102.516 293.412 102.128 293.836 101.856C294.268 101.584 294.768 101.448 295.336 101.448ZM295.324 102.312C294.82 102.312 294.42 102.476 294.124 102.804C293.836 103.124 293.664 103.572 293.608 104.148H296.884C296.876 103.604 296.748 103.164 296.5 102.828C296.252 102.484 295.86 102.312 295.324 102.312ZM302.625 101.448C302.745 101.448 302.873 101.456 303.009 101.472C303.145 101.48 303.269 101.496 303.381 101.52L303.249 102.492C303.145 102.468 303.029 102.448 302.901 102.432C302.773 102.416 302.657 102.408 302.553 102.408C302.225 102.408 301.917 102.5 301.629 102.684C301.341 102.86 301.109 103.112 300.933 103.44C300.765 103.76 300.681 104.136 300.681 104.568V108H299.625V101.568H300.489L300.609 102.744H300.657C300.857 102.392 301.121 102.088 301.449 101.832C301.785 101.576 302.177 101.448 302.625 101.448ZM303.712 107.352C303.712 107.056 303.784 106.848 303.928 106.728C304.072 106.608 304.244 106.548 304.444 106.548C304.644 106.548 304.82 106.608 304.972 106.728C305.124 106.848 305.2 107.056 305.2 107.352C305.2 107.64 305.124 107.848 304.972 107.976C304.82 108.104 304.644 108.168 304.444 108.168C304.244 108.168 304.072 108.104 303.928 107.976C303.784 107.848 303.712 107.64 303.712 107.352ZM309.359 101.448C309.783 101.448 310.163 101.528 310.499 101.688C310.843 101.848 311.135 102.092 311.375 102.42H311.435L311.579 101.568H312.419V108.108C312.419 109.028 312.183 109.72 311.711 110.184C311.247 110.648 310.523 110.88 309.539 110.88C308.595 110.88 307.823 110.744 307.223 110.472V109.5C307.855 109.836 308.647 110.004 309.599 110.004C310.151 110.004 310.583 109.84 310.895 109.512C311.215 109.192 311.375 108.752 311.375 108.192V107.94C311.375 107.844 311.379 107.708 311.387 107.532C311.395 107.348 311.403 107.22 311.411 107.148H311.363C310.931 107.796 310.267 108.12 309.371 108.12C308.539 108.12 307.887 107.828 307.415 107.244C306.951 106.66 306.719 105.844 306.719 104.796C306.719 103.772 306.951 102.96 307.415 102.36C307.887 101.752 308.535 101.448 309.359 101.448ZM309.503 102.336C308.967 102.336 308.551 102.552 308.255 102.984C307.959 103.408 307.811 104.016 307.811 104.808C307.811 105.6 307.955 106.208 308.243 106.632C308.531 107.048 308.959 107.256 309.527 107.256C310.175 107.256 310.647 107.084 310.943 106.74C311.239 106.388 311.387 105.824 311.387 105.048V104.796C311.387 103.924 311.235 103.296 310.931 102.912C310.627 102.528 310.151 102.336 309.503 102.336ZM320.053 104.772C320.053 105.836 319.781 106.66 319.237 107.244C318.701 107.828 317.973 108.12 317.053 108.12C316.485 108.12 315.977 107.992 315.529 107.736C315.089 107.472 314.741 107.092 314.485 106.596C314.229 106.092 314.101 105.484 314.101 104.772C314.101 103.708 314.365 102.888 314.893 102.312C315.429 101.736 316.161 101.448 317.089 101.448C317.665 101.448 318.177 101.58 318.625 101.844C319.073 102.1 319.421 102.476 319.669 102.972C319.925 103.46 320.053 104.06 320.053 104.772ZM315.193 104.772C315.193 105.532 315.341 106.136 315.637 106.584C315.941 107.024 316.421 107.244 317.077 107.244C317.725 107.244 318.201 107.024 318.505 106.584C318.809 106.136 318.961 105.532 318.961 104.772C318.961 104.012 318.809 103.416 318.505 102.984C318.201 102.552 317.721 102.336 317.065 102.336C316.409 102.336 315.933 102.552 315.637 102.984C315.341 103.416 315.193 104.012 315.193 104.772ZM321.571 107.352C321.571 107.056 321.643 106.848 321.787 106.728C321.931 106.608 322.103 106.548 322.303 106.548C322.503 106.548 322.679 106.608 322.831 106.728C322.983 106.848 323.059 107.056 323.059 107.352C323.059 107.64 322.983 107.848 322.831 107.976C322.679 108.104 322.503 108.168 322.303 108.168C322.103 108.168 321.931 108.104 321.787 107.976C321.643 107.848 321.571 107.64 321.571 107.352ZM325.982 98.88V103.644C325.982 103.772 325.974 103.94 325.958 104.148C325.95 104.356 325.942 104.536 325.934 104.688H325.982C326.03 104.624 326.102 104.532 326.198 104.412C326.294 104.292 326.39 104.172 326.486 104.052C326.59 103.924 326.678 103.82 326.75 103.74L328.802 101.568H330.038L327.434 104.316L330.218 108H328.946L326.714 105L325.982 105.636V108H324.938V98.88H325.982ZM334.348 101.448C334.468 101.448 334.596 101.456 334.732 101.472C334.868 101.48 334.992 101.496 335.104 101.52L334.972 102.492C334.868 102.468 334.752 102.448 334.624 102.432C334.496 102.416 334.38 102.408 334.276 102.408C333.948 102.408 333.64 102.5 333.352 102.684C333.064 102.86 332.832 103.112 332.656 103.44C332.488 103.76 332.404 104.136 332.404 104.568V108H331.348V101.568H332.212L332.332 102.744H332.38C332.58 102.392 332.844 102.088 333.172 101.832C333.508 101.576 333.9 101.448 334.348 101.448Z" fill="white"/>
<rect x="0.5" y="123.5" width="153" height="41" stroke="#9C9C9C"/>
<rect x="153.5" y="123.5" width="197" height="41" stroke="#9C9C9C"/>
<path d="M14.348 142.076V142.892H17.084V142.076H14.348ZM16.52 139.1V147.044H17.516V139.1H16.52ZM10.592 148.88V149.696H17.816V148.88H10.592ZM10.592 146.348V149.3H11.588V146.348H10.592ZM11.36 140.444V141.32C11.36 142.856 10.244 144.296 8.624 144.872L9.14 145.664C10.952 144.992 12.176 143.288 12.176 141.32V140.444H11.36ZM11.552 140.444V141.308C11.552 143.144 12.716 144.776 14.48 145.412L14.984 144.632C13.412 144.08 12.356 142.712 12.356 141.308V140.444H11.552ZM8.936 139.976V140.78H14.732V139.976H8.936ZM22.3151 140.636V142.4C22.3151 144.236 21.0071 146.3 19.4591 147.056L20.0351 147.848C21.7271 146.984 23.1071 144.656 23.1071 142.4V140.636H22.3151ZM22.4951 140.636V142.4C22.4951 144.548 23.8031 146.732 25.5191 147.584L26.0831 146.792C24.5111 146.048 23.2871 144.116 23.2871 142.4V140.636H22.4951ZM19.8431 140.192V141.032H25.6871V140.192H19.8431ZM26.9711 139.088V149.936H27.9791V139.088H26.9711ZM27.7391 143.468V144.308H29.7551V143.468H27.7391ZM38.5981 139.088V149.936H39.5941V139.088H38.5981ZM36.0661 143.432V144.26H39.0421V143.432H36.0661ZM35.1181 140.252V140.42C35.1181 143.252 33.8221 145.556 30.6661 147.104L31.2181 147.884C34.8181 146.084 36.1021 143.348 36.1021 140.252H35.1181ZM31.1341 140.252V141.068H35.6461V140.252H31.1341ZM42.0652 146.516V147.344H42.7852C44.1292 147.344 45.3532 147.308 46.8532 147.044L46.7692 146.216C45.3052 146.468 44.1052 146.516 42.7852 146.516H42.0652ZM42.0412 140.264V141.08H45.1372V143.264H42.0652V146.828H43.0372V144.08H46.1092V140.264H42.0412ZM49.9612 139.088V149.936H50.9212V139.088H49.9612ZM48.1252 143.372V144.188H50.2132V143.372H48.1252ZM47.5012 139.328V149.384H48.4372V139.328H47.5012ZM52.7443 144.812V145.628H62.5723V144.812H52.7443ZM57.2323 145.22V147.716H58.2283V145.22H57.2323ZM53.9923 148.88V149.696H61.4803V148.88H53.9923ZM53.9923 146.756V149.192H54.9763V146.756H53.9923ZM54.0523 139.424V143.768H61.2763V139.424H60.2803V140.804H55.0363V139.424H54.0523ZM55.0363 141.584H60.2803V142.964H55.0363V141.584ZM66.0273 140.408V141.284C66.0273 142.628 65.2473 143.996 63.8313 144.596L64.3593 145.364C65.9553 144.668 66.8193 143.024 66.8193 141.284V140.408H66.0273ZM66.2073 140.408V141.284C66.2073 142.976 67.0113 144.44 68.5593 145.076L69.0873 144.308C67.7313 143.78 66.9873 142.592 66.9873 141.284V140.408H66.2073ZM64.0473 139.988V140.804H68.8953V139.988H64.0473ZM71.9793 139.1V145.736H72.9273V139.1H71.9793ZM70.2513 141.968V142.784H72.3033V141.968H70.2513ZM69.6753 139.304V145.388H70.6113V139.304H69.6753ZM69.3633 145.988C67.1193 145.988 65.7513 146.708 65.7513 147.956C65.7513 149.192 67.1193 149.912 69.3633 149.912C71.5953 149.912 72.9873 149.192 72.9873 147.956C72.9873 146.708 71.5953 145.988 69.3633 145.988ZM69.3633 146.768C70.9953 146.768 71.9913 147.2 71.9913 147.956C71.9913 148.7 70.9953 149.132 69.3633 149.132C67.7313 149.132 66.7233 148.7 66.7233 147.956C66.7233 147.2 67.7313 146.768 69.3633 146.768ZM74.8344 147.716V148.544H84.6624V147.716H74.8344ZM79.2504 145.088V147.992H80.2344V145.088H79.2504ZM79.2264 140.456V141.128C79.2264 142.844 77.1744 144.368 75.3024 144.68L75.7104 145.472C77.8464 145.028 80.0664 143.348 80.0664 141.128V140.456H79.2264ZM79.4064 140.456V141.128C79.4064 143.348 81.6384 145.004 83.8104 145.436L84.2064 144.644C82.3104 144.332 80.2464 142.844 80.2464 141.128V140.456H79.4064ZM75.6384 140.072V140.888H83.8344V140.072H75.6384ZM91.6574 141.896V142.724H94.1054V141.896H91.6574ZM93.7934 139.088V145.556H94.7894V139.088H93.7934ZM91.2254 145.88C88.9814 145.88 87.6014 146.636 87.6014 147.908C87.6014 149.192 88.9814 149.924 91.2254 149.924C93.4574 149.924 94.8374 149.192 94.8374 147.908C94.8374 146.636 93.4574 145.88 91.2254 145.88ZM91.2254 146.66C92.8574 146.66 93.8534 147.116 93.8534 147.908C93.8534 148.688 92.8574 149.144 91.2254 149.144C89.5934 149.144 88.5974 148.688 88.5974 147.908C88.5974 147.116 89.5934 146.66 91.2254 146.66ZM88.6334 140.18V141.056C88.6334 142.616 87.5174 144.068 85.9094 144.656L86.4254 145.448C88.2254 144.776 89.4494 143.06 89.4494 141.056V140.18H88.6334ZM88.8254 140.18V141.056C88.8254 142.88 89.9894 144.512 91.7534 145.148L92.2574 144.356C90.6854 143.804 89.6294 142.46 89.6294 141.056V140.18H88.8254ZM86.2094 139.88V140.696H92.0054V139.88H86.2094ZM100.453 139.592C98.8445 139.592 97.6925 140.492 97.6925 141.824C97.6925 143.144 98.8445 144.068 100.453 144.068C102.073 144.068 103.225 143.144 103.225 141.824C103.225 140.492 102.073 139.592 100.453 139.592ZM100.453 140.42C101.509 140.42 102.265 140.996 102.265 141.824C102.265 142.664 101.509 143.228 100.453 143.228C99.3965 143.228 98.6405 142.664 98.6405 141.824C98.6405 140.996 99.3965 140.42 100.453 140.42ZM100.009 145.268V149.6H101.005V145.268H100.009ZM104.809 139.088V149.948H105.793V139.088H104.809ZM97.0205 145.808C99.0005 145.808 101.665 145.772 104.113 145.328L104.041 144.584C101.653 144.944 98.9045 144.968 96.8885 144.968L97.0205 145.808ZM111.024 144.548V146.96H112.02V144.548H111.024ZM115.836 139.088V147.344H116.832V139.088H115.836ZM109.428 148.88V149.696H117.096V148.88H109.428ZM109.428 146.54V149.108H110.424V146.54H109.428ZM108.024 144.92C109.992 144.92 112.62 144.884 114.96 144.512L114.888 143.78C112.584 144.08 109.896 144.104 107.892 144.104L108.024 144.92ZM113.628 145.496V146.228H116.088V145.496H113.628ZM111.42 139.532C109.824 139.532 108.744 140.276 108.744 141.416C108.744 142.568 109.824 143.312 111.42 143.312C113.004 143.312 114.084 142.568 114.084 141.416C114.084 140.276 113.004 139.532 111.42 139.532ZM111.42 140.276C112.428 140.276 113.136 140.72 113.136 141.416C113.136 142.112 112.428 142.556 111.42 142.556C110.4 142.556 109.692 142.112 109.692 141.416C109.692 140.72 110.4 140.276 111.42 140.276ZM122.075 145.592V147.38H123.083V145.592H122.075ZM126.827 139.088V149.936H127.823V139.088H126.827ZM119.183 147.872C121.187 147.872 123.803 147.848 126.215 147.44L126.143 146.708C123.803 147.008 121.103 147.032 119.051 147.044L119.183 147.872ZM119.279 140.408V141.212H125.867V140.408H119.279ZM122.567 141.836C121.019 141.836 119.963 142.628 119.963 143.84C119.963 145.064 121.019 145.844 122.567 145.844C124.127 145.844 125.183 145.064 125.183 143.84C125.183 142.628 124.127 141.836 122.567 141.836ZM122.567 142.604C123.551 142.604 124.235 143.096 124.235 143.84C124.235 144.584 123.551 145.076 122.567 145.076C121.595 145.076 120.911 144.584 120.911 143.84C120.911 143.096 121.595 142.604 122.567 142.604ZM122.075 139.088V140.852H123.071V139.088H122.075Z" fill="white"/>
<path d="M165.905 148H164.959V142.511C164.959 142.196 164.963 141.943 164.97 141.752C164.977 141.561 164.988 141.363 165.003 141.158C164.886 141.275 164.776 141.374 164.673 141.455C164.578 141.536 164.46 141.638 164.321 141.763L163.485 142.445L162.979 141.796L165.102 140.146H165.905V148ZM168.9 144.645C168.9 144.08 168.948 143.527 169.043 142.984C169.146 142.434 169.325 141.939 169.582 141.499C169.846 141.052 170.213 140.696 170.682 140.432C171.151 140.168 171.756 140.036 172.497 140.036C172.651 140.036 172.82 140.043 173.003 140.058C173.194 140.073 173.348 140.098 173.465 140.135V140.96C173.333 140.916 173.183 140.883 173.014 140.861C172.845 140.839 172.68 140.828 172.519 140.828C172.013 140.828 171.591 140.912 171.254 141.081C170.917 141.25 170.649 141.481 170.451 141.774C170.26 142.067 170.121 142.405 170.033 142.786C169.945 143.167 169.89 143.574 169.868 144.007H169.934C170.103 143.75 170.337 143.534 170.638 143.358C170.939 143.175 171.324 143.083 171.793 143.083C172.475 143.083 173.025 143.292 173.443 143.71C173.861 144.121 174.07 144.707 174.07 145.47C174.07 146.291 173.843 146.937 173.388 147.406C172.941 147.875 172.336 148.11 171.573 148.11C171.074 148.11 170.623 147.985 170.22 147.736C169.817 147.487 169.494 147.105 169.252 146.592C169.017 146.079 168.9 145.43 168.9 144.645ZM171.562 147.296C172.024 147.296 172.398 147.149 172.684 146.856C172.97 146.555 173.113 146.093 173.113 145.47C173.113 144.971 172.985 144.575 172.728 144.282C172.479 143.989 172.101 143.842 171.595 143.842C171.25 143.842 170.95 143.915 170.693 144.062C170.436 144.201 170.235 144.385 170.088 144.612C169.949 144.832 169.879 145.056 169.879 145.283C169.879 145.598 169.941 145.914 170.066 146.229C170.191 146.537 170.378 146.794 170.627 146.999C170.876 147.197 171.188 147.296 171.562 147.296ZM175.195 144.645C175.195 144.08 175.243 143.527 175.338 142.984C175.441 142.434 175.62 141.939 175.877 141.499C176.141 141.052 176.508 140.696 176.977 140.432C177.446 140.168 178.051 140.036 178.792 140.036C178.946 140.036 179.115 140.043 179.298 140.058C179.489 140.073 179.643 140.098 179.76 140.135V140.96C179.628 140.916 179.478 140.883 179.309 140.861C179.14 140.839 178.975 140.828 178.814 140.828C178.308 140.828 177.886 140.912 177.549 141.081C177.212 141.25 176.944 141.481 176.746 141.774C176.555 142.067 176.416 142.405 176.328 142.786C176.24 143.167 176.185 143.574 176.163 144.007H176.229C176.398 143.75 176.632 143.534 176.933 143.358C177.234 143.175 177.619 143.083 178.088 143.083C178.77 143.083 179.32 143.292 179.738 143.71C180.156 144.121 180.365 144.707 180.365 145.47C180.365 146.291 180.138 146.937 179.683 147.406C179.236 147.875 178.631 148.11 177.868 148.11C177.369 148.11 176.918 147.985 176.515 147.736C176.112 147.487 175.789 147.105 175.547 146.592C175.312 146.079 175.195 145.43 175.195 144.645ZM177.857 147.296C178.319 147.296 178.693 147.149 178.979 146.856C179.265 146.555 179.408 146.093 179.408 145.47C179.408 144.971 179.28 144.575 179.023 144.282C178.774 143.989 178.396 143.842 177.89 143.842C177.545 143.842 177.245 143.915 176.988 144.062C176.731 144.201 176.53 144.385 176.383 144.612C176.244 144.832 176.174 145.056 176.174 145.283C176.174 145.598 176.236 145.914 176.361 146.229C176.486 146.537 176.673 146.794 176.922 146.999C177.171 147.197 177.483 147.296 177.857 147.296ZM184.79 148H183.844V142.511C183.844 142.196 183.847 141.943 183.855 141.752C183.862 141.561 183.873 141.363 183.888 141.158C183.77 141.275 183.66 141.374 183.558 141.455C183.462 141.536 183.345 141.638 183.206 141.763L182.37 142.445L181.864 141.796L183.987 140.146H184.79V148ZM187.62 145.481V144.623H190.282V145.481H187.62ZM193.75 143.182C194.549 143.182 195.187 143.384 195.664 143.787C196.148 144.19 196.39 144.759 196.39 145.492C196.39 146.306 196.129 146.948 195.609 147.417C195.095 147.879 194.377 148.11 193.453 148.11C193.042 148.11 192.661 148.073 192.309 148C191.957 147.927 191.66 147.82 191.418 147.681V146.768C191.682 146.929 192.001 147.058 192.375 147.153C192.756 147.241 193.119 147.285 193.464 147.285C194.043 147.285 194.509 147.149 194.861 146.878C195.22 146.599 195.4 146.17 195.4 145.591C195.4 145.078 195.242 144.685 194.927 144.414C194.611 144.135 194.113 143.996 193.431 143.996C193.225 143.996 192.991 144.014 192.727 144.051C192.463 144.088 192.25 144.124 192.089 144.161L191.605 143.853L191.902 140.146H195.84V141.026H192.727L192.54 143.303C192.664 143.281 192.833 143.255 193.046 143.226C193.258 143.197 193.493 143.182 193.75 143.182ZM198.516 148L201.739 141.026H197.504V140.146H202.773V140.894L199.583 148H198.516ZM207.219 148H206.273V142.511C206.273 142.196 206.277 141.943 206.284 141.752C206.292 141.561 206.303 141.363 206.317 141.158C206.2 141.275 206.09 141.374 205.987 141.455C205.892 141.536 205.775 141.638 205.635 141.763L204.799 142.445L204.293 141.796L206.416 140.146H207.219V148ZM215.681 146.218H214.537V148H213.602V146.218H209.84V145.393L213.536 140.102H214.537V145.349H215.681V146.218ZM213.602 145.349V142.874C213.602 142.493 213.606 142.17 213.613 141.906C213.628 141.635 213.643 141.378 213.657 141.136H213.613C213.555 141.275 213.481 141.426 213.393 141.587C213.305 141.748 213.221 141.884 213.14 141.994L210.786 145.349H213.602ZM219.886 140.146L216.96 148H216.014L218.94 140.146H219.886ZM221.9 139.64V142.093C221.9 142.386 221.882 142.661 221.845 142.918H221.911C222.102 142.617 222.358 142.39 222.681 142.236C223.011 142.082 223.367 142.005 223.748 142.005C224.459 142.005 224.995 142.177 225.354 142.522C225.721 142.859 225.904 143.406 225.904 144.161V148H224.947V144.227C224.947 143.281 224.507 142.808 223.627 142.808C222.967 142.808 222.512 142.995 222.263 143.369C222.021 143.736 221.9 144.264 221.9 144.953V148H220.932V139.64H221.9ZM229.701 147.318C229.848 147.318 229.998 147.307 230.152 147.285C230.306 147.263 230.431 147.234 230.526 147.197V147.934C230.423 147.985 230.277 148.026 230.086 148.055C229.895 148.092 229.712 148.11 229.536 148.11C229.228 148.11 228.942 148.059 228.678 147.956C228.421 147.846 228.212 147.659 228.051 147.395C227.89 147.131 227.809 146.761 227.809 146.284V142.852H226.973V142.39L227.82 142.005L228.205 140.751H228.777V142.104H230.482V142.852H228.777V146.262C228.777 146.621 228.861 146.889 229.03 147.065C229.206 147.234 229.43 147.318 229.701 147.318ZM233.675 147.318C233.822 147.318 233.972 147.307 234.126 147.285C234.28 147.263 234.405 147.234 234.5 147.197V147.934C234.398 147.985 234.251 148.026 234.06 148.055C233.87 148.092 233.686 148.11 233.51 148.11C233.202 148.11 232.916 148.059 232.652 147.956C232.396 147.846 232.187 147.659 232.025 147.395C231.864 147.131 231.783 146.761 231.783 146.284V142.852H230.947V142.39L231.794 142.005L232.179 140.751H232.751V142.104H234.456V142.852H232.751V146.262C232.751 146.621 232.836 146.889 233.004 147.065C233.18 147.234 233.404 147.318 233.675 147.318ZM238.486 141.994C239.212 141.994 239.795 142.247 240.235 142.753C240.682 143.259 240.906 144.022 240.906 145.041C240.906 146.046 240.682 146.808 240.235 147.329C239.795 147.85 239.208 148.11 238.475 148.11C238.02 148.11 237.643 148.026 237.342 147.857C237.049 147.688 236.818 147.487 236.649 147.252H236.583C236.59 147.377 236.601 147.534 236.616 147.725C236.638 147.916 236.649 148.081 236.649 148.22V150.64H235.681V142.104H236.473L236.605 142.907H236.649C236.825 142.65 237.056 142.434 237.342 142.258C237.628 142.082 238.009 141.994 238.486 141.994ZM238.31 142.808C237.709 142.808 237.283 142.977 237.034 143.314C236.785 143.651 236.656 144.165 236.649 144.854V145.041C236.649 145.767 236.766 146.328 237.001 146.724C237.243 147.113 237.687 147.307 238.332 147.307C238.684 147.307 238.977 147.212 239.212 147.021C239.447 146.823 239.619 146.552 239.729 146.207C239.846 145.862 239.905 145.47 239.905 145.03C239.905 144.355 239.773 143.816 239.509 143.413C239.252 143.01 238.853 142.808 238.31 142.808ZM246.288 146.372C246.288 146.944 246.075 147.377 245.65 147.67C245.224 147.963 244.652 148.11 243.934 148.11C243.523 148.11 243.167 148.077 242.867 148.011C242.573 147.945 242.313 147.853 242.086 147.736V146.856C242.32 146.973 242.603 147.083 242.933 147.186C243.27 147.281 243.611 147.329 243.956 147.329C244.447 147.329 244.803 147.252 245.023 147.098C245.243 146.937 245.353 146.724 245.353 146.46C245.353 146.313 245.312 146.181 245.232 146.064C245.151 145.947 245.004 145.829 244.792 145.712C244.586 145.595 244.289 145.463 243.901 145.316C243.519 145.169 243.193 145.023 242.922 144.876C242.65 144.729 242.441 144.553 242.295 144.348C242.148 144.143 242.075 143.879 242.075 143.556C242.075 143.057 242.276 142.672 242.68 142.401C243.09 142.13 243.626 141.994 244.286 141.994C244.645 141.994 244.979 142.031 245.287 142.104C245.602 142.177 245.895 142.273 246.167 142.39L245.837 143.16C245.587 143.057 245.327 142.969 245.056 142.896C244.784 142.823 244.506 142.786 244.22 142.786C243.824 142.786 243.519 142.852 243.307 142.984C243.101 143.109 242.999 143.281 242.999 143.501C242.999 143.67 243.046 143.809 243.142 143.919C243.237 144.029 243.395 144.139 243.615 144.249C243.842 144.359 244.143 144.484 244.517 144.623C244.891 144.762 245.21 144.905 245.474 145.052C245.738 145.199 245.939 145.378 246.079 145.591C246.218 145.796 246.288 146.057 246.288 146.372ZM247.569 142.698C247.569 142.419 247.635 142.225 247.767 142.115C247.899 142.005 248.057 141.95 248.24 141.95C248.424 141.95 248.585 142.005 248.724 142.115C248.864 142.225 248.933 142.419 248.933 142.698C248.933 142.962 248.864 143.153 248.724 143.27C248.585 143.387 248.424 143.446 248.24 143.446C248.057 143.446 247.899 143.387 247.767 143.27C247.635 143.153 247.569 142.962 247.569 142.698ZM247.569 147.406C247.569 147.135 247.635 146.944 247.767 146.834C247.899 146.724 248.057 146.669 248.24 146.669C248.424 146.669 248.585 146.724 248.724 146.834C248.864 146.944 248.933 147.135 248.933 147.406C248.933 147.67 248.864 147.861 248.724 147.978C248.585 148.095 248.424 148.154 248.24 148.154C248.057 148.154 247.899 148.095 247.767 147.978C247.635 147.861 247.569 147.67 247.569 147.406ZM253.703 140.146L250.777 148H249.831L252.757 140.146H253.703ZM257.795 140.146L254.869 148H253.923L256.849 140.146H257.795ZM263.659 147.989L262.647 144.667C262.552 144.366 262.468 144.073 262.394 143.787C262.321 143.501 262.27 143.274 262.24 143.105H262.196C262.167 143.274 262.119 143.501 262.053 143.787C261.987 144.073 261.903 144.37 261.8 144.678L260.744 147.989H259.644L258.027 142.093H259.028L259.842 145.239C259.923 145.554 260 145.873 260.073 146.196C260.147 146.519 260.198 146.786 260.227 146.999H260.271C260.293 146.874 260.326 146.72 260.37 146.537C260.414 146.354 260.462 146.163 260.513 145.965C260.565 145.76 260.616 145.576 260.667 145.415L261.712 142.093H262.768L263.78 145.415C263.854 145.672 263.931 145.947 264.011 146.24C264.092 146.533 264.147 146.783 264.176 146.988H264.22C264.242 146.805 264.29 146.552 264.363 146.229C264.444 145.906 264.528 145.576 264.616 145.239L265.441 142.093H266.431L264.792 147.989H263.659ZM272.307 147.989L271.295 144.667C271.199 144.366 271.115 144.073 271.042 143.787C270.968 143.501 270.917 143.274 270.888 143.105H270.844C270.814 143.274 270.767 143.501 270.701 143.787C270.635 144.073 270.55 144.37 270.448 144.678L269.392 147.989H268.292L266.675 142.093H267.676L268.49 145.239C268.57 145.554 268.647 145.873 268.721 146.196C268.794 146.519 268.845 146.786 268.875 146.999H268.919C268.941 146.874 268.974 146.72 269.018 146.537C269.062 146.354 269.109 146.163 269.161 145.965C269.212 145.76 269.263 145.576 269.315 145.415L270.36 142.093H271.416L272.428 145.415C272.501 145.672 272.578 145.947 272.659 146.24C272.739 146.533 272.794 146.783 272.824 146.988H272.868C272.89 146.805 272.937 146.552 273.011 146.229C273.091 145.906 273.176 145.576 273.264 145.239L274.089 142.093H275.079L273.44 147.989H272.307ZM280.954 147.989L279.942 144.667C279.847 144.366 279.763 144.073 279.689 143.787C279.616 143.501 279.565 143.274 279.535 143.105H279.491C279.462 143.274 279.414 143.501 279.348 143.787C279.282 144.073 279.198 144.37 279.095 144.678L278.039 147.989H276.939L275.322 142.093H276.323L277.137 145.239C277.218 145.554 277.295 145.873 277.368 146.196C277.442 146.519 277.493 146.786 277.522 146.999H277.566C277.588 146.874 277.621 146.72 277.665 146.537C277.709 146.354 277.757 146.163 277.808 145.965C277.86 145.76 277.911 145.576 277.962 145.415L279.007 142.093H280.063L281.075 145.415C281.149 145.672 281.226 145.947 281.306 146.24C281.387 146.533 281.442 146.783 281.471 146.988H281.515C281.537 146.805 281.585 146.552 281.658 146.229C281.739 145.906 281.823 145.576 281.911 145.239L282.736 142.093H283.726L282.087 147.989H280.954ZM284.2 147.406C284.2 147.135 284.266 146.944 284.398 146.834C284.53 146.724 284.688 146.669 284.871 146.669C285.055 146.669 285.216 146.724 285.355 146.834C285.495 146.944 285.564 147.135 285.564 147.406C285.564 147.67 285.495 147.861 285.355 147.978C285.216 148.095 285.055 148.154 284.871 148.154C284.688 148.154 284.53 148.095 284.398 147.978C284.266 147.861 284.2 147.67 284.2 147.406ZM289.564 141.994C290.062 141.994 290.495 142.104 290.862 142.324C291.228 142.544 291.507 142.856 291.698 143.259C291.896 143.655 291.995 144.121 291.995 144.656V145.239H287.958C287.972 145.906 288.141 146.416 288.464 146.768C288.794 147.113 289.252 147.285 289.839 147.285C290.213 147.285 290.543 147.252 290.829 147.186C291.122 147.113 291.423 147.01 291.731 146.878V147.725C291.43 147.857 291.133 147.952 290.84 148.011C290.546 148.077 290.198 148.11 289.795 148.11C289.23 148.11 288.735 147.996 288.31 147.769C287.884 147.542 287.551 147.204 287.309 146.757C287.074 146.31 286.957 145.756 286.957 145.096C286.957 144.451 287.063 143.897 287.276 143.435C287.496 142.973 287.8 142.617 288.189 142.368C288.585 142.119 289.043 141.994 289.564 141.994ZM289.553 142.786C289.091 142.786 288.724 142.936 288.453 143.237C288.189 143.53 288.031 143.941 287.98 144.469H290.983C290.975 143.97 290.858 143.567 290.631 143.259C290.403 142.944 290.044 142.786 289.553 142.786ZM295.861 148.11C295.333 148.11 294.867 148.004 294.464 147.791C294.06 147.578 293.741 147.248 293.507 146.801C293.279 146.354 293.166 145.782 293.166 145.085C293.166 144.359 293.283 143.769 293.518 143.314C293.76 142.859 294.09 142.526 294.508 142.313C294.926 142.1 295.399 141.994 295.927 141.994C296.22 141.994 296.506 142.027 296.785 142.093C297.071 142.152 297.302 142.225 297.478 142.313L297.181 143.116C297.005 143.05 296.799 142.988 296.565 142.929C296.33 142.87 296.11 142.841 295.905 142.841C294.746 142.841 294.167 143.585 294.167 145.074C294.167 145.785 294.306 146.332 294.585 146.713C294.871 147.087 295.292 147.274 295.85 147.274C296.165 147.274 296.447 147.241 296.697 147.175C296.946 147.109 297.173 147.028 297.379 146.933V147.791C297.181 147.894 296.961 147.971 296.719 148.022C296.484 148.081 296.198 148.11 295.861 148.11ZM305.249 141.994C305.916 141.994 306.415 142.166 306.745 142.511C307.075 142.856 307.24 143.406 307.24 144.161V148H306.283V144.205C306.283 143.274 305.883 142.808 305.084 142.808C304.512 142.808 304.101 142.973 303.852 143.303C303.61 143.633 303.489 144.113 303.489 144.744V148H302.532V144.205C302.532 143.274 302.128 142.808 301.322 142.808C300.728 142.808 300.317 142.991 300.09 143.358C299.862 143.725 299.749 144.253 299.749 144.942V148H298.781V142.104H299.562L299.705 142.907H299.76C299.943 142.599 300.189 142.372 300.497 142.225C300.812 142.071 301.146 141.994 301.498 141.994C302.422 141.994 303.023 142.324 303.302 142.984H303.357C303.555 142.647 303.822 142.397 304.16 142.236C304.497 142.075 304.86 141.994 305.249 141.994ZM311.426 148.11C310.898 148.11 310.432 148.004 310.029 147.791C309.626 147.578 309.307 147.248 309.072 146.801C308.845 146.354 308.731 145.782 308.731 145.085C308.731 144.359 308.848 143.769 309.083 143.314C309.325 142.859 309.655 142.526 310.073 142.313C310.491 142.1 310.964 141.994 311.492 141.994C311.785 141.994 312.071 142.027 312.35 142.093C312.636 142.152 312.867 142.225 313.043 142.313L312.746 143.116C312.57 143.05 312.365 142.988 312.13 142.929C311.895 142.87 311.675 142.841 311.47 142.841C310.311 142.841 309.732 143.585 309.732 145.074C309.732 145.785 309.871 146.332 310.15 146.713C310.436 147.087 310.858 147.274 311.415 147.274C311.73 147.274 312.013 147.241 312.262 147.175C312.511 147.109 312.739 147.028 312.944 146.933V147.791C312.746 147.894 312.526 147.971 312.284 148.022C312.049 148.081 311.763 148.11 311.426 148.11ZM314.203 147.406C314.203 147.135 314.269 146.944 314.401 146.834C314.533 146.724 314.691 146.669 314.874 146.669C315.057 146.669 315.219 146.724 315.358 146.834C315.497 146.944 315.567 147.135 315.567 147.406C315.567 147.67 315.497 147.861 315.358 147.978C315.219 148.095 315.057 148.154 314.874 148.154C314.691 148.154 314.533 148.095 314.401 147.978C314.269 147.861 314.203 147.67 314.203 147.406ZM322.415 145.041C322.415 146.016 322.166 146.772 321.667 147.307C321.176 147.842 320.509 148.11 319.665 148.11C319.145 148.11 318.679 147.993 318.268 147.758C317.865 147.516 317.546 147.168 317.311 146.713C317.077 146.251 316.959 145.694 316.959 145.041C316.959 144.066 317.201 143.314 317.685 142.786C318.177 142.258 318.848 141.994 319.698 141.994C320.226 141.994 320.696 142.115 321.106 142.357C321.517 142.592 321.836 142.936 322.063 143.391C322.298 143.838 322.415 144.388 322.415 145.041ZM317.96 145.041C317.96 145.738 318.096 146.291 318.367 146.702C318.646 147.105 319.086 147.307 319.687 147.307C320.281 147.307 320.718 147.105 320.996 146.702C321.275 146.291 321.414 145.738 321.414 145.041C321.414 144.344 321.275 143.798 320.996 143.402C320.718 143.006 320.278 142.808 319.676 142.808C319.075 142.808 318.639 143.006 318.367 143.402C318.096 143.798 317.96 144.344 317.96 145.041ZM326.7 141.994C326.81 141.994 326.927 142.001 327.052 142.016C327.176 142.023 327.29 142.038 327.393 142.06L327.272 142.951C327.176 142.929 327.07 142.911 326.953 142.896C326.835 142.881 326.729 142.874 326.634 142.874C326.333 142.874 326.051 142.958 325.787 143.127C325.523 143.288 325.31 143.519 325.149 143.82C324.995 144.113 324.918 144.458 324.918 144.854V148H323.95V142.104H324.742L324.852 143.182H324.896C325.079 142.859 325.321 142.581 325.622 142.346C325.93 142.111 326.289 141.994 326.7 141.994ZM327.695 147.406C327.695 147.135 327.761 146.944 327.893 146.834C328.025 146.724 328.183 146.669 328.366 146.669C328.55 146.669 328.711 146.724 328.85 146.834C328.99 146.944 329.059 147.135 329.059 147.406C329.059 147.67 328.99 147.861 328.85 147.978C328.711 148.095 328.55 148.154 328.366 148.154C328.183 148.154 328.025 148.095 327.893 147.978C327.761 147.861 327.695 147.67 327.695 147.406ZM331.739 139.64V144.007C331.739 144.124 331.731 144.278 331.717 144.469C331.709 144.66 331.702 144.825 331.695 144.964H331.739C331.783 144.905 331.849 144.821 331.937 144.711C332.025 144.601 332.113 144.491 332.201 144.381C332.296 144.264 332.377 144.168 332.443 144.095L334.324 142.104H335.457L333.07 144.623L335.622 148H334.456L332.41 145.25L331.739 145.833V148H330.782V139.64H331.739ZM339.408 141.994C339.518 141.994 339.635 142.001 339.76 142.016C339.884 142.023 339.998 142.038 340.101 142.06L339.98 142.951C339.884 142.929 339.778 142.911 339.661 142.896C339.543 142.881 339.437 142.874 339.342 142.874C339.041 142.874 338.759 142.958 338.495 143.127C338.231 143.288 338.018 143.519 337.857 143.82C337.703 144.113 337.626 144.458 337.626 144.854V148H336.658V142.104H337.45L337.56 143.182H337.604C337.787 142.859 338.029 142.581 338.33 142.346C338.638 142.111 338.997 141.994 339.408 141.994Z" fill="white"/>
</svg>
