<svg width="99" height="32" viewBox="0 0 99 32" fill="none" xmlns="http://www.w3.org/2000/svg">
<rect width="99" height="32" rx="4" fill="#F5F5F5"/>
<path d="M19.9269 16.42L15.5917 10H12V22H15.7655V15.58L20.091 22H23.6827V10H19.9269V16.42Z" fill="#3EC62A"/>
<path d="M28.9 11.012V17.468H30.484V11.012H28.9ZM28.9 17.06V18.416H29.68C31.096 18.416 32.296 18.368 33.628 18.08L33.424 16.748C32.14 17.012 31.024 17.06 29.68 17.06H28.9ZM36.532 9.956V21.068H38.056V9.956H36.532ZM31.996 13.46V14.744H34.528V13.46H31.996ZM34.18 10.148V20.576H35.668V10.148H34.18ZM47.1391 9.944V21.092H48.7471V9.944H47.1391ZM42.7591 10.724C41.0791 10.724 39.8431 12.26 39.8431 14.684C39.8431 17.132 41.0791 18.668 42.7591 18.668C44.4391 18.668 45.6751 17.132 45.6751 14.684C45.6751 12.26 44.4391 10.724 42.7591 10.724ZM42.7591 12.176C43.5871 12.176 44.1391 13.052 44.1391 14.684C44.1391 16.34 43.5871 17.228 42.7591 17.228C41.9311 17.228 41.3671 16.34 41.3671 14.684C41.3671 13.052 41.9311 12.176 42.7591 12.176ZM58.2981 9.944V21.092H59.8821V9.944H58.2981ZM55.7781 13.856V15.14H58.7541V13.856H55.7781ZM50.9661 10.82V18.476H56.3061V10.82H54.7341V13.508H52.5501V10.82H50.9661ZM52.5501 14.744H54.7341V17.192H52.5501V14.744ZM69.1304 12.404V13.688H70.9784V12.404H69.1304ZM69.1304 15.836V17.132H70.9784V15.836H69.1304ZM72.7424 9.956V21.068H74.2664V9.956H72.7424ZM70.5224 10.124V20.564H72.0104V10.124H70.5224ZM67.2104 10.736C65.7464 10.736 64.8104 12.26 64.8104 14.768C64.8104 17.288 65.7464 18.812 67.2104 18.812C68.6864 18.812 69.6344 17.288 69.6344 14.768C69.6344 12.26 68.6864 10.736 67.2104 10.736ZM67.2104 12.236C67.8344 12.236 68.1944 13.076 68.1944 14.768C68.1944 16.472 67.8344 17.3 67.2104 17.3C66.5984 17.3 66.2384 16.472 66.2384 14.768C66.2384 13.076 66.5984 12.236 67.2104 12.236ZM84.0094 11.396V12.704H85.9294V11.396H84.0094ZM84.0094 13.808V15.116H85.9294V13.808H84.0094ZM82.9054 9.956V16.508H84.5014V9.956H82.9054ZM77.0854 16.964V18.236H82.9054V21.068H84.5014V16.964H77.0854ZM78.8494 10.556C77.1334 10.556 75.8254 11.696 75.8254 13.28C75.8254 14.864 77.1334 15.992 78.8494 15.992C80.5654 15.992 81.8734 14.864 81.8734 13.28C81.8734 11.696 80.5654 10.556 78.8494 10.556ZM78.8494 11.912C79.6894 11.912 80.3134 12.404 80.3134 13.28C80.3134 14.156 79.6894 14.66 78.8494 14.66C78.0094 14.66 77.3854 14.156 77.3854 13.28C77.3854 12.404 78.0094 11.912 78.8494 11.912Z" fill="#333333"/>
</svg>
