<svg width="24" height="14" viewBox="0 0 24 14" fill="none" xmlns="http://www.w3.org/2000/svg">
<path fill-rule="evenodd" clip-rule="evenodd" d="M14.7639 0H0V14H14.7639C15.3132 13.463 16.1115 13.125 17 13.125C17.8885 13.125 18.6868 13.463 19.2361 14H24V0H19.2361C18.6868 0.537031 17.8885 0.875 17 0.875C16.1115 0.875 15.3132 0.537031 14.7639 0Z" fill="#333333"/>
<path d="M5.809 7.102C5.347 7.102 4.969 6.946 4.675 6.634C4.387 6.316 4.243 5.893 4.243 5.365C4.243 4.837 4.387 4.417 4.675 4.105C4.969 3.787 5.347 3.628 5.809 3.628C6.271 3.628 6.646 3.787 6.934 4.105C7.222 4.417 7.366 4.837 7.366 5.365C7.366 5.893 7.222 6.316 6.934 6.634C6.646 6.946 6.271 7.102 5.809 7.102ZM9.562 3.7H10.633L6.331 10H5.26L9.562 3.7ZM5.809 6.364C6.013 6.364 6.172 6.28 6.286 6.112C6.406 5.944 6.466 5.695 6.466 5.365C6.466 5.035 6.406 4.786 6.286 4.618C6.172 4.45 6.013 4.366 5.809 4.366C5.611 4.366 5.452 4.453 5.332 4.627C5.212 4.795 5.152 5.041 5.152 5.365C5.152 5.689 5.212 5.938 5.332 6.112C5.452 6.28 5.611 6.364 5.809 6.364ZM10.084 10.072C9.784 10.072 9.514 10.003 9.274 9.865C9.04 9.721 8.857 9.517 8.725 9.253C8.593 8.989 8.527 8.683 8.527 8.335C8.527 7.987 8.593 7.681 8.725 7.417C8.857 7.153 9.04 6.952 9.274 6.814C9.514 6.67 9.784 6.598 10.084 6.598C10.546 6.598 10.921 6.757 11.209 7.075C11.503 7.387 11.65 7.807 11.65 8.335C11.65 8.863 11.503 9.286 11.209 9.604C10.921 9.916 10.546 10.072 10.084 10.072ZM10.084 9.334C10.288 9.334 10.447 9.25 10.561 9.082C10.681 8.908 10.741 8.659 10.741 8.335C10.741 8.011 10.681 7.765 10.561 7.597C10.447 7.423 10.288 7.336 10.084 7.336C9.886 7.336 9.727 7.42 9.607 7.588C9.487 7.756 9.427 8.005 9.427 8.335C9.427 8.665 9.487 8.914 9.607 9.082C9.727 9.25 9.886 9.334 10.084 9.334Z" fill="white"/>
<path d="M17 0V14" stroke="white" stroke-dasharray="1 1"/>
</svg>
