<svg width="53" height="42" viewBox="0 0 53 42" fill="none" xmlns="http://www.w3.org/2000/svg">
<rect x="0.990356" width="51.9957" height="42" fill="white"/>
<path fill-rule="evenodd" clip-rule="evenodd" d="M25.7386 22C26.567 22 27.2386 21.3284 27.2386 20.5C27.2386 19.6716 26.567 19 25.7386 19C24.9102 19 24.2386 19.6716 24.2386 20.5C24.2386 21.3284 24.9102 22 25.7386 22ZM25.7386 24C27.6716 24 29.2386 22.433 29.2386 20.5C29.2386 18.567 27.6716 17 25.7386 17C23.8056 17 22.2386 18.567 22.2386 20.5C22.2386 22.433 23.8056 24 25.7386 24ZM17.739 25H18.739H29.739V27H19.739V34H17.739V26V25ZM36.0256 30.8509C36.1508 30.8648 36.2766 30.8883 36.402 30.9219C37.7408 31.2807 38.5354 32.6569 38.1767 33.9957C37.818 35.3346 36.4418 36.1291 35.103 35.7704C33.7641 35.4116 32.9695 34.0354 33.3283 32.6965C33.4638 32.1905 33.7448 31.7622 34.1141 31.4445L33.6611 29.7538L32.3929 31.0221C32.5155 31.4463 32.5276 31.9083 32.405 32.366C32.0463 33.7049 30.6701 34.4994 29.3313 34.1406C27.9924 33.7818 27.1979 32.4056 27.5566 31.0667C27.9153 29.7279 29.2915 28.9333 30.6303 29.2921C30.7998 29.3375 30.9606 29.3993 31.1114 29.4752L33.0634 27.523L31.7128 22.4821L33.6447 21.9644L34.6964 25.8899L37.9201 22.6659L39.3343 24.0801L35.2941 28.1207L36.0256 30.8509ZM29.8489 32.2087C30.1208 32.2816 30.4003 32.1202 30.4732 31.8483C30.546 31.5764 30.3847 31.2969 30.1127 31.224C29.8408 31.1511 29.5613 31.3125 29.4884 31.5844C29.4156 31.8564 29.5769 32.1359 29.8489 32.2087ZM35.6206 33.8385C35.8925 33.9114 36.172 33.75 36.2448 33.4781C36.3177 33.2061 36.1563 32.9266 35.8844 32.8537C35.6125 32.7809 35.333 32.9423 35.2601 33.2142C35.1872 33.4861 35.3486 33.7656 35.6206 33.8385Z" fill="#333333"/>
</svg>
