<svg width="52" height="42" viewBox="0 0 52 42" fill="none" xmlns="http://www.w3.org/2000/svg">
<rect width="52" height="42" fill="white"/>
<path fill-rule="evenodd" clip-rule="evenodd" d="M27.9728 21C27.9728 22.1046 27.0774 23 25.9728 23C24.8683 23 23.9728 22.1046 23.9728 21C23.9728 19.8954 24.8683 19 25.9728 19C27.0774 19 27.9728 19.8954 27.9728 21ZM29.4728 21C29.4728 22.933 27.9058 24.5 25.9728 24.5C24.0398 24.5 22.4728 22.933 22.4728 21C22.4728 19.067 24.0398 17.5 25.9728 17.5C27.9058 17.5 29.4728 19.067 29.4728 21ZM18.9732 25.75H18.2232V26.5V34.5H19.7232V27.25H32.222V34.5H33.722V26.5V25.75H32.972H18.9732Z" fill="#333333"/>
</svg>
