<svg width="52" height="42" viewBox="0 0 52 42" fill="none" xmlns="http://www.w3.org/2000/svg">
<rect width="51.9957" height="42" fill="white"/>
<path fill-rule="evenodd" clip-rule="evenodd" d="M24.7482 22C25.5767 22 26.2482 21.3284 26.2482 20.5C26.2482 19.6716 25.5767 19 24.7482 19C23.9198 19 23.2482 19.6716 23.2482 20.5C23.2482 21.3284 23.9198 22 24.7482 22ZM24.7482 24C26.6812 24 28.2482 22.433 28.2482 20.5C28.2482 18.567 26.6812 17 24.7482 17C22.8152 17 21.2482 18.567 21.2482 20.5C21.2482 22.433 22.8152 24 24.7482 24ZM16.7486 25H17.7486H28.7486V27H18.7486V34H16.7486V26V25ZM35.0352 30.8509C35.1605 30.8648 35.2862 30.8883 35.4116 30.9219C36.7505 31.2807 37.545 32.6569 37.1863 33.9957C36.8276 35.3346 35.4515 36.1291 34.1126 35.7704C32.7737 35.4116 31.9792 34.0354 32.3379 32.6965C32.4735 32.1905 32.7544 31.7622 33.1238 31.4445L32.6708 29.7538L31.4026 31.0221C31.5251 31.4463 31.5373 31.9083 31.4147 32.366C31.0559 33.7049 29.6798 34.4994 28.3409 34.1406C27.0021 33.7818 26.2075 32.4056 26.5662 31.0667C26.9249 29.7279 28.3011 28.9333 29.64 29.2921C29.8095 29.3375 29.9702 29.3993 30.1211 29.4752L32.0731 27.523L30.7225 22.4821L32.6543 21.9644L33.7061 25.8899L36.9298 22.6659L38.3439 24.0801L34.3037 28.1207L35.0352 30.8509ZM28.8585 32.2087C29.1305 32.2816 29.41 32.1202 29.4828 31.8483C29.5557 31.5764 29.3943 31.2969 29.1224 31.224C28.8504 31.1511 28.5709 31.3125 28.4981 31.5844C28.4252 31.8564 28.5866 32.1359 28.8585 32.2087ZM34.6302 33.8385C34.9021 33.9114 35.1816 33.75 35.2545 33.4781C35.3273 33.2061 35.166 32.9266 34.894 32.8537C34.6221 32.7809 34.3426 32.9423 34.2697 33.2142C34.1969 33.4861 34.3583 33.7656 34.6302 33.8385Z" fill="#333333"/>
</svg>
