<svg width="52" height="42" viewBox="0 0 52 42" fill="none" xmlns="http://www.w3.org/2000/svg">
<rect opacity="0.2" width="51.9957" height="42" fill="white"/>
<path d="M25.424 20.2329L25.9978 20.9146L26.5716 20.2329C27.0884 19.619 27.7288 18.9846 28.4263 18.5091C29.1291 18.0301 29.8343 17.75 30.4975 17.75C33.1548 17.75 35.247 19.854 35.247 22.5638C35.247 24.1718 34.2158 25.9144 32.3737 27.9396C30.9733 29.4791 29.2035 31.0804 27.2802 32.8207C26.8595 33.2013 26.4314 33.5886 25.9983 33.9833C25.5481 33.5722 25.1034 33.1693 24.6667 32.7738C22.7621 31.0483 21.0106 29.4615 19.6218 27.9356C17.7796 25.9116 16.7487 24.1715 16.7487 22.5638C16.7487 19.854 18.8408 17.75 21.4981 17.75C22.1614 17.75 22.8665 18.0301 23.5693 18.5091C24.2668 18.9846 24.9073 19.619 25.424 20.2329Z" fill="#333333" stroke="#333333" stroke-width="1.5"/>
</svg>
