<svg width="52" height="42" viewBox="0 0 52 42" fill="none" xmlns="http://www.w3.org/2000/svg">
<rect width="51.9957" height="42" fill="white"/>
<path fill-rule="evenodd" clip-rule="evenodd" d="M27.9981 21C27.9981 22.1046 27.1027 23 25.9981 23C24.8935 23 23.9981 22.1046 23.9981 21C23.9981 19.8954 24.8935 19 25.9981 19C27.1027 19 27.9981 19.8954 27.9981 21ZM29.4981 21C29.4981 22.933 27.9311 24.5 25.9981 24.5C24.0651 24.5 22.4981 22.933 22.4981 21C22.4981 19.067 24.0651 17.5 25.9981 17.5C27.9311 17.5 29.4981 19.067 29.4981 21ZM18.9985 25.75H18.2485V26.5V34.5H19.7485V27.25H32.2473V34.5H33.7473V26.5V25.75H32.9973H18.9985Z" fill="#333333"/>
</svg>
