<svg width="52" height="42" viewBox="0 0 52 42" fill="none" xmlns="http://www.w3.org/2000/svg">
<rect x="-0.00012207" width="51.9957" height="42" fill="white"/>
<path fill-rule="evenodd" clip-rule="evenodd" d="M24.748 22.5C25.8526 22.5 26.748 21.6046 26.748 20.5C26.748 19.3954 25.8526 18.5 24.748 18.5C23.6435 18.5 22.748 19.3954 22.748 20.5C22.748 21.6046 23.6435 22.5 24.748 22.5ZM24.748 24C26.681 24 28.248 22.433 28.248 20.5C28.248 18.567 26.681 17 24.748 17C22.815 17 21.248 18.567 21.248 20.5C21.248 22.433 22.815 24 24.748 24ZM16.9984 25.25H17.7484H28.7484V26.75H18.4984V34H16.9984V26V25.25ZM34.7722 30.8358C34.9834 30.8368 35.1979 30.8647 35.4115 30.9219C36.7503 31.2807 37.5449 32.6569 37.1861 33.9957C36.8274 35.3346 35.4513 36.1291 34.1124 35.7704C32.7736 35.4116 31.979 34.0354 32.3377 32.6965C32.4985 32.0965 32.8636 31.6058 33.3381 31.2792L32.8 29.2708L31.3108 30.7601C31.5139 31.252 31.5628 31.8122 31.4145 32.366C31.0558 33.7049 29.6796 34.4994 28.3407 34.1406C27.0019 33.7818 26.2073 32.4056 26.566 31.0667C26.9248 29.7279 28.3009 28.9333 29.6398 29.2921C29.8967 29.361 30.1335 29.4673 30.346 29.6036L32.3517 27.5977L30.9638 22.4174L32.4126 22.0291L33.5765 26.3729L37.1064 22.8427L38.167 23.9034L34.0247 28.046L34.7722 30.8358ZM28.7289 32.6917C29.2676 32.8361 29.8213 32.5164 29.9656 31.9777C30.1099 31.4391 29.7902 30.8854 29.2516 30.741C28.7129 30.5967 28.1593 30.9163 28.0149 31.455C27.8706 31.9937 28.1903 32.5474 28.7289 32.6917ZM34.5006 34.3215C35.0393 34.4658 35.5929 34.1462 35.7373 33.6075C35.8816 33.0688 35.5619 32.5151 35.0233 32.3708C34.4846 32.2264 33.9309 32.5461 33.7866 33.0848C33.6423 33.6234 33.962 34.1771 34.5006 34.3215Z" fill="#333333"/>
</svg>
