<svg width="53" height="42" viewBox="0 0 53 42" fill="none" xmlns="http://www.w3.org/2000/svg">
<rect opacity="0.2" x="0.982544" width="51.9957" height="42" fill="white"/>
<path d="M26.4066 20.2329L26.9804 20.9146L27.5542 20.2329C28.0709 19.619 28.7114 18.9846 29.4089 18.5091C30.1117 18.0301 30.8168 17.75 31.48 17.75C34.1374 17.75 36.2295 19.854 36.2295 22.5638C36.2295 24.1718 35.1983 25.9144 33.3562 27.9396C31.9559 29.4791 30.1861 31.0804 28.2627 32.8207C27.842 33.2013 27.414 33.5886 26.9809 33.9833C26.5306 33.5722 26.0859 33.1693 25.6492 32.7737C23.7446 31.0482 21.9931 29.4615 20.6044 27.9356C18.7621 25.9116 17.7312 24.1715 17.7312 22.5638C17.7312 19.854 19.8234 17.75 22.4807 17.75C23.1439 17.75 23.8491 18.0301 24.5519 18.5091C25.2494 18.9846 25.8898 19.619 26.4066 20.2329Z" fill="#333333" stroke="#333333" stroke-width="1.5"/>
</svg>
