<svg width="53" height="52" viewBox="0 0 53 52" fill="none" xmlns="http://www.w3.org/2000/svg">
<rect x="0.990417" width="51.9957" height="52" fill="white"/>
<path fill-rule="evenodd" clip-rule="evenodd" d="M25.7386 22.5C26.8432 22.5 27.7386 21.6046 27.7386 20.5C27.7386 19.3954 26.8432 18.5 25.7386 18.5C24.6341 18.5 23.7386 19.3954 23.7386 20.5C23.7386 21.6046 24.6341 22.5 25.7386 22.5ZM25.7386 24C27.6716 24 29.2386 22.433 29.2386 20.5C29.2386 18.567 27.6716 17 25.7386 17C23.8056 17 22.2386 18.567 22.2386 20.5C22.2386 22.433 23.8056 24 25.7386 24ZM17.989 25.25H18.739H29.739V26.75H19.489V34H17.989V26V25.25ZM35.7628 30.8358C35.974 30.8368 36.1885 30.8647 36.402 30.9219C37.7409 31.2807 38.5354 32.6569 38.1767 33.9957C37.818 35.3346 36.4419 36.1291 35.103 35.7704C33.7641 35.4116 32.9696 34.0354 33.3283 32.6965C33.4891 32.0965 33.8542 31.6058 34.3287 31.2792L33.7906 29.2708L32.3014 30.7601C32.5045 31.252 32.5534 31.8122 32.4051 32.366C32.0463 33.7049 30.6702 34.4994 29.3313 34.1406C27.9925 33.7818 27.1979 32.4056 27.5566 31.0667C27.9154 29.7279 29.2915 28.9333 30.6304 29.2921C30.8873 29.361 31.1241 29.4673 31.3366 29.6036L33.3423 27.5977L31.9544 22.4174L33.4032 22.0291L34.567 26.3729L38.097 22.8427L39.1576 23.9034L35.0153 28.046L35.7628 30.8358ZM29.7195 32.6917C30.2582 32.8361 30.8119 32.5164 30.9562 31.9777C31.1005 31.4391 30.7808 30.8854 30.2422 30.741C29.7035 30.5967 29.1498 30.9163 29.0055 31.455C28.8612 31.9937 29.1809 32.5474 29.7195 32.6917ZM35.4912 34.3215C36.0299 34.4658 36.5835 34.1462 36.7278 33.6075C36.8722 33.0688 36.5525 32.5151 36.0138 32.3708C35.4752 32.2264 34.9215 32.5461 34.7772 33.0848C34.6329 33.6234 34.9525 34.1771 35.4912 34.3215Z" fill="#333333"/>
</svg>
