<svg width="52" height="42" viewBox="0 0 52 42" fill="none" xmlns="http://www.w3.org/2000/svg">
<rect x="-6.10352e-05" width="51.9957" height="42" fill="white"/>
<path fill-rule="evenodd" clip-rule="evenodd" d="M24.7482 22.5C25.8527 22.5 26.7482 21.6046 26.7482 20.5C26.7482 19.3954 25.8527 18.5 24.7482 18.5C23.6436 18.5 22.7482 19.3954 22.7482 20.5C22.7482 21.6046 23.6436 22.5 24.7482 22.5ZM24.7482 24C26.6812 24 28.2482 22.433 28.2482 20.5C28.2482 18.567 26.6812 17 24.7482 17C22.8152 17 21.2482 18.567 21.2482 20.5C21.2482 22.433 22.8152 24 24.7482 24ZM16.9985 25.25H17.7485H28.7485V26.75H18.4985V34H16.9985V26V25.25ZM34.7723 30.8358C34.9835 30.8368 35.198 30.8647 35.4116 30.9219C36.7504 31.2807 37.545 32.6569 37.1863 33.9957C36.8275 35.3346 35.4514 36.1291 34.1125 35.7704C32.7737 35.4116 31.9791 34.0354 32.3378 32.6965C32.4986 32.0965 32.8637 31.6058 33.3382 31.2792L32.8001 29.2708L31.3109 30.7601C31.514 31.252 31.563 31.8122 31.4146 32.366C31.0559 33.7049 29.6797 34.4994 28.3409 34.1406C27.002 33.7818 26.2074 32.4056 26.5662 31.0667C26.9249 29.7279 28.301 28.9333 29.6399 29.2921C29.8968 29.361 30.1336 29.4673 30.3462 29.6036L32.3518 27.5977L30.9639 22.4174L32.4128 22.0291L33.5766 26.3729L37.1065 22.8427L38.1671 23.9034L34.0248 28.046L34.7723 30.8358ZM28.7291 32.6917C29.2677 32.8361 29.8214 32.5164 29.9657 31.9777C30.11 31.4391 29.7904 30.8854 29.2517 30.741C28.713 30.5967 28.1594 30.9163 28.015 31.455C27.8707 31.9937 28.1904 32.5474 28.7291 32.6917ZM34.5007 34.3215C35.0394 34.4658 35.5931 34.1462 35.7374 33.6075C35.8817 33.0688 35.562 32.5151 35.0234 32.3708C34.4847 32.2264 33.931 32.5461 33.7867 33.0848C33.6424 33.6234 33.9621 34.1771 34.5007 34.3215Z" fill="#333333"/>
</svg>
