<svg width="52" height="42" viewBox="0 0 52 42" fill="none" xmlns="http://www.w3.org/2000/svg">
<rect opacity="0.2" x="-6.10352e-05" width="51.9957" height="42" fill="white"/>
<path d="M25.424 20.2329L25.9978 20.9146L26.5716 20.2329C27.0883 19.619 27.7287 18.9846 28.4263 18.5091C29.1291 18.0301 29.8342 17.75 30.4974 17.75C33.1548 17.75 35.2469 19.854 35.2469 22.5638C35.2469 24.1718 34.2157 25.9144 32.3736 27.9396C30.9733 29.4791 29.2035 31.0804 27.2801 32.8207C26.8594 33.2013 26.4314 33.5886 25.9983 33.9833C25.548 33.5722 25.1033 33.1693 24.6666 32.7737C22.762 31.0482 21.0105 29.4615 19.6217 27.9356C17.7795 25.9116 16.7486 24.1715 16.7486 22.5638C16.7486 19.854 18.8408 17.75 21.4981 17.75C22.1613 17.75 22.8665 18.0301 23.5693 18.5091C24.2668 18.9846 24.9072 19.619 25.424 20.2329Z" stroke="#333333" stroke-width="1.5"/>
</svg>
