<svg width="40" height="40" viewBox="0 0 40 40" fill="none" xmlns="http://www.w3.org/2000/svg">
<path d="M19.4262 12.9829L20 13.6645L20.5738 12.9829C21.1996 12.2394 21.9781 11.4675 22.8299 10.887C23.687 10.3029 24.5627 9.94995 25.4001 9.94995C28.6737 9.94995 31.25 12.5437 31.25 15.8765C31.25 17.8668 29.9762 19.9951 27.7627 22.4284C26.0768 24.2817 23.9452 26.2102 21.6356 28.2997C21.0991 28.7851 20.5529 29.2792 20.0005 29.7831C19.4277 29.2596 18.8616 28.7468 18.306 28.2435C16.0188 26.1716 13.9091 24.2605 12.2371 22.4237C10.0235 19.9918 8.75 17.8666 8.75 15.8765C8.75 12.5437 11.3263 9.94995 14.5999 9.94995C15.4373 9.94995 16.313 10.3029 17.1701 10.887C18.0219 11.4675 18.8004 12.2394 19.4262 12.9829Z" stroke="#C1C1C1" stroke-width="1.5"/>
</svg>
