<svg width="56" height="56" viewBox="0 0 56 56" fill="none" xmlns="http://www.w3.org/2000/svg">
<path fill-rule="evenodd" clip-rule="evenodd" d="M40 19L40 37L37.7333 35.3C37.041 34.7807 36.1988 34.5 35.3333 34.5H18C16.8954 34.5 16 33.6046 16 32.5V19C16 17.8954 16.8954 17 18 17H38C39.1046 17 40 17.8954 40 19ZM42 19L42 38.5V41L40 39.5L36.5333 36.9C36.1871 36.6404 35.7661 36.5 35.3333 36.5H18C15.7909 36.5 14 34.7091 14 32.5V19C14 16.7909 15.7909 15 18 15H38C40.2091 15 42 16.7909 42 19ZM22.5 27C23.3284 27 24 26.3284 24 25.5C24 24.6716 23.3284 24 22.5 24C21.6716 24 21 24.6716 21 25.5C21 26.3284 21.6716 27 22.5 27ZM30 25.5C30 26.3284 29.3284 27 28.5 27C27.6716 27 27 26.3284 27 25.5C27 24.6716 27.6716 24 28.5 24C29.3284 24 30 24.6716 30 25.5ZM34.5 27C35.3284 27 36 26.3284 36 25.5C36 24.6716 35.3284 24 34.5 24C33.6716 24 33 24.6716 33 25.5C33 26.3284 33.6716 27 34.5 27Z" fill="#FF3D12"/>
</svg>
