<svg width="140" height="60" viewBox="0 0 140 60" fill="none" xmlns="http://www.w3.org/2000/svg">
<rect width="140" height="60" fill="white"/>
<g clip-path="url(#clip0_3122_3040)">
<path d="M31.1922 21.7689L26.4064 16.9467C25.1436 15.6838 23.0886 15.6838 21.8257 16.9467C20.5628 18.2096 20.5628 20.2646 21.8257 21.5275C22.4372 22.1389 23.2501 22.4759 24.1152 22.4759C24.9803 22.4759 25.7933 22.1389 26.4064 21.5275L27.6502 20.2837L30.1551 22.8199L20 33.1001V43.983H42.3844V33.1001L33.5025 24.1105L32.4585 25.1545L40.9078 33.7081V34.1354H29.8494V25.2292L34.7341 20.2837L35.9779 21.5275C36.5894 22.1389 37.4023 22.4759 38.2691 22.4759C39.136 22.4759 39.9472 22.1389 40.5604 21.5275C41.455 20.6329 41.7121 19.3405 41.3386 18.2131C41.964 17.8552 42.3861 17.183 42.3861 16.4117H40.9113C40.9113 16.6514 40.7688 16.8564 40.5673 16.9537C40.5656 16.9519 40.5639 16.9485 40.5604 16.9467C39.2975 15.6838 37.2425 15.6838 35.9796 16.9467L31.1939 21.7689H31.1922ZM37.0219 17.9907C37.7098 17.3028 38.8285 17.3028 39.5164 17.9907C40.2043 18.6786 40.2043 19.7973 39.5164 20.4852C39.1829 20.8187 38.7399 21.0011 38.2691 21.0011C37.7984 21.0011 37.3554 20.817 37.0219 20.4852L35.7747 19.238L37.0219 17.9907ZM25.3642 20.4852C25.0307 20.8187 24.5877 21.0011 24.1169 21.0011C23.6462 21.0011 23.2032 20.817 22.8697 20.4852C22.1818 19.7973 22.1818 18.6786 22.8697 17.9907C23.2136 17.6468 23.6653 17.4748 24.1169 17.4748C24.5686 17.4748 25.0202 17.6468 25.3642 17.9907L26.6114 19.238L25.3642 20.4852ZM21.4748 33.7063L28.3746 26.7214V34.5645L21.4748 41.4642V33.7063ZM40.9096 42.5082H22.5188L29.4169 35.6102H40.9096V42.5082Z" fill="#007043"/>
<path d="M53.0642 25.9866V34.2935H58.239V36.0462H51.1672V25.9866H53.0642Z" fill="#007043"/>
<path d="M78.0733 31.0746C78.0455 33.6768 76.4491 36.2772 72.9141 36.2772C69.3791 36.2772 67.7393 33.7341 67.7393 31.0885C67.7393 28.4429 69.4347 25.7851 72.9141 25.7851C76.3935 25.7851 78.1028 28.4446 78.0733 31.0746ZM69.6084 31.118C69.6518 32.77 70.5429 34.5384 72.9141 34.5384C75.2852 34.5384 76.1764 32.7561 76.2059 31.1041C76.2337 29.4087 75.2852 27.5101 72.9141 27.5101C70.5429 27.5101 69.565 29.4209 69.6084 31.118Z" fill="#007043"/>
<path d="M94.8763 29.7075L92.6059 36.0462H90.9956L87.3025 25.9849H89.4304L91.8016 33.2425L94.2457 25.9849H95.4808L97.9961 33.2425L100.296 25.9849H102.422L98.8004 36.0462H97.1901L94.8763 29.7075Z" fill="#007043"/>
<path d="M120 36.0462H112.468V25.9866H120V27.8262H114.351V30.14H119.799V31.9084H114.351V34.1788H120V36.0479V36.0462Z" fill="#007043"/>
</g>
<defs>
<clipPath id="clip0_3122_3040">
<rect width="100" height="27.983" fill="white" transform="translate(20 16)"/>
</clipPath>
</defs>
</svg>
