<svg width="36" height="36" viewBox="0 0 36 36" fill="none" xmlns="http://www.w3.org/2000/svg">
<path d="M17.429 12.9328L18 13.6034L18.571 12.9328C19.033 12.3903 19.6043 11.8313 20.2247 11.4133C20.8502 10.9919 21.4713 10.75 22.05 10.75C24.4078 10.75 26.25 12.5922 26.25 14.95C26.25 16.3438 25.3437 17.8727 23.6862 19.6739C22.4287 21.0405 20.8397 22.4615 19.1093 24.0092C18.7454 24.3347 18.3752 24.6657 18.0005 25.0031C17.6104 24.6512 17.2251 24.3062 16.8468 23.9673C15.1332 22.4329 13.5608 21.0248 12.3136 19.6703C10.656 17.8702 9.75 16.3436 9.75 14.95C9.75 12.5922 11.5922 10.75 13.95 10.75C14.5287 10.75 15.1498 10.9919 15.7753 11.4133C16.3957 11.8313 16.967 12.3903 17.429 12.9328Z" stroke="#DDDDDD" stroke-width="1.5"/>
</svg>
