<svg width="115" height="34" viewBox="0 0 115 34" fill="none" xmlns="http://www.w3.org/2000/svg">
<path d="M0 8C0 3.58172 3.58172 0 8 0H107C111.418 0 115 3.58172 115 8V20C115 24.4183 111.418 28 107 28H8C3.58172 28 0 24.4183 0 20V8Z" fill="#FF5732"/>
<path d="M58.866 33.5C58.4811 34.1667 57.5189 34.1667 57.134 33.5L53.6699 27.5C53.285 26.8333 53.7661 26 54.5359 26H61.4641C62.2339 26 62.715 26.8333 62.3301 27.5L58.866 33.5Z" fill="#FF5732"/>
<path d="M17.02 9.796H14.56V8.896H12.964V9.796H10.504V10.984H17.02V9.796ZM12.568 13.06C12.568 12.592 13.036 12.364 13.768 12.364C14.5 12.364 14.968 12.592 14.968 13.06C14.968 13.516 14.5 13.744 13.768 13.744C13.036 13.744 12.568 13.516 12.568 13.06ZM16.48 13.06C16.48 11.944 15.412 11.248 13.768 11.248C12.136 11.248 11.056 11.944 11.056 13.06C11.056 14.164 12.136 14.86 13.768 14.86C15.412 14.86 16.48 14.164 16.48 13.06ZM13.504 18.184H19.216V15.376H11.92V16.528H17.656V17.104H11.932V19.948H19.54V18.796H13.504V18.184ZM19.216 11.32V8.968H17.632V14.944H19.216V12.616H20.68V11.32H19.216ZM30.7351 8.992H29.1391V16.924H30.7351V8.992ZM23.2591 12.496C23.2591 11.584 23.9071 11.056 24.7231 11.056C25.5511 11.056 26.1751 11.584 26.1751 12.496C26.1751 13.384 25.5511 13.924 24.7231 13.924C23.9071 13.924 23.2591 13.384 23.2591 12.496ZM27.7231 12.496C27.7231 10.864 26.4151 9.688 24.7231 9.688C23.0311 9.688 21.7111 10.864 21.7111 12.496C21.7111 14.104 23.0311 15.292 24.7231 15.292C26.4151 15.292 27.7231 14.104 27.7231 12.496ZM24.9631 18.58V16.144H23.3791V19.84H31.0111V18.58H24.9631ZM37.1781 13.948H34.1301V12.148H37.1781V13.948ZM38.1381 9.724H37.1781V11.368H34.1301V9.724H33.1581V14.74H38.1381V9.724ZM35.3301 16.804H41.1501V16.012H34.3461V19.732H41.3421V18.94H35.3301V16.804ZM41.0661 11.716V9.136H40.0821V15.424H41.0661V12.532H42.6621V11.716H41.0661ZM51.3492 11.272C51.3492 12.568 51.3492 14.08 50.9412 16.144L51.9252 16.252C52.3332 14.08 52.3332 12.604 52.3332 11.272V10.204H44.7852V11.008H51.3492V11.272ZM48.5292 17.572V13.72H47.5452V17.572H43.7652V18.376H53.4972V17.572H48.5292ZM62.3539 15.004C62.4139 14.62 62.4499 14.224 62.4499 13.768C62.4499 13.312 62.4139 12.916 62.3539 12.532H63.8179V15.004H62.3539ZM60.1459 16.612C59.2939 16.612 58.7419 15.52 58.7419 13.768C58.7419 12.028 59.2939 10.936 60.1459 10.936C61.0099 10.936 61.5499 12.028 61.5499 13.768C61.5499 15.52 61.0099 16.612 60.1459 16.612ZM63.8179 11.728H62.1499C61.7779 10.648 61.0819 10.024 60.1459 10.024C58.7539 10.024 57.8539 11.464 57.8539 13.768C57.8539 16.084 58.7539 17.524 60.1459 17.524C61.0819 17.524 61.7659 16.9 62.1499 15.82H63.8179V19.36H64.7539V9.364H63.8179V11.728ZM65.9299 9.124V19.888H66.8659V9.124H65.9299ZM69.925 12.316C69.925 11.296 70.693 10.6 71.773 10.6C72.841 10.6 73.621 11.296 73.621 12.316C73.621 13.324 72.841 14.032 71.773 14.032C70.693 14.032 69.925 13.324 69.925 12.316ZM74.581 12.316C74.581 10.804 73.393 9.772 71.773 9.772C70.141 9.772 68.965 10.804 68.965 12.316C68.965 13.816 70.141 14.86 71.773 14.86C73.393 14.86 74.581 13.816 74.581 12.316ZM70.117 16.828H76.129V19.888H77.113V16.024H70.117V16.828ZM78.673 11.584V10.768H77.113V9.136H76.129V15.52H77.113V13.876H78.673V13.072H77.113V11.584H78.673ZM82.9561 16.672C81.9841 16.672 81.2761 15.976 81.2761 15.016C81.2761 14.044 81.9841 13.348 82.9561 13.348C83.9401 13.348 84.6481 14.044 84.6481 15.016C84.6481 15.976 83.9401 16.672 82.9561 16.672ZM82.9561 12.532C81.4441 12.532 80.3521 13.564 80.3521 15.016C80.3521 16.48 81.4441 17.488 82.9561 17.488C84.4921 17.488 85.5841 16.48 85.5841 15.016C85.5841 13.564 84.4921 12.532 82.9561 12.532ZM83.4361 9.256H82.4521V10.852H79.7401V11.644H86.0881V10.852H83.4361V9.256ZM89.8561 13.552H88.0921V9.136H87.1081V19.888H88.0921V14.38H89.8561V13.552ZM91.4751 10.288V11.08H95.5191C95.3151 13.636 93.8751 15.7 90.9831 17.08L91.5111 17.884C95.0871 16.132 96.5151 13.396 96.5151 10.288H91.4751ZM98.6871 9.124V19.888H99.6711V9.124H98.6871ZM103.186 16.588H102.346L102.142 10.432H103.402L103.186 16.588ZM102.046 18.352C102.046 18.056 102.114 17.848 102.25 17.728C102.394 17.608 102.566 17.548 102.766 17.548C102.958 17.548 103.126 17.608 103.27 17.728C103.414 17.848 103.486 18.056 103.486 18.352C103.486 18.64 103.414 18.848 103.27 18.976C103.126 19.104 102.958 19.168 102.766 19.168C102.566 19.168 102.394 19.104 102.25 18.976C102.114 18.848 102.046 18.64 102.046 18.352Z" fill="white"/>
</svg>
