<svg width="68" height="68" viewBox="0 0 68 68" fill="none" xmlns="http://www.w3.org/2000/svg">
<path d="M40.4267 19.9536L44.2654 13.5558C31.9815 4.34289 23.7923 10.9967 22.5127 23.7924L21.2332 57.0612L30.1902 50.6634C29.7636 42.5594 29.4224 25.3278 31.4697 21.2332C33.517 17.1386 38.2941 18.6741 40.4267 19.9536Z" fill="#FF7E6B" fill-opacity="0.8"/>
<path d="M30.4365 40.5343C37.2255 44.0059 45.2979 38.3528 45.2979 32.6996C45.2979 25.3597 43.3597 22.1843 42.4684 20.8736M42.4684 38.9181V43.1557C42.4684 43.5926 42.4684 45.7771 43.8053 45.7771C44.8748 45.7771 47.8159 46.214 49.1528 47.0878M17.3943 58.3408L19.9534 23.7923C21.233 14.8353 25.6934 9.07727 35.7841 9.07727C46.4791 9.07727 50.0441 17.8153 50.4898 22.1843L53.2223 58.3408" stroke="#333333" stroke-width="1.5"/>
<path d="M40.4268 10.9966L36.588 18.674C32.7493 18.674 30.1902 22.5128 30.1902 26.3515C30.1902 30.4461 30.1902 44.2655 30.1902 50.6633" stroke="#333333" stroke-width="1.5"/>
<path d="M32.7495 15.7151C31.15 15.2885 26.3516 17.3945 25.8718 22.5128C25.3694 27.8711 24.0057 45.1185 24.1124 53.2225" stroke="#333333" stroke-width="1.5"/>
<path d="M14.3158 20.2807L14.5034 20.9569C14.9991 22.7428 16.2326 24.2326 17.8947 25.0526C16.2326 25.8727 14.9991 27.3625 14.5034 29.1483L14.3158 29.8246L14.1281 29.1483C13.6325 27.3625 12.3989 25.8727 10.7368 25.0526C12.3989 24.2326 13.6325 22.7428 14.1281 20.9569L14.3158 20.2807Z" fill="#FF7E6B" fill-opacity="0.8"/>
<path d="M13.7194 9.54385C14.4352 11.4783 15.9604 13.0035 17.8948 13.7193C15.9604 14.4351 14.4352 15.9603 13.7194 17.8947C13.0036 15.9603 11.4784 14.4351 9.54395 13.7193C11.4784 13.0035 13.0036 11.4783 13.7194 9.54385Z" fill="#FF7E6B" fill-opacity="0.8"/>
<path d="M11.164 22.5128C12.1791 21.7773 12.9999 20.8058 13.5555 19.6838C14.1112 20.8058 14.932 21.7773 15.947 22.5128C14.932 23.2482 14.1112 24.2197 13.5555 25.3417C12.9999 24.2197 12.1791 23.2482 11.164 22.5128Z" stroke="#333333" stroke-width="1.5"/>
<path d="M8.90517 12.2762C10.2992 11.4606 11.4606 10.2991 12.2762 8.90511C13.0918 10.2991 14.2533 11.4606 15.6473 12.2762C14.2533 13.0918 13.0918 14.2533 12.2762 15.6473C11.4606 14.2533 10.2992 13.0918 8.90517 12.2762Z" stroke="#333333" stroke-width="1.5"/>
</svg>
