<svg width="68" height="68" viewBox="0 0 68 68" fill="none" xmlns="http://www.w3.org/2000/svg">
<path d="M36.386 13.1706L22.6667 17.9426C23.7601 23.8664 28.7299 25.0182 30.0965 25.0182L34.0001 23.8596C34.0001 31.4865 45.127 32.1488 48.3159 32.2105L56.0631 34.6443C56.5186 33.4102 57.1564 28.5725 56.0631 25.0182C53.7853 17.6135 38.1755 12.5742 36.386 13.1706Z" fill="#FF7E6B" fill-opacity="0.8"/>
<path d="M26.7962 29.3832C24.6672 40.7014 27.6833 45.9467 30.7881 47.3893C37.848 50.8789 47.3517 48.6755 49.417 42.2447C50.304 40.5299 51.2798 35.5568 48.0863 29.3832C44.9815 28.9545 38.5058 27.3254 37.4412 24.2386C36.8724 22.5891 36.5315 20.1314 36.3374 17.8079M41.4331 53.0966C53.1427 55.6046 56.0701 49.4793 56.0701 46.1032C56.0701 42.2447 56.0701 36.0712 56.0701 26.8109C56.0701 15.2356 47.3517 13.3867 41.4331 11.3771C36.6983 9.76942 35.9119 11.5647 36.1106 12.6633C36.1106 13.8609 36.1683 15.7835 36.3374 17.8079M37.0421 20.3802C40.5904 20.5945 49.6831 23.4669 50.7476 26.8109M36.1358 14.2191L45.8409 17.8079M21.4736 15.2356C25.9091 13.5207 35.0461 10.3482 36.1106 11.3771M26.7962 20.3802L36.3374 17.8079" stroke="#333333" stroke-width="1.5"/>
<rect x="12.2222" y="21.9347" width="13.7156" height="6.22361" fill="#FF7E6B" fill-opacity="0.8"/>
<path d="M11.9299 34V22.0702H25.6492V34M11.9299 34V34.5965L16.1054 41.1579V51.8948H21.4738V41.1579L25.6492 34.5965V34M11.9299 34H25.6492" stroke="#333333" stroke-width="1.5"/>
<path d="M12.3062 34.0505L25.6627 34.0505" stroke="#333333" stroke-width="1.5"/>
<path d="M15.5088 40.5614L21.4737 40.5614" stroke="#333333" stroke-width="1.5"/>
</svg>
