<svg width="68" height="68" viewBox="0 0 68 68" fill="none" xmlns="http://www.w3.org/2000/svg">
<rect width="68" height="68" fill="white"/>
<path d="M22.9681 22.303C22.9681 11.2304 28.473 8.46222 35.3543 7.07814C40.8593 5.69406 46.3643 11.2304 47.7405 13.9985C47.7405 13.9985 46.3643 15.3826 43.6118 13.9985C41.1499 12.7606 39.483 13.9985 39.483 16.7667C39.483 19.5348 36.7305 18.1508 35.3543 18.1508C33.978 18.1508 33.1076 20.5523 33.978 22.303C35.3543 25.0712 33.978 26.4552 32.6018 27.8393C31.5008 28.9466 32.143 31.0688 32.6018 31.9916C33.5193 33.837 34.8038 37.8047 32.6018 38.912C30.3998 40.0192 31.6843 43.0642 32.6018 44.4483C33.5193 46.2937 34.8038 50.2614 32.6018 51.3687C30.3998 52.4759 32.143 55.5209 32.6018 56.905H20.2156C20.2156 56.905 25.9444 52.2065 22.6668 47.1228C21.2905 45.2774 19.3898 42.5106 21.5918 40.296C25.0527 36.8154 23.8598 34.5965 22.9681 33.3756C18.8393 26.4552 22.9681 27.8393 22.9681 22.303Z" fill="#FF7E6B" fill-opacity="0.8"/>
<path d="M26.6121 22.3828C26.6121 27.9191 22.4834 26.535 26.6121 33.4554C28.0351 35.8405 26.8866 37.7248 25.2359 40.3758C23.2631 43.5438 25.4658 45.8738 26.8421 47.7193C31.0175 53.0877 23.8596 56.9847 23.8596 56.9847" stroke="#333333" stroke-width="1.5"/>
<path d="M32.6016 57.2632C32.1429 55.8791 30.8215 53.0734 32.6016 51.3687C35.7894 48.3158 33.5191 46.2937 32.6016 44.4483C31.6841 43.0642 30.3996 40.0192 32.6016 38.9119C34.8036 37.8047 33.5191 33.837 32.6016 31.9916C32.1428 31.0688 31.5006 28.9466 32.6016 27.8393C33.9778 26.4552 35.3541 25.0712 33.9778 22.303C33.1074 20.5523 33.9778 18.1508 35.3541 18.1508C36.7303 18.1508 39.4828 19.5348 39.4828 16.7667C39.4828 13.9985 41.1496 12.7606 43.6115 13.9985" stroke="#333333" stroke-width="1.5"/>
<path d="M15.5128 56.3147C15.0475 55.4024 15.0855 51.4737 17.3189 49.284C19.5523 47.0944 18.2495 45.422 17.3189 44.5096C15.9231 43.1411 13.3709 40.1169 17.3189 36.2461C18.7147 34.8776 19.3167 32.8926 17.9209 31.5241C16.9691 30.5908 13.4542 27.6399 17.9209 23.2605C20.7126 20.5235 19.7271 20.8995 20.3291 17.358C20.8308 14.4067 24.5434 6.85965 35.0792 6.85965C46.2461 6.85965 49.9684 15.9832 50.4337 20.5449C50.4337 21.9135 50.4337 25.0313 52.2372 26.8021C54.4427 28.9674 55.2474 32.1143 52.8393 35.0656C50.8895 37.4552 50.6496 39.4115 53.4413 42.1486C56.233 44.8857 54.2351 47.0849 52.8393 49.8219C51.4434 52.559 53.8516 55.5364 55.2474 56.905M31.0178 39.9649C38.1757 42.1486 45.0127 37.4266 45.0127 31.5241C45.0127 23.8603 42.989 20.5449 42.0584 19.1764M42.0584 38.0169V42.4414C42.0584 42.8976 42.0584 45.1784 43.4543 45.1784C44.571 45.1784 47.6419 45.6346 49.0377 46.547" stroke="#333333" stroke-width="1.5"/>
</svg>
