<svg width="26" height="16" viewBox="0 0 26 16" fill="none" xmlns="http://www.w3.org/2000/svg">
<mask id="path-1-inside-1_1370_5270" fill="white">
<path fill-rule="evenodd" clip-rule="evenodd" d="M17.279 0H0V16H17.1315C17.4192 15.2485 18.1473 14.7148 19 14.7148C19.8527 14.7148 20.5808 15.2485 20.8685 16H26V0H20.721C20.3725 0.587014 19.7322 0.980469 19 0.980469C18.2678 0.980469 17.6275 0.587014 17.279 0Z"/>
</mask>
<path fill-rule="evenodd" clip-rule="evenodd" d="M17.279 0H0V16H17.1315C17.4192 15.2485 18.1473 14.7148 19 14.7148C19.8527 14.7148 20.5808 15.2485 20.8685 16H26V0H20.721C20.3725 0.587014 19.7322 0.980469 19 0.980469C18.2678 0.980469 17.6275 0.587014 17.279 0Z" fill="white"/>
<path d="M17.279 0L18.5688 -0.765749L18.1329 -1.5H17.279V0ZM0 0V-1.5H-1.5V0H0ZM0 16H-1.5V17.5H0V16ZM17.1315 16V17.5H18.1635L18.5324 16.5363L17.1315 16ZM20.8685 16L19.4676 16.5363L19.8365 17.5H20.8685V16ZM26 16V17.5H27.5V16H26ZM26 0H27.5V-1.5H26V0ZM20.721 0V-1.5H19.8671L19.4312 -0.765749L20.721 0ZM17.279 -1.5H0V1.5H17.279V-1.5ZM-1.5 0V16H1.5V0H-1.5ZM0 17.5H17.1315V14.5H0V17.5ZM18.5324 16.5363C18.6053 16.3459 18.7892 16.2148 19 16.2148V13.2148C17.5054 13.2148 16.2332 14.151 15.7307 15.4637L18.5324 16.5363ZM19 16.2148C19.2108 16.2148 19.3947 16.3459 19.4676 16.5363L22.2693 15.4637C21.7668 14.151 20.4946 13.2148 19 13.2148V16.2148ZM20.8685 17.5H26V14.5H20.8685V17.5ZM27.5 16V0H24.5V16H27.5ZM26 -1.5H20.721V1.5H26V-1.5ZM19.4312 -0.765749C19.3417 -0.615075 19.1812 -0.519531 19 -0.519531V2.48047C20.2832 2.48047 21.4033 1.7891 22.0108 0.765749L19.4312 -0.765749ZM19 -0.519531C18.8188 -0.519531 18.6583 -0.615075 18.5688 -0.765749L15.9892 0.765749C16.5967 1.7891 17.7168 2.48047 19 2.48047V-0.519531Z" fill="#333333" mask="url(#path-1-inside-1_1370_5270)"/>
<path d="M6.818 8.12C6.326 8.12 5.924 7.964 5.612 7.652C5.3 7.34 5.144 6.911 5.144 6.365C5.144 5.999 5.216 5.684 5.36 5.42C5.504 5.156 5.702 4.955 5.954 4.817C6.212 4.679 6.5 4.61 6.818 4.61C7.136 4.61 7.421 4.679 7.673 4.817C7.931 4.955 8.132 5.156 8.276 5.42C8.42 5.684 8.492 5.999 8.492 6.365C8.492 6.911 8.336 7.34 8.024 7.652C7.712 7.964 7.31 8.12 6.818 8.12ZM10.517 4.7H12.038L7.736 11H6.215L10.517 4.7ZM6.818 7.148C6.932 7.148 7.025 7.088 7.097 6.968C7.175 6.842 7.214 6.641 7.214 6.365C7.214 6.089 7.175 5.891 7.097 5.771C7.025 5.645 6.932 5.582 6.818 5.582C6.704 5.582 6.608 5.645 6.53 5.771C6.458 5.891 6.422 6.089 6.422 6.365C6.422 6.641 6.458 6.842 6.53 6.968C6.608 7.088 6.704 7.148 6.818 7.148ZM11.435 11.09C10.943 11.09 10.541 10.934 10.229 10.622C9.917 10.31 9.761 9.881 9.761 9.335C9.761 8.969 9.833 8.654 9.977 8.39C10.121 8.126 10.319 7.925 10.571 7.787C10.829 7.649 11.117 7.58 11.435 7.58C11.753 7.58 12.038 7.649 12.29 7.787C12.548 7.925 12.749 8.126 12.893 8.39C13.037 8.654 13.109 8.969 13.109 9.335C13.109 9.881 12.953 10.31 12.641 10.622C12.329 10.934 11.927 11.09 11.435 11.09ZM11.435 10.118C11.549 10.118 11.642 10.058 11.714 9.938C11.792 9.812 11.831 9.611 11.831 9.335C11.831 9.059 11.792 8.861 11.714 8.741C11.642 8.615 11.549 8.552 11.435 8.552C11.321 8.552 11.225 8.615 11.147 8.741C11.075 8.861 11.039 9.059 11.039 9.335C11.039 9.611 11.075 9.812 11.147 9.938C11.225 10.058 11.321 10.118 11.435 10.118Z" fill="#333333"/>
<path d="M19 3V13" stroke="#333333" stroke-width="2" stroke-dasharray="1 1"/>
</svg>
