<svg width="20" height="20" viewBox="0 0 20 20" fill="none" xmlns="http://www.w3.org/2000/svg">
<circle cx="10" cy="10" r="8" fill="#FF3D12"/>
<path d="M10.349 7.2C10.907 7.2 11.39 7.293 11.798 7.479C12.212 7.665 12.53 7.929 12.752 8.271C12.974 8.613 13.085 9.018 13.085 9.486C13.085 9.948 12.974 10.353 12.752 10.701C12.53 11.043 12.212 11.307 11.798 11.493C11.39 11.673 10.907 11.763 10.349 11.763H9.08V13.5H7.622V7.2H10.349ZM10.268 10.575C10.706 10.575 11.039 10.482 11.267 10.296C11.495 10.104 11.609 9.834 11.609 9.486C11.609 9.132 11.495 8.862 11.267 8.676C11.039 8.484 10.706 8.388 10.268 8.388H9.08V10.575H10.268Z" fill="white"/>
</svg>
