<svg width="40" height="40" viewBox="0 0 40 40" fill="none" xmlns="http://www.w3.org/2000/svg">
<path fill-rule="evenodd" clip-rule="evenodd" d="M26.2268 19.1096C26.2268 23.0403 23.0403 26.2268 19.1096 26.2268C15.1788 26.2268 11.9923 23.0403 11.9923 19.1096C11.9923 15.1788 15.1788 11.9923 19.1096 11.9923C23.0403 11.9923 26.2268 15.1788 26.2268 19.1096ZM24.8106 26.2249C23.2493 27.4775 21.267 28.2268 19.1096 28.2268C14.0742 28.2268 9.99231 24.1449 9.99231 19.1096C9.99231 14.0742 14.0742 9.99231 19.1096 9.99231C24.1449 9.99231 28.2268 14.0742 28.2268 19.1096C28.2268 21.267 27.4775 23.2493 26.2249 24.8107L30.0077 28.5935L28.5935 30.0077L24.8106 26.2249Z" fill="#333333"/>
</svg>
