<svg width="40" height="40" viewBox="0 0 40 40" fill="none" xmlns="http://www.w3.org/2000/svg">
<path fill-rule="evenodd" clip-rule="evenodd" d="M25.4444 14.6667C26.1808 14.6667 26.7778 14.0697 26.7778 13.3333C26.7778 12.597 26.1808 12 25.4444 12C24.708 12 24.1111 12.597 24.1111 13.3333C24.1111 14.0697 24.708 14.6667 25.4444 14.6667ZM25.4444 16.6667C27.2854 16.6667 28.7778 15.1743 28.7778 13.3333C28.7778 11.4924 27.2854 10 25.4444 10C23.6035 10 22.1111 11.4924 22.1111 13.3333C22.1111 13.6411 22.1528 13.9392 22.2309 14.2221L16.6834 17.636C16.0807 17.0369 15.2503 16.6667 14.3333 16.6667C12.4924 16.6667 11 18.159 11 20C11 21.8409 12.4924 23.3333 14.3333 23.3333C15.2503 23.3333 16.0807 22.9631 16.6834 22.364L22.2309 25.7779C22.1528 26.0608 22.1111 26.3589 22.1111 26.6667C22.1111 28.5076 23.6035 30 25.4444 30C27.2854 30 28.7778 28.5076 28.7778 26.6667C28.7778 24.8257 27.2854 23.3333 25.4444 23.3333C24.6365 23.3333 23.8957 23.6208 23.3188 24.0989L17.6148 20.5888C17.6489 20.3977 17.6667 20.2009 17.6667 20C17.6667 19.7991 17.6489 19.6023 17.6148 19.4112L23.3188 15.9011C23.8957 16.3792 24.6365 16.6667 25.4444 16.6667ZM15.6667 20C15.6667 20.7364 15.0697 21.3333 14.3333 21.3333C13.597 21.3333 13 20.7364 13 20C13 19.2636 13.597 18.6667 14.3333 18.6667C15.0697 18.6667 15.6667 19.2636 15.6667 20ZM26.7778 26.6667C26.7778 27.4031 26.1808 28 25.4444 28C24.708 28 24.1111 27.4031 24.1111 26.6667C24.1111 25.9303 24.708 25.3333 25.4444 25.3333C26.1808 25.3333 26.7778 25.9303 26.7778 26.6667Z" fill="#333333"/>
</svg>
