<svg width="12" height="12" viewBox="0 0 12 12" fill="none" xmlns="http://www.w3.org/2000/svg">
<path d="M5.576 4.696H6.824V9H5.576V4.696ZM6.2 4.096C5.97067 4.096 5.784 4.02933 5.64 3.896C5.496 3.76267 5.424 3.59733 5.424 3.4C5.424 3.20267 5.496 3.03733 5.64 2.904C5.784 2.77067 5.97067 2.704 6.2 2.704C6.42933 2.704 6.616 2.768 6.76 2.896C6.904 3.024 6.976 3.184 6.976 3.376C6.976 3.584 6.904 3.75733 6.76 3.896C6.616 4.02933 6.42933 4.096 6.2 4.096Z" fill="#9C9C9C"/>
<circle cx="6" cy="6" r="5.5" stroke="#9C9C9C"/>
</svg>
