<svg width="40" height="40" viewBox="0 0 40 40" fill="none" xmlns="http://www.w3.org/2000/svg">
<mask id="path-1-inside-1_1929_2216" fill="white">
<path fill-rule="evenodd" clip-rule="evenodd" d="M30 12.75C30 14.8211 28.3211 16.5 26.25 16.5C25.1556 16.5 24.1708 16.0312 23.4852 15.2835L17.2874 19.0022C17.4251 19.3926 17.5 19.8125 17.5 20.25C17.5 20.6875 17.4251 21.1074 17.2874 21.4978L23.4852 25.2165C24.1708 24.4688 25.1556 24 26.25 24C28.3211 24 30 25.6789 30 27.75C30 29.8211 28.3211 31.5 26.25 31.5C24.1789 31.5 22.5 29.8211 22.5 27.75C22.5 27.3125 22.5749 26.8926 22.7126 26.5022L16.5148 22.7835C15.8292 23.5312 14.8444 24 13.75 24C11.6789 24 10 22.3211 10 20.25C10 18.1789 11.6789 16.5 13.75 16.5C14.8444 16.5 15.8292 16.9688 16.5148 17.7165L22.7126 13.9978C22.5749 13.6074 22.5 13.1875 22.5 12.75C22.5 10.6789 24.1789 9 26.25 9C28.3211 9 30 10.6789 30 12.75Z"/>
</mask>
<path fill-rule="evenodd" clip-rule="evenodd" d="M30 12.75C30 14.8211 28.3211 16.5 26.25 16.5C25.1556 16.5 24.1708 16.0312 23.4852 15.2835L17.2874 19.0022C17.4251 19.3926 17.5 19.8125 17.5 20.25C17.5 20.6875 17.4251 21.1074 17.2874 21.4978L23.4852 25.2165C24.1708 24.4688 25.1556 24 26.25 24C28.3211 24 30 25.6789 30 27.75C30 29.8211 28.3211 31.5 26.25 31.5C24.1789 31.5 22.5 29.8211 22.5 27.75C22.5 27.3125 22.5749 26.8926 22.7126 26.5022L16.5148 22.7835C15.8292 23.5312 14.8444 24 13.75 24C11.6789 24 10 22.3211 10 20.25C10 18.1789 11.6789 16.5 13.75 16.5C14.8444 16.5 15.8292 16.9688 16.5148 17.7165L22.7126 13.9978C22.5749 13.6074 22.5 13.1875 22.5 12.75C22.5 10.6789 24.1789 9 26.25 9C28.3211 9 30 10.6789 30 12.75Z" fill="white"/>
<path d="M23.4852 15.2835L24.5909 14.2698L23.7634 13.3673L22.7135 13.9973L23.4852 15.2835ZM17.2874 19.0022L16.5157 17.716L15.4654 18.3461L15.8728 19.5012L17.2874 19.0022ZM17.2874 21.4978L15.8728 20.9988L15.4654 22.1539L16.5157 22.784L17.2874 21.4978ZM23.4852 25.2165L22.7135 26.5027L23.7634 27.1327L24.5909 26.2302L23.4852 25.2165ZM22.7126 26.5022L24.1272 27.0012L24.5346 25.8461L23.4843 25.216L22.7126 26.5022ZM16.5148 22.7835L17.2865 21.4973L16.2366 20.8673L15.4091 21.7698L16.5148 22.7835ZM16.5148 17.7165L15.4091 18.7302L16.2366 19.6327L17.2865 19.0027L16.5148 17.7165ZM22.7126 13.9978L23.4843 15.284L24.5346 14.6539L24.1272 13.4988L22.7126 13.9978ZM26.25 18C29.1495 18 31.5 15.6495 31.5 12.75H28.5C28.5 13.9926 27.4926 15 26.25 15V18ZM22.3796 16.2972C23.3373 17.3418 24.7179 18 26.25 18V15C25.5934 15 25.0042 14.7207 24.5909 14.2698L22.3796 16.2972ZM18.0591 20.2884L24.257 16.5697L22.7135 13.9973L16.5157 17.716L18.0591 20.2884ZM19 20.25C19 19.6402 18.8954 19.0516 18.702 18.5032L15.8728 19.5012C15.9548 19.7335 16 19.9848 16 20.25H19ZM18.702 21.9968C18.8954 21.4484 19 20.8598 19 20.25H16C16 20.5152 15.9548 20.7665 15.8728 20.9988L18.702 21.9968ZM24.257 23.9303L18.0591 20.2116L16.5157 22.784L22.7135 26.5027L24.257 23.9303ZM24.5909 26.2302C25.0042 25.7793 25.5934 25.5 26.25 25.5V22.5C24.7179 22.5 23.3373 23.1582 22.3796 24.2028L24.5909 26.2302ZM26.25 25.5C27.4926 25.5 28.5 26.5074 28.5 27.75H31.5C31.5 24.8505 29.1495 22.5 26.25 22.5V25.5ZM28.5 27.75C28.5 28.9926 27.4926 30 26.25 30V33C29.1495 33 31.5 30.6495 31.5 27.75H28.5ZM26.25 30C25.0074 30 24 28.9926 24 27.75H21C21 30.6495 23.3505 33 26.25 33V30ZM24 27.75C24 27.4848 24.0452 27.2335 24.1272 27.0012L21.298 26.0032C21.1046 26.5516 21 27.1402 21 27.75H24ZM15.743 24.0697L21.9409 27.7884L23.4843 25.216L17.2865 21.4973L15.743 24.0697ZM13.75 25.5C15.2821 25.5 16.6627 24.8418 17.6204 23.7972L15.4091 21.7698C14.9958 22.2207 14.4066 22.5 13.75 22.5V25.5ZM8.5 20.25C8.5 23.1495 10.8505 25.5 13.75 25.5V22.5C12.5074 22.5 11.5 21.4926 11.5 20.25H8.5ZM13.75 15C10.8505 15 8.5 17.3505 8.5 20.25H11.5C11.5 19.0074 12.5074 18 13.75 18V15ZM17.6204 16.7028C16.6627 15.6582 15.2821 15 13.75 15V18C14.4066 18 14.9958 18.2793 15.4091 18.7302L17.6204 16.7028ZM21.9409 12.7116L15.743 16.4303L17.2865 19.0027L23.4843 15.284L21.9409 12.7116ZM21 12.75C21 13.3598 21.1046 13.9484 21.298 14.4968L24.1272 13.4988C24.0452 13.2665 24 13.0152 24 12.75H21ZM26.25 7.5C23.3505 7.5 21 9.85051 21 12.75H24C24 11.5074 25.0074 10.5 26.25 10.5V7.5ZM31.5 12.75C31.5 9.85051 29.1495 7.5 26.25 7.5V10.5C27.4926 10.5 28.5 11.5074 28.5 12.75H31.5Z" fill="#333333" mask="url(#path-1-inside-1_1929_2216)"/>
</svg>
