<svg width="24" height="24" viewBox="0 0 24 24" fill="none" xmlns="http://www.w3.org/2000/svg">
<path fill-rule="evenodd" clip-rule="evenodd" d="M7.81061 17.752C6.59409 16.9272 5.69705 15.7 5.27234 14.2794C4.84763 12.8588 4.92152 11.3327 5.48142 9.96114C6.04132 8.58961 7.05259 7.45749 8.34292 6.75769C9.63324 6.05788 11.1228 5.83369 12.5578 6.1233C13.9928 6.41292 15.2844 7.19843 16.2125 8.346C16.8956 9.19048 17.3507 10.1926 17.5435 11.2546L18.4896 10.2946L19.5425 11.3629L17.3568 13.5806L16.8304 14.1148L16.3039 13.5806L14.1183 11.3629L15.1712 10.2946L15.9879 11.1233C15.8098 10.4623 15.496 9.84167 15.0615 9.30448C14.3519 8.42713 13.3644 7.82657 12.2673 7.60515C11.1702 7.38372 10.0314 7.55513 9.04485 8.09016C8.05834 8.62519 7.28518 9.49074 6.85712 10.5393C6.42905 11.5879 6.37256 12.7547 6.69727 13.8408C7.02198 14.9269 7.7078 15.8652 8.63787 16.4957C9.56795 17.1263 10.6847 17.4102 11.7979 17.2989C12.9111 17.1877 13.9519 16.6882 14.7429 15.8856L15.7958 16.954C14.7612 18.0037 13.3999 18.657 11.9439 18.8025C10.4878 18.948 9.02712 18.5768 7.81061 17.752Z" fill="#333333"/>
</svg>
