<svg width="160" height="60" viewBox="0 0 160 60" fill="none" xmlns="http://www.w3.org/2000/svg">
<rect width="160" height="60" fill="white"/>
<g clip-path="url(#clip0_3099_2463)">
<path d="M33.4306 19.9228L27.6877 14.1362C26.1723 12.6207 23.7063 12.6207 22.1908 14.1362C20.6754 15.6516 20.6754 18.1176 22.1908 19.6331C22.9246 20.3668 23.9002 20.7712 24.9382 20.7712C25.9763 20.7712 26.9519 20.3668 27.6877 19.6331L29.1803 18.1405L32.1861 21.1839L20 33.5202V46.5798H46.8612V33.5202L36.203 22.7328L34.9502 23.9856L45.0894 34.2498V34.7626H31.8193V24.0752L37.681 18.1405L39.1735 19.6331C39.9072 20.3668 40.8828 20.7712 41.923 20.7712C42.9632 20.7712 43.9366 20.3668 44.6725 19.6331C45.746 18.5595 46.0545 17.0086 45.6063 15.6558C46.3568 15.2264 46.8633 14.4197 46.8633 13.4941H45.0935C45.0935 13.7818 44.9226 14.0278 44.6808 14.1445C44.6787 14.1424 44.6766 14.1382 44.6725 14.1362C43.157 12.6207 40.691 12.6207 39.1756 14.1362L33.4327 19.9228H33.4306ZM40.4263 15.389C41.2518 14.5635 42.5942 14.5635 43.4197 15.389C44.2451 16.2144 44.2451 17.5569 43.4197 18.3823C43.0194 18.7826 42.4879 19.0014 41.923 19.0014C41.3581 19.0014 40.8265 18.7805 40.4263 18.3823L38.9296 16.8857L40.4263 15.389ZM26.437 18.3823C26.0368 18.7826 25.5052 19.0014 24.9403 19.0014C24.3754 19.0014 23.8439 18.7805 23.4436 18.3823C22.6182 17.5569 22.6182 16.2144 23.4436 15.389C23.8564 14.9762 24.3984 14.7699 24.9403 14.7699C25.4823 14.7699 26.0243 14.9762 26.437 15.389L27.9337 16.8857L26.437 18.3823ZM21.7698 34.2477L30.0495 25.8658V35.2774L21.7698 43.5572V34.2477ZM45.0915 44.81H23.0226L31.3002 36.5323H45.0915V44.81Z" fill="#007043"/>
<path d="M59.6769 24.9839V34.9522H65.8867V37.0554H57.4006V24.9839H59.6769Z" fill="#007043"/>
<path d="M89.6878 31.0895C89.6545 34.2122 87.7388 37.3327 83.4968 37.3327C79.2548 37.3327 77.287 34.281 77.287 31.1062C77.287 27.9315 79.3215 24.7422 83.4968 24.7422C87.6721 24.7422 89.7233 27.9336 89.6878 31.0895ZM79.5299 31.1417C79.582 33.124 80.6514 35.2461 83.4968 35.2461C86.3422 35.2461 87.4115 33.1074 87.447 31.125C87.4803 29.0905 86.3422 26.8121 83.4968 26.8121C80.6514 26.8121 79.4778 29.1051 79.5299 31.1417Z" fill="#007043"/>
<path d="M109.851 29.449L107.127 37.0555H105.195L100.763 24.9819H103.316L106.162 33.691L109.095 24.9819H110.577L113.595 33.691L116.355 24.9819H118.907L114.56 37.0555H112.628L109.851 29.449Z" fill="#007043"/>
<path d="M140 37.0554H130.961V24.9839H140V27.1915H133.221V29.9681H139.758V32.0901H133.221V34.8146H140V37.0575V37.0554Z" fill="#007043"/>
</g>
<defs>
<clipPath id="clip0_3099_2463">
<rect width="120" height="33.5797" fill="white" transform="translate(20 13)"/>
</clipPath>
</defs>
</svg>
