<svg width="28" height="28" viewBox="0 0 28 28" fill="none" xmlns="http://www.w3.org/2000/svg">
<path fill-rule="evenodd" clip-rule="evenodd" d="M6.58579 3.41421C7.36683 2.63317 8.63316 2.63316 9.41421 3.41421L13.1518 7.15178C13.9328 7.93283 13.9328 9.19916 13.1518 9.9802L11.6113 11.5207L16.8641 16.7735L18.4046 15.233C19.1856 14.4519 20.4519 14.4519 21.233 15.233L24.9706 18.9706C25.7516 19.7516 25.7516 21.0179 24.9706 21.799L23.6321 23.1374C22.07 24.6995 19.5374 24.6995 17.9753 23.1374L14.2377 19.3999L8.9849 14.1471L5.24733 10.4095C3.68524 8.84742 3.68524 6.31476 5.24733 4.75267L6.58579 3.41421Z" fill="#333333"/>
</svg>
