<svg width="28" height="28" viewBox="0 0 28 28" fill="none" xmlns="http://www.w3.org/2000/svg">
<path d="M22.5 11.716C22.5 12.9343 21.9833 14.4102 21.152 15.9773C20.3268 17.5331 19.2205 19.1258 18.1049 20.5637C16.9907 22 15.8753 23.2716 15.0378 24.1847C14.6193 24.641 14.2708 25.0071 14.0274 25.2586C14.0181 25.2682 14.009 25.2777 14 25.2869C13.991 25.2777 13.9819 25.2682 13.9726 25.2586C13.7292 25.0071 13.3807 24.641 12.9622 24.1847C12.1247 23.2716 11.0093 22 9.89506 20.5637C8.77948 19.1258 7.67319 17.5331 6.84796 15.9773C6.01667 14.4102 5.5 12.9343 5.5 11.716C5.5 6.5894 9.34093 2.5 14 2.5C18.6591 2.5 22.5 6.5894 22.5 11.716Z" fill="#333333" stroke="#333333"/>
<circle cx="14" cy="11" r="3" fill="white"/>
</svg>
